<svg viewBox="0 0 24 24" id="Layer_1" data-name="Layer 1" xmlns="http://www.w3.org/2000/svg" fill="#1f1f1f" stroke="#1f1f1f"><g id="SVGRepo_bgCarrier" stroke-width="0"></g><g id="SVGRepo_tracerCarrier" stroke-linecap="round" stroke-linejoin="round"></g><g id="SVGRepo_iconCarrier"><defs><style>.cls-1{fill:none;stroke:#2c2a2a;stroke-miterlimit:10;stroke-width:1.91px;}</style></defs><path class="cls-1" d="M12,7.23h0a6.68,6.68,0,0,1,6.68,6.68v4.77a0,0,0,0,1,0,0H5.32a0,0,0,0,1,0,0V13.91A6.68,6.68,0,0,1,12,7.23Z"></path><path class="cls-1" d="M13.91,5.32a1.91,1.91,0,1,1-3.82,0,1.91,1.91,0,1,1,3.82,0Z"></path><path class="cls-1" d="M10.09,5.32a1.94,1.94,0,0,0,.32,1.06L6.83,8.76A2.19,2.19,0,0,1,3.41,6.94V3.7A2.19,2.19,0,0,1,5.6,1.5a2.17,2.17,0,0,1,1.23.37l3.58,2.39A1.92,1.92,0,0,0,10.09,5.32Z"></path><path class="cls-1" d="M20.59,3.7V6.94a2.19,2.19,0,0,1-3.42,1.82L13.59,6.38a1.94,1.94,0,0,0,.32-1.06,1.92,1.92,0,0,0-.32-1.06l3.58-2.39A2.17,2.17,0,0,1,18.4,1.5,2.19,2.19,0,0,1,20.59,3.7Z"></path><path class="cls-1" d="M14.69,18.68a2.55,2.55,0,0,1,.17,1,2.86,2.86,0,0,1-5.72,0,2.55,2.55,0,0,1,.17-1"></path><line class="cls-1" x1="20.59" y1="18.68" x2="3.41" y2="18.68"></line></g></svg>