<!DOCTYPE svg PUBLIC "-//W3C//DTD SVG 1.1//EN" "http://www.w3.org/Graphics/SVG/1.1/DTD/svg11.dtd">

<!-- Uploaded to: SVG Repo, www.svgrepo.com, Transformed by: SVG Repo Mixer Tools -->
<svg fill="#000000" height="208px" width="208px" version="1.1" id="Layer_1" xmlns="http://www.w3.org/2000/svg" xmlns:xlink="http://www.w3.org/1999/xlink" viewBox="-15.36 -15.36 542.72 542.72" xml:space="preserve" stroke="#000000" stroke-width="5.1199900000000005">

<g id="SVGRepo_bgCarrier" stroke-width="0"/>

<g id="SVGRepo_tracerCarrier" stroke-linecap="round" stroke-linejoin="round"/>

<g id="SVGRepo_iconCarrier"> <g> <g> <path d="M448.023,63.977c-39.574-39.575-102.7-78.638-150.364-58.51c-30.953,13.076-54.925,64.628-71.295,153.226 c-16.945,3.524-35.487,20.939-41.109,26.56c-5.622,5.621-23.044,24.16-26.572,41.102c-88.603,16.371-140.139,40.35-153.214,71.303 c-20.133,47.663,18.935,110.789,58.509,150.363c32.156,32.155,79.857,63.978,122.183,63.976 c9.764-0.001,19.245-1.695,28.178-5.468c30.956-13.077,54.933-64.612,71.302-153.215c16.943-3.527,35.482-20.95,41.104-26.571 c6.094-6.096,26.066-27.378,27.152-45.347c0.757-12.523-3.832-26.365-11.152-39.765l42.528-11.394 c4.575-1.225,7.289-5.929,6.064-10.503c-1.225-4.575-5.927-7.296-10.503-6.064l-47.627,12.76 c-4.925-6.969-10.36-13.605-15.889-19.623l37.727-37.727c3.349-3.35,3.349-8.779,0-12.128c-3.35-3.348-8.779-3.348-12.128,0 l-37.727,37.727c-6.018-5.527-12.654-10.962-19.623-15.887l12.762-47.63c1.226-4.575-1.489-9.278-6.064-10.503 c-4.578-1.23-9.277,1.489-10.503,6.064l-11.396,42.533c-8.853-4.837-17.899-8.477-26.628-10.175 c14.839-78.719,36.252-127.531,60.598-137.816c37.263-15.744,92.925,16.201,131.563,54.838 c38.636,38.636,70.576,94.299,54.836,131.559c-6.729,15.931-33.384,38.836-122.153,57.489c-4.635,0.974-7.603,5.52-6.63,10.156 c0.85,4.041,4.412,6.815,8.383,6.815c0.584,0,1.178-0.061,1.772-0.185c78.18-16.427,122.151-38.54,134.427-67.6 C526.664,166.676,487.595,103.552,448.023,63.977z M299.254,212.744c23.837,23.835,38.564,50.378,37.522,67.619 c-0.457,7.579-9.57,21.663-22.159,34.253c-12.515,12.514-26.509,21.593-34.118,22.15l-2.337,0.054 c-4.083,0.094-7.534,3.056-8.246,7.078c-14.878,84.014-36.986,136.159-62.251,146.832c-37.258,15.741-92.923-16.2-131.56-54.837 c-38.636-38.635-70.576-94.299-54.837-131.559C31.55,279.99,80.34,258.576,159.05,243.737c1.775,9.246,5.658,18.399,10.158,26.64 l-42.482,11.383c-4.575,1.225-7.289,5.929-6.065,10.503c1.027,3.832,4.491,6.359,8.278,6.359c0.735,0,1.482-0.095,2.225-0.295 l47.573-12.747c2.07,2.928,4.071,5.581,5.866,7.851c3.171,4.009,6.551,7.941,10.079,11.758l-37.727,37.727 c-3.349,3.35-3.349,8.779,0,12.128c1.674,1.674,3.869,2.511,6.064,2.511s4.39-0.837,6.064-2.511l37.745-37.745 c6.345,5.846,12.951,11.225,19.596,15.94l-12.753,47.595c-1.226,4.575,1.49,9.278,6.065,10.503c0.743,0.2,1.49,0.295,2.225,0.295 c3.786,0,7.252-2.527,8.278-6.359l11.382-42.477c0.501,0.273,1.005,0.564,1.504,0.828c4.188,2.211,9.376,0.609,11.589-3.578 c2.213-4.188,0.611-9.376-3.578-11.589c-38.182-20.166-75.477-66.96-75.961-94.555c0.006-0.209,0.005-0.418-0.005-0.63 c0.001-0.553,0.018-1.1,0.05-1.637c0.457-7.579,9.57-21.663,22.161-34.253c12.589-12.589,26.675-21.701,34.253-22.159 C248.868,174.173,275.418,188.909,299.254,212.744z"/> </g> </g> </g>

</svg>