<!DOCTYPE svg PUBLIC "-//W3C//DTD SVG 1.1//EN" "http://www.w3.org/Graphics/SVG/1.1/DTD/svg11.dtd">
<!-- Uploaded to: SVG Repo, www.svgrepo.com, Transformed by: SVG Repo Mixer Tools -->
<svg height="800px" width="800px" version="1.1" id="Layer_1" xmlns="http://www.w3.org/2000/svg" xmlns:xlink="http://www.w3.org/1999/xlink" viewBox="0 0 512 512" xml:space="preserve" fill="#000000">
<g id="SVGRepo_bgCarrier" stroke-width="0"/>
<g id="SVGRepo_tracerCarrier" stroke-linecap="round" stroke-linejoin="round"/>
<g id="SVGRepo_iconCarrier"> <path style="fill:#891515;" d="M302.572,4.88c-36.082,15.241-57.429,89.227-69.714,158.597l115.659,115.667 c69.372-12.285,143.361-33.633,158.603-69.716C541.662,127.655,384.345-29.662,302.572,4.88z"/> <path style="fill:#d02547;" d="M302.572,4.88c-36.082,15.241-57.429,89.227-69.714,158.597l68.325,68.33 c69.371-12.285,143.358-33.633,158.6-69.715c14.235-33.7-4.117-80.23-36.337-120.874C382.802,8.998,336.272-9.355,302.572,4.88z"/> <path style="fill:#891515;" d="M163.475,232.858C94.105,245.143,20.122,266.491,4.88,302.572 c-34.543,81.773,122.775,239.09,204.547,204.547c36.082-15.242,57.429-89.227,69.715-158.598L163.475,232.858z"/> <path style="fill:#d02547;" d="M181.103,320.696c-12.905-13.709-41.285-47.61-44.011-82.736 C76.35,250.773,18.196,271.048,4.88,302.572c-22.232,52.63,35.011,136.548,100.438,180.473c20.542,6.527,40.208,7.403,56.773,0.406 c16.067-6.787,29.211-25.222,39.937-49.709c16.646-38.009,8.335-82.275-20.26-112.343 C181.537,321.155,181.315,320.921,181.103,320.696z"/> <g> <path style="fill:#891515;" d="M124.497,300.113c-3.919,0-7.505-2.615-8.568-6.581c-1.269-4.735,1.542-9.601,6.277-10.871 l52.477-14.061c4.734-1.267,9.601,1.542,10.871,6.277c1.269,4.735-1.542,9.601-6.277,10.871L126.8,299.809 C126.03,300.014,125.258,300.113,124.497,300.113z"/> <path style="fill:#891515;" d="M159.768,361.108c-2.271,0-4.543-0.866-6.276-2.6c-3.466-3.466-3.466-9.086,0-12.551l44.351-44.351 c3.466-3.466,9.086-3.466,12.551,0c3.466,3.466,3.466,9.086,0,12.551l-44.351,44.351 C164.31,360.241,162.039,361.108,159.768,361.108z"/> <path style="fill:#891515;" d="M276.951,186.709c-0.761,0-1.534-0.098-2.303-0.304c-4.735-1.269-7.544-6.136-6.277-10.871 l14.29-53.328c1.269-4.736,6.143-7.54,10.871-6.277c4.735,1.269,7.544,6.136,6.277,10.871l-14.29,53.328 C284.456,184.093,280.87,186.709,276.951,186.709z"/> <path style="fill:#891515;" d="M307.882,212.994c-2.271,0-4.543-0.866-6.276-2.6c-3.466-3.466-3.466-9.086,0-12.551l44.351-44.351 c3.466-3.466,9.086-3.466,12.551,0c3.466,3.466,3.466,9.086,0,12.551l-44.351,44.351 C312.425,212.127,310.153,212.994,307.882,212.994z"/> </g> <path style="fill:#d02547;" d="M348.463,281.752c-1.344,22.242-44.469,65.367-66.712,66.711 c-44.483,2.689-120.904-73.732-118.215-118.215c1.344-22.242,44.469-65.367,66.712-66.712 C274.731,160.849,351.151,237.269,348.463,281.752z"/> <g> <path style="opacity:0.3;fill:#d02547;enable-background:new ;" d="M230.248,163.537c-18.446,1.115-51.234,30.961-62.662,53.804 c16.208,43.696,76.584,97.891,114.165,95.619c18.446-1.115,51.234-30.961,62.662-53.804 C328.205,215.46,267.831,161.266,230.248,163.537z"/> <ellipse transform="matrix(-0.7071 -0.7071 0.7071 -0.7071 -112.7212 616.7843)" style="opacity:0.3;fill:#d02547;enable-background:new ;" cx="71.38" cy="331.737" rx="46.858" ry="35.144"/> <ellipse transform="matrix(-0.7071 -0.7071 0.7071 -0.7071 536.0227 364.8118)" style="opacity:0.3;fill:#d02547;enable-background:new ;" cx="343.566" cy="71.392" rx="46.858" ry="35.144"/> </g> </g>
</svg>