<svg xmlns="http://www.w3.org/2000/svg" width="1080" height="145" viewBox="0 0 1080 145" version="1.1"><path d="M 535.622 33.845 C 534.098 34.755, 531.246 38.356, 529.285 41.847 C 525.747 48.144, 525.725 48.260, 526.382 56.809 C 526.746 61.548, 527.307 67.070, 527.629 69.081 C 528.197 72.636, 528.114 72.756, 524.609 73.414 C 519.052 74.456, 515.826 82, 520.938 82 C 522.016 82, 523.263 80.780, 523.998 79.004 C 524.908 76.809, 526.303 75.690, 529.223 74.815 L 533.207 73.621 532.618 69.061 C 530.699 54.201, 530.717 50.429, 532.729 45.880 C 535.573 39.450, 540.638 34, 543.770 34 C 547.183 34, 546.334 33.411, 541.947 32.736 C 539.591 32.374, 537.461 32.747, 535.622 33.845 M 308.327 38.624 C 306.293 41.728, 304.128 53.951, 304.053 62.750 L 304 69 300.122 69 C 294.674 69, 293.174 71.045, 295.322 75.548 C 296.395 77.798, 297.670 79, 298.984 79 C 301.320 79, 301.325 78.984, 299.979 75.443 C 298.582 71.771, 300.256 70, 305.122 70 L 309 70 309 65.072 C 309 57.491, 310.926 44.879, 312.657 41.125 C 313.954 38.311, 313.987 37.606, 312.856 36.890 C 310.770 35.568, 310.181 35.793, 308.327 38.624 M 589.015 40.467 C 587.798 43.139, 586.764 48.062, 586.443 52.717 C 585.301 69.280, 585.451 68.850, 580.697 69.195 C 577.184 69.450, 576.447 69.876, 576.173 71.808 C 575.738 74.873, 578.542 79, 581.058 79 C 582.738 79, 582.899 78.680, 582.035 77.066 C 579.543 72.409, 581.221 70, 586.957 70 C 589.285 70, 589.854 69.480, 590.375 66.875 C 590.719 65.156, 591 61.639, 591 59.059 C 591 52.944, 592.719 43.771, 594.512 40.314 C 595.611 38.195, 595.658 37.402, 594.716 36.803 C 592.290 35.262, 591.012 36.083, 589.015 40.467 M 623.374 38.765 C 620.739 40.484, 618.905 58.914, 619.345 79.260 C 619.781 99.454, 620.287 101.998, 623.872 102.001 C 625.350 102.003, 625.420 100.199, 624.632 82.425 C 623.896 65.831, 624.027 61.106, 625.490 51.423 C 626.440 45.141, 627.618 40, 628.109 40 C 628.599 40, 629 39.550, 629 39 C 629 37.845, 625.039 37.679, 623.374 38.765 M 188.803 42.250 C 185.364 44.971, 177.989 54.173, 178.536 55.059 C 179.926 57.307, 182.963 55.586, 187.563 49.941 C 190.278 46.608, 193.850 43.270, 195.500 42.522 L 198.500 41.163 194.441 41.082 C 192.209 41.037, 189.671 41.563, 188.803 42.250 M 735.195 43.132 C 732.828 44.304, 729.649 46.505, 728.131 48.023 C 724.503 51.651, 722.466 60.007, 723.464 67.167 C 723.873 70.100, 724.363 76.257, 724.553 80.849 C 724.980 91.151, 726.706 99.934, 728.759 102.250 C 730.572 104.295, 734.857 104.772, 733.254 102.750 C 730.003 98.647, 727.999 57.150, 730.800 51.925 C 732.522 48.714, 739.178 44.050, 744.346 42.433 L 748.500 41.134 744 41.068 C 741.303 41.028, 737.776 41.855, 735.195 43.132 M 154.783 43.750 C 152.246 46.659, 151.106 49.459, 148.499 59.191 C 146.468 66.770, 146.005 70.832, 146.003 81.050 C 146 93.877, 146.574 96, 150.047 96 C 151.511 96, 151.642 94.642, 151.235 83.750 C 150.856 73.603, 151.142 69.974, 152.902 62.613 C 155.399 52.171, 158.279 45.214, 160.449 44.381 C 162.982 43.409, 162.216 42, 159.155 42 C 157.590 42, 155.623 42.788, 154.783 43.750 M 853.041 47.608 C 853.586 49.042, 854.020 51.855, 854.006 53.858 C 853.942 62.525, 855.174 79.737, 856.048 82.399 C 856.572 83.994, 857 87.952, 857 91.195 C 857 96.122, 857.404 97.494, 859.455 99.545 C 860.805 100.895, 862.578 102, 863.395 102 C 864.706 102, 864.708 101.675, 863.413 99.250 C 862.597 97.722, 862.013 94.279, 862.100 91.500 C 862.185 88.750, 861.963 85.375, 861.607 84 C 860.959 81.501, 859.427 64.043, 858.821 52.250 C 858.639 48.712, 858.934 45.817, 859.500 45.579 C 860.050 45.347, 858.599 45.122, 856.275 45.079 C 852.125 45.001, 852.067 45.046, 853.041 47.608 M 270.169 50.485 C 265.643 51.898, 261.717 54.733, 262.510 56.016 C 262.764 56.428, 262.079 57.901, 260.986 59.290 C 259.894 60.679, 259.002 63.319, 259.004 65.158 C 259.008 68.973, 262.169 74.764, 264.756 75.695 C 266.798 76.431, 275.002 84.405, 274.996 85.650 C 274.994 86.117, 274.164 87.850, 273.151 89.500 C 271.670 91.914, 269.963 92.871, 264.405 94.401 C 260.607 95.447, 256.667 96.725, 255.649 97.241 C 253.918 98.118, 253.979 98.369, 256.586 101.089 C 259.274 103.895, 263 105.026, 263 103.035 C 263 102.505, 262.052 101.563, 260.893 100.943 C 257.981 99.384, 259.366 98.434, 267.500 96.409 C 272.416 95.185, 275.319 93.818, 277.250 91.817 C 281.636 87.274, 281.009 85.539, 272.200 77.839 C 270.526 76.375, 268.920 75.413, 268.632 75.701 C 268.344 75.990, 267.185 74.712, 266.058 72.863 C 263.390 68.487, 263.367 62.883, 266.007 60.494 C 267.111 59.495, 267.898 58.023, 267.757 57.223 C 267.350 54.921, 272.345 51.828, 277.386 51.260 C 279.924 50.974, 282 50.348, 282 49.870 C 282 48.581, 275.127 48.938, 270.169 50.485 M 428.717 50.421 C 424.080 51.668, 421.097 54.140, 421.032 56.790 C 421.014 57.500, 420.025 59.400, 418.833 61.012 C 416.907 63.617, 416.794 64.369, 417.815 67.777 C 419.086 72.018, 420.096 73.162, 427.750 79.025 C 436.764 85.930, 434.561 90.984, 420.750 95.083 C 416.488 96.348, 413 97.768, 413 98.239 C 413 99.746, 418.430 103.936, 420.424 103.968 C 422.207 103.998, 422.177 103.817, 420.004 101.504 C 418.714 100.131, 417.848 98.870, 418.079 98.702 C 418.973 98.053, 429.752 95, 431.151 95 C 433.512 95, 438 89.636, 438 86.814 C 438 84.334, 433.612 79.691, 426.577 74.728 C 425.127 73.705, 423.596 71.212, 422.954 68.830 C 421.964 65.153, 422.081 64.382, 424.025 61.753 C 425.224 60.130, 426.312 58.078, 426.442 57.192 C 426.827 54.570, 431.442 51.817, 436.386 51.260 C 438.924 50.974, 441 50.348, 441 49.870 C 441 48.619, 434.301 48.920, 428.717 50.421 M 748.291 52.960 C 749.907 57.241, 747.268 62.313, 742.034 64.983 C 739.374 66.340, 738 67.715, 738 69.020 C 738 70.109, 738.255 71, 738.566 71 C 739.340 71, 743.383 68.841, 744 68.099 C 744.275 67.768, 745.811 66.823, 747.413 65.998 C 750.911 64.200, 753.991 59.476, 753.996 55.905 C 754 53.075, 751.273 50, 748.758 50 C 747.417 50, 747.346 50.455, 748.291 52.960 M 165.559 55.905 C 165.200 56.485, 165.373 57.828, 165.942 58.891 C 168.052 62.835, 178 70.021, 178 67.602 C 178 66.234, 166.093 55.040, 165.559 55.905 M 394.769 57.295 C 392.847 58.143, 392.289 58.898, 392.886 59.844 C 393.587 60.955, 394.270 60.912, 396.818 59.594 C 398.513 58.717, 400.936 57.968, 402.200 57.930 C 403.465 57.891, 405.400 57.473, 406.500 57 C 407.943 56.380, 406.968 56.134, 403 56.115 C 399.975 56.102, 396.271 56.632, 394.769 57.295 M 378 57.316 C 378 59.335, 380.393 69.753, 381.036 70.535 C 381.505 71.104, 382.160 75.563, 382.493 80.443 C 382.826 85.323, 383.527 90.115, 384.049 91.092 C 384.572 92.069, 385 94.158, 385 95.734 C 385 98.910, 386.575 101, 388.967 101 C 390.768 101, 390.869 96.251, 389.161 91.862 C 388.597 90.412, 387.856 85.479, 387.515 80.902 C 387.174 76.324, 386.511 72.111, 386.041 71.539 C 385.305 70.643, 383.594 62.459, 383.524 59.500 C 383.511 58.950, 384.512 58.641, 385.750 58.813 C 386.988 58.985, 388 58.647, 388 58.063 C 388 57.454, 385.864 57, 383 57 C 380.250 57, 378 57.142, 378 57.316 M 487.646 58.106 C 478.615 60.228, 474.044 66.913, 474.044 78 C 474.044 86.058, 476.240 91.195, 481.847 96.250 C 487.101 100.988, 490.156 101.432, 487 97 C 485.825 95.350, 484.485 94, 484.021 94 C 483.558 94, 482.181 91.940, 480.963 89.423 C 479.106 85.588, 478.823 83.661, 479.216 77.535 C 479.831 67.956, 481.956 64.266, 488.777 60.932 C 491.667 59.520, 493.724 58.057, 493.349 57.682 C 492.576 56.910, 492.815 56.892, 487.646 58.106 M 883.500 58.945 C 882.400 59.396, 880.621 60.742, 879.546 61.936 C 877.635 64.060, 877.630 64.315, 879.321 73.304 C 880.272 78.362, 881.020 83.400, 880.983 84.500 C 880.742 91.647, 881.268 95.895, 882.776 98.977 C 884.646 102.798, 887.760 103.889, 887.125 100.500 C 886.919 99.400, 886.609 95.125, 886.435 91 C 886.261 86.875, 885.425 80.350, 884.577 76.500 C 882.426 66.738, 882.574 65.201, 885.965 62.033 C 889.800 58.450, 888.546 56.880, 883.500 58.945 M 348.383 62.694 C 340.599 66.694, 338.618 69.290, 337.550 76.886 C 337.048 80.450, 337.429 82.231, 339.578 86.386 C 343.232 93.449, 344.713 94.938, 350.779 97.644 C 357.123 100.476, 360.123 100.730, 354.587 97.968 C 349.414 95.387, 347.447 93.510, 345.898 89.678 C 345.192 87.930, 344.138 86.179, 343.557 85.786 C 342.037 84.759, 342.656 75.117, 344.506 70.999 C 345.812 68.092, 347.557 66.782, 354.790 63.279 C 363.346 59.135, 363.429 59.060, 359.500 59.048 C 356.841 59.040, 353.114 60.262, 348.383 62.694 M 671.383 62.694 C 663.599 66.694, 661.618 69.290, 660.550 76.886 C 660.048 80.450, 660.429 82.231, 662.578 86.386 C 666.232 93.449, 667.713 94.938, 673.779 97.644 C 680.123 100.476, 683.123 100.730, 677.587 97.968 C 672.414 95.387, 670.447 93.510, 668.898 89.678 C 668.192 87.930, 667.138 86.179, 666.557 85.786 C 665.037 84.759, 665.656 75.117, 667.506 70.999 C 668.812 68.092, 670.557 66.782, 677.790 63.279 C 686.346 59.135, 686.429 59.060, 682.500 59.048 C 679.841 59.040, 676.114 60.262, 671.383 62.694 M 776.637 62.851 C 772.253 65.235, 769.215 67.650, 768.227 69.536 C 766.328 73.160, 765.393 83.507, 766.882 84.427 C 767.465 84.788, 768.820 87.064, 769.891 89.486 C 771.518 93.165, 772.835 94.393, 777.891 96.945 C 781.220 98.625, 784.743 99.968, 785.721 99.929 C 786.700 99.891, 785.700 99.050, 783.500 98.062 C 778.819 95.959, 777.155 94.226, 773.518 87.661 C 771.187 83.454, 770.928 82.149, 771.536 77.661 C 771.920 74.823, 772.820 71.357, 773.535 69.960 C 774.774 67.538, 785.754 61, 788.581 61 C 789.297 61, 790.160 60.550, 790.500 60 C 792.057 57.481, 783.137 59.316, 776.637 62.851 M 190.425 62.019 C 188.541 63.904, 188.445 64.672, 189.276 71.287 C 189.775 75.254, 189.922 83.225, 189.604 89 C 188.998 100.015, 189.929 104.170, 193.141 104.789 C 194.557 105.061, 194.707 102.932, 194.508 85.297 C 194.385 74.409, 193.879 64.254, 193.383 62.732 L 192.480 59.964 190.425 62.019 M 634.074 62.411 C 632.056 64.843, 634.669 65.221, 638.719 63.084 L 642.500 61.088 638.872 61.044 C 636.877 61.020, 634.718 61.635, 634.074 62.411 M 226.250 64.562 C 223.363 65.882, 221 67.399, 221 67.935 C 221 68.471, 219.908 70.001, 218.574 71.335 C 215.813 74.096, 213 82.558, 213 88.105 C 213 92.840, 216.496 97.181, 222.121 99.432 C 224.392 100.340, 226.481 100.852, 226.764 100.570 C 227.046 100.287, 226.149 99.627, 224.770 99.103 C 223.391 98.578, 221.256 96.878, 220.025 95.325 C 218.082 92.872, 217.866 91.730, 218.388 86.657 C 219.071 80.013, 222.145 72.265, 224.449 71.381 C 225.302 71.054, 226 70.186, 226 69.452 C 226 67.722, 226.955 67.177, 234.890 64.376 L 241.500 62.042 236.500 62.103 C 233.462 62.140, 229.439 63.105, 226.250 64.562 M 822.832 64.311 C 814.104 68.403, 809 77.463, 809 88.862 C 809 91.663, 809.704 93.300, 811.750 95.260 C 814.526 97.918, 821.819 101.514, 822.683 100.650 C 822.940 100.393, 822.237 99.892, 821.119 99.538 C 817.569 98.411, 813.999 93.205, 814.012 89.173 C 814.032 82.992, 816.716 74.685, 819.464 72.298 C 820.859 71.087, 822 69.651, 822 69.107 C 822 67.742, 823.276 67.063, 830.890 64.376 L 837.500 62.042 832.500 62.082 C 829.521 62.106, 825.613 63.007, 822.832 64.311 M 322 65.168 C 320.075 65.712, 318.080 66.564, 317.567 67.062 C 315.652 68.919, 317.928 69.028, 323.903 67.367 C 327.889 66.259, 329.609 65.369, 328.780 64.843 C 327.233 63.862, 326.506 63.896, 322 65.168 M 603.250 65.262 C 600.649 65.888, 599 66.853, 599 67.749 C 599 68.692, 599.581 68.991, 600.629 68.589 C 601.525 68.245, 604.262 67.459, 606.712 66.842 C 609.778 66.070, 610.751 65.457, 609.833 64.876 C 609.100 64.411, 608.275 64.078, 608 64.135 C 607.725 64.193, 605.587 64.700, 603.250 65.262 M 893 66.979 C 893 68.732, 893.288 68.826, 895.528 67.805 C 897.363 66.969, 897.706 66.430, 896.778 65.842 C 894.579 64.446, 893 64.921, 893 66.979 M 916.069 66.567 C 911.009 68.762, 909.761 70.007, 911.056 71.567 C 911.922 72.611, 913.057 72.286, 916.764 69.935 C 919.309 68.321, 922.091 66.993, 922.946 66.985 C 923.801 66.976, 925.175 66.533, 926 66 C 928.498 64.386, 919.975 64.872, 916.069 66.567 M 498.777 67.671 C 501.136 68.620, 503.707 75.405, 503.802 80.935 C 503.909 87.191, 501.823 91.577, 498.322 92.455 C 497.045 92.776, 496 93.480, 496 94.019 C 496 95.392, 500.076 95.242, 503.317 93.750 C 506.621 92.230, 510.803 84.403, 509.180 82.780 C 508.590 82.190, 508.360 80.448, 508.669 78.907 C 509.652 73.992, 504.024 66.874, 499.316 67.079 C 498.221 67.127, 498.007 67.362, 498.777 67.671 M 362.889 68.680 C 362.828 69.131, 362.862 70.524, 362.964 71.775 C 363.175 74.366, 357.160 81, 354.600 81 C 353.720 81, 353 81.509, 353 82.132 C 353 82.886, 354.418 83.073, 357.249 82.693 C 363.019 81.920, 368.271 76.420, 367.740 71.709 C 367.469 69.313, 366.823 68.419, 365.189 68.180 C 363.985 68.005, 362.950 68.230, 362.889 68.680 M 685.889 68.680 C 685.828 69.131, 685.862 70.524, 685.964 71.775 C 686.175 74.366, 680.160 81, 677.600 81 C 676.720 81, 676 81.509, 676 82.132 C 676 82.886, 677.418 83.073, 680.249 82.693 C 686.019 81.920, 691.271 76.420, 690.740 71.709 C 690.469 69.313, 689.823 68.419, 688.189 68.180 C 686.985 68.005, 685.950 68.230, 685.889 68.680 M 791.359 70.293 C 792.225 73.745, 788.336 79.198, 783.965 80.658 C 781.007 81.646, 780.779 81.927, 782.404 82.574 C 783.487 83.005, 786.060 82.722, 788.371 81.916 C 796.057 79.238, 799.939 68.922, 793.543 68.171 C 791.018 67.875, 790.804 68.082, 791.359 70.293 M 543.750 70.689 C 542.788 70.941, 542 71.564, 542 72.073 C 542 72.583, 542.788 72.994, 543.750 72.986 C 546.625 72.964, 550 71.828, 550 70.883 C 550 69.976, 546.854 69.878, 543.750 70.689 M 639 71.943 C 639 72.462, 639.849 73.481, 640.887 74.208 C 642.437 75.294, 642.857 77.182, 643.242 84.799 C 643.739 94.628, 644.916 96.915, 649.500 96.953 C 651.054 96.966, 651.186 96.771, 650.093 96.079 C 648.752 95.230, 648.430 92.569, 648.116 79.750 C 648.040 76.622, 647.564 75, 646.722 75 C 646.019 75, 644.674 74.100, 643.732 73 C 641.966 70.937, 639 70.275, 639 71.943 M 237.857 73.669 C 236.798 73.950, 236.394 74.792, 236.720 76.039 C 237.252 78.072, 232.523 86.311, 228.989 89.510 C 226.480 91.781, 226.457 93, 228.923 93 C 233.943 93, 242.642 81.200, 241.490 75.954 C 241.133 74.329, 240.539 73.052, 240.171 73.116 C 239.802 73.180, 238.761 73.428, 237.857 73.669 M 833.805 73.679 C 832.873 73.924, 832.342 74.728, 832.625 75.466 C 833.296 77.214, 829.787 84.034, 825.994 88.354 C 822.484 92.351, 822.335 93, 824.923 93 C 829.792 93, 838.687 80.587, 837.424 75.555 C 837.072 74.150, 836.494 73.052, 836.142 73.116 C 835.789 73.180, 834.737 73.433, 833.805 73.679 M 899.676 74.657 C 898.945 75.388, 903.369 84.252, 905.172 85.668 C 905.902 86.242, 907.554 86.970, 908.842 87.286 C 910.967 87.808, 911.048 87.705, 909.709 86.180 C 908.897 85.256, 907.279 82.603, 906.113 80.283 C 904.069 76.218, 900.892 73.441, 899.676 74.657 M 924.063 76.872 C 925.705 79.093, 926.132 81.352, 926.296 88.706 C 926.461 96.052, 926.865 98.198, 928.405 99.897 C 930.779 102.518, 933.526 102.755, 932.490 100.250 C 932.092 99.287, 931.619 94.276, 931.439 89.114 C 931.145 80.659, 930.861 79.464, 928.575 77.078 C 927.178 75.621, 925.136 74.361, 924.035 74.278 C 922.041 74.127, 922.041 74.137, 924.063 76.872 M 304.667 79.667 C 303.690 80.643, 303.852 85.211, 305.063 90.857 C 306.248 96.385, 310.957 102.418, 314.989 103.573 L 317.477 104.286 314.720 100.893 C 310.413 95.594, 309.486 92.435, 309.099 81.750 C 309.028 79.786, 308.476 79, 307.167 79 C 306.158 79, 305.033 79.300, 304.667 79.667 M 586 85.032 C 586 88.350, 586.630 92.512, 587.401 94.282 C 588.886 97.694, 593.486 103, 594.959 103 C 595.441 103, 596.645 103.310, 597.634 103.690 C 599.066 104.239, 598.964 103.883, 597.131 101.940 C 593.207 97.779, 591.695 93.774, 591.207 86.250 C 590.764 79.423, 590.599 79, 588.368 79 C 586.139 79, 586 79.354, 586 85.032 M 529.685 81.648 C 529.328 82.005, 529.303 83.361, 529.630 84.661 C 529.956 85.962, 529.704 87.652, 529.069 88.417 C 528.434 89.183, 528.189 90.905, 528.525 92.245 C 528.862 93.586, 528.431 97.406, 527.569 100.735 C 524.968 110.773, 526.118 117, 530.574 117 C 532.646 117, 532.738 116.767, 531.729 114.092 C 530.869 111.815, 531.027 109.447, 532.457 103.188 C 533.462 98.790, 534.013 94.159, 533.684 92.898 C 533.354 91.636, 533.542 90.052, 534.101 89.378 C 535.693 87.460, 534.116 81, 532.055 81 C 531.108 81, 530.042 81.292, 529.685 81.648 M 739.022 88.079 C 738.992 92.891, 744.023 100.343, 749.446 103.521 C 755.870 107.286, 756.839 106.490, 751.525 101.813 C 748.909 99.511, 745.946 95.798, 744.941 93.563 C 743.936 91.328, 742.198 88.375, 741.079 87 L 739.044 84.500 739.022 88.079 M 369.250 89.745 C 365.553 91.585, 365.031 93, 368.050 93 C 370.901 93, 376.192 90.119, 375.474 88.957 C 374.661 87.643, 373.069 87.845, 369.250 89.745 M 692.250 89.745 C 688.553 91.585, 688.031 93, 691.050 93 C 693.901 93, 699.192 90.119, 698.474 88.957 C 697.661 87.643, 696.069 87.845, 692.250 89.745 M 797 90.333 L 793.500 92.500 796.184 92.810 C 799.768 93.224, 805.850 90.152, 803.896 88.914 C 801.934 87.673, 800.979 87.869, 797 90.333 M 240.177 97.687 C 238.335 98.423, 242.705 103, 245.250 103 C 247.023 103, 246.995 102.801, 244.826 100.055 C 242.356 96.928, 242.233 96.865, 240.177 97.687 M 835.658 97.676 C 834.614 98.719, 839.110 103, 841.250 103 C 843.023 103, 842.995 102.801, 840.826 100.055 C 838.506 97.118, 836.937 96.396, 835.658 97.676" stroke="none" fill="#f4d257" fill-rule="evenodd"/><path d="M 537.959 37.699 C 536.173 39.734, 533.819 43.415, 532.729 45.880 C 530.717 50.429, 530.699 54.201, 532.618 69.061 L 533.207 73.621 529.268 74.801 C 526.625 75.593, 524.930 76.857, 524.117 78.643 C 522.526 82.134, 523.784 83.209, 528.034 81.990 C 529.933 81.446, 532.002 81, 532.632 81 C 534.027 81, 535.392 87.557, 534.348 89.245 C 533.937 89.911, 533.564 92.491, 533.521 94.978 C 533.477 97.465, 532.814 102.255, 532.047 105.623 C 530.352 113.063, 531.716 118, 535.466 118 C 541.062 118, 543.061 111.776, 543.102 94.232 C 543.119 86.935, 543.516 81.201, 543.983 81.489 C 546.722 83.182, 554 77.156, 554 73.195 C 554 71.062, 553.666 70.843, 551.250 71.390 C 541.656 73.565, 542.223 73.741, 541.528 68.368 C 541.181 65.691, 540.498 62.762, 540.010 61.861 C 538.868 59.754, 539.892 49.251, 541.556 46 C 542.259 44.625, 544.654 41.739, 546.876 39.587 C 549.099 37.436, 550.684 35.298, 550.400 34.837 C 550.115 34.377, 547.930 34, 545.545 34 C 541.795 34, 540.767 34.501, 537.959 37.699 M 312.757 40.750 C 310.945 44.927, 309 57.515, 309 65.072 L 309 70 305.122 70 C 299.790 70, 298.475 71.808, 300.420 76.464 C 301.860 79.909, 302.128 80.067, 305.470 79.440 C 308.823 78.811, 309.006 78.921, 309.129 81.639 C 309.616 92.447, 310.605 95.951, 314.427 100.417 C 318.232 104.862, 321.996 105.543, 326.488 102.600 C 329.544 100.597, 328.827 99, 323.970 96.988 C 321.634 96.020, 320.688 94.688, 319.503 90.698 C 317.866 85.185, 317.514 78.418, 318.823 77.609 C 319.276 77.329, 322.959 76.410, 327.008 75.565 C 331.057 74.721, 334.742 73.658, 335.198 73.202 C 336.288 72.112, 334.235 66.304, 332.526 65.648 C 331.793 65.367, 328.183 66.040, 324.504 67.143 C 320.826 68.247, 317.640 68.974, 317.425 68.759 C 317.210 68.544, 317.475 66.831, 318.013 64.953 C 318.552 63.076, 319.283 56.763, 319.637 50.925 C 320.267 40.558, 320.227 40.272, 317.918 38.655 C 314.726 36.419, 314.618 36.463, 312.757 40.750 M 594.561 40.250 C 592.616 44.372, 591 52.888, 591 59.011 C 591 61.618, 590.719 65.156, 590.375 66.875 C 589.854 69.480, 589.285 70, 586.957 70 C 581.049 70, 579.710 72.074, 582.155 77.440 C 583.185 79.701, 583.724 79.908, 587.155 79.359 L 591 78.744 591 84.129 C 591 90.718, 592.235 95.259, 595.204 99.593 C 598.339 104.168, 601.088 105.247, 605.731 103.726 C 610.726 102.089, 610.910 99.965, 606.272 97.500 C 601.949 95.203, 599.906 90.588, 599.655 82.558 C 599.481 77.018, 598.512 77.653, 611.339 74.894 C 617.128 73.649, 617.172 73.612, 616.566 70.582 C 615.461 65.054, 614.128 64.567, 606.426 66.878 C 602.668 68.005, 599.480 68.814, 599.342 68.675 C 599.203 68.536, 599.730 63.940, 600.513 58.461 C 602.590 43.925, 602.462 40.437, 599.777 38.557 C 596.715 36.412, 596.309 36.543, 594.561 40.250 M 628.338 39.770 C 627.698 40.177, 626.412 45.484, 625.478 51.564 C 624.051 60.863, 623.918 65.686, 624.641 81.954 C 625.397 98.973, 625.717 101.423, 627.307 102.395 C 628.803 103.310, 629.601 102.960, 631.943 100.362 C 634.606 97.408, 634.780 96.660, 634.916 87.617 C 635.069 77.387, 635.433 75.514, 637.807 72.750 C 639.774 70.459, 641.623 70.537, 643.732 73 C 644.674 74.100, 646.019 75, 646.722 75 C 647.564 75, 648.040 76.622, 648.116 79.750 C 648.452 93.467, 648.686 95.050, 650.592 96.492 C 655.472 100.186, 659 96.544, 659 87.813 C 659 83.067, 658.648 81.882, 656.972 80.985 C 655.857 80.388, 655.197 79.491, 655.506 78.991 C 655.815 78.490, 655.647 77.276, 655.132 76.291 C 654.617 75.306, 653.815 72.715, 653.348 70.534 C 652.732 67.650, 651.572 65.944, 649.102 64.284 C 645.126 61.612, 642.047 61.407, 637.921 63.541 C 636.282 64.388, 634.589 64.864, 634.159 64.598 C 633.146 63.972, 633.512 60.172, 635.423 51.500 C 637.350 42.752, 637.375 43.375, 635 41 C 632.943 38.943, 630.381 38.470, 628.338 39.770 M 194.902 42.660 C 194.023 42.895, 190.901 45.993, 187.964 49.544 C 185.026 53.095, 181.920 55.987, 181.062 55.970 C 180.203 55.954, 176.800 53.242, 173.500 49.944 C 167.041 43.489, 164.370 42.196, 161.103 43.945 C 154.385 47.540, 149.150 74.221, 151.622 92.260 C 152.223 96.646, 152.361 96.800, 155.685 96.800 C 160.060 96.800, 160.910 94.780, 161.435 83.124 C 161.832 74.335, 164.291 57.956, 165.510 55.984 C 165.912 55.333, 168.964 57.764, 173.084 62.017 C 181.021 70.210, 181.882 70.310, 188.611 63.821 L 192.721 59.857 193.541 63.179 C 193.991 65.005, 194.431 74.978, 194.518 85.341 C 194.638 99.627, 194.992 104.377, 195.982 104.989 C 197.818 106.124, 201.977 104.467, 206.359 100.856 L 210.097 97.775 209.442 87.137 C 208.578 73.114, 204.425 45.217, 202.933 43.419 C 201.810 42.066, 198.344 41.738, 194.902 42.660 M 740.418 43.965 C 733.846 47.310, 730.196 51.509, 729.432 56.602 C 729.064 59.057, 729.052 67.464, 729.406 75.283 C 730.428 97.886, 732.502 105.501, 737.445 104.794 C 739.379 104.517, 739.487 103.911, 739.280 94.500 L 739.061 84.500 741.087 87 C 742.202 88.375, 743.925 91.303, 744.917 93.508 C 746.781 97.649, 753.358 104.295, 757.427 106.149 C 760.090 107.362, 764 105.832, 764 103.576 C 764 101.845, 755.011 88, 753.887 88 C 753.421 88, 752.179 86.313, 751.127 84.250 C 750.074 82.188, 748.264 79.642, 747.104 78.593 L 744.995 76.686 751.970 73.312 C 763.595 67.689, 766.534 61.518, 762.226 51.778 C 758.420 43.174, 748.767 39.716, 740.418 43.965 M 858.821 52.250 C 859.403 63.577, 860.947 81.455, 861.564 84 C 861.897 85.375, 862.244 89.266, 862.335 92.646 C 862.550 100.637, 864.619 103.226, 870.448 102.798 C 873.215 102.594, 874.410 102.072, 874.217 101.151 C 874.061 100.409, 873.273 94.109, 872.465 87.151 C 871.658 80.193, 870.548 71.998, 869.999 68.940 C 869.449 65.882, 869 59.991, 869 55.850 C 869 48.752, 868.854 48.255, 866.453 47.161 C 865.052 46.522, 862.690 46, 861.203 46 C 858.520 46, 858.502 46.045, 858.821 52.250 M 277.564 51.061 C 272.119 51.973, 267.358 54.964, 267.757 57.223 C 267.898 58.023, 267.111 59.495, 266.007 60.494 C 263.367 62.883, 263.390 68.487, 266.058 72.863 C 267.185 74.712, 268.344 75.990, 268.632 75.701 C 268.920 75.413, 270.526 76.375, 272.200 77.839 C 280.881 85.427, 281.516 87.047, 277.620 91.673 C 275.931 93.679, 273.554 94.890, 269.440 95.843 C 266.250 96.582, 262.563 97.596, 261.246 98.096 L 258.853 99.007 261.889 102.043 C 264.744 104.897, 265.241 105.038, 270.212 104.400 C 276.350 103.612, 286.949 98.778, 290.648 95.079 C 292.862 92.865, 293.146 91.871, 292.748 87.727 C 292.196 81.988, 290.042 79.380, 281.231 73.780 C 277.783 71.589, 274.474 68.886, 273.879 67.773 C 272.116 64.479, 275.590 60.860, 282.890 58.385 C 291.069 55.613, 291.808 54.780, 288.436 52.129 C 285.534 49.845, 285.090 49.802, 277.564 51.061 M 436.564 51.061 C 431.223 51.955, 426.819 54.623, 426.442 57.192 C 426.312 58.078, 425.224 60.130, 424.025 61.753 C 422.081 64.382, 421.964 65.153, 422.954 68.830 C 423.596 71.212, 425.127 73.705, 426.577 74.728 C 433.612 79.691, 438 84.334, 438 86.814 C 438 89.636, 433.512 95, 431.151 95 C 429.743 95, 418.965 98.056, 418.073 98.709 C 417.838 98.880, 418.961 100.393, 420.568 102.071 C 423.290 104.913, 423.831 105.076, 428.495 104.474 C 435.235 103.603, 446.530 98.348, 449.663 94.624 C 451.719 92.180, 452.111 90.864, 451.698 87.788 C 451.091 83.259, 446.456 77.555, 440.579 74.105 C 434.972 70.813, 432 67.976, 432 65.915 C 432 63.402, 437.417 59.225, 442.295 57.977 C 448.641 56.353, 449 56.175, 449 54.646 C 449 53.044, 444.739 49.939, 442.785 50.118 C 442.078 50.182, 439.279 50.607, 436.564 51.061 M 745.270 50.703 C 741.404 51.450, 738.772 56.455, 738.225 64.102 C 737.953 67.896, 738.046 71, 738.431 71 C 739.310 71, 743.330 68.906, 744 68.099 C 744.275 67.768, 745.811 66.823, 747.413 65.998 C 753.200 63.022, 755.862 54.995, 752.171 51.655 C 750.348 50.005, 749.494 49.887, 745.270 50.703 M 402 57.930 C 400.075 58.315, 397.422 59.214, 396.103 59.929 C 394.055 61.039, 393.576 60.994, 392.807 59.620 C 392.143 58.432, 390.809 58.111, 387.704 58.391 C 385.392 58.599, 383.511 59.159, 383.524 59.635 C 383.602 62.510, 385.322 70.664, 386.032 71.529 C 386.497 72.094, 387.144 76.144, 387.470 80.529 C 387.796 84.913, 388.588 90.075, 389.230 92 C 389.871 93.925, 390.274 96.314, 390.125 97.310 C 389.751 99.806, 391.798 102, 394.500 102 C 398.465 102, 399.365 99.704, 398.528 91.725 C 398.111 87.751, 397.630 81.284, 397.459 77.353 L 397.147 70.205 402.207 68.103 C 404.990 66.946, 408.130 66, 409.184 66 C 411.755 66, 414.826 59.140, 412.824 57.870 C 411.296 56.901, 407.026 56.925, 402 57.930 M 490.388 60.070 C 487.577 61.152, 484.497 62.898, 483.543 63.952 C 479.292 68.649, 477.589 81.800, 480.391 88.282 C 481.157 90.052, 483.570 93.439, 485.755 95.809 C 488.878 99.197, 490.971 100.443, 495.542 101.637 C 503.904 103.821, 507.419 102.882, 511.253 97.443 C 512.976 94.999, 514.696 93, 515.076 93 C 516.249 93, 516.970 88.669, 515.993 87.492 C 515.425 86.807, 515.487 85.025, 516.153 82.852 C 517.001 80.091, 516.893 78.145, 515.659 73.897 C 513.571 66.717, 508.843 62.050, 502.871 61.274 C 500.467 60.962, 498.140 60.097, 497.700 59.353 C 496.704 57.668, 496.611 57.677, 490.388 60.070 M 886.153 61.857 C 882.558 65.216, 882.404 66.639, 884.577 76.500 C 885.425 80.350, 886.205 86.896, 886.309 91.046 C 886.446 96.460, 887.023 99.390, 888.352 101.416 L 890.204 104.241 892.297 102.147 C 893.776 100.669, 894.626 98.063, 895.193 93.277 C 895.634 89.550, 896.169 85.116, 896.382 83.424 C 896.595 81.732, 897.511 78.912, 898.419 77.157 C 899.827 74.434, 900.356 74.120, 902.031 75.017 C 903.110 75.594, 904.947 77.964, 906.113 80.283 C 909.138 86.301, 910.915 88, 914.180 88 C 917.356 88, 919 85.249, 919 79.935 C 919 77.993, 919.507 77, 920.500 77 C 921.325 77, 922 76.353, 922 75.562 C 922 73.286, 925.775 74.156, 928.575 77.078 C 930.871 79.474, 931.140 80.625, 931.394 89.125 C 931.741 100.732, 932.937 103.463, 937.293 102.591 C 939.002 102.250, 940.754 101.414, 941.185 100.735 C 942.397 98.827, 942.145 91.934, 940.561 83.657 C 938.877 74.854, 937.083 71, 933.270 67.991 C 929.664 65.146, 923.363 65.867, 916.926 69.861 L 912.351 72.699 909.620 70.349 C 908.118 69.057, 905.654 68, 904.144 68 C 902.635 68, 900.912 67.512, 900.315 66.915 C 899.535 66.135, 898.370 66.275, 896.170 67.412 L 893.109 68.995 892.805 64.256 C 892.428 58.396, 890.574 57.727, 886.153 61.857 M 353.796 63.755 C 347.557 66.788, 345.792 68.166, 344.513 71 C 342.658 75.111, 342.034 84.757, 343.557 85.786 C 344.138 86.179, 345.192 87.930, 345.898 89.678 C 347.475 93.578, 349.115 95.086, 355.399 98.409 C 365.143 103.563, 380 99.924, 380 92.385 C 380 88.933, 378.280 88.574, 373.609 91.051 C 370.652 92.620, 368.543 93.102, 366.679 92.634 C 363.832 91.920, 362.976 90, 365.503 90 C 368.231 90, 376.727 80.768, 377.872 76.561 C 379.851 69.286, 377.118 63.910, 370.253 61.571 C 363.776 59.364, 362.474 59.536, 353.796 63.755 M 676.796 63.755 C 670.557 66.788, 668.792 68.166, 667.513 71 C 665.658 75.111, 665.034 84.757, 666.557 85.786 C 667.138 86.179, 668.192 87.930, 668.898 89.678 C 670.475 93.578, 672.115 95.086, 678.399 98.409 C 688.143 103.563, 703 99.924, 703 92.385 C 703 88.933, 701.280 88.574, 696.609 91.051 C 693.652 92.620, 691.543 93.102, 689.679 92.634 C 686.832 91.920, 685.976 90, 688.503 90 C 691.231 90, 699.727 80.768, 700.872 76.561 C 702.851 69.286, 700.118 63.910, 693.253 61.571 C 686.776 59.364, 685.474 59.536, 676.796 63.755 M 787.500 61.316 C 774.857 66.386, 772.774 68.519, 771.536 77.661 C 770.928 82.149, 771.187 83.454, 773.518 87.661 C 777.222 94.347, 778.687 95.793, 784.571 98.577 C 792.677 102.412, 802.985 101.377, 806.955 96.331 C 811.199 90.935, 808.421 87.639, 802.550 91.103 C 798.953 93.225, 793.933 93.350, 793.272 91.335 C 793.062 90.694, 793.817 89.875, 794.950 89.516 C 798.236 88.473, 802.931 84.056, 804.940 80.118 C 809.405 71.366, 806.984 64.375, 798.460 61.408 C 793.691 59.748, 791.456 59.730, 787.500 61.316 M 232.153 65.236 C 229.212 66.394, 226.542 68.052, 226.219 68.921 C 225.896 69.789, 224.868 71.050, 223.935 71.723 C 221.533 73.455, 219.053 80.187, 218.370 86.829 C 217.873 91.667, 218.105 92.901, 219.950 95.230 C 221.140 96.732, 223.776 98.720, 225.807 99.648 C 227.838 100.577, 229.757 101.463, 230.072 101.617 C 230.386 101.771, 231.961 101.197, 233.572 100.340 C 240.264 96.780, 241.894 96.810, 245.177 100.549 C 248.379 104.196, 251.007 104.901, 252.899 102.622 C 253.748 101.599, 253.755 100.503, 252.926 98.372 C 252.237 96.599, 251.942 90.547, 252.155 82.553 C 252.497 69.726, 252.478 69.600, 250.191 69.053 C 248.921 68.749, 247.974 68.115, 248.086 67.645 C 248.199 67.175, 247.676 65.938, 246.925 64.895 C 245.096 62.358, 239.108 62.496, 232.153 65.236 M 828.153 65.236 C 825.212 66.394, 822.541 68.034, 822.216 68.880 C 821.891 69.726, 820.569 71.336, 819.277 72.459 C 816.730 74.673, 814.031 83.210, 814.012 89.115 C 813.997 93.552, 816.805 97.350, 822.095 100.048 C 825.943 102.012, 826.055 102.013, 829.750 100.149 C 836.909 96.537, 837.672 96.556, 841.081 100.440 C 842.800 102.398, 845.005 104, 845.981 104 C 847.866 104, 850.351 101.684, 849.442 100.775 C 848.081 99.415, 847.139 82.510, 848.202 78.535 C 849.624 73.219, 848.641 69, 845.981 69 C 844.812 69, 844 68.328, 844 67.360 C 844 62.835, 836.725 61.860, 828.153 65.236 M 490.901 70.106 C 487.598 73.642, 487.396 75.585, 489.495 83.641 C 492.840 96.483, 502.899 98.929, 508.142 88.175 C 509.641 85.101, 509.941 83.541, 509.180 82.780 C 508.590 82.190, 508.360 80.448, 508.669 78.907 C 509.049 77.003, 508.523 74.964, 507.025 72.540 C 504.348 68.208, 502.263 67, 497.467 67 C 494.657 67, 493.126 67.724, 490.901 70.106 M 357.677 70.040 C 353.971 72.955, 351.692 77.635, 352.469 80.733 C 353.050 83.047, 353.440 83.204, 357.300 82.687 C 363.017 81.920, 368.268 76.398, 367.741 71.709 C 367.419 68.849, 367 68.468, 363.887 68.201 C 361.494 67.997, 359.538 68.576, 357.677 70.040 M 680.677 70.040 C 676.971 72.955, 674.692 77.635, 675.469 80.733 C 676.050 83.047, 676.440 83.204, 680.300 82.687 C 686.017 81.920, 691.268 76.398, 690.741 71.709 C 690.419 68.849, 690 68.468, 686.887 68.201 C 684.494 67.997, 682.538 68.576, 680.677 70.040 M 787.382 68.958 C 781.932 71.221, 778.988 82.142, 783.648 82.806 C 789.577 83.651, 797.392 76.565, 796.668 71 C 796.400 68.935, 795.748 68.463, 792.921 68.289 C 791.040 68.174, 788.547 68.475, 787.382 68.958 M 237.001 74.123 C 231.115 76.470, 227 82.571, 227 88.950 C 227 92.279, 227.342 93, 228.923 93 C 233.943 93, 242.642 81.200, 241.490 75.954 C 240.780 72.723, 240.648 72.669, 237.001 74.123 M 833.001 74.123 C 827.115 76.470, 823 82.571, 823 88.950 C 823 92.279, 823.342 93, 824.923 93 C 829.792 93, 838.687 80.587, 837.424 75.555 C 836.717 72.735, 836.587 72.693, 833.001 74.123" stroke="none" fill="#fb85aa" fill-rule="evenodd"/></svg>