<!DOCTYPE svg PUBLIC "-//W3C//DTD SVG 1.1//EN" "http://www.w3.org/Graphics/SVG/1.1/DTD/svg11.dtd">
<!-- Uploaded to: SVG Repo, www.svgrepo.com, Transformed by: SVG Repo Mixer Tools -->
<svg fill="#000000" version="1.1" id="Layer_1" xmlns="http://www.w3.org/2000/svg" xmlns:xlink="http://www.w3.org/1999/xlink" width="800px" height="800px" viewBox="-0.72 -0.72 73.44 73.44" enable-background="new 0 0 72 72" xml:space="preserve">
<g id="SVGRepo_bgCarrier" stroke-width="0"/>
<g id="SVGRepo_tracerCarrier" stroke-linecap="round" stroke-linejoin="round"/>
<g id="SVGRepo_iconCarrier"> <g> <path d="M24.014,70.462c-2.617,0-5.073-1.016-6.917-2.859L2.175,53.877c-1.908-1.906-2.926-4.364-2.926-6.979 s1.018-5.072,2.866-6.92c1.849-1.849,4.307-2.866,6.921-2.866c2.591,0,5.029,1,6.872,2.818l8.102,7.109L55.861,4.618 c0.057-0.075,0.119-0.146,0.186-0.213c1.849-1.85,4.307-2.867,6.921-2.867s5.072,1.018,6.921,2.867 c3.784,3.784,3.815,9.923,0.093,13.747L31.697,67.416c-0.051,0.065-0.106,0.128-0.165,0.188c-1.914,1.912-4.498,2.926-7.214,2.854 C24.216,70.46,24.116,70.462,24.014,70.462z M9.037,41.112c-1.546,0-2.999,0.602-4.093,1.695C3.851,43.9,3.25,45.353,3.25,46.898 s0.602,3,1.694,4.093l14.922,13.726c1.148,1.146,2.6,1.914,4.148,1.914l0.227,0.164c0.05,0,0.1,0,0.151,0l0.221-0.164 c1.51,0,2.929-0.654,4.008-1.69l38.275-49.294c0.051-0.065,0.105-0.148,0.165-0.207c2.256-2.258,2.256-5.939,0-8.195 c-1.094-1.094-2.547-1.701-4.093-1.701c-1.502,0-2.917,0.566-3.999,1.602L25.914,51.169c-0.335,0.445-0.84,0.73-1.394,0.787 c-0.551,0.057-1.106-0.118-1.525-0.486l-9.771-8.573c-0.032-0.028-0.064-0.058-0.095-0.089 C12.036,41.714,10.583,41.112,9.037,41.112z"/> </g> </g>
</svg>