<!DOCTYPE svg PUBLIC "-//W3C//DTD SVG 1.1//EN" "http://www.w3.org/Graphics/SVG/1.1/DTD/svg11.dtd">

<!-- Uploaded to: SVG Repo, www.svgrepo.com, Transformed by: SVG Repo Mixer Tools -->
<svg version="1.1" id="Layer_1" xmlns="http://www.w3.org/2000/svg" xmlns:xlink="http://www.w3.org/1999/xlink" viewBox="0 0 512.001 512.001" xml:space="preserve" width="800px" height="800px" fill="#000000" stroke="#000000" stroke-width="0.0051200099999999995">

<g id="SVGRepo_bgCarrier" stroke-width="0"/>

<g id="SVGRepo_tracerCarrier" stroke-linecap="round" stroke-linejoin="round"/>

<g id="SVGRepo_iconCarrier"> <polygon style="fill:#F2D755;" points="97.193,393.495 60.11,202.292 150.101,221.799 255.999,94.62 361.899,221.799 451.89,202.292 414.807,393.495 "/> <g> <circle style="fill:#FECC85;" cx="54.487" cy="192.143" r="41.647"/> <circle style="fill:#FECC85;" cx="457.517" cy="192.143" r="41.647"/> <circle style="fill:#FECC85;" cx="256.002" cy="77.954" r="41.647"/> <rect x="97.443" y="393.491" style="fill:#FECC85;" width="317.114" height="82.206"/> </g> <path style="fill:#F987AF;" d="M293.633,230.284c-21.086,0-37.63,23.511-37.63,23.511s-15.605-23.511-37.639-23.511 c-21.432,0-38.933,17.676-40.078,39.078c-0.644,12.091,3.253,21.293,8.744,29.626c10.974,16.65,58.951,56.736,69.044,56.736 c10.302,0,57.851-39.94,68.897-56.736c5.503-8.372,9.39-17.536,8.742-29.626C332.568,247.962,315.066,230.284,293.633,230.284"/> <path d="M256.074,368.565c-3.613,0-12.075,0-42.375-25.071c-13.516-11.182-30.436-26.891-37.387-37.439 c-5.1-7.738-11.769-20.031-10.845-37.376c1.538-28.729,24.773-51.232,52.899-51.232c16.178,0,29.269,8.982,37.731,16.997 c8.549-8.009,21.678-16.997,37.538-16.997c28.127,0,51.362,22.504,52.9,51.231c0.928,17.306-5.739,29.612-10.833,37.366 c-7.01,10.659-23.841,26.355-37.256,37.493C268.295,368.565,259.73,368.565,256.074,368.565z M254.45,343.066L254.45,343.066 L254.45,343.066z M218.364,243.123c-14.235,0-26.463,12.079-27.258,26.926c-0.408,7.647,1.579,14.191,6.644,21.877 c8.871,13.459,46.424,44.894,58.353,50.488c11.827-5.521,49.23-36.928,58.142-50.479c5.135-7.814,7.063-14.155,6.648-21.885 c-0.795-14.848-13.023-26.928-27.259-26.928c-11.772,0-23.834,13.375-27.131,18.06c-2.441,3.466-6.399,5.544-10.674,5.449 c-4.239-0.058-8.177-2.204-10.521-5.738C241.985,255.985,230.605,243.123,218.364,243.123z"/> <path d="M306.171,447.318H167.52c-7.091,0-12.839-5.749-12.839-12.839s5.748-12.839,12.839-12.839h138.652 c7.091,0,12.839,5.749,12.839,12.839S313.262,447.318,306.171,447.318z"/> <path d="M344.483,447.321c-3.389,0-6.689-1.372-9.077-3.762c-0.591-0.591-1.13-1.245-1.605-1.953 c-0.462-0.693-0.86-1.437-1.181-2.22c-0.321-0.772-0.565-1.579-0.732-2.401s-0.244-1.669-0.244-2.504 c0-0.833,0.077-1.682,0.244-2.516c0.167-0.809,0.411-1.618,0.732-2.401c0.321-0.77,0.719-1.515,1.181-2.208 c0.475-0.706,1.001-1.361,1.592-1.951c0.603-0.605,1.258-1.131,1.964-1.605c0.693-0.462,1.438-0.861,2.208-1.182 c0.783-0.321,1.592-0.564,2.401-0.73c4.173-0.835,8.615,0.526,11.593,3.518c0.591,0.591,1.13,1.245,1.592,1.951 c0.462,0.693,0.86,1.438,1.181,2.208c0.321,0.783,0.565,1.579,0.732,2.401c0.167,0.835,0.257,1.683,0.257,2.516 c0,0.835-0.09,1.683-0.257,2.504s-0.411,1.63-0.732,2.401c-0.321,0.783-0.719,1.527-1.181,2.22 c-0.462,0.707-1.001,1.362-1.592,1.953C351.172,445.949,347.86,447.321,344.483,447.321z"/> <path d="M457.514,137.663c-30.044,0-54.486,24.442-54.486,54.486c0,2.541,0.189,5.035,0.526,7.484l-36.771,7.97l-74.294-89.223 c11.044-9.978,17.996-24.402,17.996-40.424c0-30.044-24.442-54.486-54.486-54.486s-54.486,24.442-54.486,54.486 c0,16.021,6.952,30.445,17.996,40.424l-74.294,89.225l-36.771-7.97c0.338-2.448,0.526-4.944,0.526-7.484 c0-30.044-24.442-54.486-54.486-54.486S0,162.105,0,192.148c0,30.042,24.442,54.485,54.486,54.485c0.383,0,0.76-0.022,1.141-0.028 L84.59,395.938c0.004,0.022,0.01,0.041,0.015,0.063v79.692c0,7.089,5.748,12.839,12.839,12.839h317.114 c7.091,0,12.839-5.749,12.839-12.839v-79.692c0.004-0.022,0.01-0.041,0.015-0.063l28.963-149.334 c0.381,0.008,0.759,0.028,1.141,0.028c30.044,0,54.486-24.442,54.486-54.485C512,162.105,487.558,137.663,457.514,137.663z M255.999,49.146c15.885,0,28.809,12.923,28.809,28.809s-12.923,28.807-28.809,28.807s-28.809-12.922-28.809-28.807 S240.114,49.146,255.999,49.146z M25.677,192.148c0-15.885,12.923-28.809,28.809-28.809s28.809,12.923,28.809,28.809 s-12.923,28.807-28.809,28.807S25.677,208.034,25.677,192.148z M401.718,462.856H110.281v-56.522h291.437V462.856z M404.219,380.655 H107.781L80.503,240.008c7.249-3.957,13.495-9.52,18.281-16.196l48.599,10.534c4.669,1.009,9.524-0.657,12.586-4.333l82.638-99.244 c4.287,1.087,8.774,1.67,13.395,1.67c4.621,0,9.106-0.583,13.395-1.67l82.638,99.244c3.061,3.676,7.914,5.343,12.586,4.333 l48.599-10.534c4.786,6.677,11.032,12.24,18.281,16.196L404.219,380.655z M457.514,220.957c-15.885,0-28.809-12.922-28.809-28.807 s12.923-28.809,28.809-28.809c15.885,0,28.809,12.923,28.809,28.809S473.399,220.957,457.514,220.957z"/> </g>

</svg>