<!DOCTYPE svg PUBLIC "-//W3C//DTD SVG 1.1//EN" "http://www.w3.org/Graphics/SVG/1.1/DTD/svg11.dtd">
<!-- Uploaded to: SVG Repo, www.svgrepo.com, Transformed by: SVG Repo Mixer Tools -->
<svg fill="#000000" version="1.1" id="Layer_1" xmlns="http://www.w3.org/2000/svg" xmlns:xlink="http://www.w3.org/1999/xlink" width="800px" height="800px" viewBox="0 0 72 72" enable-background="new 0 0 72 72" xml:space="preserve" stroke="#000000" stroke-width="0.00072">
<g id="SVGRepo_bgCarrier" stroke-width="0"/>
<g id="SVGRepo_tracerCarrier" stroke-linecap="round" stroke-linejoin="round"/>
<g id="SVGRepo_iconCarrier"> <g> <path d="M23.5,55c-0.553,0-1,0.447-1,1v2c0,0.553,0.447,1,1,1s1-0.447,1-1v-2C24.5,55.447,24.053,55,23.5,55z"/> <path d="M23.5,33c-0.553,0-1,0.448-1,1v17c0,0.553,0.447,1,1,1s1-0.447,1-1V34C24.5,33.448,24.053,33,23.5,33z"/> <path d="M35.5,33c-0.553,0-1,0.448-1,1v24c0,0.553,0.447,1,1,1s1-0.447,1-1V34C36.5,33.448,36.053,33,35.5,33z"/> <path d="M47.5,33c-0.553,0-1,0.448-1,1v24c0,0.553,0.447,1,1,1s1-0.447,1-1V34C48.5,33.448,48.053,33,47.5,33z"/> <path d="M60.25,12h-8.781c-0.271-6.089-2.536-9-10.289-9h-12c-7.17,0-9.407,2.306-9.656,9H11.75c-4.557,0-8.25,3.694-8.25,8.25v0.5 c0,4.13,3.038,7.542,7,8.146v30.479c0,8.287,2.473,9.625,9.68,9.625h30c7.77,0,10.32-1.979,10.32-9.625V28.987 c4.439-0.133,8-3.766,8-8.237v-0.5C68.5,15.694,64.807,12,60.25,12z M29.18,7h12c4.786,0,6.098,0.511,6.29,5H23.511 C23.583,7.655,24.204,7,29.18,7z M50.18,65h-30c-5.813,0-5.68-0.369-5.68-5.625V29h42v30.375C56.5,64.842,55.798,65,50.18,65z M64.5,20.75c0,2.347-1.902,4.25-4.25,4.25h-48.5c-2.348,0-4.25-1.903-4.25-4.25v-0.5c0-2.347,1.902-4.25,4.25-4.25h48.5 c2.348,0,4.25,1.903,4.25,4.25V20.75z"/> </g> </g>
</svg>