<!DOCTYPE svg PUBLIC "-//W3C//DTD SVG 1.1//EN" "http://www.w3.org/Graphics/SVG/1.1/DTD/svg11.dtd">

<!-- Uploaded to: SVG Repo, www.svgrepo.com, Transformed by: SVG Repo Mixer Tools -->
<svg fill="#ffffff" width="800px" height="800px" viewBox="-2.24 -2.24 20.48 20.48" id="edit-2-16px" xmlns="http://www.w3.org/2000/svg" stroke="#ffffff" stroke-width="0.384">

<g id="SVGRepo_bgCarrier" stroke-width="0"/>

<g id="SVGRepo_tracerCarrier" stroke-linecap="round" stroke-linejoin="round"/>

<g id="SVGRepo_iconCarrier"> <path id="Path_120" data-name="Path 120" d="M-10.5,16h-11A2.5,2.5,0,0,1-24,13.5V2.5A2.5,2.5,0,0,1-21.5,0h4a.5.5,0,0,1,.5.5.5.5,0,0,1-.5.5h-4A1.5,1.5,0,0,0-23,2.5v11A1.5,1.5,0,0,0-21.5,15h11A1.5,1.5,0,0,0-9,13.5v-4A.5.5,0,0,1-8.5,9a.5.5,0,0,1,.5.5v4A2.5,2.5,0,0,1-10.5,16Zm-5.646-4.146,8-8a.5.5,0,0,0,0-.708l-3-3a.5.5,0,0,0-.708,0l-8,8A.5.5,0,0,0-20,8.5v3a.5.5,0,0,0,.5.5h3A.5.5,0,0,0-16.146,11.854ZM-19,8.707l7.5-7.5L-9.207,3.5l-7.5,7.5H-19Z" transform="translate(24 0)"/> </g>

</svg>