<!DOCTYPE svg PUBLIC "-//W3C//DTD SVG 1.1//EN" "http://www.w3.org/Graphics/SVG/1.1/DTD/svg11.dtd">
<!-- Uploaded to: SVG Repo, www.svgrepo.com, Transformed by: SVG Repo Mixer Tools -->
<svg height="800px" width="800px" version="1.1" id="Layer_1" xmlns="http://www.w3.org/2000/svg" xmlns:xlink="http://www.w3.org/1999/xlink" viewBox="0 0 511.999 511.999" xml:space="preserve" fill="#000000">
<g id="SVGRepo_bgCarrier" stroke-width="0"/>
<g id="SVGRepo_tracerCarrier" stroke-linecap="round" stroke-linejoin="round"/>
<g id="SVGRepo_iconCarrier"> <g> <path style="fill:#000000;" d="M509.878,240.381c-6.699-9.487-14.512-18.196-23.223-25.885c-4.382-3.865-10.956-3.864-15.336,0.006 c-47.419,41.899-118.934,41.898-166.347,0c-4.796-4.235-12.117-3.784-16.35,1.009c-4.236,4.794-3.786,12.114,1.009,16.35 c4.412,3.899,9.002,7.491,13.738,10.779c-3.063,5.788-6.562,11.345-10.481,16.587c-3.83,5.125-2.779,12.383,2.345,16.214 c2.082,1.555,4.513,2.305,6.926,2.305c3.528,0,7.014-1.608,9.289-4.651c4.443-5.947,8.439-12.232,11.953-18.775 c7.129,3.439,14.474,6.278,21.961,8.516c-1.124,6.454-2.736,12.823-4.843,19.02c-2.058,6.057,1.183,12.637,7.239,14.696 c1.236,0.421,2.493,0.62,3.73,0.62c4.823,0,9.327-3.037,10.966-7.858c2.393-7.041,4.254-14.265,5.575-21.59 c6.672,0.904,13.393,1.359,20.115,1.359c1.129,0,2.258-0.042,3.386-0.068c0.931,6.504,1.369,13.079,1.281,19.647 c-0.086,6.396,5.03,11.653,11.426,11.739c0.053,0.001,0.107,0.001,0.16,0.001c6.324,0,11.493-5.084,11.579-11.427 c0.101-7.445-0.365-14.898-1.373-22.277c7.705-1.383,15.319-3.375,22.771-5.978c2.89,5.89,5.332,11.996,7.272,18.256 c1.541,4.969,6.118,8.157,11.061,8.157c1.135,0,2.292-0.169,3.433-0.522c6.11-1.895,9.529-8.384,7.635-14.495 c-2.2-7.096-4.939-14.028-8.171-20.725c6.854-3.682,13.488-7.921,19.815-12.754c4.561,4.703,8.757,9.758,12.532,15.106 c3.691,5.228,10.92,6.472,16.144,2.781C512.322,252.834,513.567,245.607,509.878,240.381z"/> <path style="fill:#000000;" d="M207.028,214.502c-47.417,41.9-118.929,41.9-166.347,0c-4.38-3.872-10.954-3.871-15.336-0.006 c-8.711,7.689-16.524,16.397-23.223,25.885c-3.691,5.227-2.444,12.454,2.781,16.144c5.224,3.689,12.452,2.444,16.144-2.781 c3.776-5.348,7.972-10.403,12.532-15.106c6.327,4.833,12.96,9.072,19.814,12.755c-3.232,6.695-5.971,13.628-8.171,20.724 c-1.894,6.109,1.523,12.6,7.635,14.495c1.142,0.354,2.297,0.522,3.433,0.522c4.943,0,9.521-3.189,11.061-8.157 c1.94-6.257,4.382-12.364,7.272-18.255c7.452,2.603,15.066,4.594,22.771,5.978c-1.008,7.379-1.473,14.832-1.373,22.275 c0.086,6.344,5.254,11.427,11.579,11.427c0.053,0,0.107,0,0.16-0.001c6.396-0.086,11.512-5.341,11.426-11.739 c-0.088-6.568,0.35-13.143,1.281-19.647c1.129,0.025,2.258,0.068,3.386,0.068c6.722,0,13.443-0.456,20.115-1.36 c1.322,7.323,3.182,14.55,5.575,21.591c1.639,4.821,6.142,7.858,10.966,7.858c1.236,0,2.493-0.2,3.73-0.62 c6.057-2.058,9.297-8.638,7.239-14.696c-2.107-6.198-3.72-12.567-4.843-19.022c7.488-2.238,14.833-5.077,21.961-8.516 c3.516,6.544,7.511,12.829,11.954,18.776c2.275,3.044,5.761,4.651,9.289,4.651c2.412,0,4.845-0.751,6.926-2.305 c5.125-3.831,6.174-11.089,2.345-16.214c-3.918-5.242-7.418-10.798-10.481-16.588c4.737-3.286,9.326-6.878,13.738-10.777 c4.794-4.236,5.245-11.557,1.009-16.35C219.143,210.719,211.825,210.265,207.028,214.502z"/> </g> </g>
</svg>