<?xml version="1.0" encoding="utf-8"?>

<!DOCTYPE svg PUBLIC "-//W3C//DTD SVG 1.1//EN" "http://www.w3.org/Graphics/SVG/1.1/DTD/svg11.dtd">
<!-- Uploaded to: SVG Repo, www.svgrepo.com, Generator: SVG Repo Mixer Tools -->
<svg height="800px" width="800px" version="1.1" id="_x32_" xmlns="http://www.w3.org/2000/svg" xmlns:xlink="http://www.w3.org/1999/xlink" 
	 viewBox="0 0 512 512"  xml:space="preserve">
<style type="text/css">
	.st0{fill:#000000;}
</style>
<g>
	<path class="st0" d="M404.946,230.669C428.2,245.234,463.907,261.977,512,268.662c-32.248-25.252-53.918-48.832-67.492-66.023
		c14.297-12.091,27.43-25.52,39.049-40.207l-37.515-29.708c-21.308,26.916-48.434,49.013-79.43,64.366
		c-31.011,15.346-65.853,23.971-102.884,23.985c-37.027-0.014-71.872-8.639-102.883-23.985c-31-15.353-58.129-37.45-79.43-64.366
		l-37.522,29.708c9.073,11.461,19.068,22.154,29.791,32.067C60.933,211.915,37.696,239.141,0,268.662
		c53.55-7.446,91.748-27.35,114.486-42.848c8.111,5.122,16.475,9.884,25.121,14.159c1.249,0.615,2.515,1.208,3.774,1.802
		c-3.662,21.749-12.658,60.502-33.55,94.696c40.634-18.03,69.264-54.359,83.775-76.427c10.882,2.807,22.017,4.971,33.362,6.461
		l29.028,112.77l28.623-111.15c12.177-0.897,24.155-2.554,35.866-4.963c15.075,22.242,42.917,56.103,81.691,73.308
		c-18.993-31.083-28.153-65.928-32.414-88.351c6.135-2.51,12.184-5.217,18.096-8.147
		C393.68,237.087,399.352,233.932,404.946,230.669z"/>
</g>
</svg>