<!DOCTYPE svg PUBLIC "-//W3C//DTD SVG 1.1//EN" "http://www.w3.org/Graphics/SVG/1.1/DTD/svg11.dtd">

<!-- Uploaded to: SVG Repo, www.svgrepo.com, Transformed by: SVG Repo Mixer Tools -->
<svg version="1.1" id="Layer_1" xmlns="http://www.w3.org/2000/svg" xmlns:xlink="http://www.w3.org/1999/xlink" viewBox="0 0 512.00 512.00" xml:space="preserve" width="256px" height="256px" fill="#000000" stroke="#000000" stroke-width="0.00512">

<g id="SVGRepo_bgCarrier" stroke-width="0"/>

<g id="SVGRepo_tracerCarrier" stroke-linecap="round" stroke-linejoin="round"/>

<g id="SVGRepo_iconCarrier"> <polygon style="fill:#524E4D;" points="398.51,43.814 446.472,43.814 446.472,399.936 227.4,399.936 "/> <polygon style="fill:#7A7674;" points="350.547,43.814 398.51,43.814 398.51,399.936 179.437,399.936 "/> <polygon style="fill:#CCC4C1;" points="302.585,43.814 350.547,43.814 350.547,399.936 131.475,399.936 "/> <rect x="83.515" y="43.814" style="fill:#EBEDEC;" width="219.069" height="356.122"/> <circle style="fill:#F2D755;" cx="217.03" cy="142.137" r="23.981"/> <polygon style="fill:#57453A;" points="374.108,217.078 350.126,342.98 374.108,468.882 500.009,468.882 500.009,217.078 "/> <polygon style="fill:#9B7960;" points="278.604,217.078 254.622,304.01 131.475,304.01 107.494,217.078 11.991,217.078 11.991,468.882 374.108,468.882 374.108,217.078 "/> <path d="M446.472,193.097c6.622,0,11.991-5.368,11.991-11.991V43.814c0-6.622-5.368-11.991-11.991-11.991 s-11.991,5.368-11.991,11.991v137.293C434.482,187.729,439.85,193.097,446.472,193.097z"/> <path d="M398.51,193.097c6.622,0,11.991-5.368,11.991-11.991V43.814c0-6.622-5.368-11.991-11.991-11.991 s-11.991,5.368-11.991,11.991v137.293C386.519,187.729,391.887,193.097,398.51,193.097z"/> <path d="M350.547,193.097c6.622,0,11.991-5.368,11.991-11.991V43.814c0-6.622-5.368-11.991-11.991-11.991 s-11.991,5.368-11.991,11.991v137.293C338.557,187.729,343.925,193.097,350.547,193.097z"/> <path d="M83.514,193.097c6.622,0,11.991-5.368,11.991-11.991V55.804h195.09v125.302c0,6.622,5.368,11.991,11.991,11.991 c6.622,0,11.991-5.368,11.991-11.991V43.814c0-6.622-5.368-11.991-11.991-11.991H83.514c-6.622,0-11.991,5.368-11.991,11.991 v137.293C71.523,187.729,76.891,193.097,83.514,193.097z"/> <path d="M205.04,238.233v29.805c0,6.622,5.368,11.991,11.991,11.991s11.991-5.368,11.991-11.991v-29.805 c0-6.622-5.368-11.991-11.991-11.991S205.04,231.611,205.04,238.233z"/> <path d="M169.068,280.029c6.622,0,11.991-5.368,11.991-11.991v-29.805c0-6.622-5.368-11.991-11.991-11.991 c-6.622,0-11.991,5.368-11.991,11.991v29.805C157.077,274.661,162.445,280.029,169.068,280.029z"/> <path d="M163.073,180.507v-76.74c0-6.622-5.368-11.991-11.991-11.991s-11.991,5.368-11.991,11.991v76.74 c0,6.622,5.368,11.991,11.991,11.991C157.704,192.498,163.073,187.129,163.073,180.507z"/> <path d="M247.007,142.137c0-19.835-16.137-35.972-35.972-35.972s-35.972,16.137-35.972,35.972c0,19.835,16.137,35.972,35.972,35.972 S247.007,161.972,247.007,142.137z M211.035,154.128c-6.612,0-11.991-5.379-11.991-11.991s5.379-11.991,11.991-11.991 c6.612,0,11.991,5.379,11.991,11.991S217.647,154.128,211.035,154.128z"/> <path d="M500.009,205.088H374.108h-95.504c-5.395,0-10.124,3.602-11.559,8.802l-21.553,78.13H140.606l-21.552-78.131 c-1.435-5.2-6.166-8.802-11.559-8.802H11.991C5.368,205.087,0,210.455,0,217.077v251.109c0,6.622,5.368,11.991,11.991,11.991 h362.117h125.902c6.622,0,11.991-5.368,11.991-11.991V217.078C512,210.456,506.632,205.088,500.009,205.088z M23.981,229.069h74.383 l21.553,78.13c1.434,5.2,6.166,8.802,11.559,8.802h123.146c5.395,0,10.125-3.602,11.559-8.802l21.553-78.13h74.383v227.127H23.981 V229.069z M488.019,456.196h-101.92V229.069h101.92V456.196z"/> </g>

</svg>