<!DOCTYPE svg PUBLIC "-//W3C//DTD SVG 1.1//EN" "http://www.w3.org/Graphics/SVG/1.1/DTD/svg11.dtd">
<!-- Uploaded to: SVG Repo, www.svgrepo.com, Transformed by: SVG Repo Mixer Tools -->
<svg width="800px" height="800px" viewBox="0 0 48.00 48.00" id="a" xmlns="http://www.w3.org/2000/svg" fill="#000000" stroke="#000000" stroke-width="0.00048000000000000007">
<g id="SVGRepo_bgCarrier" stroke-width="0"/>
<g id="SVGRepo_tracerCarrier" stroke-linecap="round" stroke-linejoin="round" stroke="#CCCCCC" stroke-width="2.016"> <defs> <style>.d{fill:none;stroke:#000000;stroke-linecap:round;stroke-linejoin:round;}</style> </defs> <g id="b"> <path id="c" class="d" d="m40.5,5.5H7.5c-1.1046,0-2,.8954-2,2v33c0,1.1046.8954,2,2,2h33c1.1046,0,2-.8954,2-2V7.5c0-1.1046-.8954-2-2-2Z"/> </g> <circle class="d" cx="24" cy="24" r="15"/> </g>
<g id="SVGRepo_iconCarrier"> <defs> <style>.d{fill:none;stroke:#000000;stroke-linecap:round;stroke-linejoin:round;}</style> </defs> <g id="b"> <path id="c" class="d" d="m40.5,5.5H7.5c-1.1046,0-2,.8954-2,2v33c0,1.1046.8954,2,2,2h33c1.1046,0,2-.8954,2-2V7.5c0-1.1046-.8954-2-2-2Z"/> </g> <circle class="d" cx="24" cy="24" r="15"/> </g>
</svg>