<svg xmlns="http://www.w3.org/2000/svg" width="841" height="725" viewBox="0 0 841 725" version="1.1"><path d="M 681 100.794 C 681 102.407, 681.450 105.926, 681.999 108.614 C 682.548 111.301, 683.630 116.372, 684.402 119.881 C 685.175 123.391, 686.372 126.612, 687.063 127.039 C 687.753 127.466, 688.932 127.579, 689.682 127.292 C 690.650 126.920, 690.901 125.566, 690.547 122.634 C 690.273 120.360, 689.601 116.250, 689.053 113.500 C 688.506 110.750, 687.483 106.250, 686.779 103.500 C 685.770 99.554, 685.026 98.433, 683.250 98.180 C 681.355 97.911, 681 98.324, 681 100.794 M 727.291 100.717 C 726.626 100.949, 724.245 106.810, 722 113.741 C 719.755 120.672, 718.159 126.972, 718.454 127.742 C 718.750 128.511, 719.922 128.996, 721.059 128.820 C 722.726 128.562, 723.890 126.268, 727.057 117 C 729.219 110.675, 730.990 104.536, 730.994 103.357 C 730.997 102.178, 730.438 101.007, 729.750 100.754 C 729.063 100.501, 727.956 100.485, 727.291 100.717 M 640.667 119.667 C 640.300 120.033, 640.018 121.046, 640.040 121.917 C 640.062 122.787, 644.225 127.919, 649.290 133.319 C 656.298 140.790, 658.918 142.977, 660.250 142.462 C 661.212 142.090, 661.994 141.047, 661.987 140.143 C 661.979 139.239, 657.891 134.113, 652.902 128.750 C 647.912 123.388, 643.268 119, 642.582 119 C 641.895 119, 641.033 119.300, 640.667 119.667 M 763.833 125.887 C 763.650 126.375, 759.337 130.238, 754.250 134.472 C 749.163 138.707, 745 142.753, 745 143.463 C 745 144.174, 745.647 145.292, 746.439 145.949 C 747.600 146.913, 748.819 146.399, 752.756 143.287 C 755.439 141.167, 760.191 137.224, 763.317 134.525 C 767.171 131.198, 769 128.875, 769 127.309 C 769 125.534, 768.441 125, 766.583 125 C 765.254 125, 764.017 125.399, 763.833 125.887 M 691.244 135.110 C 688.353 135.591, 682.954 137.451, 679.245 139.243 C 674.767 141.406, 670.080 144.874, 665.295 149.566 C 660.304 154.460, 657.164 158.589, 655.077 163.001 C 653.420 166.504, 651.545 171.874, 650.909 174.935 C 650.268 178.024, 649.965 184.536, 650.228 189.570 C 650.662 197.869, 651.109 199.486, 655.482 208.570 C 658.111 214.032, 661.479 222.325, 662.967 227 C 665.151 233.861, 666.190 235.754, 668.357 236.815 C 669.834 237.538, 672.229 238.213, 673.680 238.315 C 676.240 238.494, 676.491 237.979, 682.098 221 C 685.277 211.375, 687.905 202.774, 687.939 201.886 C 687.977 200.870, 686.343 199.639, 683.528 198.564 C 681.069 197.625, 677.919 195.504, 676.528 193.851 C 674.752 191.741, 674 189.664, 674 186.874 C 674 184.689, 674.683 181.581, 675.517 179.967 C 676.351 178.354, 678.354 176.351, 679.967 175.517 C 681.581 174.683, 684.768 174, 687.050 174 C 690.436 174, 691.826 174.626, 694.600 177.400 C 697.566 180.366, 698 181.442, 698 185.835 C 698 188.604, 697.533 192.099, 696.961 193.602 C 696.188 195.635, 696.240 196.530, 697.163 197.101 C 697.846 197.523, 698.751 197.654, 699.175 197.392 C 699.598 197.130, 700.485 195.113, 701.145 192.910 C 701.817 190.668, 703.826 187.604, 705.707 185.952 C 708.366 183.618, 710.012 183, 713.570 183 C 716.066 183, 719.191 183.734, 720.586 184.648 C 721.970 185.555, 723.754 187.558, 724.551 189.099 C 725.348 190.640, 726 193.431, 726 195.302 C 726 197.189, 724.982 200.218, 723.713 202.102 C 722.289 204.219, 719.986 205.975, 717.606 206.760 C 714.754 207.699, 712.781 207.749, 709.830 206.954 C 707.655 206.368, 705.270 205.657, 704.531 205.374 C 703.549 204.997, 701.544 209.963, 697.094 223.790 C 693.742 234.202, 691 243.163, 691 243.703 C 691 244.242, 692.740 245.205, 694.866 245.842 C 696.992 246.479, 699.308 247, 700.013 247 C 700.718 247, 703.140 245.508, 705.397 243.685 C 707.654 241.862, 712.200 238.804, 715.500 236.890 C 718.800 234.975, 723.525 232.349, 726 231.053 C 728.475 229.757, 732.456 227.125, 734.846 225.203 C 737.236 223.281, 740.711 219.637, 742.569 217.104 C 744.426 214.572, 747.049 210.196, 748.398 207.381 C 749.747 204.565, 751.334 199.645, 751.925 196.447 C 752.516 193.249, 753 188.302, 753 185.453 C 753 182.604, 752.554 177.922, 752.009 175.049 C 751.464 172.176, 749.601 166.854, 747.867 163.222 C 745.702 158.684, 742.494 154.412, 737.608 149.560 C 732.894 144.878, 728.294 141.435, 723.951 139.338 C 720.350 137.599, 714.754 135.686, 711.518 135.088 C 708.281 134.490, 703.578 134.053, 701.066 134.117 C 698.555 134.181, 694.135 134.628, 691.244 135.110 M 616.362 157.500 C 616.045 158.325, 616.025 159.623, 616.317 160.385 C 616.610 161.146, 622.576 163.649, 629.577 165.947 C 641.115 169.734, 642.450 169.978, 643.866 168.562 C 645.283 167.146, 645.278 166.850, 643.818 165.389 C 642.932 164.503, 636.958 162.028, 630.542 159.889 C 624.127 157.750, 618.441 156, 617.908 156 C 617.374 156, 616.678 156.675, 616.362 157.500 M 780.500 166.558 C 777.200 167.295, 772.356 168.358, 769.736 168.921 C 767.115 169.484, 764.078 170.423, 762.986 171.008 C 761.894 171.592, 761 172.681, 761 173.428 C 761 174.175, 761.609 175.020, 762.352 175.305 C 763.096 175.590, 766.809 175.196, 770.602 174.428 C 774.396 173.660, 780.200 172.462, 783.500 171.766 C 788.885 170.630, 789.500 170.245, 789.500 168.014 C 789.500 166.539, 788.890 165.464, 788 165.373 C 787.175 165.287, 783.800 165.821, 780.500 166.558 M 681.944 180.844 C 680.460 182.046, 679.667 183.769, 679.667 185.791 C 679.667 187.497, 680.286 189.639, 681.042 190.551 C 681.799 191.462, 683.336 192.551, 684.459 192.971 C 685.582 193.390, 687.439 194.025, 688.587 194.382 C 690.351 194.931, 690.854 194.431, 691.837 191.150 C 692.477 189.015, 693 186.386, 693 185.308 C 693 184.230, 691.958 182.370, 690.686 181.174 C 689.413 179.978, 687.437 179, 686.296 179 C 685.155 179, 683.197 179.830, 681.944 180.844 M 710.343 189.179 C 709.157 189.753, 707.413 192.248, 706.467 194.724 C 705.042 198.457, 704.980 199.369, 706.104 200.064 C 706.849 200.525, 709.122 201.183, 711.155 201.526 C 713.259 201.882, 715.764 201.661, 716.973 201.014 C 718.141 200.390, 719.513 198.781, 720.023 197.439 C 720.593 195.940, 720.593 194.060, 720.023 192.561 C 719.513 191.219, 718.204 189.644, 717.114 189.061 C 716.023 188.477, 714.539 188.030, 713.816 188.068 C 713.092 188.105, 711.530 188.605, 710.343 189.179 M 634.500 197.074 C 632.300 197.554, 627.125 198.697, 623 199.614 C 618.875 200.531, 614.938 201.723, 614.250 202.263 C 613.563 202.803, 613 203.834, 613 204.555 C 613 205.276, 613.788 206.114, 614.750 206.418 C 615.712 206.723, 621.842 205.863, 628.371 204.508 C 634.900 203.153, 640.853 201.537, 641.600 200.917 C 642.591 200.095, 642.684 199.278, 641.944 197.895 C 641.386 196.853, 640.383 196.045, 639.715 196.100 C 639.047 196.156, 636.700 196.594, 634.500 197.074 M 688.065 220.628 C 684.729 230.941, 682 240.002, 682 240.763 C 682 241.527, 682.761 242, 683.701 241.819 C 684.948 241.579, 686.951 236.693, 691.211 223.496 C 694.405 213.598, 696.903 204.862, 696.760 204.083 C 696.617 203.303, 695.967 202.488, 695.315 202.271 C 694.556 202.018, 691.946 208.627, 688.065 220.628 M 760.517 203.625 C 759.730 204.413, 759.315 205.657, 759.596 206.390 C 759.877 207.123, 765.905 209.629, 772.991 211.959 C 780.076 214.289, 786.352 215.900, 786.937 215.539 C 787.522 215.178, 788 213.997, 788 212.916 C 788 211.692, 786.963 210.556, 785.250 209.904 C 783.737 209.329, 777.876 207.358, 772.225 205.526 C 763.307 202.633, 761.761 202.382, 760.517 203.625 M 645.917 232.696 C 641.288 236.959, 636.712 241.122, 635.750 241.946 C 634.788 242.770, 634 243.964, 634 244.600 C 634 245.235, 634.674 246.314, 635.498 246.998 C 636.726 248.018, 637.580 247.774, 640.248 245.645 C 642.036 244.217, 646.875 239.902, 651 236.056 C 657.290 230.191, 658.327 228.785, 657.429 227.341 C 656.839 226.394, 655.902 225.467, 655.346 225.282 C 654.790 225.097, 650.547 228.433, 645.917 232.696 M 742.200 230.200 C 741.540 230.860, 741 231.929, 741 232.575 C 741 233.222, 745.285 238.113, 750.522 243.445 C 756.609 249.642, 760.663 253.019, 761.760 252.808 C 762.705 252.626, 763.621 251.731, 763.796 250.819 C 763.991 249.809, 760.250 245.222, 754.224 239.080 C 748.783 233.536, 744.122 229, 743.866 229 C 743.610 229, 742.860 229.540, 742.200 230.200 M 712.541 251.115 C 712.822 254.478, 713.465 258, 713.969 258.942 C 714.473 259.884, 715.193 262.974, 715.569 265.809 C 715.945 268.644, 716.806 271.720, 717.482 272.644 C 718.260 273.709, 719.360 274.076, 720.482 273.645 C 721.994 273.065, 722.153 272.200, 721.571 267.733 C 721.195 264.855, 719.958 258.563, 718.821 253.750 C 716.943 245.803, 716.537 245, 714.391 245 C 712.110 245, 712.047 245.210, 712.541 251.115" stroke="none" fill="#f2d755" fill-rule="evenodd"/><path d="M 236.500 439.120 C 234.300 439.516, 229.575 439.945, 226 440.075 C 222.367 440.207, 218.502 440.959, 217.236 441.779 C 215.036 443.207, 214.988 443.588, 215.517 455.374 C 215.817 462.043, 216.263 470.200, 216.508 473.500 C 216.754 476.800, 217.372 489.850, 217.883 502.500 C 218.394 515.150, 218.829 527.525, 218.850 530 C 218.872 532.475, 219.201 537.539, 219.582 541.253 L 220.274 548.006 228.246 552.253 C 232.631 554.589, 238.720 558.525, 241.778 561 C 245.701 564.175, 247.796 566.766, 248.893 569.799 C 250.301 573.689, 250.301 574.510, 248.891 578.429 C 247.444 582.454, 247.463 583.013, 249.163 586.327 C 250.170 588.288, 251.001 591.379, 251.011 593.196 C 251.020 595.013, 250.834 600.196, 250.596 604.714 C 250.319 609.976, 249.595 613.739, 248.582 615.186 C 247.712 616.429, 247 618.492, 247 619.772 C 247 621.052, 246.348 623.360, 245.551 624.901 C 244.754 626.442, 242.842 628.547, 241.301 629.579 C 239.240 630.960, 236.783 631.437, 232 631.385 C 228.425 631.346, 225.218 631.743, 224.873 632.267 C 224.528 632.792, 224.464 641.158, 224.731 650.860 C 225.097 664.138, 225.555 668.771, 226.587 669.595 C 227.472 670.302, 229.647 670.418, 232.729 669.922 C 235.353 669.500, 246.753 668.600, 258.062 667.921 C 273.808 666.976, 282.947 666.951, 297.077 667.815 C 307.226 668.435, 320.023 669.661, 325.515 670.539 C 331.007 671.417, 339.775 673.066, 345 674.204 C 350.225 675.342, 358.325 677.509, 363 679.018 C 367.675 680.528, 375.550 683.383, 380.500 685.363 C 385.450 687.343, 392.600 690.534, 396.389 692.454 C 400.178 694.375, 403.694 695.689, 404.201 695.376 C 404.747 695.038, 404.905 685.748, 404.587 672.653 C 404.291 660.469, 403.948 609.908, 403.824 560.296 L 403.599 470.093 394.228 464.901 C 389.073 462.045, 383.819 459.595, 382.552 459.456 C 381.285 459.317, 379.364 458.730, 378.283 458.151 C 377.202 457.573, 374.334 456.388, 371.909 455.519 C 369.484 454.650, 364.180 452.827, 360.122 451.469 C 356.065 450.111, 351.902 449, 350.872 449 C 349.843 449, 349 448.582, 349 448.072 C 349 447.562, 346.518 446.834, 343.484 446.455 C 340.182 446.042, 337.628 445.157, 337.120 444.250 C 336.506 443.153, 334.647 442.749, 330.396 442.787 C 327.164 442.816, 324.221 442.357, 323.856 441.767 C 323.492 441.177, 319.212 440.519, 314.347 440.303 C 309.481 440.088, 304.375 439.519, 303 439.039 C 301.625 438.559, 287 438.219, 270.500 438.284 C 254 438.349, 238.700 438.725, 236.500 439.120 M 540.804 438.530 C 540.620 438.713, 536.427 439.360, 531.485 439.968 C 526.543 440.576, 520.700 441.312, 518.500 441.604 C 516.300 441.896, 512.159 442.302, 509.299 442.506 C 506.438 442.710, 503.063 443.465, 501.799 444.184 C 500.534 444.903, 499.050 445.523, 498.500 445.562 C 497.950 445.601, 495.925 445.992, 494 446.432 C 492.075 446.871, 490.050 447.563, 489.500 447.969 C 488.950 448.375, 486.700 449.183, 484.500 449.765 C 482.300 450.347, 477.350 452.031, 473.500 453.507 C 469.650 454.983, 463.259 457.306, 459.299 458.670 C 455.338 460.033, 448.588 463.252, 444.299 465.824 L 436.500 470.500 436.246 583.250 C 436.106 645.263, 436.230 696, 436.521 696 C 436.813 696, 440.977 694.019, 445.776 691.598 C 450.574 689.176, 457.452 686.029, 461.060 684.605 C 464.668 683.180, 471.803 680.670, 476.917 679.027 C 482.030 677.383, 489.428 675.339, 493.357 674.483 C 497.286 673.628, 504.550 672.261, 509.500 671.446 C 514.450 670.630, 521.875 669.558, 526 669.062 C 530.125 668.567, 540.700 667.848, 549.500 667.465 C 559.083 667.048, 572.820 667.240, 583.750 667.945 C 593.788 668.591, 604.266 669.479, 607.035 669.916 C 611.755 670.663, 612.180 670.550, 613.856 668.106 C 615.298 666.003, 615.694 663.064, 615.904 652.890 C 616.047 645.955, 615.845 638.150, 615.455 635.546 L 614.745 630.811 610.427 631.459 C 608.052 631.815, 604.367 631.637, 602.239 631.064 C 600.111 630.491, 597.369 628.957, 596.145 627.655 C 594.922 626.352, 593.637 623.535, 593.291 621.393 C 592.945 619.252, 591.839 616.150, 590.834 614.500 C 589.830 612.850, 589.006 610.233, 589.004 608.684 C 589.002 607.136, 589.470 604.990, 590.045 603.917 C 590.827 602.454, 590.702 601.413, 589.545 599.760 C 588.695 598.547, 588.004 596.418, 588.010 595.027 C 588.015 593.637, 589.084 590.214, 590.385 587.419 C 592.467 582.949, 592.590 582.047, 591.411 579.919 C 590.674 578.589, 590.057 575.925, 590.039 574 C 590.022 572.075, 590.877 569.074, 591.940 567.330 C 593.003 565.587, 596.264 562.368, 599.186 560.176 C 602.109 557.985, 607.650 554.496, 611.500 552.424 C 615.350 550.352, 618.649 548.547, 618.832 548.413 C 619.015 548.279, 619.676 543.519, 620.302 537.835 C 620.927 532.151, 621.312 521.944, 621.157 515.152 C 620.963 506.627, 621.204 503.008, 621.938 503.461 C 622.522 503.823, 623 503.641, 623 503.059 C 623 502.477, 622.550 502, 622 502 C 621.450 502, 621 501.523, 621 500.941 C 621 500.359, 621.446 500.158, 621.991 500.494 C 622.631 500.890, 622.985 494.977, 622.991 483.803 C 622.996 474.287, 623.404 462.680, 623.898 458.011 C 624.392 453.342, 624.555 447.942, 624.260 446.011 C 623.964 444.080, 623.326 441.993, 622.841 441.373 C 622.346 440.740, 618.628 440.182, 614.346 440.100 C 610.158 440.018, 606.287 439.678, 605.744 439.342 C 605.201 439.006, 590.442 438.611, 572.947 438.464 C 555.451 438.317, 540.987 438.346, 540.804 438.530 M 410.718 473.615 C 410.342 473.992, 410.031 524.520, 410.027 585.900 C 410.024 647.280, 410.359 698.028, 410.772 698.674 C 411.221 699.375, 414.841 699.960, 419.757 700.128 C 424.363 700.285, 428.436 699.964, 429 699.400 C 429.669 698.731, 429.923 660.563, 429.754 585.946 L 429.500 473.500 420.452 473.215 C 415.475 473.058, 411.095 473.238, 410.718 473.615" stroke="none" fill="#f987af" fill-rule="evenodd"/><path d="M 457 92.661 C 455.075 92.848, 449.450 93.452, 444.500 94.003 C 439.550 94.554, 429.425 96.533, 422 98.399 C 414.575 100.266, 404.169 103.375, 398.875 105.308 C 393.581 107.241, 386.606 110.055, 383.375 111.560 C 380.144 113.065, 374.350 116.104, 370.500 118.313 C 366.650 120.522, 360.962 124.268, 357.861 126.638 C 354.759 129.008, 349.561 133.674, 346.309 137.007 L 340.397 143.067 330.500 141.475 C 322.352 140.164, 319.002 140.078, 311.551 140.991 C 306.573 141.602, 299.366 143.020, 295.535 144.144 C 291.705 145.268, 285.925 147.524, 282.691 149.156 C 279.457 150.788, 274.942 153.461, 272.656 155.096 C 270.370 156.731, 265.649 160.865, 262.164 164.284 C 258.679 167.703, 253.391 174.150, 250.414 178.611 C 247.436 183.073, 244.997 187.123, 244.994 187.611 C 244.990 188.100, 244.283 189.850, 243.421 191.500 C 242.559 193.150, 240.990 198.100, 239.934 202.500 C 238.878 206.900, 238.011 213.099, 238.007 216.277 C 238.003 219.454, 239.350 228.779, 241 237 C 242.710 245.519, 244 255.116, 244 259.317 C 244 264.096, 243.293 268.742, 241.989 272.532 C 240.883 275.747, 238.573 280.880, 236.856 283.939 C 235.139 286.997, 231.567 292.234, 228.919 295.576 C 226.271 298.918, 216.644 308.766, 207.525 317.461 C 198.407 326.155, 188.188 336.921, 184.817 341.385 C 181.445 345.848, 177.196 352.650, 175.375 356.500 C 173.553 360.350, 171.374 366.182, 170.532 369.460 C 169.689 372.738, 169 377.303, 169 379.605 C 169 381.906, 169.888 386.649, 170.973 390.145 C 172.059 393.640, 174.421 398.593, 176.223 401.152 C 178.026 403.710, 181.623 408.495, 184.219 411.785 C 186.814 415.075, 189.851 420.086, 190.969 422.920 C 192.312 426.328, 193 430.397, 193 434.932 C 193 439.060, 192.163 444.518, 190.898 448.645 C 189.742 452.415, 187.228 458.650, 185.312 462.500 C 183.396 466.350, 178.159 474.675, 173.673 481 C 169.188 487.325, 163.216 495.971, 160.402 500.213 C 157.588 504.455, 153.468 511.655, 151.246 516.213 C 149.025 520.771, 146.075 527.875, 144.690 532 C 143.305 536.125, 141.233 544.087, 140.086 549.692 C 138.521 557.339, 138.002 563.583, 138.007 574.692 C 138.012 586.083, 138.482 591.461, 140.041 598 C 141.155 602.675, 142.981 608.975, 144.097 612 C 145.214 615.025, 147.513 619.975, 149.206 623 C 150.900 626.025, 154.188 630.975, 156.514 634 C 158.840 637.025, 162.938 641.544, 165.622 644.042 C 168.305 646.539, 172.525 649.965, 175 651.654 C 177.475 653.342, 183.397 656.605, 188.160 658.904 C 192.923 661.203, 200.798 664.185, 205.660 665.530 C 210.522 666.875, 215.287 667.981, 216.250 667.988 C 217.805 667.999, 217.989 666.912, 217.900 658.250 C 217.845 652.888, 217.507 644.101, 217.150 638.725 L 216.500 628.950 219.500 629.592 C 221.150 629.945, 222.593 630.312, 222.708 630.408 C 222.822 630.504, 223.220 639.114, 223.592 649.541 C 223.964 659.968, 224.713 669.063, 225.257 669.750 C 225.800 670.438, 226.726 671, 227.314 671 C 227.901 671, 227.670 670.437, 226.799 669.750 C 225.499 668.723, 225.130 665.357, 224.731 650.860 C 224.464 641.158, 224.528 632.792, 224.873 632.267 C 225.218 631.743, 228.425 631.346, 232 631.385 C 236.783 631.437, 239.240 630.960, 241.301 629.579 C 242.842 628.547, 244.754 626.442, 245.551 624.901 C 246.348 623.360, 247 621.052, 247 619.772 C 247 618.492, 247.712 616.429, 248.582 615.186 C 249.595 613.739, 250.319 609.976, 250.596 604.714 C 250.834 600.196, 251.020 595.013, 251.011 593.196 C 251.001 591.379, 250.170 588.288, 249.163 586.327 C 247.463 583.013, 247.444 582.454, 248.891 578.429 C 250.301 574.510, 250.301 573.689, 248.893 569.799 C 247.796 566.766, 245.701 564.175, 241.778 561 C 238.720 558.525, 232.569 554.556, 228.109 552.180 L 220 547.860 219.820 542.680 L 219.640 537.500 219.263 542.299 C 218.917 546.707, 218.707 547.045, 216.693 546.437 C 215.487 546.073, 214.173 545.476, 213.773 545.111 C 213.373 544.745, 212.330 527.133, 211.455 505.973 C 210.580 484.813, 209.530 460.975, 209.121 453 C 208.713 445.025, 208.731 437.765, 209.162 436.866 C 209.593 435.968, 211.420 434.961, 213.223 434.629 C 215.025 434.296, 223.925 433.279, 233 432.367 C 243.029 431.360, 257.735 430.737, 270.500 430.779 C 282.772 430.819, 297.671 431.529, 306.349 432.487 C 314.515 433.389, 326.440 435.231, 332.849 436.579 C 339.257 437.928, 348.550 440.206, 353.500 441.641 C 358.450 443.076, 367.175 446.080, 372.888 448.316 L 383.276 452.380 385.519 449.773 C 386.752 448.339, 389.165 443.490, 390.881 438.997 C 392.596 434.505, 394.007 429.855, 394.015 428.665 C 394.024 427.474, 394.411 425.899, 394.877 425.165 C 395.552 424.100, 396.511 424.058, 399.612 424.958 C 401.750 425.579, 408.450 426.353, 414.500 426.677 C 420.576 427.004, 429.098 426.783, 433.538 426.184 C 437.959 425.588, 442.290 424.826, 443.161 424.492 C 444.423 424.008, 445.113 425.274, 446.544 430.692 C 447.533 434.436, 449.626 440.266, 451.195 443.647 C 452.764 447.028, 454.718 450.351, 455.538 451.031 C 456.751 452.038, 459.021 451.506, 467.764 448.169 C 473.669 445.914, 483.225 442.729, 489 441.090 C 494.775 439.451, 504.041 437.209, 509.591 436.108 C 515.142 435.008, 526.392 433.371, 534.591 432.472 C 543.127 431.535, 558.264 430.807, 570 430.768 C 582.626 430.727, 597.406 431.378, 608.480 432.463 C 618.369 433.432, 627.481 434.613, 628.730 435.087 C 630.808 435.878, 631 436.577, 631 443.362 C 631 447.439, 630.564 462.188, 630.031 476.137 C 629.498 490.087, 628.532 511.324, 627.885 523.330 C 626.715 545.024, 626.692 545.167, 624.289 546.080 C 622.958 546.586, 621.616 547, 621.306 547 C 620.996 547, 620.994 542.388, 621.302 536.750 C 621.627 530.793, 621.521 527.757, 621.049 529.500 C 620.602 531.150, 620.183 534.806, 620.118 537.625 C 620.053 540.444, 619.738 544.058, 619.419 545.656 C 618.949 548.005, 617.583 549.213, 612.290 551.957 C 608.688 553.825, 603.089 557.305, 599.846 559.692 C 596.604 562.079, 593.064 565.487, 591.979 567.266 C 590.895 569.045, 590.022 572.075, 590.039 574 C 590.057 575.925, 590.674 578.589, 591.411 579.919 C 592.590 582.047, 592.467 582.949, 590.385 587.419 C 589.084 590.214, 588.015 593.637, 588.010 595.027 C 588.004 596.418, 588.695 598.547, 589.545 599.760 C 590.702 601.413, 590.827 602.454, 590.045 603.917 C 589.470 604.990, 589.002 607.136, 589.004 608.684 C 589.006 610.233, 589.830 612.850, 590.834 614.500 C 591.839 616.150, 592.945 619.252, 593.291 621.393 C 593.637 623.535, 594.922 626.352, 596.145 627.655 C 597.369 628.957, 600.111 630.491, 602.239 631.064 C 604.367 631.637, 608.043 631.816, 610.408 631.461 L 614.709 630.817 615.343 634.658 C 615.692 636.771, 616.075 642.550, 616.193 647.500 C 616.393 655.842, 616.448 655.554, 616.954 643.570 L 617.500 630.639 620.405 629.864 L 623.311 629.090 622.637 648.545 C 622.040 665.784, 622.141 668, 623.522 668 C 624.379 668, 629.900 666.372, 635.790 664.381 C 641.681 662.391, 650.325 658.883, 655 656.587 C 659.675 654.290, 666.805 650.225, 670.845 647.552 C 674.885 644.880, 681.949 639.136, 686.542 634.788 C 691.210 630.370, 697.276 623.271, 700.296 618.692 C 703.268 614.186, 706.843 608.025, 708.242 605 C 709.641 601.975, 711.509 597.344, 712.394 594.709 C 713.280 592.074, 714.678 586.053, 715.502 581.328 C 716.326 576.604, 717 568.347, 717 562.979 C 717 557.612, 716.306 549.459, 715.459 544.860 C 714.611 540.262, 712.968 533.350, 711.808 529.500 C 710.648 525.650, 708.241 519.288, 706.458 515.362 C 704.675 511.437, 701.177 505.137, 698.685 501.362 C 696.193 497.588, 690.974 490.225, 687.088 485 C 683.203 479.775, 678.430 472.289, 676.482 468.365 C 674.534 464.441, 672.246 457.916, 671.398 453.865 C 670.132 447.817, 670.055 445.070, 670.972 438.500 C 671.586 434.100, 673.027 427.125, 674.176 423 C 675.324 418.875, 677.746 410.775, 679.558 405 C 681.370 399.225, 683.596 391.407, 684.504 387.626 C 685.563 383.220, 686.141 376.640, 686.114 369.297 C 686.081 359.992, 685.603 356.309, 683.566 349.671 C 682.188 345.177, 678.995 337.986, 676.471 333.691 C 673.947 329.396, 669.183 323.183, 665.884 319.884 C 662.585 316.585, 656.874 311.938, 653.193 309.557 C 649.512 307.176, 640.724 302.373, 633.665 298.884 C 626.605 295.395, 618.289 290.493, 615.184 287.992 C 612.079 285.490, 608.371 281.656, 606.943 279.472 C 605.516 277.287, 603.561 273.371, 602.598 270.768 C 601.636 268.166, 600.604 262.766, 600.305 258.768 C 600.006 254.771, 600.529 240.924, 601.469 227.998 C 603.054 206.184, 603.061 203.490, 601.562 190.498 C 600.674 182.799, 599.053 173.299, 597.960 169.387 C 596.867 165.475, 594.361 158.962, 592.391 154.915 C 590.421 150.867, 586.882 144.618, 584.526 141.028 C 582.170 137.438, 577.937 131.951, 575.118 128.836 C 572.300 125.721, 566.733 120.726, 562.747 117.735 C 558.761 114.745, 552.125 110.463, 548 108.220 C 543.875 105.976, 536.450 102.793, 531.500 101.145 C 526.550 99.498, 519.575 97.408, 516 96.502 C 512.425 95.596, 504.325 94.227, 498 93.459 C 491.675 92.691, 480.650 92.120, 473.500 92.191 C 466.350 92.262, 458.925 92.473, 457 92.661 M 151.304 161.650 C 150.924 162.639, 149.456 166.586, 148.041 170.420 L 145.468 177.390 137.861 180.058 C 133.677 181.525, 129.747 183.038, 129.127 183.421 C 128.507 183.805, 128 184.766, 128 185.559 C 128 186.352, 128.113 187, 128.250 187 C 128.388 187, 132.311 188.293, 136.967 189.872 L 145.433 192.745 148.330 201.122 C 149.923 205.730, 151.723 209.812, 152.330 210.193 C 152.936 210.574, 153.982 210.430, 154.652 209.874 C 155.323 209.317, 156.177 207.430, 156.551 205.681 C 156.925 203.931, 157.577 202.050, 158 201.500 C 158.423 200.950, 159.075 199.069, 159.449 197.319 C 159.823 195.570, 160.662 193.713, 161.314 193.193 C 161.966 192.673, 165.805 191.115, 169.844 189.730 C 173.883 188.345, 177.685 186.715, 178.294 186.106 C 178.990 185.410, 179.048 184.665, 178.450 184.096 C 177.928 183.599, 174.022 181.969, 169.771 180.474 C 165.520 178.979, 161.638 177.248, 161.145 176.628 C 160.652 176.008, 159.093 172.125, 157.681 168 C 156.140 163.498, 154.490 160.371, 153.554 160.176 C 152.696 159.998, 151.683 160.661, 151.304 161.650 M 679.763 175.565 C 678.257 176.382, 676.344 178.367, 675.513 179.976 C 674.681 181.584, 674 184.689, 674 186.874 C 674 189.664, 674.752 191.741, 676.528 193.851 C 677.919 195.504, 681.069 197.625, 683.528 198.564 C 686.343 199.639, 687.977 200.870, 687.939 201.886 C 687.905 202.774, 685.277 211.375, 682.098 221 C 676.453 238.095, 676.257 238.496, 673.628 238.307 C 672.147 238.201, 669.623 237.460, 668.018 236.659 C 665.425 235.365, 664.733 235.387, 661.800 236.852 C 659.326 238.087, 658.232 239.502, 657.431 242.500 C 656.844 244.700, 655.804 247.837, 655.122 249.472 C 654.231 251.604, 654.174 253.086, 654.917 254.718 C 655.605 256.228, 655.625 257.855, 654.977 259.561 C 654.440 260.974, 654 262.516, 654 262.988 C 654 263.460, 655.060 265.119, 656.355 266.673 C 657.650 268.228, 659.284 271.300, 659.985 273.500 C 660.687 275.700, 661.758 278.124, 662.366 278.887 C 662.974 279.649, 665.428 281.112, 667.819 282.137 C 670.210 283.161, 673.763 284, 675.715 284 C 677.667 284, 680.780 283.063, 682.632 281.918 C 684.484 280.774, 686 279.424, 686 278.918 C 686 278.413, 687.272 278, 688.826 278 C 690.486 278, 692.548 277.046, 693.826 275.686 C 695.022 274.413, 696 272.809, 696 272.121 C 696 271.433, 697.350 269.735, 699 268.347 C 700.784 266.845, 702 264.859, 702 263.445 C 702 262.138, 702.775 259.442, 703.723 257.455 C 705.354 254.035, 705.354 253.681, 703.719 250.832 C 702.769 249.177, 702.242 247.418, 702.548 246.923 C 702.854 246.428, 702.390 246.297, 701.517 246.632 C 700.645 246.967, 697.921 246.678, 695.465 245.990 C 693.009 245.303, 691 244.286, 691 243.731 C 691 243.176, 693.742 234.202, 697.094 223.790 C 701.544 209.963, 703.549 204.997, 704.531 205.374 C 705.270 205.657, 707.655 206.368, 709.830 206.954 C 712.781 207.749, 714.754 207.699, 717.606 206.760 C 719.986 205.975, 722.289 204.219, 723.713 202.102 C 724.982 200.218, 726 197.189, 726 195.302 C 726 193.431, 725.348 190.640, 724.551 189.099 C 723.754 187.558, 721.970 185.555, 720.586 184.648 C 719.191 183.734, 716.066 183, 713.570 183 C 710.012 183, 708.366 183.618, 705.707 185.952 C 703.826 187.604, 701.817 190.668, 701.145 192.910 C 700.485 195.113, 699.598 197.130, 699.175 197.392 C 698.751 197.654, 697.846 197.523, 697.163 197.101 C 696.240 196.530, 696.188 195.635, 696.961 193.602 C 697.533 192.099, 698 188.604, 698 185.835 C 698 181.442, 697.566 180.366, 694.600 177.400 C 691.754 174.554, 690.491 174.007, 686.850 174.040 C 684.457 174.062, 681.268 174.748, 679.763 175.565 M 681.944 180.844 C 680.460 182.046, 679.667 183.769, 679.667 185.791 C 679.667 187.497, 680.286 189.639, 681.042 190.551 C 681.799 191.462, 683.336 192.551, 684.459 192.971 C 685.582 193.390, 687.439 194.025, 688.587 194.382 C 690.351 194.931, 690.854 194.431, 691.837 191.150 C 692.477 189.015, 693 186.386, 693 185.308 C 693 184.230, 691.958 182.370, 690.686 181.174 C 689.413 179.978, 687.437 179, 686.296 179 C 685.155 179, 683.197 179.830, 681.944 180.844 M 710.343 189.179 C 709.157 189.753, 707.413 192.248, 706.467 194.724 C 705.042 198.457, 704.980 199.369, 706.104 200.064 C 706.849 200.525, 709.122 201.183, 711.155 201.526 C 713.259 201.882, 715.764 201.661, 716.973 201.014 C 718.141 200.390, 719.513 198.781, 720.023 197.439 C 720.593 195.940, 720.593 194.060, 720.023 192.561 C 719.513 191.219, 718.204 189.644, 717.114 189.061 C 716.023 188.477, 714.539 188.030, 713.816 188.068 C 713.092 188.105, 711.530 188.605, 710.343 189.179 M 688.065 220.628 C 684.729 230.941, 682 240.002, 682 240.763 C 682 241.527, 682.761 242, 683.701 241.819 C 684.948 241.579, 686.951 236.693, 691.211 223.496 C 694.405 213.598, 696.903 204.862, 696.760 204.083 C 696.617 203.303, 695.967 202.488, 695.315 202.271 C 694.556 202.018, 691.946 208.627, 688.065 220.628 M 108.446 206.744 C 107.866 207.160, 105.983 211.325, 104.263 216 C 102.542 220.675, 99.951 228.100, 98.505 232.500 C 97.059 236.900, 95.463 241.400, 94.959 242.500 C 94.454 243.600, 93.627 245.647, 93.122 247.050 C 92.322 249.266, 90.128 250.303, 76.351 254.975 C 67.633 257.931, 58.475 261.065, 56 261.940 C 53.525 262.814, 50.938 263.887, 50.250 264.324 C 49.563 264.761, 49 266.190, 49 267.500 C 49 268.810, 49.490 270.185, 50.088 270.554 C 50.687 270.924, 60.200 274.299, 71.228 278.053 C 82.256 281.808, 91.665 285.265, 92.137 285.737 C 92.609 286.209, 95.047 292.424, 97.555 299.548 C 100.062 306.671, 103.304 316.002, 104.759 320.282 C 106.887 326.540, 107.868 328.180, 109.775 328.658 C 111.079 328.986, 112.552 328.848, 113.048 328.352 C 113.544 327.856, 116.238 320.937, 119.036 312.975 C 121.834 305.014, 125.066 295.666, 126.218 292.201 C 127.371 288.737, 129.030 285.535, 129.907 285.086 C 130.783 284.636, 139.825 281.464, 150 278.035 C 160.175 274.607, 169.512 271.161, 170.750 270.378 C 171.988 269.595, 173 268.359, 173 267.632 C 173 266.905, 172.213 265.614, 171.250 264.764 C 170.287 263.913, 161.293 260.461, 151.263 257.093 C 141.233 253.725, 131.975 250.490, 130.690 249.905 C 128.809 249.048, 127.340 245.863, 123.145 233.551 C 120.280 225.141, 116.913 215.615, 115.662 212.380 C 114.077 208.279, 112.801 206.423, 111.445 206.244 C 110.375 206.104, 109.025 206.329, 108.446 206.744 M 201.365 210.217 C 200.850 210.923, 199.320 214.830, 197.964 218.900 C 195.831 225.306, 195.065 226.482, 192.261 227.659 C 190.480 228.406, 186.542 229.781, 183.511 230.715 C 179.131 232.063, 178 232.840, 178 234.499 C 178 236.231, 179.489 237.091, 186.726 239.543 C 194.934 242.324, 195.513 242.708, 196.476 246 C 197.039 247.925, 197.785 249.950, 198.132 250.500 C 198.480 251.050, 199.072 252.931, 199.447 254.681 C 199.822 256.430, 200.794 258.414, 201.607 259.089 C 202.569 259.887, 203.426 259.974, 204.062 259.338 C 204.600 258.800, 206.268 254.806, 207.770 250.462 L 210.500 242.564 219 239.443 C 225.286 237.135, 227.500 235.861, 227.500 234.553 C 227.500 233.250, 225.272 231.954, 219.025 229.624 L 210.551 226.463 207.459 218.043 C 205.758 213.411, 203.902 209.467, 203.333 209.278 C 202.765 209.088, 201.879 209.511, 201.365 210.217 M 364.015 218.460 C 363.457 219.929, 363 221.349, 363 221.617 C 363 221.885, 361.211 225.689, 359.025 230.070 C 356.839 234.452, 353.153 240.841, 350.835 244.268 C 348.516 247.696, 343.970 253.120, 340.731 256.321 C 337.492 259.523, 331.840 264.042, 328.171 266.364 C 324.502 268.686, 319.250 271.522, 316.500 272.668 C 313.750 273.813, 309.925 275.219, 308 275.793 C 306.075 276.366, 303.038 277.134, 301.250 277.497 C 299.332 277.888, 298 278.770, 298 279.650 C 298 280.470, 298.711 285.047, 299.580 289.820 C 300.449 294.594, 302.067 302.325, 303.177 307 C 304.286 311.675, 306.022 317.975, 307.033 321 C 308.045 324.025, 309.604 328.300, 310.499 330.500 C 311.393 332.700, 312.828 336.075, 313.688 338 C 314.548 339.925, 316.791 344.605, 318.673 348.399 C 320.555 352.194, 324.873 359.394, 328.268 364.399 C 331.663 369.405, 338.955 378.020, 344.471 383.545 C 349.987 389.070, 357.650 395.666, 361.500 398.201 C 365.350 400.737, 371.798 404.465, 375.828 406.486 C 379.859 408.507, 385.934 411.074, 389.328 412.191 C 392.723 413.309, 399.325 414.846, 404 415.608 C 408.675 416.369, 415.875 416.993, 420 416.993 C 424.125 416.993, 431.550 416.286, 436.500 415.421 C 441.450 414.556, 448.200 412.942, 451.500 411.834 C 454.800 410.726, 460.650 408.243, 464.500 406.316 C 468.350 404.389, 474.650 400.742, 478.500 398.212 C 482.350 395.682, 490 389.087, 495.500 383.556 C 501 378.025, 508.250 369.450, 511.612 364.500 C 514.973 359.550, 519.558 351.900, 521.799 347.500 C 524.041 343.100, 526.747 337.475, 527.813 335 C 528.879 332.525, 531.147 326.450, 532.855 321.500 C 534.562 316.550, 537.051 307.100, 538.386 300.500 C 539.721 293.900, 541.105 285.977, 541.461 282.894 C 542.090 277.439, 542.032 277.257, 539.304 276.156 C 537.762 275.534, 533.350 274.379, 529.500 273.589 C 525.650 272.800, 515.525 271.660, 507 271.056 C 498.475 270.452, 488.125 269.543, 484 269.036 C 479.875 268.529, 473.125 267.826, 469 267.475 C 464.875 267.123, 455.875 265.954, 449 264.877 C 442.125 263.801, 433.800 262.240, 430.500 261.408 C 427.200 260.577, 421.350 258.739, 417.500 257.324 C 413.650 255.909, 407.350 253.188, 403.500 251.276 C 399.650 249.365, 394.174 246.271, 391.331 244.400 C 388.488 242.530, 383.571 238.638, 380.405 235.750 C 377.239 232.863, 372.485 227.190, 369.840 223.145 C 365.086 215.876, 365.019 215.821, 364.015 218.460 M 360.485 280.891 C 359.377 281.370, 357.007 283.259, 355.218 285.088 C 353.429 286.918, 351.486 290.193, 350.901 292.367 C 350.316 294.540, 350.137 297.934, 350.503 299.909 C 350.869 301.884, 352.047 304.931, 353.122 306.679 C 354.196 308.428, 357.001 310.790, 359.353 311.929 C 361.706 313.068, 365.304 314, 367.348 314 C 369.392 314, 372.512 313.380, 374.282 312.623 C 376.052 311.866, 378.698 309.953, 380.163 308.373 C 381.628 306.793, 383.317 303.648, 383.915 301.385 C 384.514 299.122, 384.724 295.747, 384.382 293.885 C 384.040 292.023, 382.867 289.150, 381.775 287.500 C 380.683 285.850, 378.611 283.615, 377.169 282.533 C 375.383 281.192, 372.630 280.479, 368.524 280.293 C 365.211 280.143, 361.593 280.412, 360.485 280.891 M 462.846 283.287 C 460.092 285.388, 457.850 288.231, 456.634 291.164 C 455.319 294.338, 454.935 296.839, 455.390 299.266 C 455.752 301.197, 457.050 304.248, 458.274 306.046 C 459.498 307.845, 461.719 310.219, 463.209 311.322 C 464.837 312.529, 468.026 313.494, 471.209 313.744 C 475.415 314.074, 477.422 313.666, 481 311.754 C 483.812 310.252, 486.338 307.878, 487.734 305.425 C 489.074 303.069, 489.974 299.785, 489.984 297.210 C 489.993 294.851, 489.099 291.154, 487.997 288.994 C 486.895 286.835, 484.316 283.928, 482.265 282.534 C 479.354 280.556, 477.288 280, 472.846 280 C 467.954 280, 466.551 280.461, 462.846 283.287 M 367.035 286.934 C 366.466 287.998, 366 290.012, 366 291.409 C 366 293.171, 366.846 294.386, 368.762 295.377 C 371.135 296.604, 371.900 296.608, 374.193 295.407 C 375.661 294.637, 377.142 293.127, 377.484 292.050 C 377.839 290.933, 377.389 288.997, 376.438 287.546 C 375.200 285.657, 373.906 285, 371.420 285 C 369.132 285, 367.742 285.613, 367.035 286.934 M 472.440 287.451 C 471.483 288.911, 471.100 290.741, 471.493 291.978 C 471.855 293.119, 473.268 294.785, 474.633 295.679 C 476.960 297.204, 477.282 297.180, 479.807 295.297 C 481.288 294.192, 482.650 292.526, 482.833 291.595 C 483.016 290.664, 482.443 288.799, 481.560 287.451 C 480.455 285.765, 479.032 285, 477 285 C 474.968 285, 473.545 285.765, 472.440 287.451 M 272.014 291.752 C 270.097 292.713, 267.937 294.625, 267.214 296 C 266.372 297.602, 266.062 300.655, 266.352 304.500 C 266.600 307.800, 267.815 312.750, 269.052 315.500 C 270.289 318.250, 273.070 323.306, 275.231 326.736 C 277.393 330.166, 281.263 334.825, 283.831 337.089 C 286.399 339.353, 290.218 342.084, 292.318 343.158 C 294.419 344.232, 298.432 345.382, 301.236 345.714 C 305.977 346.276, 306.280 346.184, 305.535 344.409 C 305.094 343.359, 302.813 337.325, 300.466 331 C 298.119 324.675, 295.494 316.800, 294.632 313.500 C 293.771 310.200, 292.302 304.047, 291.368 299.827 L 289.671 292.155 285.393 291.077 C 283.040 290.485, 279.851 290.001, 278.307 290.002 C 276.763 290.002, 273.931 290.790, 272.014 291.752 M 554.034 291.306 C 551.438 292.200, 550.389 293.253, 549.856 295.500 C 549.464 297.150, 548.152 302.775, 546.939 308 C 545.725 313.225, 543.039 322.225, 540.969 328 C 538.898 333.775, 536.477 340.188, 535.589 342.250 L 533.973 346 537.737 345.990 C 539.806 345.985, 543.923 344.853, 546.884 343.474 C 550.094 341.980, 554.738 338.444, 558.384 334.718 C 561.748 331.281, 565.927 325.776, 567.672 322.484 C 569.416 319.193, 571.547 314.475, 572.407 312 C 573.267 309.525, 573.977 305.238, 573.985 302.473 C 573.994 299.422, 573.359 296.530, 572.369 295.117 C 571.472 293.836, 569.237 292.161, 567.401 291.394 C 565.566 290.627, 562.587 290.025, 560.782 290.056 C 558.977 290.087, 555.940 290.650, 554.034 291.306 M 387.750 345.080 C 386.644 345.724, 386 347.311, 386 349.390 C 386 351.200, 387.376 355.434, 389.058 358.799 C 390.873 362.433, 394.142 366.741, 397.106 369.405 C 399.851 371.873, 404.567 374.817, 407.586 375.946 C 411.168 377.286, 415.464 378, 419.949 378 C 424.549 378, 428.659 377.297, 432.379 375.874 C 435.435 374.704, 439.756 372.189, 441.981 370.284 C 444.206 368.379, 447.329 364.929, 448.919 362.617 C 450.510 360.305, 452.338 356.460, 452.980 354.072 C 453.623 351.685, 453.890 348.697, 453.572 347.432 C 453.255 346.168, 452.113 344.853, 451.035 344.511 C 449.958 344.169, 448.164 344.377, 447.050 344.973 C 445.935 345.570, 444.729 347.282, 444.370 348.779 C 444.010 350.275, 442.907 353.118, 441.917 355.095 C 440.927 357.072, 438.437 360.166, 436.382 361.970 C 434.327 363.774, 431.165 365.869, 429.355 366.625 C 427.545 367.381, 423.687 367.997, 420.782 367.994 C 417.877 367.991, 413.754 367.504, 411.619 366.911 C 409.259 366.256, 405.887 363.982, 403.013 361.109 C 399.857 357.952, 397.715 354.657, 396.560 351.182 C 395.610 348.321, 394 345.535, 392.982 344.990 C 391.964 344.446, 390.764 344.014, 390.316 344.030 C 389.867 344.047, 388.712 344.519, 387.750 345.080 M 550.500 436.926 C 546.650 437.322, 544.175 437.767, 545 437.914 C 545.825 438.061, 557.634 438.272, 571.242 438.382 C 584.849 438.493, 595.611 438.211, 595.155 437.755 C 594.700 437.300, 586.041 436.765, 575.914 436.566 C 565.786 436.367, 554.350 436.529, 550.500 436.926 M 202.706 555.773 C 201.213 557.422, 200.911 559.633, 200.881 569.125 C 200.861 575.381, 201.167 583.875, 201.560 588 C 202.145 594.137, 202.805 596.174, 205.190 599.210 C 207.631 602.317, 207.998 603.496, 207.443 606.454 C 207.078 608.397, 207.044 611.038, 207.366 612.322 C 207.688 613.606, 209.200 615.241, 210.726 615.954 C 212.252 616.667, 216.696 618.278, 220.603 619.534 C 224.510 620.791, 229.010 621.907, 230.603 622.015 C 232.196 622.123, 234.512 622.164, 235.750 622.106 C 237.188 622.038, 237.998 621.369, 237.994 620.250 C 237.990 619.288, 237.315 617.211, 236.494 615.636 C 235.672 614.060, 235 612.373, 235 611.886 C 235 611.399, 236.323 611, 237.941 611 C 239.559 611, 241.148 610.570, 241.473 610.044 C 241.798 609.518, 241.444 607.606, 240.687 605.794 C 239.929 603.982, 238.565 601.882, 237.655 601.128 C 236.745 600.373, 236 599.135, 236 598.378 C 236 597.584, 237.034 597, 238.441 597 C 239.784 597, 241.176 596.524, 241.535 595.943 C 241.894 595.362, 241.921 593.822, 241.594 592.520 C 241.268 591.219, 239.425 588.090, 237.500 585.568 C 235.575 583.046, 234 580.543, 234 580.005 C 234 579.467, 235.575 578.369, 237.500 577.564 C 239.833 576.590, 241 575.440, 241 574.118 C 241 572.984, 239.180 570.678, 236.750 568.734 C 234.412 566.865, 230.925 564.392, 229 563.240 C 227.075 562.089, 222.698 559.756, 219.274 558.057 C 215.850 556.358, 211.124 554.705, 208.772 554.382 C 205.306 553.907, 204.155 554.171, 202.706 555.773 M 622.701 557.429 C 618.412 559.302, 613.687 561.608, 612.201 562.555 C 610.715 563.501, 607.362 565.881, 604.750 567.843 C 601.050 570.622, 600 572.034, 600 574.230 C 600 576.568, 600.517 577.153, 603.021 577.654 C 604.682 577.986, 606.244 578.586, 606.492 578.987 C 606.740 579.388, 605.138 582.135, 602.932 585.092 C 600.726 588.048, 598.671 591.462, 598.366 592.677 C 598.061 593.892, 598.106 595.362, 598.465 595.943 C 598.824 596.524, 600.441 597, 602.059 597 C 603.677 597, 605 597.395, 605 597.878 C 605 598.360, 604.295 599.340, 603.434 600.055 C 602.573 600.770, 601.223 602.602, 600.434 604.128 C 599.645 605.653, 599 607.823, 599 608.950 C 599 610.577, 599.642 611, 602.107 611 C 604.668 611, 605.090 611.307, 604.508 612.750 C 604.120 613.712, 603.563 616.188, 603.270 618.250 L 602.737 622 607.618 621.993 C 610.303 621.989, 615.746 620.885, 619.712 619.538 C 623.679 618.192, 628.292 616.383, 629.962 615.519 C 632.847 614.028, 633 613.639, 633 607.789 C 633 602.781, 633.420 601.182, 635.246 599.239 C 636.914 597.463, 637.694 595.004, 638.280 589.674 C 638.713 585.728, 639.231 577.213, 639.430 570.752 C 639.753 560.257, 639.581 558.738, 637.823 556.502 C 636.591 554.936, 634.853 554.005, 633.177 554.012 C 631.705 554.019, 626.990 555.557, 622.701 557.429" stroke="none" fill="#9b7960" fill-rule="evenodd"/></svg>