<svg xmlns="http://www.w3.org/2000/svg" width="1109" height="916" viewBox="0 0 1109 916" version="1.1"><path d="M 718 546.100 C 712.225 546.429, 702.325 547.412, 696 548.282 C 689.675 549.153, 679.584 550.374, 673.576 550.994 C 666.882 551.685, 661.097 552.873, 658.638 554.061 C 656.430 555.127, 653.738 556, 652.655 556 C 651.572 556, 644.569 558.093, 637.093 560.652 C 624.573 564.936, 619.753 566.656, 600.792 573.605 C 593.597 576.241, 585.914 580.085, 576.926 585.545 L 571.319 588.951 570.662 609.226 C 570.301 620.376, 570.004 689.013, 570.003 761.750 C 570 875.398, 570.200 894, 571.422 894 C 572.203 894, 577.716 891.589, 583.672 888.643 C 589.627 885.696, 596.075 882.572, 598 881.701 C 610.388 876.094, 638.905 867.141, 652.500 864.590 C 690.638 857.434, 705.076 856.026, 740.441 856.010 C 763.379 856, 776.766 856.742, 796.620 859.123 C 801.637 859.725, 806.631 859.935, 807.719 859.589 C 810.821 858.605, 812.101 854.423, 813.016 842.283 C 813.483 836.092, 814.067 830.683, 814.314 830.264 C 814.765 829.496, 812.410 807.077, 811.816 806.482 C 811.641 806.308, 809.324 806.571, 806.665 807.068 C 798.700 808.556, 788.905 805.557, 785.686 800.644 C 784.800 799.292, 783.543 796.006, 782.892 793.343 C 782.241 790.679, 781.042 787.176, 780.229 785.558 C 777.425 779.981, 776.942 776.682, 778.139 771.300 C 779.130 766.845, 779.060 765.740, 777.648 763.585 C 775.346 760.072, 775.583 756.612, 778.664 748.761 C 781.300 742.041, 781.311 741.905, 779.761 735.521 C 777.734 727.174, 778.782 722.890, 784.319 716.873 C 788.537 712.289, 802.588 702.404, 811.122 698.016 C 813.664 696.709, 816.292 694.761, 816.962 693.689 C 818.834 690.692, 820.020 675.432, 819.982 654.847 C 819.954 639.578, 820.220 635.923, 821.446 634.697 C 822.777 633.366, 822.775 633.058, 821.425 631.938 C 820.269 630.978, 820.198 630.495, 821.129 629.920 C 822.258 629.223, 823.942 593.615, 824.376 561.286 C 824.524 550.308, 823.635 548.885, 816.325 548.401 C 813.671 548.225, 804.300 547.577, 795.500 546.960 C 777.331 545.687, 733.712 545.202, 718 546.100 M 298 547.027 C 294.975 547.453, 289.800 547.872, 286.500 547.958 C 278.650 548.161, 273.817 549.882, 272.338 553 C 271.448 554.878, 271.388 560.351, 272.098 575 C 274.309 620.665, 274.984 636.664, 275.532 656.500 C 275.851 668.050, 276.595 679.409, 277.184 681.743 C 277.985 684.913, 277.955 686.350, 277.065 687.421 C 274.631 690.355, 278.302 694.394, 288.815 700.347 C 306.905 710.589, 314.171 716.994, 317.087 725.268 C 318.226 728.501, 318.182 729.905, 316.776 735.154 C 315.194 741.057, 315.210 741.452, 317.219 746.386 C 320.500 754.440, 319.728 775.200, 315.708 787 C 314.865 789.475, 313.540 793.503, 312.763 795.950 C 311.847 798.836, 310.052 801.451, 307.658 803.389 C 304.324 806.087, 303.049 806.437, 294.505 807 C 289.302 807.342, 284.826 807.840, 284.560 808.106 C 283.914 808.753, 283.721 848.085, 284.355 850 C 284.778 851.279, 285.653 855.847, 286.183 859.547 C 286.284 860.248, 288.342 860.323, 292.417 859.774 C 315.599 856.651, 369.812 855.068, 390.500 856.910 C 430.563 860.478, 455.713 865.839, 488 877.695 C 498.560 881.572, 500.105 882.234, 514.757 889.155 C 520.398 891.820, 525.408 894, 525.890 894 C 527.641 894, 528.001 889.161, 527.568 871.500 C 527.325 861.600, 526.799 793.819, 526.399 720.876 L 525.671 588.251 520.585 585.581 C 501.712 575.672, 498.322 574.020, 496.833 574.011 C 495.916 574.005, 492.991 573.060, 490.333 571.912 C 483.022 568.752, 456.351 560, 454.035 560 C 452.916 560, 452 559.611, 452 559.137 C 452 558.662, 449.188 557.711, 445.750 557.025 C 442.313 556.338, 438.281 554.927, 436.790 553.888 C 434.991 552.634, 432.356 552, 428.944 552 C 426.119 552, 421.489 551.346, 418.654 550.547 C 408.592 547.712, 389.727 546.639, 346.500 546.445 C 322.850 546.338, 301.025 546.600, 298 547.027 M 535.726 599.750 C 534.909 612.140, 535.487 897.821, 536.331 898.667 C 536.787 899.125, 542.267 899.650, 548.507 899.834 L 559.852 900.168 560.386 895.834 C 561.630 885.741, 562.110 794.388, 561.429 697.298 L 560.699 593 548.435 593 L 536.171 593 535.726 599.750" stroke="none" fill="#fa87b0" fill-rule="evenodd"/><path d="M 902.006 90.680 C 902.009 93.881, 902.404 98.075, 902.884 100 C 903.364 101.925, 904.315 106.200, 904.999 109.500 C 907.200 120.136, 908.969 124, 911.636 124 C 913.807 124, 914 123.591, 914 118.983 C 914 113.437, 909.688 92.212, 907.727 88.108 C 907.042 86.674, 905.473 85.356, 904.241 85.180 C 902.139 84.881, 902 85.223, 902.006 90.680 M 962.244 92.250 C 958.982 99.266, 952 121.095, 952 124.278 C 952 125.511, 952.823 126, 954.894 126 C 957.529 126, 958.026 125.405, 960.459 119.325 C 964.034 110.397, 967.635 99.325, 968.410 94.884 C 969.766 87.105, 965.487 85.276, 962.244 92.250 M 846 115.865 C 846 117.505, 848.374 121.283, 851.479 124.587 C 852.040 125.184, 855.875 129.389, 860 133.931 C 868.743 143.558, 871.813 145.588, 874.573 143.570 C 876.309 142.301, 876.184 141.928, 872.322 136.863 C 870.074 133.913, 864.397 127.563, 859.707 122.750 C 853.321 116.198, 850.529 114, 848.590 114 C 846.729 114, 846 114.525, 846 115.865 M 1016 121.794 C 1014.412 122.323, 1011.484 124.687, 1001.068 133.845 C 992.676 141.224, 987.936 146.273, 988.315 147.429 C 988.482 147.939, 989.350 148.818, 990.244 149.382 C 992.147 150.582, 995.620 149.013, 999.837 145.046 C 1001.326 143.646, 1004.192 141.262, 1006.206 139.750 C 1013.600 134.196, 1020 127.200, 1020 124.672 C 1020 122.067, 1018.475 120.970, 1016 121.794 M 914.500 135.105 C 912.300 135.602, 909.600 136.411, 908.500 136.903 C 907.400 137.396, 904.925 138.385, 903 139.102 C 895.480 141.904, 887.308 147.654, 879.332 155.757 C 874.749 160.412, 871 164.589, 871 165.039 C 871 165.489, 870.438 166.469, 869.750 167.217 C 867.796 169.344, 866 172.825, 866 174.486 C 866 175.319, 865.648 176, 865.218 176 C 864.788 176, 863.849 178.137, 863.130 180.750 C 862.411 183.363, 861.413 186.805, 860.912 188.399 C 860.410 189.994, 860 197.064, 860 204.112 C 860 217.577, 860.786 221.141, 866.481 233.500 C 867.748 236.250, 869.546 240.300, 870.476 242.500 C 871.406 244.700, 872.832 248.037, 873.646 249.915 C 874.459 251.793, 876.266 256.743, 877.662 260.915 C 879.057 265.087, 880.600 268.991, 881.091 269.592 C 881.581 270.193, 881.751 270.915, 881.469 271.198 C 880.579 272.088, 891.562 275.105, 893.285 274.444 C 895.507 273.591, 903.661 251.210, 910.387 227.500 C 911.176 224.717, 910.240 223.638, 904.500 220.720 C 894.995 215.887, 891.414 210.594, 892.343 202.752 C 893.504 192.951, 899.430 188, 910.003 188 C 914.492 188, 915.395 188.412, 919.482 192.329 L 924 196.657 924 204.263 C 924 208.447, 923.532 213.102, 922.959 214.608 C 922.154 216.726, 922.245 217.674, 923.363 218.792 C 925.353 220.782, 926.411 219.851, 928.485 214.283 C 932.487 203.543, 937.816 199.529, 947.174 200.206 C 956.422 200.875, 960.849 205.368, 961.777 215.030 C 962.587 223.456, 956.804 231.008, 948.325 232.599 C 946.364 232.967, 942.278 232.612, 938.860 231.777 C 932.957 230.335, 932.817 230.349, 931.376 232.548 C 929.482 235.440, 916.015 276.593, 915.723 280.385 C 915.532 282.852, 916.007 283.458, 919 284.559 C 924.228 286.484, 929.137 286.249, 932 283.937 C 936.409 280.376, 945.572 274.198, 950.356 271.561 C 952.910 270.152, 957.123 267.829, 959.718 266.398 C 972.093 259.574, 981.981 250.708, 988.101 240.950 C 995.921 228.482, 998.229 219.889, 998.296 203 C 998.337 192.566, 997.975 189.425, 996.105 184 C 993.953 177.759, 990.090 169.045, 989.011 168 C 988.727 167.725, 987.191 165.579, 985.598 163.231 C 981.935 157.832, 969.293 146.126, 964.299 143.510 C 962.209 142.415, 960.275 141.290, 960 141.010 C 959.082 140.074, 952.573 137.779, 945.500 135.897 C 937.925 133.881, 921.745 133.468, 914.500 135.105 M 814 166.815 C 814 169.069, 814.727 169.976, 817.649 171.370 C 821.326 173.123, 838.431 178.991, 845.095 180.785 C 849.238 181.901, 852 180.820, 852 178.084 C 852 176.263, 843.740 171.966, 834.500 168.979 C 832.300 168.268, 828.121 166.857, 825.212 165.843 C 822.304 164.829, 818.592 164, 816.962 164 C 814.381 164, 814 164.362, 814 166.815 M 1037 177.183 C 1017.960 181.171, 1010 184.029, 1010 186.877 C 1010 187.927, 1010.729 189.066, 1011.620 189.408 C 1013.123 189.984, 1020.717 188.932, 1029 186.999 C 1030.925 186.550, 1034.975 185.660, 1038 185.021 C 1046.117 183.308, 1048 182.143, 1048 178.831 C 1048 176.279, 1047.680 176.012, 1044.750 176.120 C 1042.963 176.186, 1039.475 176.664, 1037 177.183 M 905.286 195.522 C 903.565 196.245, 901.672 197.744, 901.079 198.853 C 899.372 202.041, 899.811 207.490, 901.998 210.271 C 904 212.815, 912.491 216.432, 914.112 215.431 C 915.513 214.565, 918.190 204.174, 917.540 202.125 C 915.778 196.574, 910.082 193.505, 905.286 195.522 M 940.166 209.514 C 936.342 212.732, 933.372 220.800, 935.301 222.730 C 936.844 224.272, 945.782 225.523, 949.176 224.671 C 955.155 223.170, 956.536 213.140, 951.328 209.043 C 947.838 206.298, 943.785 206.469, 940.166 209.514 M 833 220.097 C 828.875 221.111, 823.250 222.437, 820.500 223.044 C 812.147 224.887, 810 226.005, 810 228.514 C 810 231.800, 812.101 232.167, 821.516 230.525 C 840.416 227.229, 849 224.710, 849 222.460 C 849 217.464, 845.699 216.976, 833 220.097 M 795.336 231 C 795.336 235.125, 795.513 236.813, 795.728 234.750 C 795.944 232.688, 795.944 229.313, 795.728 227.250 C 795.513 225.188, 795.336 226.875, 795.336 231 M 918.027 231.159 C 914.622 239.074, 903.956 272.118, 903.714 275.500 C 903.419 279.639, 905.131 279.927, 907.362 276.113 C 911.209 269.540, 923.372 230.132, 922.364 227.507 C 921.376 224.930, 920.327 225.814, 918.027 231.159 M 1009.250 227.618 C 1008.563 227.920, 1008 228.980, 1008 229.973 C 1008 232.591, 1015.470 235.822, 1035.528 241.878 C 1044.984 244.733, 1046 244.659, 1046 241.114 C 1046 237.655, 1044.402 236.775, 1028.682 231.578 C 1017.564 227.903, 1011.442 226.655, 1009.250 227.618 M 864 258.784 C 864 259.216, 862.763 260.317, 861.250 261.232 C 859.737 262.147, 853.775 267.389, 848 272.882 C 838.935 281.504, 837.651 283.117, 838.602 284.684 C 840.461 287.747, 843.369 287.320, 848.057 283.296 C 861.210 272.006, 870 263.277, 870 261.505 C 870 260.897, 869.460 259.860, 868.800 259.200 C 867.463 257.863, 864 257.563, 864 258.784 M 984.687 263.793 C 983.759 264.819, 983 266.139, 983 266.727 C 983 268.659, 998.840 285.692, 1006.325 291.809 C 1009.422 294.339, 1012.304 294.373, 1012.784 291.885 C 1013.071 290.392, 1006.092 280.934, 1001.429 276.500 C 1000.272 275.400, 996.412 271.671, 992.850 268.214 C 986.611 262.159, 986.313 261.997, 984.687 263.793 M 944 289.586 C 944 292.659, 944.868 298.396, 945.929 302.336 C 946.990 306.276, 948.418 312.113, 949.103 315.308 C 950.192 320.389, 951.989 323, 954.399 323 C 957.250 323, 956.385 311.452, 952.191 293.500 C 950.441 286.014, 949.240 284, 946.525 284 C 944.126 284, 944 284.280, 944 289.586 M 340.250 535.735 C 342.863 535.941, 347.137 535.941, 349.750 535.735 C 352.363 535.529, 350.225 535.360, 345 535.360 C 339.775 535.360, 337.637 535.529, 340.250 535.735 M 749.789 535.741 C 753.248 535.937, 758.648 535.936, 761.789 535.738 C 764.930 535.540, 762.100 535.380, 755.500 535.382 C 748.900 535.384, 746.330 535.546, 749.789 535.741 M 526.349 760 C 526.349 764.675, 526.522 766.587, 526.732 764.250 C 526.943 761.913, 526.943 758.087, 526.732 755.750 C 526.522 753.413, 526.349 755.325, 526.349 760" stroke="none" fill="#f2d754" fill-rule="evenodd"/><path d="M 588 78.496 C 555.790 82.251, 513.872 94.882, 488.009 108.624 C 473.728 116.213, 463.474 123.660, 451.639 135.037 L 440.319 145.919 427.910 143.941 C 414.523 141.808, 407.123 141.950, 392.080 144.629 C 368.379 148.850, 349.839 158.892, 333.098 176.578 C 307.947 203.148, 298.373 232.137, 304.391 263.500 C 311.877 302.517, 311.816 312.986, 304.009 329.761 C 297.983 342.709, 289.489 353.330, 268.794 373.796 C 244.454 397.866, 232.306 411.155, 225.722 420.912 C 215.788 435.634, 208.986 453.949, 209.012 465.910 C 209.037 477.967, 213.412 488.286, 225.324 504.391 C 230.251 511.051, 235.681 519.425, 237.391 523 C 240.345 529.175, 240.498 530.100, 240.467 541.500 C 240.438 552.409, 240.137 554.364, 237.160 563 C 233.105 574.767, 228.087 584.220, 218.176 598.767 C 213.954 604.963, 206.299 616.213, 201.165 623.767 C 185.328 647.065, 175.329 669.752, 169.978 694.527 C 167.242 707.195, 166.101 740.426, 167.965 753.171 C 169.536 763.919, 175.144 782.353, 179.420 790.830 C 195.552 822.808, 224.201 844.676, 262.871 854.529 C 271.828 856.811, 272.587 856.865, 273.750 855.300 C 275.264 853.262, 275.298 848.144, 273.959 823.619 C 273.392 813.235, 273.124 804.543, 273.363 804.304 C 273.602 804.064, 275.586 804.350, 277.772 804.939 L 281.746 806.009 282.623 827.254 L 283.500 848.500 283.771 828.250 C 283.920 817.112, 284.145 807.962, 284.271 807.915 C 284.397 807.868, 288.880 807.503, 294.233 807.103 C 302.999 806.449, 304.334 806.080, 307.658 803.389 C 310.052 801.451, 311.847 798.836, 312.763 795.950 C 313.540 793.503, 314.865 789.475, 315.708 787 C 318.038 780.159, 318.944 773.543, 319.132 762 C 319.272 753.395, 318.926 750.577, 317.219 746.386 C 315.210 741.452, 315.194 741.057, 316.776 735.154 C 318.182 729.905, 318.226 728.501, 317.087 725.268 C 314.169 716.987, 306.907 710.590, 288.763 700.317 C 282.661 696.862, 278.391 693.758, 277.723 692.292 C 276.838 690.349, 276.478 690.181, 275.800 691.393 C 275.143 692.566, 274.353 692.670, 272.090 691.882 C 269.552 690.997, 269.145 690.272, 268.612 685.690 C 267.208 673.612, 262.052 550.807, 262.753 546.145 C 263.386 541.941, 266.534 540.484, 277 539.553 C 281.125 539.186, 287.875 538.466, 292 537.953 C 308.943 535.844, 344.974 534.898, 367.334 535.974 C 415.792 538.306, 447.468 544.798, 489.040 560.920 L 499.015 564.788 500.879 562.144 C 505.178 556.048, 509.475 545.406, 513.858 530 C 514.693 527.064, 516.393 526.942, 530.500 528.806 C 544.697 530.681, 561.747 530.209, 577.537 527.504 L 581.574 526.813 585.813 539.665 C 588.145 546.733, 591.400 554.876, 593.047 557.758 C 596.602 563.983, 598.287 564.302, 608.131 560.614 C 617.604 557.064, 641.443 549.413, 650 547.176 C 695.005 535.408, 755.095 532.230, 812 538.606 C 829.849 540.606, 832.817 541.423, 833.601 544.548 C 834.646 548.711, 830.427 660.062, 828.416 681.413 C 827.735 688.637, 825.111 693, 821.447 693 C 819.974 693, 819.877 691.776, 820.519 681.250 C 820.914 674.788, 820.993 669.728, 820.695 670.006 C 820.398 670.284, 819.712 675.285, 819.172 681.118 C 818.632 686.951, 817.639 692.605, 816.967 693.682 C 816.294 694.758, 813.664 696.709, 811.122 698.016 C 802.588 702.404, 788.537 712.289, 784.319 716.873 C 778.782 722.890, 777.734 727.174, 779.761 735.521 C 781.311 741.905, 781.300 742.041, 778.664 748.761 C 775.583 756.612, 775.346 760.072, 777.648 763.585 C 779.060 765.740, 779.130 766.845, 778.139 771.300 C 776.942 776.682, 777.425 779.981, 780.229 785.558 C 781.042 787.176, 782.241 790.679, 782.892 793.343 C 783.543 796.006, 784.800 799.292, 785.686 800.644 C 788.905 805.557, 798.700 808.556, 806.665 807.068 C 809.324 806.571, 811.648 806.314, 811.830 806.497 C 812.013 806.679, 812.752 811.705, 813.472 817.664 L 814.783 828.500 814.892 817.785 C 815.009 806.194, 815.054 806.100, 821.223 804.626 C 823.176 804.159, 823.835 804.332, 823.552 805.238 C 822.716 807.907, 822.005 854.564, 822.782 855.736 C 825.141 859.297, 866.612 842.447, 885.500 830.253 C 898.351 821.957, 913.277 808.379, 923.153 796 C 929.050 788.609, 937.792 773.105, 941.479 763.500 C 947.419 748.023, 949.340 736.241, 949.388 715 C 949.424 699.351, 949.072 694.810, 947.108 685.529 C 941.192 657.587, 933.406 641.561, 910.500 610.181 C 900.625 596.652, 894.509 585.754, 890.949 575.343 C 887.977 566.652, 887.581 564.271, 887.562 555 C 887.536 542.279, 888.747 536.590, 898.526 503.500 C 907.203 474.143, 907.985 469.883, 907.985 452 C 907.984 431.829, 903.597 416.831, 892.909 400.458 C 881.040 382.276, 868.858 372.836, 834.399 355.116 C 817.243 346.294, 808.336 339.821, 802.566 331.983 C 792.904 318.857, 791.113 308.665, 792.937 277.187 C 795.451 233.800, 795.461 221.098, 792.997 203.942 C 790.165 184.228, 787.280 174.199, 780.499 160.500 C 766.259 131.733, 748.386 113.193, 720.688 98.458 C 705.680 90.474, 682.630 83.040, 663 79.852 C 646.837 77.227, 605.326 76.477, 588 78.496 M 185.050 170.906 C 184.489 171.955, 182.614 176.792, 180.884 181.656 C 179.154 186.520, 177.234 191.036, 176.619 191.691 C 176.004 192.346, 171.036 194.491, 165.581 196.459 C 149.715 202.181, 149.340 203.480, 162.250 207.977 C 167.338 209.749, 172.691 211.639, 174.146 212.178 C 176.363 212.998, 177.388 214.832, 180.475 223.495 C 186.619 240.739, 187.957 240.983, 193.361 225.845 C 195.393 220.155, 197.380 215.005, 197.777 214.401 C 198.175 213.796, 201.650 212.090, 205.500 210.610 C 217.016 206.180, 222 203.726, 222 202.482 C 222 201.835, 217.149 199.446, 211.219 197.173 C 205.290 194.901, 199.721 192.469, 198.845 191.771 C 197.968 191.072, 195.819 186.675, 194.069 182 C 189.335 169.356, 187.252 166.793, 185.050 170.906 M 901.538 189.499 C 897.019 191.108, 894.463 193.958, 893.016 199 C 890.196 208.824, 894.014 215.543, 905.750 221.409 C 908.638 222.853, 911 224.564, 911 225.213 C 911 226.960, 901.266 257.298, 897.849 266.200 C 895.962 271.115, 894.221 274.112, 893.034 274.489 C 892.012 274.814, 888.629 274.184, 885.518 273.091 C 879.531 270.987, 876.455 271.374, 872.787 274.693 C 869.852 277.349, 865.736 291.751, 866.484 296.742 C 866.848 299.168, 866.637 302.569, 866.005 304.486 C 864.963 307.642, 865.172 308.394, 868.721 314.279 C 870.835 317.785, 873.203 322.584, 873.982 324.944 C 875.708 330.176, 880.538 333.690, 888.565 335.556 C 895.481 337.164, 901.854 335.594, 906.975 331.022 C 908.837 329.360, 911.434 328, 912.746 328 C 916.371 328, 918.786 326.313, 921.025 322.217 C 922.143 320.172, 924.619 316.553, 926.529 314.172 C 928.438 311.792, 930 308.996, 930 307.959 C 930 306.922, 930.906 303.774, 932.014 300.964 C 934.010 295.899, 934.011 295.814, 932.104 291.503 C 931.046 289.111, 930.440 286.894, 930.757 286.577 C 931.074 286.259, 929.623 286, 927.533 286 C 922.592 286, 915.931 283.984, 915.281 282.291 C 914.664 280.681, 929.361 235.358, 931.483 232.328 C 932.942 230.245, 933.144 230.227, 938.727 231.685 C 941.886 232.510, 945.958 232.944, 947.776 232.649 C 959.105 230.811, 964.985 219.170, 960.062 208.328 C 957.603 202.911, 954.433 200.940, 947.117 200.277 C 942.221 199.833, 940.566 200.105, 937.816 201.805 C 933.644 204.383, 930.861 208.118, 928.520 214.283 C 926.403 219.857, 925.349 220.778, 923.363 218.792 C 922.245 217.674, 922.154 216.726, 922.959 214.608 C 923.532 213.102, 924 208.447, 924 204.263 L 924 196.657 919.482 192.329 C 915.430 188.446, 914.478 188.005, 910.232 188.044 C 907.630 188.068, 903.717 188.723, 901.538 189.499 M 905.312 195.511 C 901.548 197.094, 900 199.655, 900 204.299 C 900 208.962, 903.041 212.485, 908.745 214.429 C 914.408 216.358, 915.131 215.789, 917.017 207.928 C 918.053 203.609, 917.971 202.634, 916.330 199.825 C 913.772 195.445, 909.472 193.762, 905.312 195.511 M 940.166 209.514 C 936.342 212.732, 933.372 220.800, 935.301 222.730 C 936.844 224.272, 945.782 225.523, 949.176 224.671 C 951.984 223.966, 955 219.227, 955 215.519 C 955 211.793, 950.023 207, 946.154 207 C 944.408 207, 941.904 208.051, 940.166 209.514 M 917.977 231.250 C 914.501 239.290, 903.909 272.092, 903.692 275.489 C 903.427 279.639, 905.130 279.928, 907.362 276.113 C 911.246 269.476, 923.415 230.245, 922.406 227.616 C 921.371 224.920, 920.352 225.756, 917.977 231.250 M 127.280 231.806 C 125.621 232.860, 121.455 243.214, 114.587 263.353 C 106.808 286.167, 105.690 288.592, 102.096 290.450 C 100.434 291.310, 88.445 295.614, 75.455 300.015 C 62.465 304.416, 50.984 308.473, 49.941 309.031 C 47.114 310.545, 45.857 313.494, 46.886 316.201 C 47.787 318.570, 51.253 319.961, 85.500 331.696 C 102.411 337.491, 104.340 338.469, 106.121 342.150 C 107.013 343.992, 111.442 356.075, 115.963 369 C 120.483 381.925, 124.827 393.512, 125.614 394.750 C 126.552 396.223, 128.031 397, 129.900 397 C 133.426 397, 134.225 395.276, 144.559 365.361 C 152.718 341.746, 154.110 338.559, 156.713 337.549 C 157.696 337.167, 169.075 333.233, 182 328.807 C 212.905 318.222, 216.270 316.440, 212.935 312.421 C 210.799 309.848, 206.600 308.087, 182.032 299.459 C 169.089 294.913, 157.801 290.912, 156.947 290.566 C 154.352 289.515, 152.529 285.402, 144.507 262.500 C 135.338 236.322, 134.775 234.918, 132.567 232.710 C 130.712 230.855, 129.187 230.594, 127.280 231.806 M 251.662 238.750 C 250.898 240.262, 249.265 244.566, 248.033 248.314 C 246.802 252.061, 244.828 256.211, 243.647 257.537 C 242.385 258.952, 237.604 261.335, 232.052 263.314 C 217.412 268.532, 217.436 270.845, 232.181 276.119 C 237.146 277.895, 242.060 280.057, 243.102 280.924 C 244.143 281.791, 246.560 286.966, 248.472 292.426 C 251.647 301.486, 253.092 303.942, 255.275 303.985 C 256.143 304.002, 256.852 302.358, 261.517 289.500 L 264.783 280.500 274.587 276.777 C 279.979 274.729, 285.219 272.226, 286.231 271.214 C 287.995 269.449, 287.998 269.310, 286.285 267.818 C 285.303 266.962, 281.350 265.062, 277.500 263.595 C 265.761 259.124, 264.289 258.286, 263.643 255.713 C 262.177 249.872, 255.691 236, 254.426 236 C 253.670 236, 252.426 237.238, 251.662 238.750 M 471.938 249.750 C 468.144 261.445, 455.379 282.808, 445.380 294.198 C 431.795 309.672, 411.939 321.723, 392.069 326.552 C 388.195 327.494, 384.513 328.882, 383.887 329.636 C 381.800 332.151, 390.432 372.688, 397.085 391.617 C 407.406 420.984, 421.712 444.996, 442.190 467.327 C 464.045 491.158, 491.493 507.333, 521.500 514.062 C 529.541 515.866, 534.634 516.310, 547.500 516.332 C 571.375 516.372, 588.812 512.223, 609.500 501.578 C 623.622 494.312, 632.171 488.399, 643.172 478.288 C 678.975 445.384, 699.950 405.132, 710.483 349.116 C 713.301 334.131, 713.603 328.746, 711.715 327.178 C 707.638 323.795, 691.485 321.323, 648.500 317.506 C 597.297 312.959, 567.656 308.307, 549.411 301.955 C 535.453 297.096, 513.251 285.850, 504.300 279.105 C 494.890 272.014, 487.885 264.626, 480.271 253.760 C 477.280 249.492, 474.456 246, 473.994 246 C 473.533 246, 472.608 247.688, 471.938 249.750 M 614 331.680 C 605.918 333.363, 596 346.024, 596 354.658 C 596 360.425, 602.259 370.761, 607.841 374.211 C 610.672 375.960, 612.967 376.421, 619.021 376.456 C 625.796 376.495, 627.181 376.165, 631.550 373.469 C 643.204 366.278, 646.157 352.049, 638.337 340.765 C 633.429 333.683, 623.028 329.800, 614 331.680 M 465.108 334.420 C 458.961 338.955, 454 347.686, 454 353.968 C 454 358.737, 456.929 366.656, 459.748 369.505 C 461.261 371.035, 464.750 373.343, 467.500 374.634 C 483.013 381.914, 500 371.159, 500 354.057 C 500 348.015, 497.961 343.070, 493.379 337.998 C 489.168 333.337, 485.207 332.013, 475.444 332.006 C 469.545 332.001, 467.851 332.397, 465.108 334.420 M 477.611 339.532 C 476.768 340.375, 475.771 342.705, 475.395 344.709 C 474.801 347.872, 475.068 348.662, 477.411 350.677 C 478.896 351.955, 481.371 353, 482.910 353 C 486.025 353, 491 349.002, 491 346.498 C 491 344.051, 488.269 339.317, 486.455 338.621 C 483.564 337.512, 479.179 337.963, 477.611 339.532 M 620.073 340.635 C 617.040 344.491, 617.396 348.314, 621.077 351.411 C 622.769 352.835, 624.759 354, 625.500 354 C 628.310 354, 633 348.914, 633 345.866 C 633 338.993, 624.173 335.422, 620.073 340.635 M 349.500 346.417 C 344.744 348.540, 340.905 353.288, 340.301 357.794 C 337.879 375.847, 356.801 407.388, 375.563 416.573 C 380.699 419.087, 392.498 421.835, 393.568 420.766 C 393.889 420.444, 391.457 413.053, 388.163 404.341 C 381.684 387.207, 378.596 376.934, 374.515 358.939 L 371.892 347.378 366.136 346.189 C 358.738 344.661, 353.267 344.736, 349.500 346.417 M 730.700 346.214 C 728.610 346.769, 726.271 348.185, 725.501 349.361 C 724.732 350.537, 722.524 358.025, 720.596 366 C 716.560 382.687, 714.059 390.705, 707.616 407.610 C 705.077 414.271, 703 420.070, 703 420.498 C 703 420.926, 705.523 420.979, 708.606 420.616 C 717.749 419.542, 724.400 415.623, 735.122 404.991 C 743.717 396.469, 745.284 394.333, 749.800 384.975 C 755.389 373.397, 757.526 364.992, 756.545 358.451 C 754.952 347.826, 744.063 342.670, 730.700 346.214 M 505.695 419.111 C 502.411 421.021, 501.895 424.483, 503.921 430.994 C 507.554 442.668, 517.394 454.110, 528.452 459.520 C 549.905 470.016, 578.156 460.579, 589.299 439.195 C 595.576 427.149, 595.214 419, 588.402 419 C 584.481 419, 582.566 420.731, 580.945 425.741 C 577.731 435.678, 571.257 443.259, 562.202 447.690 C 555.098 451.165, 542.814 451.334, 535.384 448.059 C 527.844 444.736, 521.353 437.796, 516.906 428.303 C 512.428 418.745, 509.894 416.668, 505.695 419.111 M 727.500 543.933 L 719.500 544.500 727.401 545.250 C 736.949 546.156, 775.299 546.035, 779.500 545.085 C 786.834 543.426, 747.087 542.546, 727.500 543.933 M 255.913 703.282 C 252.462 705.932, 252 708.708, 252.020 726.684 C 252.046 750.461, 253.041 757.041, 257.619 763.716 C 260.950 768.572, 261.149 769.283, 260.498 774.016 C 259.600 780.547, 261.158 784.372, 265.570 786.466 C 274.390 790.652, 287.677 794.298, 294.473 794.398 C 302.752 794.519, 303.365 793.601, 300.089 785.985 C 297.463 779.881, 297.449 780, 300.809 780 C 302.354 780, 304.438 779.400, 305.441 778.667 C 307.042 777.496, 307.120 776.893, 306.077 773.735 C 305.424 771.756, 303.571 768.477, 301.960 766.449 C 298.789 762.459, 298.881 761.009, 302.309 760.985 C 308.685 760.940, 308.404 755.592, 301.479 745.178 C 298.830 741.193, 297.111 737.629, 297.521 736.966 C 297.919 736.323, 299.784 735.153, 301.666 734.366 C 308.444 731.534, 307.147 727.303, 297.279 720.049 C 288.567 713.645, 275.363 706.771, 266.645 704.100 C 258.757 701.684, 258.064 701.631, 255.913 703.282 M 828 704.897 C 813.697 710.236, 795.589 721.162, 792.987 726.024 C 791.060 729.624, 791.797 732.977, 794.750 734.041 C 801.593 736.507, 801.541 735.780, 795.516 744.886 C 787.382 757.178, 787.165 759.523, 794.057 760.625 C 798.674 761.363, 798.936 762.413, 795.421 766.083 C 794.002 767.563, 792.245 770.510, 791.516 772.631 C 789.806 777.604, 790.989 780, 795.152 780 C 797.862 780, 798.159 780.271, 797.620 782.250 C 797.282 783.487, 796.710 786.934, 796.347 789.909 L 795.687 795.318 802.094 794.696 C 810.265 793.901, 818.303 791.765, 827.459 787.953 C 835.934 784.425, 837 782.820, 837 773.588 C 837 768.805, 837.481 766.658, 838.980 764.753 C 840.069 763.368, 841.428 761.005, 842 759.501 C 844.713 752.364, 846.365 711.419, 844.110 707.205 C 843.023 705.174, 838.121 701.938, 836.300 702.049 C 835.860 702.075, 832.125 703.357, 828 704.897 M 284.125 853.679 C 284.047 856.286, 284.591 858.448, 285.571 859.429 C 287.618 861.475, 288.630 861.464, 286.928 859.413 C 286.204 858.541, 285.305 855.953, 284.931 853.663 L 284.250 849.500 284.125 853.679" stroke="none" fill="#a18163" fill-rule="evenodd"/><path d="M 0 458.001 L 0 916.002 554.750 915.751 L 1109.500 915.500 1109.751 457.750 L 1110.002 0 555.001 0 L 0 0 0 458.001 M 0.496 458.500 C 0.496 710.400, 0.610 813.301, 0.750 687.168 C 0.890 561.036, 0.890 354.936, 0.750 229.168 C 0.610 103.401, 0.496 206.600, 0.496 458.500 M 585.858 78.487 C 554.387 82.462, 512.579 95.097, 489 107.758 C 471.550 117.127, 455.323 129.450, 445.180 141.035 L 441.209 145.569 427.099 143.564 C 413.553 141.639, 412.471 141.625, 400.067 143.191 C 384.180 145.198, 368.160 150.409, 356 157.525 C 349.813 161.146, 344.354 165.629, 335.938 174 C 317.375 192.462, 308.326 208.134, 303.894 229.500 C 300.989 243.499, 301.241 247.584, 306.940 278.999 C 311.364 303.381, 310.735 314.357, 304.101 328.521 C 296.756 344.203, 291.983 350.084, 261.507 381 C 239.177 403.652, 230.989 412.655, 226.235 419.783 C 210.655 443.142, 205.757 462.410, 211.055 479.500 C 214.011 489.035, 215.525 491.717, 225.455 505 C 230.183 511.325, 235.385 519.200, 237.015 522.500 C 243.625 535.880, 241.678 554.722, 231.436 576.500 C 228.197 583.386, 224.951 588.433, 201.720 622.711 C 185.886 646.075, 177.732 663.268, 172.067 685.240 C 167.596 702.580, 166.745 711.458, 167.268 735.288 C 167.684 754.284, 168.014 757.545, 170.419 766.500 C 174.329 781.054, 178.933 791.602, 186.218 802.698 C 193.953 814.477, 201.024 822.383, 210.749 830.124 C 223.943 840.627, 245.216 850.614, 263.853 855.056 C 271.741 856.935, 273.358 857.066, 274.175 855.892 C 275.174 854.455, 274.522 817.086, 273.347 808.518 L 272.728 803.996 276.114 804.630 C 277.976 804.979, 279.900 805.627, 280.389 806.071 C 280.878 806.515, 281.642 815.118, 282.086 825.189 C 283.191 850.202, 283.997 858.757, 285.351 859.852 C 286.065 860.431, 290.282 860.298, 296.500 859.501 C 331.801 854.978, 385.895 854.990, 414.898 859.529 C 428.009 861.580, 432.580 862.379, 441.312 864.146 C 454.746 866.865, 470.198 871.276, 484.500 876.476 C 496.725 880.921, 501.096 882.760, 516.495 889.941 C 521.282 892.174, 525.551 894, 525.983 894 C 527.669 894, 528.007 888.739, 527.558 869.500 C 527.301 858.500, 526.772 790.720, 526.383 718.877 L 525.676 588.254 520.588 585.582 C 501.736 575.684, 498.327 574.020, 496.888 574.011 C 496.001 574.005, 491.967 572.636, 487.924 570.969 C 478.991 567.285, 456.431 560, 453.956 560 C 452.972 560, 452.017 559.565, 451.833 559.034 C 451.650 558.502, 448.441 557.427, 444.703 556.646 C 440.964 555.864, 437.104 554.499, 436.124 553.612 C 435.009 552.603, 432.556 552, 429.566 552 C 426.938 552, 422.249 551.359, 419.144 550.575 C 406.929 547.491, 389.014 546.500, 345.500 546.500 C 303.639 546.500, 285.419 547.209, 277.747 549.136 C 271.039 550.821, 270.780 551.987, 271.988 575.132 C 274.876 630.477, 276.902 684.408, 276.256 688.750 C 275.734 692.263, 273.725 692.981, 270.669 690.747 C 269.241 689.703, 268.793 686.659, 267.983 672.497 C 266.361 644.152, 263 563.670, 263 553.171 C 263 543.403, 263.023 543.311, 265.742 542.072 C 271.307 539.536, 302.696 536.862, 333.500 536.300 C 399.908 535.087, 437.535 541.267, 492.216 562.366 L 498.931 564.957 501.518 561.566 C 504.668 557.436, 510.236 544, 512.735 534.500 C 514.851 526.456, 514.164 526.706, 528.322 528.828 C 538.636 530.373, 562.459 530.233, 572.500 528.567 C 576.900 527.837, 580.814 527.423, 581.198 527.646 C 581.581 527.870, 583.084 531.979, 584.537 536.777 C 587.582 546.828, 593.912 560.891, 596.259 562.816 C 598.149 564.366, 599.424 564.059, 616 558.068 C 649.134 546.092, 679.302 539.713, 715.979 536.928 C 744.992 534.725, 803.706 536.761, 827 540.779 C 834.244 542.029, 834.265 542.153, 833.036 576.734 C 831.731 613.415, 830.285 645.829, 828.895 669.500 C 827.803 688.090, 827.011 691.241, 823.173 692.244 C 821.286 692.738, 821.192 691.900, 820.485 668.325 C 819.695 642.007, 820.020 635.255, 822.141 633.858 C 823.236 633.137, 823.137 632.750, 821.630 631.865 C 820.138 630.988, 820.034 630.597, 821.114 629.929 C 822.168 629.278, 822.676 622.492, 823.406 599.296 C 824.819 554.389, 824.794 552.363, 822.782 550.353 C 821.445 549.016, 818.344 548.469, 808.782 547.881 C 790.123 546.735, 782.608 545.860, 784.006 544.996 C 786.026 543.748, 757.083 542.679, 737.120 543.264 C 726.793 543.567, 718.468 544.234, 718.120 544.787 C 717.779 545.327, 715.475 545.974, 713 546.224 C 681.154 549.436, 663.270 552.100, 655.500 554.788 C 653.850 555.359, 646.650 557.693, 639.500 559.975 C 632.350 562.257, 624.250 564.969, 621.500 566.001 C 618.750 567.033, 612 569.525, 606.500 571.539 C 593.042 576.465, 588.914 578.377, 579.410 584.084 L 571.319 588.941 570.662 609.221 C 570.301 620.374, 570.004 689.013, 570.003 761.750 C 570 877.285, 570.185 894, 571.466 894 C 572.273 894, 579.271 890.862, 587.018 887.026 C 619.247 871.069, 662.144 860.244, 706 857.003 C 732.680 855.031, 770.340 855.905, 796.620 859.106 C 801.637 859.717, 806.631 859.935, 807.719 859.589 C 811.792 858.296, 812.654 853.686, 814.930 821 C 815.409 814.125, 815.846 808.013, 815.900 807.418 C 815.955 806.823, 817.600 805.845, 819.555 805.244 L 823.110 804.153 822.407 829.926 C 821.875 849.415, 821.994 855.878, 822.893 856.434 C 825.339 857.945, 855.701 846.898, 871.048 838.914 C 897.561 825.121, 920.102 804.070, 933.599 780.500 C 945.837 759.128, 950.679 737.691, 949.745 709.016 C 948.755 678.669, 939.051 649.961, 921.343 625 C 902.859 598.944, 899.428 593.707, 895.465 585.500 C 884.479 562.746, 884.946 548.028, 897.989 506 C 907.070 476.739, 908.231 470.690, 908.196 452.830 C 908.160 434.538, 906.603 427.257, 899.528 412.304 C 894.192 401.024, 888.123 392.385, 879.819 384.248 C 869.188 373.831, 862.669 369.602, 835.711 355.636 C 806.874 340.696, 796.988 329.847, 793.338 309.136 C 791.702 299.851, 791.795 295.708, 794.607 252.593 C 796.229 227.740, 795.767 217.875, 791.910 195 C 789.472 180.536, 787.078 173.104, 780.798 160.500 C 772.934 144.718, 765.647 134.470, 754.087 122.936 C 735.650 104.539, 716.623 93.830, 687 85.179 C 665.963 79.034, 655.697 77.772, 624 77.435 C 605.259 77.236, 593.110 77.570, 585.858 78.487 M 902.006 90.680 C 902.009 93.881, 902.404 98.075, 902.884 100 C 903.364 101.925, 904.315 106.200, 904.999 109.500 C 907.200 120.136, 908.969 124, 911.636 124 C 913.807 124, 914 123.591, 914 118.983 C 914 113.437, 909.688 92.212, 907.727 88.108 C 907.042 86.674, 905.473 85.356, 904.241 85.180 C 902.139 84.881, 902 85.223, 902.006 90.680 M 962.244 92.250 C 958.982 99.266, 952 121.095, 952 124.278 C 952 125.511, 952.823 126, 954.894 126 C 957.529 126, 958.026 125.405, 960.459 119.325 C 964.034 110.397, 967.635 99.325, 968.410 94.884 C 969.766 87.105, 965.487 85.276, 962.244 92.250 M 846 115.865 C 846 117.505, 848.374 121.283, 851.479 124.587 C 852.040 125.184, 855.875 129.389, 860 133.931 C 868.743 143.558, 871.813 145.588, 874.573 143.570 C 876.309 142.301, 876.184 141.928, 872.322 136.863 C 870.074 133.913, 864.397 127.563, 859.707 122.750 C 853.321 116.198, 850.529 114, 848.590 114 C 846.729 114, 846 114.525, 846 115.865 M 1016 121.794 C 1014.412 122.323, 1011.484 124.687, 1001.068 133.845 C 992.676 141.224, 987.936 146.273, 988.315 147.429 C 988.482 147.939, 989.350 148.818, 990.244 149.382 C 992.147 150.582, 995.620 149.013, 999.837 145.046 C 1001.326 143.646, 1004.192 141.262, 1006.206 139.750 C 1013.600 134.196, 1020 127.200, 1020 124.672 C 1020 122.067, 1018.475 120.970, 1016 121.794 M 914.500 135.105 C 912.300 135.602, 909.600 136.411, 908.500 136.903 C 907.400 137.396, 904.925 138.385, 903 139.102 C 895.480 141.904, 887.308 147.654, 879.332 155.757 C 874.749 160.412, 871 164.589, 871 165.039 C 871 165.489, 870.438 166.469, 869.750 167.217 C 867.796 169.344, 866 172.825, 866 174.486 C 866 175.319, 865.648 176, 865.218 176 C 864.788 176, 863.849 178.137, 863.130 180.750 C 862.411 183.363, 861.413 186.805, 860.912 188.399 C 860.410 189.994, 860 197.064, 860 204.112 C 860 217.577, 860.786 221.141, 866.481 233.500 C 867.748 236.250, 869.546 240.300, 870.476 242.500 C 871.406 244.700, 872.832 248.037, 873.646 249.915 C 874.459 251.793, 876.266 256.743, 877.662 260.915 C 879.057 265.087, 880.611 269.005, 881.115 269.622 C 881.743 270.390, 881.100 270.930, 879.072 271.336 C 873.928 272.364, 870.478 276.722, 867.681 285.724 C 865.708 292.070, 865.331 294.666, 866.027 297.093 C 866.608 299.122, 866.529 301.734, 865.802 304.452 C 864.734 308.443, 864.849 308.920, 867.965 313.449 C 869.774 316.079, 872.237 320.767, 873.437 323.866 C 874.953 327.780, 876.651 330.195, 878.997 331.776 C 883.750 334.980, 892.329 337.304, 896.267 336.454 C 900.381 335.566, 906.249 332.610, 907.939 330.573 C 908.657 329.708, 910.202 328.998, 911.372 328.996 C 914.530 328.991, 919.297 325.725, 920.982 322.413 C 921.798 320.811, 924.160 317.524, 926.232 315.109 C 928.305 312.694, 930 309.922, 930 308.948 C 930 307.975, 930.967 304.651, 932.149 301.563 C 933.995 296.738, 934.119 295.565, 933.030 293.224 C 929.757 286.187, 929.866 285.507, 934.856 281.791 C 941.791 276.627, 945.002 274.504, 950.250 271.615 C 952.862 270.177, 957.123 267.829, 959.718 266.398 C 972.093 259.574, 981.981 250.708, 988.101 240.950 C 995.921 228.482, 998.229 219.889, 998.296 203 C 998.337 192.566, 997.975 189.425, 996.105 184 C 993.953 177.759, 990.090 169.045, 989.011 168 C 988.727 167.725, 987.191 165.579, 985.598 163.231 C 981.935 157.832, 969.293 146.126, 964.299 143.510 C 962.209 142.415, 960.275 141.290, 960 141.010 C 959.082 140.074, 952.573 137.779, 945.500 135.897 C 937.925 133.881, 921.745 133.468, 914.500 135.105 M 814 166.815 C 814 169.069, 814.727 169.976, 817.649 171.370 C 821.326 173.123, 838.431 178.991, 845.095 180.785 C 849.238 181.901, 852 180.820, 852 178.084 C 852 176.263, 843.740 171.966, 834.500 168.979 C 832.300 168.268, 828.121 166.857, 825.212 165.843 C 822.304 164.829, 818.592 164, 816.962 164 C 814.381 164, 814 164.362, 814 166.815 M 185.309 170.229 C 184.864 170.905, 182.700 176.149, 180.500 181.881 L 176.500 192.304 165.251 196.362 C 157.338 199.216, 153.824 200.980, 153.401 202.310 C 153.071 203.350, 153.184 204.550, 153.651 204.976 C 154.118 205.402, 159.489 207.395, 165.587 209.404 L 176.674 213.057 179.492 221.278 C 183.167 231.996, 185.704 237, 187.461 237 C 189.437 237, 190.019 235.896, 194.043 224.518 C 198.042 213.211, 197.431 213.751, 212.993 207.766 C 225.755 202.858, 225.404 202.181, 206.403 195.023 L 198.305 191.972 195.541 184.736 C 189.820 169.761, 187.646 166.679, 185.309 170.229 M 1037 177.183 C 1017.960 181.171, 1010 184.029, 1010 186.877 C 1010 187.927, 1010.729 189.066, 1011.620 189.408 C 1013.123 189.984, 1020.717 188.932, 1029 186.999 C 1030.925 186.550, 1034.975 185.660, 1038 185.021 C 1046.117 183.308, 1048 182.143, 1048 178.831 C 1048 176.279, 1047.680 176.012, 1044.750 176.120 C 1042.963 176.186, 1039.475 176.664, 1037 177.183 M 833 220.097 C 828.875 221.111, 823.250 222.437, 820.500 223.044 C 812.147 224.887, 810 226.005, 810 228.514 C 810 231.800, 812.101 232.167, 821.516 230.525 C 840.416 227.229, 849 224.710, 849 222.460 C 849 217.464, 845.699 216.976, 833 220.097 M 1009.250 227.618 C 1008.563 227.920, 1008 228.980, 1008 229.973 C 1008 232.591, 1015.470 235.822, 1035.528 241.878 C 1044.984 244.733, 1046 244.659, 1046 241.114 C 1046 237.655, 1044.402 236.775, 1028.682 231.578 C 1017.564 227.903, 1011.442 226.655, 1009.250 227.618 M 127.384 231.765 C 125.323 233.123, 122.247 240.400, 116.082 258.504 C 112.712 268.402, 108.788 279.274, 107.363 282.664 C 104.942 288.427, 104.405 288.992, 99.136 291.332 C 96.036 292.708, 86.300 296.175, 77.500 299.035 C 48.895 308.333, 44.785 310.597, 46.529 316.091 C 47.329 318.613, 49.558 319.587, 71.874 327.168 C 81.430 330.415, 92.724 334.411, 96.972 336.049 L 104.695 339.028 107.321 345.764 C 108.766 349.469, 113.046 361.298, 116.833 372.052 C 124.531 393.915, 125.252 395.529, 127.950 396.973 C 132.667 399.498, 133.511 397.936, 144.557 366.232 C 148.633 354.534, 152.657 343.629, 153.501 341.999 C 155.477 338.177, 157.227 337.336, 177 330.707 C 210.324 319.536, 214.379 317.646, 213.794 313.555 C 213.380 310.660, 206.520 307.614, 180 298.549 C 164.538 293.264, 156.846 290.138, 155.408 288.557 C 153.310 286.250, 150.472 279.033, 141.007 251.951 C 134.150 232.329, 131.805 228.854, 127.384 231.765 M 252.754 236.754 C 251.902 237.714, 249.951 242.100, 248.418 246.500 C 244.074 258.973, 244.116 258.933, 229.097 264.238 C 217.464 268.347, 218.280 271.044, 232.836 276.601 C 238.151 278.630, 242.950 280.694, 243.500 281.188 C 244.050 281.681, 246.133 286.665, 248.128 292.264 C 252.001 303.130, 254.148 305.804, 256.479 302.667 C 257.228 301.659, 259.472 296.259, 261.465 290.667 L 265.089 280.500 274.295 277.108 C 292.652 270.343, 292.495 268.616, 272.886 261.568 L 265.272 258.831 261.023 247.945 C 256.257 235.730, 255.078 234.135, 252.754 236.754 M 472.527 248.750 C 471.462 252.993, 460.541 274.319, 456.138 280.751 C 439.146 305.576, 419.070 319.537, 388.353 327.891 C 386.073 328.511, 384.004 329.577, 383.755 330.259 C 382.413 333.943, 391.722 375.780, 397.603 392.500 C 402.612 406.739, 416.896 434.971, 424.281 445.228 C 455.295 488.300, 493.505 512.094, 537.983 516.032 C 559.496 517.937, 583.571 513.606, 604.159 504.128 C 613.955 499.618, 628.414 490.708, 635.919 484.556 C 644.120 477.833, 658.836 462.748, 666.217 453.500 C 677.006 439.981, 689.333 417.694, 697.469 397 C 703.443 381.803, 713 340.772, 713 330.318 C 713 325.295, 699.979 322.269, 666.500 319.513 C 611.700 315.002, 573.250 309.553, 553.311 303.471 C 543.427 300.456, 519.940 289.926, 512.500 285.173 C 499.302 276.742, 486.968 264.617, 478.501 251.750 C 476.420 248.588, 474.379 246, 473.967 246 C 473.554 246, 472.906 247.238, 472.527 248.750 M 864 258.784 C 864 259.216, 862.763 260.317, 861.250 261.232 C 859.737 262.147, 853.775 267.389, 848 272.882 C 838.935 281.504, 837.651 283.117, 838.602 284.684 C 840.461 287.747, 843.369 287.320, 848.057 283.296 C 861.210 272.006, 870 263.277, 870 261.505 C 870 260.897, 869.460 259.860, 868.800 259.200 C 867.463 257.863, 864 257.563, 864 258.784 M 984.687 263.793 C 983.759 264.819, 983 266.139, 983 266.727 C 983 268.659, 998.840 285.692, 1006.325 291.809 C 1009.422 294.339, 1012.304 294.373, 1012.784 291.885 C 1013.071 290.392, 1006.092 280.934, 1001.429 276.500 C 1000.272 275.400, 996.412 271.671, 992.850 268.214 C 986.611 262.159, 986.313 261.997, 984.687 263.793 M 944 289.586 C 944 292.659, 944.868 298.396, 945.929 302.336 C 946.990 306.276, 948.418 312.113, 949.103 315.308 C 950.192 320.389, 951.989 323, 954.399 323 C 957.250 323, 956.385 311.452, 952.191 293.500 C 950.441 286.014, 949.240 284, 946.525 284 C 944.126 284, 944 284.280, 944 289.586 M 470 331.685 C 465.913 332.512, 459.372 338.612, 456.595 344.186 C 451.264 354.883, 454.639 367.522, 464.420 373.495 C 468.839 376.194, 470.181 376.500, 477.580 376.500 C 485.139 376.500, 486.179 376.249, 490.160 373.463 C 502.358 364.926, 503.503 347.570, 492.589 336.656 C 490.660 334.727, 487.746 333.002, 485.846 332.664 C 479.968 331.620, 472.578 331.163, 470 331.685 M 612.460 332.002 C 604.592 334.451, 595.977 346.213, 596.022 354.446 C 596.064 362.289, 602.286 371.862, 609.459 375.120 C 611.896 376.228, 615.855 376.965, 619.434 376.978 C 637.970 377.047, 648.932 357.746, 639.251 342.087 C 635.013 335.233, 629.845 332.066, 621.999 331.514 C 618.425 331.262, 614.132 331.482, 612.460 332.002 M 478.081 339.750 C 475.521 341.843, 474.928 348.356, 477.099 350.528 C 477.884 351.313, 479.901 352.230, 481.581 352.566 C 485.946 353.439, 491.417 348.877, 490.533 345.101 C 489.748 341.744, 485.541 338, 482.555 338 C 481.272 338, 479.258 338.788, 478.081 339.750 M 620.455 340.455 C 617.067 343.842, 617.293 347.537, 621.106 351.099 C 625 354.736, 626.014 354.723, 630.016 350.985 C 632.774 348.408, 633.153 347.499, 632.619 344.735 C 631.368 338.261, 624.918 335.991, 620.455 340.455 M 350.007 346.531 C 341.610 350.322, 339.209 355.853, 340.973 367.341 C 343.724 385.253, 360.090 408.488, 375.192 415.923 C 381.101 418.832, 390.197 421.101, 392.659 420.280 C 393.304 420.065, 391.856 414.881, 389.008 407.212 C 381.836 387.892, 378.415 376.837, 374.945 361.767 L 371.784 348.034 368.142 347.001 C 361.253 345.048, 353.725 344.852, 350.007 346.531 M 733 345.930 C 728.304 346.869, 725.247 348.625, 724.611 350.749 C 724.322 351.712, 722.753 358.132, 721.125 365.016 C 717.677 379.588, 712.369 396.452, 706.880 410.270 C 704.746 415.644, 703 420.298, 703 420.614 C 703 420.929, 705.362 420.875, 708.250 420.493 C 724.436 418.351, 743.332 400.987, 752.108 380.191 C 754.738 373.960, 755.435 370.792, 755.779 363.500 C 756.165 355.299, 756.001 354.245, 753.930 351.624 C 749.609 346.158, 742.091 344.112, 733 345.930 M 504.500 419.575 C 501.254 422.028, 501.857 428.304, 506.181 437.052 C 510.386 445.559, 516.538 452.450, 524.440 457.505 C 537.841 466.078, 557.803 466.167, 572.214 457.720 C 586.777 449.183, 598.632 426.632, 592.029 420.029 C 590.396 418.396, 589.138 417.989, 587.163 418.456 C 584.247 419.145, 581 422.403, 581 424.639 C 581 427.863, 574.796 438.010, 570.527 441.768 C 562.887 448.492, 559.934 449.503, 548 449.478 C 536.100 449.453, 534.355 448.822, 526.396 441.666 C 522.069 437.775, 516 428.145, 516 425.169 C 516 423.396, 510.215 418, 508.349 418.032 C 507.332 418.049, 505.600 418.744, 504.500 419.575 M 535.533 600.250 C 534.592 610.962, 535.358 897.691, 536.331 898.667 C 536.787 899.125, 542.272 899.651, 548.519 899.835 L 559.878 900.169 560.392 896.835 C 561.606 888.965, 562.102 792.943, 561.427 696.788 L 560.697 593 548.434 593 L 536.171 593 535.533 600.250 M 254.500 704.996 C 252.636 707.063, 252.500 708.618, 252.503 727.857 C 252.506 752.459, 253.018 756.043, 257.524 763.037 C 260.694 767.958, 260.956 768.949, 260.764 775.306 C 260.571 781.714, 260.755 782.393, 263.274 784.559 C 267.013 787.776, 286.053 793.780, 293.718 794.160 C 302.207 794.580, 303.026 793.588, 300.072 786.461 C 298.804 783.402, 298.040 780.627, 298.373 780.294 C 298.705 779.961, 300.670 779.404, 302.739 779.056 C 306.186 778.476, 306.473 778.179, 306.179 775.502 C 306.003 773.895, 304.525 770.605, 302.896 768.191 C 298.939 762.327, 298.944 761.954, 303 760.547 C 308.261 758.724, 308.067 755.890, 302.047 746.670 C 299.271 742.417, 297 738.328, 297 737.583 C 297 736.838, 298.513 735.510, 300.362 734.632 C 305.527 732.182, 306.589 730.470, 304.902 727.318 C 301.363 720.703, 272.137 704.383, 261.961 703.338 C 257.188 702.848, 256.248 703.057, 254.500 704.996 M 831.533 703.731 C 827.386 704.783, 811.644 712.166, 806.416 715.511 C 803.405 717.436, 798.930 720.867, 796.471 723.133 C 790.156 728.954, 790.569 732.957, 797.686 734.912 C 801.423 735.938, 801.012 737.633, 794.922 746.305 C 791.500 751.178, 790 754.293, 790 756.529 C 790 759.507, 790.295 759.792, 794 760.384 C 798.243 761.062, 799.146 762.804, 796.427 765.061 C 794.142 766.957, 791 773.520, 791 776.397 C 791 778.460, 791.543 778.926, 794.250 779.187 C 797.874 779.536, 798.028 780.227, 796.529 789.399 L 795.728 794.299 804.114 793.750 C 812.659 793.191, 825.933 789.160, 832.600 785.100 C 835.565 783.294, 835.724 782.857, 836.260 775.034 C 836.625 769.711, 837.362 766.257, 838.372 765.141 C 839.226 764.198, 840.620 761.760, 841.472 759.722 C 844.462 752.565, 846.292 712.295, 843.837 707.684 C 841.558 703.405, 837.701 702.166, 831.533 703.731" stroke="none" fill="#fbfbfb" fill-rule="evenodd"/></svg>