<!DOCTYPE svg PUBLIC "-//W3C//DTD SVG 1.1//EN" "http://www.w3.org/Graphics/SVG/1.1/DTD/svg11.dtd">

<!-- Uploaded to: SVG Repo, www.svgrepo.com, Transformed by: SVG Repo Mixer Tools -->
<svg version="1.1" id="_x34_" xmlns="http://www.w3.org/2000/svg" xmlns:xlink="http://www.w3.org/1999/xlink" viewBox="-25.6 -25.6 563.20 563.20" xml:space="preserve" width="256px" height="256px" fill="#000000" stroke="#000000" stroke-width="4.608">

<g id="SVGRepo_bgCarrier" stroke-width="0"/>

<g id="SVGRepo_tracerCarrier" stroke-linecap="round" stroke-linejoin="round"/>

<g id="SVGRepo_iconCarrier"> <g> <g> <g> <polygon style="fill:#F2D755;" points="159.071,64.597 159.071,192.664 0,192.664 4.448,187.352 54.307,128.663 0,64.597 "/> <polygon style="fill:#F2D755;" points="89.213,142.217 159.051,142.217 159.051,191.686 "/> </g> <g> <polygon style="fill:#F2D755;" points="457.693,128.663 512,192.664 352.93,192.664 352.93,64.597 512,64.597 507.22,70.24 "/> <polygon style="fill:#F2D755;" points="422.787,142.217 352.949,142.217 352.949,191.686 "/> </g> <rect x="89.693" style="fill:#F2D755;" width="332.614" height="142.539"/> </g> <polygon style="opacity:0.06;fill:#040000;" points="457.693,128.663 512,192.664 352.93,192.664 352.93,142.539 209.793,142.539 352.332,0 422.307,0 422.307,64.597 512,64.597 507.22,70.24 "/> </g> </g>

</svg>