<!DOCTYPE svg PUBLIC "-//W3C//DTD SVG 1.1//EN" "http://www.w3.org/Graphics/SVG/1.1/DTD/svg11.dtd">
<!-- Uploaded to: SVG Repo, www.svgrepo.com, Transformed by: SVG Repo Mixer Tools -->
<svg width="800px" height="800px" viewBox="0 0 24 24" xmlns="http://www.w3.org/2000/svg" fill="#000000">
<g id="SVGRepo_bgCarrier" stroke-width="0"/>
<g id="SVGRepo_tracerCarrier" stroke-linecap="round" stroke-linejoin="round"/>
<g id="SVGRepo_iconCarrier"> <defs> <style>.cls-1{fill:none;stroke:#020202;stroke-miterlimit:10;stroke-width:1.152;}</style> </defs> <g id="lips"> <path class="cls-1" d="M18.11,7.14a5.33,5.33,0,0,0-2.95-.89,5.26,5.26,0,0,0-2.37.56L12,7.2l-.79-.39a5.26,5.26,0,0,0-2.37-.56,5.33,5.33,0,0,0-2.95.89L1.5,10.07a9.21,9.21,0,0,0,8.86,6.68h3.28a9.22,9.22,0,0,0,8.86-6.68Z"/> <path class="cls-1" d="M1.5,10.07h0a30.8,30.8,0,0,0,21,0h0"/> </g> </g>
</svg>