<svg xmlns="http://www.w3.org/2000/svg" width="947" height="1034" viewBox="0 0 947 1034" version="1.1"><path d="M 734 100.794 C 734 102.407, 734.450 105.926, 734.999 108.614 C 735.548 111.301, 736.630 116.372, 737.402 119.881 C 738.175 123.391, 739.372 126.612, 740.063 127.039 C 740.753 127.466, 741.932 127.579, 742.682 127.292 C 743.650 126.920, 743.901 125.566, 743.547 122.634 C 743.273 120.360, 742.601 116.250, 742.053 113.500 C 741.506 110.750, 740.483 106.250, 739.779 103.500 C 738.770 99.554, 738.026 98.433, 736.250 98.180 C 734.355 97.911, 734 98.324, 734 100.794 M 780.291 100.717 C 779.626 100.949, 777.245 106.810, 775 113.741 C 772.755 120.672, 771.159 126.972, 771.454 127.742 C 771.750 128.511, 772.922 128.996, 774.059 128.820 C 775.726 128.562, 776.890 126.268, 780.057 117 C 782.219 110.675, 783.990 104.536, 783.994 103.357 C 783.997 102.178, 783.438 101.007, 782.750 100.754 C 782.063 100.501, 780.956 100.485, 780.291 100.717 M 693.667 119.667 C 693.300 120.033, 693.018 121.046, 693.040 121.917 C 693.062 122.787, 697.225 127.919, 702.290 133.319 C 709.298 140.790, 711.918 142.977, 713.250 142.462 C 714.212 142.090, 714.994 141.047, 714.987 140.143 C 714.979 139.239, 710.891 134.113, 705.902 128.750 C 700.912 123.388, 696.268 119, 695.582 119 C 694.895 119, 694.033 119.300, 693.667 119.667 M 816.833 125.887 C 816.650 126.375, 812.337 130.238, 807.250 134.472 C 802.163 138.707, 798 142.753, 798 143.463 C 798 144.174, 798.647 145.292, 799.439 145.949 C 800.600 146.913, 801.819 146.399, 805.756 143.287 C 808.439 141.167, 813.191 137.224, 816.317 134.525 C 820.171 131.198, 822 128.875, 822 127.309 C 822 125.534, 821.441 125, 819.583 125 C 818.254 125, 817.017 125.399, 816.833 125.887 M 744.244 135.110 C 741.353 135.591, 735.954 137.451, 732.245 139.243 C 727.767 141.406, 723.080 144.874, 718.295 149.566 C 713.304 154.460, 710.164 158.589, 708.077 163.001 C 706.420 166.504, 704.545 171.874, 703.909 174.935 C 703.268 178.024, 702.965 184.536, 703.228 189.570 C 703.662 197.869, 704.109 199.486, 708.482 208.570 C 711.111 214.032, 714.479 222.325, 715.967 227 C 718.151 233.861, 719.190 235.754, 721.357 236.815 C 722.834 237.538, 725.229 238.213, 726.680 238.315 C 729.240 238.494, 729.491 237.979, 735.098 221 C 738.277 211.375, 740.905 202.774, 740.939 201.886 C 740.977 200.870, 739.343 199.639, 736.528 198.564 C 734.069 197.625, 730.919 195.504, 729.528 193.851 C 727.752 191.741, 727 189.664, 727 186.874 C 727 184.689, 727.683 181.581, 728.517 179.967 C 729.351 178.354, 731.354 176.351, 732.967 175.517 C 734.581 174.683, 737.768 174, 740.050 174 C 743.436 174, 744.826 174.626, 747.600 177.400 C 750.566 180.366, 751 181.442, 751 185.835 C 751 188.604, 750.533 192.099, 749.961 193.602 C 749.188 195.635, 749.240 196.530, 750.163 197.101 C 750.846 197.523, 751.751 197.654, 752.175 197.392 C 752.598 197.130, 753.485 195.113, 754.145 192.910 C 754.817 190.668, 756.826 187.604, 758.707 185.952 C 761.366 183.618, 763.012 183, 766.570 183 C 769.066 183, 772.191 183.734, 773.586 184.648 C 774.970 185.555, 776.754 187.558, 777.551 189.099 C 778.348 190.640, 779 193.431, 779 195.302 C 779 197.189, 777.982 200.218, 776.713 202.102 C 775.289 204.219, 772.986 205.975, 770.606 206.760 C 767.754 207.699, 765.781 207.749, 762.830 206.954 C 760.655 206.368, 758.270 205.657, 757.531 205.374 C 756.549 204.997, 754.544 209.963, 750.094 223.790 C 746.742 234.202, 744 243.163, 744 243.703 C 744 244.242, 745.740 245.205, 747.866 245.842 C 749.992 246.479, 752.308 247, 753.013 247 C 753.718 247, 756.140 245.508, 758.397 243.685 C 760.654 241.862, 765.200 238.804, 768.500 236.890 C 771.800 234.975, 776.525 232.349, 779 231.053 C 781.475 229.757, 785.456 227.125, 787.846 225.203 C 790.236 223.281, 793.711 219.637, 795.569 217.104 C 797.426 214.572, 800.049 210.196, 801.398 207.381 C 802.747 204.565, 804.334 199.645, 804.925 196.447 C 805.516 193.249, 806 188.302, 806 185.453 C 806 182.604, 805.554 177.922, 805.009 175.049 C 804.464 172.176, 802.601 166.854, 800.867 163.222 C 798.702 158.684, 795.494 154.412, 790.608 149.560 C 785.894 144.878, 781.294 141.435, 776.951 139.338 C 773.350 137.599, 767.754 135.686, 764.518 135.088 C 761.281 134.490, 756.578 134.053, 754.066 134.117 C 751.555 134.181, 747.135 134.628, 744.244 135.110 M 669.362 157.500 C 669.045 158.325, 669.025 159.623, 669.317 160.385 C 669.610 161.146, 675.576 163.649, 682.577 165.947 C 694.115 169.734, 695.450 169.978, 696.866 168.562 C 698.283 167.146, 698.278 166.850, 696.818 165.389 C 695.932 164.503, 689.958 162.028, 683.542 159.889 C 677.127 157.750, 671.441 156, 670.908 156 C 670.374 156, 669.678 156.675, 669.362 157.500 M 833.500 166.558 C 830.200 167.295, 825.356 168.358, 822.736 168.921 C 820.115 169.484, 817.078 170.423, 815.986 171.008 C 814.894 171.592, 814 172.681, 814 173.428 C 814 174.175, 814.609 175.020, 815.352 175.305 C 816.096 175.590, 819.809 175.196, 823.602 174.428 C 827.396 173.660, 833.200 172.462, 836.500 171.766 C 841.885 170.630, 842.500 170.245, 842.500 168.014 C 842.500 166.539, 841.890 165.464, 841 165.373 C 840.175 165.287, 836.800 165.821, 833.500 166.558 M 734.944 180.844 C 733.460 182.046, 732.667 183.769, 732.667 185.791 C 732.667 187.497, 733.286 189.639, 734.042 190.551 C 734.799 191.462, 736.336 192.551, 737.459 192.971 C 738.582 193.390, 740.439 194.025, 741.587 194.382 C 743.351 194.931, 743.854 194.431, 744.837 191.150 C 745.477 189.015, 746 186.386, 746 185.308 C 746 184.230, 744.958 182.370, 743.686 181.174 C 742.413 179.978, 740.437 179, 739.296 179 C 738.155 179, 736.197 179.830, 734.944 180.844 M 763.343 189.179 C 762.157 189.753, 760.413 192.248, 759.467 194.724 C 758.042 198.457, 757.980 199.369, 759.104 200.064 C 759.849 200.525, 762.122 201.183, 764.155 201.526 C 766.259 201.882, 768.764 201.661, 769.973 201.014 C 771.141 200.390, 772.513 198.781, 773.023 197.439 C 773.593 195.940, 773.593 194.060, 773.023 192.561 C 772.513 191.219, 771.204 189.644, 770.114 189.061 C 769.023 188.477, 767.539 188.030, 766.816 188.068 C 766.092 188.105, 764.530 188.605, 763.343 189.179 M 687.500 197.074 C 685.300 197.554, 680.125 198.697, 676 199.614 C 671.875 200.531, 667.938 201.723, 667.250 202.263 C 666.563 202.803, 666 203.834, 666 204.555 C 666 205.276, 666.788 206.114, 667.750 206.418 C 668.712 206.723, 674.842 205.863, 681.371 204.508 C 687.900 203.153, 693.853 201.537, 694.600 200.917 C 695.591 200.095, 695.684 199.278, 694.944 197.895 C 694.386 196.853, 693.383 196.045, 692.715 196.100 C 692.047 196.156, 689.700 196.594, 687.500 197.074 M 741.065 220.628 C 737.729 230.941, 735 240.002, 735 240.763 C 735 241.527, 735.761 242, 736.701 241.819 C 737.948 241.579, 739.951 236.693, 744.211 223.496 C 747.405 213.598, 749.903 204.862, 749.760 204.083 C 749.617 203.303, 748.967 202.488, 748.315 202.271 C 747.556 202.018, 744.946 208.627, 741.065 220.628 M 813.517 203.625 C 812.730 204.413, 812.315 205.657, 812.596 206.390 C 812.877 207.123, 818.905 209.629, 825.991 211.959 C 833.076 214.289, 839.352 215.900, 839.937 215.539 C 840.522 215.178, 841 213.997, 841 212.916 C 841 211.692, 839.963 210.556, 838.250 209.904 C 836.737 209.329, 830.876 207.358, 825.225 205.526 C 816.307 202.633, 814.761 202.382, 813.517 203.625 M 698.917 232.696 C 694.288 236.959, 689.712 241.122, 688.750 241.946 C 687.788 242.770, 687 243.964, 687 244.600 C 687 245.235, 687.674 246.314, 688.498 246.998 C 689.726 248.018, 690.580 247.774, 693.248 245.645 C 695.036 244.217, 699.875 239.902, 704 236.056 C 710.290 230.191, 711.327 228.785, 710.429 227.341 C 709.839 226.394, 708.902 225.467, 708.346 225.282 C 707.790 225.097, 703.547 228.433, 698.917 232.696 M 795.200 230.200 C 794.540 230.860, 794 231.929, 794 232.575 C 794 233.222, 798.285 238.113, 803.522 243.445 C 809.609 249.642, 813.663 253.019, 814.760 252.808 C 815.705 252.626, 816.621 251.731, 816.796 250.819 C 816.991 249.809, 813.250 245.222, 807.224 239.080 C 801.783 233.536, 797.122 229, 796.866 229 C 796.610 229, 795.860 229.540, 795.200 230.200 M 765.541 251.115 C 765.822 254.478, 766.465 258, 766.969 258.942 C 767.473 259.884, 768.193 262.974, 768.569 265.809 C 768.945 268.644, 769.806 271.720, 770.482 272.644 C 771.260 273.709, 772.360 274.076, 773.482 273.645 C 774.994 273.065, 775.153 272.200, 774.571 267.733 C 774.195 264.855, 772.958 258.563, 771.821 253.750 C 769.943 245.803, 769.537 245, 767.391 245 C 765.110 245, 765.047 245.210, 765.541 251.115 M 734.500 729.947 C 732.300 730.940, 729.560 732.821, 728.412 734.127 C 727.263 735.432, 725.320 738.177, 724.094 740.227 C 722.868 742.277, 719.274 746.327, 716.107 749.227 C 712.940 752.127, 708.936 756.583, 707.209 759.130 C 705.482 761.676, 703.311 764.050, 702.385 764.406 C 700.884 764.982, 700.953 765.321, 703.025 767.526 C 704.303 768.887, 706.414 770, 707.717 770 C 709.277 770, 711.693 768.271, 714.793 764.935 C 717.382 762.150, 722.703 756.637, 726.619 752.685 C 730.534 748.733, 734.684 743.630, 735.841 741.345 C 736.998 739.059, 739.134 736.253, 740.589 735.109 C 742.043 733.965, 745.660 732.264, 748.626 731.329 C 752.119 730.228, 753.574 729.348, 752.759 728.830 C 752.067 728.390, 748.575 728.056, 745 728.086 C 740.984 728.120, 736.971 728.831, 734.500 729.947 M 639.779 733.250 C 638.897 733.938, 636.367 737.334, 634.156 740.798 C 631.946 744.262, 629.011 750.112, 627.633 753.798 C 626.255 757.484, 624.268 763.650, 623.218 767.500 C 622.168 771.350, 620.758 776.750, 620.085 779.500 C 619.412 782.250, 617.768 789.654, 616.431 795.952 C 614.224 806.347, 614.010 809.579, 614.106 830.952 C 614.164 843.904, 614.502 859.101, 614.856 864.724 C 615.382 873.078, 615.867 875.315, 617.505 876.951 C 619.103 878.548, 620.295 878.826, 623.388 878.325 L 627.266 877.695 626.615 870.098 C 626.257 865.919, 625.681 851.248, 625.335 837.496 C 624.747 814.175, 624.853 811.785, 626.908 801.996 C 628.119 796.223, 630.232 786.775, 631.602 781 C 632.972 775.225, 635.259 766.900, 636.684 762.500 C 638.110 758.100, 640.160 752.700, 641.241 750.500 C 642.321 748.300, 644.847 743.916, 646.853 740.758 C 649.792 736.131, 651.150 734.892, 653.849 734.378 C 656.220 733.927, 656.804 733.491, 655.849 732.885 C 655.107 732.415, 651.549 732.024, 647.941 732.015 C 644.193 732.007, 640.695 732.536, 639.779 733.250 M 80.306 733.972 C 77.449 734.410, 73.399 735.810, 71.306 737.082 C 69.213 738.355, 65.813 740.733, 63.750 742.366 C 61.688 743.999, 60 746.060, 60 746.946 C 60 747.832, 58.987 749.952, 57.750 751.657 C 56.513 753.362, 51.945 759.425, 47.599 765.129 C 43.254 770.833, 38.387 778.285, 36.783 781.689 C 34.927 785.631, 33.386 791.257, 32.538 797.189 C 31.807 802.310, 30.713 807.761, 30.109 809.303 C 29.504 810.844, 29.014 813.544, 29.019 815.303 C 29.025 817.061, 28.808 833.026, 28.537 850.779 C 28.054 882.488, 28.088 883.238, 30.506 893.279 C 32.219 900.394, 33.608 904.027, 35.076 905.235 C 36.236 906.190, 40.229 907.877, 43.950 908.985 C 47.671 910.093, 51.342 910.980, 52.108 910.956 C 52.874 910.931, 51.893 910.062, 49.929 909.024 C 47.964 907.985, 45.765 906.422, 45.041 905.550 C 44.317 904.677, 43.330 902.059, 42.848 899.732 C 42.366 897.404, 41.305 891.675, 40.490 887 C 39.674 882.325, 39.006 874.758, 39.004 870.184 C 39.002 865.611, 39.451 861.026, 40.002 859.996 C 40.651 858.784, 40.706 853.604, 40.160 845.312 C 39.599 836.811, 39.702 828.799, 40.464 821.500 C 41.095 815.450, 41.880 809.825, 42.206 809 C 42.533 808.175, 43.339 803.585, 43.996 798.801 C 44.748 793.336, 46.270 787.822, 48.092 783.970 C 49.686 780.598, 52.455 775.744, 54.245 773.182 C 56.035 770.620, 60.360 764.992, 63.855 760.674 C 67.350 756.356, 70.624 751.324, 71.130 749.492 C 71.812 747.021, 73.513 745.190, 77.726 742.394 C 80.848 740.322, 84.999 738.055, 86.951 737.357 C 88.903 736.659, 91.828 736.068, 93.450 736.044 C 95.265 736.017, 96.034 735.647, 95.450 735.082 C 94.927 734.578, 92.475 733.942, 90 733.671 C 87.525 733.399, 83.163 733.535, 80.306 733.972 M 440.308 736.010 C 439.103 736.495, 437.313 738.119, 436.331 739.617 C 435.039 741.590, 434.349 745.399, 433.833 753.421 C 433.441 759.514, 432.800 771.138, 432.408 779.250 L 431.696 794 434.266 794 C 435.680 794, 437.548 794.273, 438.418 794.607 C 439.288 794.941, 440 795.878, 440 796.690 C 440 797.502, 440.563 797.982, 441.250 797.756 C 441.938 797.531, 442.618 796.031, 442.762 794.423 C 442.906 792.815, 443.627 781.075, 444.365 768.333 C 445.540 748.020, 445.965 744.724, 447.815 741.589 L 449.925 738.013 447.012 736.506 C 445.410 735.678, 443.739 735.029, 443.300 735.063 C 442.860 735.098, 441.514 735.524, 440.308 736.010 M 88.642 761.272 C 87.506 762.103, 86.717 764.444, 86.366 768.022 C 85.911 772.671, 86.282 774.487, 88.818 780.015 C 90.462 783.599, 92.120 788.617, 92.502 791.167 C 93.088 795.069, 92.875 796.125, 91.156 797.844 C 90.033 798.967, 87.401 800.357, 85.307 800.933 C 83.213 801.509, 79.262 802.590, 76.527 803.337 L 71.555 804.694 76.654 805.917 C 81.257 807.021, 82.653 806.893, 91.011 804.603 C 96.103 803.208, 101.159 801.264, 102.246 800.283 C 103.880 798.809, 104.131 797.633, 103.693 793.500 C 103.401 790.750, 101.769 785.246, 100.066 781.270 C 97.636 775.593, 97.104 773.204, 97.592 770.153 C 97.971 767.782, 97.723 765.337, 96.957 763.883 C 96.266 762.572, 95.205 761.169, 94.600 760.765 C 93.995 760.361, 92.799 760.024, 91.941 760.015 C 91.084 760.007, 89.599 760.573, 88.642 761.272 M 188.500 762.363 C 185.200 763.555, 180.256 765.648, 177.513 767.015 C 174.770 768.382, 169.317 772.650, 165.394 776.500 C 161.472 780.350, 157.140 785.750, 155.768 788.500 C 154.396 791.250, 152.766 795.075, 152.145 797 C 151.525 798.925, 150.412 804.046, 149.671 808.380 C 148.596 814.673, 148.571 816.976, 149.547 819.813 C 150.411 822.327, 150.475 824.209, 149.764 826.246 C 149.019 828.385, 149.203 830.977, 150.480 836.313 C 151.426 840.266, 153.523 846.302, 155.140 849.727 C 157.235 854.165, 159.698 857.325, 163.710 860.727 C 166.806 863.352, 171.693 867.593, 174.570 870.150 C 178.170 873.351, 181.573 875.315, 185.489 876.454 C 188.618 877.363, 191.587 877.971, 192.087 877.804 C 192.586 877.637, 188.940 874.168, 183.984 870.097 C 179.027 866.025, 173.239 860.813, 171.121 858.515 C 169.003 856.218, 166.285 851.705, 165.081 848.487 C 163.877 845.269, 162.264 839.945, 161.497 836.657 C 160.578 832.718, 160.424 830.076, 161.045 828.916 C 161.564 827.946, 161.843 825.882, 161.665 824.327 C 161.488 822.772, 160.995 820.720, 160.571 819.767 C 160.146 818.813, 160.537 813.705, 161.438 808.414 C 162.536 801.974, 164.186 796.599, 166.431 792.148 C 168.551 787.944, 172.247 783.051, 176.484 778.840 C 180.170 775.177, 185.731 770.836, 188.843 769.194 C 191.954 767.552, 197.097 765.402, 200.270 764.415 C 203.444 763.429, 205.883 762.145, 205.691 761.561 C 205.499 760.977, 202.903 760.432, 199.921 760.348 C 196.528 760.253, 192.255 761.007, 188.500 762.363 M 666.200 768.200 C 665.540 768.860, 665 769.930, 665 770.578 C 665 771.225, 665.706 772.341, 666.568 773.056 C 667.430 773.772, 668.952 775.949, 669.950 777.895 C 670.949 779.841, 676.656 785.827, 682.633 791.198 C 692.268 799.856, 693.925 800.965, 697.250 800.981 C 699.313 800.992, 701 800.655, 701 800.232 C 701 799.810, 696.942 795.722, 691.982 791.148 C 687.022 786.574, 682.257 781.465, 681.393 779.794 C 680.529 778.123, 678.400 775.337, 676.661 773.603 C 674.923 771.869, 672.387 769.674, 671.027 768.725 C 669.668 767.776, 668.295 767, 667.977 767 C 667.660 767, 666.860 767.540, 666.200 768.200 M 550 777.975 C 549.175 778.522, 547.241 778.976, 545.702 778.985 C 544.163 778.993, 541.238 779.824, 539.202 780.831 C 537.166 781.838, 533.925 783.572, 532 784.684 C 530.075 785.796, 526.293 788.110, 523.595 789.827 C 520.897 791.544, 516.314 793.639, 513.411 794.483 C 510.158 795.428, 507.338 797.026, 506.066 798.644 C 504.930 800.088, 504 801.732, 504 802.297 C 504 802.862, 502.542 805.598, 500.759 808.375 C 498.230 812.317, 497.367 814.970, 496.828 820.463 C 496.448 824.333, 495.820 830.076, 495.432 833.224 C 494.978 836.900, 495.177 840.561, 495.987 843.455 C 496.681 845.934, 497.902 848.504, 498.701 849.167 C 499.847 850.118, 500.343 850.070, 501.061 848.936 C 501.561 848.146, 502.003 847.725, 502.044 848 C 502.085 848.275, 502.246 850.075, 502.403 852 C 502.560 853.925, 504.380 858.875, 506.447 863 C 508.513 867.125, 511.621 872.004, 513.352 873.841 C 515.083 875.679, 519.425 878.653, 523 880.450 C 526.575 882.247, 533.414 885.386, 538.198 887.426 C 543.855 889.838, 548.050 891.023, 550.198 890.815 C 553.410 890.505, 553.344 890.436, 547.783 888.275 C 544.639 887.053, 539.033 884.579, 535.325 882.776 C 531.617 880.974, 527.100 878.020, 525.287 876.212 C 523.474 874.403, 520.550 870.128, 518.789 866.712 C 517.028 863.295, 515.052 859.019, 514.398 857.210 C 513.743 855.400, 513.439 853.038, 513.721 851.960 C 514.004 850.878, 513.733 850, 513.117 850 C 512.502 850, 512 850.450, 512 851 C 512 851.550, 511.534 852, 510.964 852 C 510.395 852, 509.005 849.862, 507.876 847.250 C 506.291 843.583, 505.967 841.359, 506.454 837.500 C 506.802 834.750, 507.404 828.865, 507.793 824.423 C 508.398 817.509, 509.040 815.472, 512.250 810.273 C 514.313 806.932, 516 803.721, 516 803.138 C 516 802.555, 516.972 801.173, 518.159 800.067 C 519.346 798.960, 522.464 797.342, 525.087 796.471 C 527.709 795.600, 533.600 792.605, 538.178 789.816 C 542.755 787.026, 548.450 783.902, 550.833 782.872 C 553.216 781.842, 556.452 781, 558.024 781 C 559.596 781, 561.126 780.605, 561.425 780.122 C 561.723 779.639, 560.677 778.985, 559.100 778.670 C 557.524 778.355, 555.168 777.845, 553.867 777.538 C 552.565 777.231, 550.825 777.428, 550 777.975 M 855 777.995 C 854.175 778.531, 852.300 778.976, 850.833 778.985 C 849.366 778.993, 846.216 779.842, 843.833 780.872 C 841.450 781.902, 835.705 785.056, 831.067 787.883 C 826.429 790.709, 820.804 793.505, 818.567 794.097 C 816.330 794.689, 813.263 796.344, 811.750 797.774 C 810.237 799.204, 809 800.950, 809 801.653 C 809 802.357, 807.200 805.717, 805 809.121 C 801.412 814.672, 801 815.959, 801 821.606 C 801 825.068, 800.499 830.238, 799.887 833.093 C 799.022 837.126, 799.066 839.200, 800.085 842.392 C 800.806 844.651, 802.039 847.521, 802.825 848.768 C 804.170 850.904, 804.332 850.933, 805.595 849.268 C 806.798 847.682, 806.940 847.863, 806.968 851.028 C 806.986 852.969, 808.588 857.871, 810.530 861.922 C 812.471 865.973, 815.356 870.910, 816.940 872.894 C 818.524 874.877, 822.674 877.946, 826.160 879.713 C 829.647 881.481, 836.775 884.742, 842 886.961 C 847.225 889.180, 852.850 890.968, 854.500 890.936 C 857.387 890.878, 857.331 890.797, 853 888.769 C 850.525 887.610, 844.869 884.931, 840.431 882.815 C 835.993 880.700, 830.981 877.513, 829.294 875.734 C 827.606 873.955, 824.557 869.238, 822.518 865.252 C 820.479 861.265, 818.568 856.197, 818.272 853.990 C 817.865 850.953, 817.433 850.226, 816.499 851 C 815.640 851.714, 814.937 851.630, 814.185 850.723 C 813.591 850.007, 812.547 847.335, 811.865 844.784 C 810.906 841.200, 810.878 838.026, 811.741 830.823 C 812.356 825.695, 812.866 820.440, 812.875 819.145 C 812.884 817.849, 814.491 814.105, 816.446 810.823 C 818.401 807.542, 820 804.500, 820 804.063 C 820 803.627, 820.910 802.113, 822.022 800.699 C 823.248 799.140, 826.119 797.526, 829.319 796.596 C 832.220 795.752, 837.498 793.180, 841.047 790.880 C 844.596 788.580, 850.200 785.416, 853.500 783.850 C 856.800 782.283, 860.711 781.001, 862.191 781.001 C 863.671 781, 865.130 780.599, 865.432 780.110 C 865.735 779.620, 864.379 778.919, 862.420 778.551 C 860.461 778.183, 858.327 777.689, 857.679 777.452 C 857.031 777.215, 855.825 777.459, 855 777.995 M 736.204 782.292 C 732.591 785.974, 732 787.176, 732 790.845 C 732 793.193, 732.415 797.001, 732.921 799.307 C 733.428 801.613, 734.369 811.420, 735.013 821.099 C 735.656 830.779, 736.168 843.611, 736.149 849.616 C 736.130 855.621, 735.650 862.551, 735.082 865.017 C 734.514 867.483, 734.038 874.525, 734.024 880.667 C 734.005 889.485, 734.403 892.774, 735.914 896.300 C 736.967 898.757, 738.868 901.494, 740.137 902.383 C 741.406 903.273, 742.934 904, 743.531 904 C 744.129 904, 745.417 903.415, 746.395 902.701 C 748.080 901.468, 748.085 901.136, 746.490 896.260 C 745.209 892.343, 744.919 888.784, 745.270 881.310 C 745.524 875.914, 746.266 867.348, 746.919 862.273 C 747.882 854.786, 747.807 848.206, 746.521 827.377 C 745.650 813.259, 744.690 801.308, 744.388 800.819 C 744.086 800.331, 743.407 795.338, 742.879 789.725 C 742.351 784.111, 741.579 779.179, 741.163 778.763 C 740.748 778.348, 738.516 779.936, 736.204 782.292 M 299.749 787.021 C 297.686 787.543, 290.410 790.271, 283.580 793.085 C 276.751 795.898, 270.223 799.076, 269.074 800.146 C 267.666 801.458, 267.168 802.823, 267.548 804.334 C 268.007 806.164, 267.455 806.889, 264.552 808.274 C 262.336 809.331, 259.721 811.961, 257.616 815.251 C 255.759 818.155, 253.538 822.595, 252.681 825.119 C 251.824 827.642, 249.971 834.491, 248.562 840.339 C 246.923 847.141, 246.008 853.769, 246.022 858.736 C 246.037 864.077, 246.613 867.753, 247.868 870.516 C 248.871 872.724, 252.460 877.224, 255.843 880.516 C 259.226 883.807, 263.233 886.799, 264.747 887.164 C 266.261 887.529, 270.317 889.011, 273.760 890.458 C 278.120 892.289, 280.519 892.809, 281.661 892.170 C 282.967 891.439, 282.258 890.863, 278.179 889.341 C 275.362 888.291, 270.617 885.324, 267.635 882.750 C 264.419 879.973, 261.153 875.941, 259.607 872.838 C 257.660 868.933, 257 866.074, 257.001 861.554 C 257.001 858.224, 257.664 852.350, 258.473 848.500 C 259.283 844.650, 260.878 837.956, 262.019 833.625 C 263.160 829.294, 265.162 823.640, 266.469 821.062 C 267.776 818.483, 270.603 814.827, 272.752 812.937 C 274.900 811.046, 277.520 809.003, 278.572 808.395 C 280.137 807.493, 280.260 807.018, 279.247 805.797 C 278.241 804.586, 278.342 804.001, 279.781 802.699 C 280.756 801.816, 284.242 799.912, 287.527 798.467 C 290.812 797.022, 294.400 795.456, 295.500 794.985 C 296.600 794.514, 299.750 793.152, 302.500 791.958 C 305.250 790.763, 310.565 789.547, 314.311 789.254 C 318.603 788.919, 320.772 788.372, 320.174 787.774 C 319.653 787.253, 315.688 786.657, 311.363 786.450 C 307.038 786.243, 301.812 786.500, 299.749 787.021 M 410 793.511 C 407.525 794.206, 403.250 795.677, 400.500 796.780 C 397.750 797.883, 392.123 800.392, 387.996 802.354 C 383.614 804.438, 378.765 807.706, 376.339 810.211 C 373.873 812.757, 371.509 816.530, 370.521 819.497 C 369.605 822.245, 367.829 826.520, 366.573 828.997 C 365.318 831.474, 363.557 835.189, 362.660 837.253 C 361.448 840.044, 361.185 842.606, 361.637 847.253 C 361.971 850.689, 362.189 855.651, 362.121 858.280 C 362.034 861.650, 362.777 864.599, 364.639 868.274 C 366.092 871.142, 370.255 876.441, 373.890 880.051 C 379.584 885.705, 381.474 886.918, 387.528 888.807 C 391.394 890.013, 395.444 891, 396.528 890.999 C 397.727 890.999, 396.736 890.134, 394 888.794 C 391.525 887.582, 387.250 884.302, 384.500 881.505 C 381.750 878.708, 378.091 873.738, 376.370 870.460 C 373.717 865.409, 373.261 863.509, 373.382 858 C 373.460 854.425, 373.883 850.938, 374.321 850.250 C 374.833 849.447, 374.569 849, 373.584 849 C 372.400 849, 372.184 848.260, 372.637 845.750 C 372.960 843.962, 373.863 840.532, 374.642 838.127 C 375.422 835.722, 377.134 831.897, 378.448 829.627 C 379.762 827.357, 381.348 823.562, 381.972 821.193 C 382.597 818.825, 384.729 815.092, 386.710 812.899 C 389.166 810.181, 393.528 807.385, 400.407 804.119 C 405.958 801.484, 412.750 798.580, 415.500 797.666 C 418.250 796.752, 422.490 795.515, 424.922 794.917 C 428.157 794.122, 428.962 793.589, 427.922 792.931 C 427.140 792.436, 423.800 792.080, 420.500 792.139 C 417.200 792.199, 412.475 792.817, 410 793.511 M 565.555 801.911 C 565.246 802.412, 564.995 803.874, 564.997 805.161 C 565 806.447, 565.275 809.422, 565.608 811.771 C 566.091 815.172, 565.679 817.136, 563.587 821.413 C 562.141 824.366, 558.988 828.600, 556.579 830.820 C 554.170 833.041, 550.395 835.778, 548.191 836.902 C 545.987 838.027, 542.332 839.243, 540.070 839.605 C 537.807 839.967, 535.722 840.640, 535.437 841.102 C 535.152 841.564, 536.109 842.240, 537.564 842.605 C 539.020 842.971, 543.132 842.997, 546.703 842.663 C 550.274 842.330, 555.514 840.995, 558.348 839.696 C 561.182 838.398, 565.864 834.919, 568.753 831.967 C 572.201 828.443, 574.718 824.698, 576.076 821.068 C 577.326 817.727, 577.897 814.541, 577.518 813.019 C 577.173 811.634, 576.572 808.935, 576.182 807.023 C 575.721 804.758, 574.607 803.107, 572.987 802.288 C 571.619 801.596, 569.514 801.023, 568.309 801.015 C 567.104 801.007, 565.865 801.410, 565.555 801.911 M 870.467 801.765 C 869.898 802.169, 869.534 803.850, 869.658 805.500 C 869.781 807.150, 870.181 809.933, 870.545 811.684 C 871.026 813.994, 870.540 816.325, 868.772 820.186 C 867.433 823.111, 864.183 827.659, 861.549 830.293 C 858.915 832.927, 855.056 835.951, 852.972 837.014 C 850.888 838.077, 847.332 839.243, 845.070 839.605 C 842.807 839.967, 840.722 840.640, 840.437 841.102 C 840.152 841.564, 841.102 842.238, 842.548 842.601 C 843.995 842.965, 847.886 843.016, 851.195 842.716 C 855.022 842.369, 859.519 841.034, 863.553 839.048 C 867.388 837.161, 871.551 834.063, 874.086 831.213 C 876.391 828.621, 879.157 824.539, 880.233 822.142 C 881.624 819.043, 882.024 816.586, 881.619 813.642 C 881.305 811.364, 880.925 808.163, 880.774 806.530 C 880.590 804.530, 879.683 803.146, 878 802.294 C 876.625 801.599, 874.600 801.030, 873.500 801.030 C 872.400 801.030, 871.035 801.361, 870.467 801.765 M 443 813.878 C 443 816.010, 442.395 818.258, 441.655 818.872 C 440.915 819.486, 438.964 820.257, 437.320 820.586 C 434.695 821.111, 434.177 821.812, 433.067 826.342 C 432.371 829.179, 430.846 834.200, 429.677 837.500 C 428.508 840.800, 426.065 845.968, 424.249 848.985 C 422.433 852.001, 419.318 856.139, 417.326 858.179 C 415.333 860.219, 411.408 862.771, 408.602 863.849 C 405.796 864.928, 402.648 866.088, 401.607 866.429 C 400.566 866.769, 399.928 867.261, 400.189 867.522 C 400.450 867.784, 402.775 868.392, 405.355 868.874 C 408.741 869.507, 411.173 869.362, 414.096 868.355 C 416.324 867.587, 420.251 865.888, 422.824 864.579 C 425.396 863.269, 428.468 861.141, 429.651 859.849 C 430.835 858.557, 432.990 855.475, 434.442 853 C 435.893 850.525, 438.133 846.247, 439.420 843.493 C 440.707 840.739, 442.489 835.640, 443.380 832.162 C 444.271 828.684, 445 822.275, 445 817.919 C 445 813.306, 444.582 810, 444 810 C 443.450 810, 443 811.745, 443 813.878 M 312.140 818.072 C 309.849 818.990, 309.830 819.091, 311.482 821.613 C 312.716 823.497, 312.997 825.210, 312.504 827.855 C 312.130 829.860, 310.223 834.425, 308.268 838 C 306.312 841.575, 302.988 847.046, 300.881 850.158 C 298.774 853.270, 296.693 855.970, 296.256 856.158 C 295.819 856.346, 293.487 858.862, 291.074 861.750 C 288.073 865.342, 285.947 867, 284.343 867 C 283.055 867, 282 867.360, 282 867.800 C 282 868.240, 282.540 869.140, 283.200 869.800 C 283.860 870.460, 285.429 871, 286.686 871 C 287.943 871, 291.065 870.440, 293.625 869.755 C 297.588 868.695, 299.379 867.256, 305.695 860.051 C 309.774 855.398, 315.013 848.195, 317.338 844.045 C 319.663 839.895, 322.350 834.430, 323.308 831.899 C 324.267 829.368, 324.767 826.556, 324.419 825.649 C 324.071 824.742, 323.405 824, 322.938 824 C 322.472 824, 321.795 822.425, 321.434 820.500 C 320.846 817.364, 320.451 817.007, 317.639 817.063 C 315.912 817.098, 313.438 817.552, 312.140 818.072 M 98.388 827.690 L 95.277 829.232 95.110 844.866 C 95.018 853.465, 95.447 863.650, 96.063 867.500 C 96.680 871.350, 97.836 877.596, 98.633 881.380 C 99.431 885.164, 100.697 889.439, 101.447 890.880 C 102.196 892.321, 103.865 894.453, 105.155 895.619 C 106.445 896.784, 108.702 898.021, 110.171 898.368 C 111.639 898.715, 113.504 898.744, 114.313 898.433 C 115.535 897.965, 115.371 897.126, 113.349 893.509 C 111.808 890.752, 110.196 884.988, 108.963 877.825 C 107.517 869.426, 107.008 861.720, 106.991 848 C 106.979 837.825, 106.639 828.998, 106.235 828.385 C 105.831 827.771, 104.600 827.017, 103.500 826.708 C 102.400 826.400, 100.100 826.841, 98.388 827.690 M 590.749 859.772 C 589.786 859.978, 586.412 861.704, 583.251 863.608 C 580.090 865.511, 575.762 867.590, 573.631 868.229 C 570.473 869.175, 570.103 869.525, 571.629 870.124 C 572.658 870.529, 575.999 870.891, 579.054 870.930 C 583.112 870.981, 585.939 870.323, 589.554 868.483 C 592.274 867.099, 595.354 865.313, 596.398 864.514 C 597.900 863.366, 598.050 862.765, 597.116 861.639 C 596.466 860.857, 595.162 860.032, 594.217 859.806 C 593.273 859.581, 591.712 859.565, 590.749 859.772 M 893.189 860.563 C 891.487 861.278, 888.386 863.029, 886.297 864.454 C 884.209 865.878, 880.700 867.538, 878.500 868.142 C 874.606 869.211, 874.566 869.266, 877 870.203 C 878.375 870.732, 881.975 870.993, 885 870.783 C 888.114 870.566, 892.579 869.360, 895.292 868.002 C 897.928 866.683, 900.570 865.018, 901.165 864.302 C 901.942 863.365, 901.921 862.610, 901.090 861.608 C 900.454 860.843, 899.113 860.001, 898.109 859.739 C 897.105 859.476, 894.891 859.847, 893.189 860.563 M 443.250 880.220 C 441.899 880.872, 441 882.210, 441 883.570 C 441 884.815, 441.842 887.784, 442.870 890.167 C 443.899 892.550, 445.587 895.248, 446.620 896.161 C 447.654 897.075, 450.634 898.138, 453.242 898.524 L 457.985 899.225 455.575 894.862 C 454.250 892.463, 452.634 888.475, 451.985 886 C 451.336 883.525, 450.343 880.938, 449.780 880.250 C 449.216 879.563, 448.023 879.030, 447.128 879.068 C 446.232 879.105, 444.488 879.624, 443.250 880.220 M 320.249 883.288 L 316.997 885.715 321.028 890.294 C 323.244 892.812, 326.560 895.801, 328.397 896.936 C 330.233 898.071, 333.439 899, 335.520 899 L 339.304 899 333.902 893.179 C 330.931 889.978, 327.375 885.897, 326 884.110 L 323.500 880.861 320.249 883.288" stroke="none" fill="#f2d755" fill-rule="evenodd"/><path d="M 289.500 439.120 C 287.300 439.516, 282.575 439.945, 279 440.075 C 275.367 440.207, 271.502 440.959, 270.236 441.779 C 268.036 443.207, 267.988 443.588, 268.517 455.374 C 268.817 462.043, 269.263 470.200, 269.508 473.500 C 269.754 476.800, 270.372 489.850, 270.883 502.500 C 271.394 515.150, 271.829 527.525, 271.850 530 C 271.872 532.475, 272.201 537.539, 272.582 541.253 L 273.274 548.006 281.246 552.253 C 285.631 554.589, 291.720 558.525, 294.778 561 C 298.701 564.175, 300.796 566.766, 301.893 569.799 C 303.301 573.689, 303.301 574.510, 301.891 578.429 C 300.444 582.454, 300.463 583.013, 302.163 586.327 C 303.170 588.288, 304.001 591.379, 304.011 593.196 C 304.020 595.013, 303.834 600.196, 303.596 604.714 C 303.319 609.976, 302.595 613.739, 301.582 615.186 C 300.712 616.429, 300 618.492, 300 619.772 C 300 621.052, 299.348 623.360, 298.551 624.901 C 297.754 626.442, 295.842 628.547, 294.301 629.579 C 292.240 630.960, 289.783 631.437, 285 631.385 C 281.425 631.346, 278.218 631.743, 277.873 632.267 C 277.528 632.792, 277.464 641.158, 277.731 650.860 C 278.097 664.138, 278.555 668.771, 279.587 669.595 C 280.472 670.302, 282.647 670.418, 285.729 669.922 C 288.353 669.500, 299.753 668.600, 311.062 667.921 C 326.808 666.976, 335.947 666.951, 350.077 667.815 C 360.226 668.435, 373.023 669.661, 378.515 670.539 C 384.007 671.417, 392.775 673.066, 398 674.204 C 403.225 675.342, 411.325 677.509, 416 679.018 C 420.675 680.528, 428.550 683.383, 433.500 685.363 C 438.450 687.343, 445.600 690.534, 449.389 692.454 C 453.178 694.375, 456.694 695.689, 457.201 695.376 C 457.747 695.038, 457.905 685.748, 457.587 672.653 C 457.291 660.469, 456.948 609.908, 456.824 560.296 L 456.599 470.093 447.228 464.901 C 442.073 462.045, 436.819 459.595, 435.552 459.456 C 434.285 459.317, 432.364 458.730, 431.283 458.151 C 430.202 457.573, 427.334 456.388, 424.909 455.519 C 422.484 454.650, 417.180 452.827, 413.122 451.469 C 409.065 450.111, 404.902 449, 403.872 449 C 402.843 449, 402 448.582, 402 448.072 C 402 447.562, 399.518 446.834, 396.484 446.455 C 393.182 446.042, 390.628 445.157, 390.120 444.250 C 389.506 443.153, 387.647 442.749, 383.396 442.787 C 380.164 442.816, 377.221 442.357, 376.856 441.767 C 376.492 441.177, 372.212 440.519, 367.347 440.303 C 362.481 440.088, 357.375 439.519, 356 439.039 C 354.625 438.559, 340 438.219, 323.500 438.284 C 307 438.349, 291.700 438.725, 289.500 439.120 M 593.804 438.530 C 593.620 438.713, 589.427 439.360, 584.485 439.968 C 579.543 440.576, 573.700 441.312, 571.500 441.604 C 569.300 441.896, 565.159 442.302, 562.299 442.506 C 559.438 442.710, 556.063 443.465, 554.799 444.184 C 553.534 444.903, 552.050 445.523, 551.500 445.562 C 550.950 445.601, 548.925 445.992, 547 446.432 C 545.075 446.871, 543.050 447.563, 542.500 447.969 C 541.950 448.375, 539.700 449.183, 537.500 449.765 C 535.300 450.347, 530.350 452.031, 526.500 453.507 C 522.650 454.983, 516.259 457.306, 512.299 458.670 C 508.338 460.033, 501.588 463.252, 497.299 465.824 L 489.500 470.500 489.246 583.250 C 489.106 645.263, 489.230 696, 489.521 696 C 489.813 696, 493.977 694.019, 498.776 691.598 C 503.574 689.176, 510.452 686.029, 514.060 684.605 C 517.668 683.180, 524.803 680.670, 529.917 679.027 C 535.030 677.383, 542.428 675.339, 546.357 674.483 C 550.286 673.628, 557.550 672.261, 562.500 671.446 C 567.450 670.630, 574.875 669.558, 579 669.062 C 583.125 668.567, 593.700 667.848, 602.500 667.465 C 612.083 667.048, 625.820 667.240, 636.750 667.945 C 646.788 668.591, 657.266 669.479, 660.035 669.916 C 664.755 670.663, 665.180 670.550, 666.856 668.106 C 668.298 666.003, 668.694 663.064, 668.904 652.890 C 669.047 645.955, 668.845 638.150, 668.455 635.546 L 667.745 630.811 663.427 631.459 C 661.052 631.815, 657.367 631.637, 655.239 631.064 C 653.111 630.491, 650.369 628.957, 649.145 627.655 C 647.922 626.352, 646.637 623.535, 646.291 621.393 C 645.945 619.252, 644.839 616.150, 643.834 614.500 C 642.830 612.850, 642.006 610.233, 642.004 608.684 C 642.002 607.136, 642.470 604.990, 643.045 603.917 C 643.827 602.454, 643.702 601.413, 642.545 599.760 C 641.695 598.547, 641.004 596.418, 641.010 595.027 C 641.015 593.637, 642.084 590.214, 643.385 587.419 C 645.467 582.949, 645.590 582.047, 644.411 579.919 C 643.674 578.589, 643.057 575.925, 643.039 574 C 643.022 572.075, 643.877 569.074, 644.940 567.330 C 646.003 565.587, 649.264 562.368, 652.186 560.176 C 655.109 557.985, 660.650 554.496, 664.500 552.424 C 668.350 550.352, 671.649 548.547, 671.832 548.413 C 672.015 548.279, 672.676 543.519, 673.302 537.835 C 673.927 532.151, 674.312 521.944, 674.157 515.152 C 673.963 506.627, 674.204 503.008, 674.938 503.461 C 675.522 503.823, 676 503.641, 676 503.059 C 676 502.477, 675.550 502, 675 502 C 674.450 502, 674 501.523, 674 500.941 C 674 500.359, 674.446 500.158, 674.991 500.494 C 675.631 500.890, 675.985 494.977, 675.991 483.803 C 675.996 474.287, 676.404 462.680, 676.898 458.011 C 677.392 453.342, 677.555 447.942, 677.260 446.011 C 676.964 444.080, 676.326 441.993, 675.841 441.373 C 675.346 440.740, 671.628 440.182, 667.346 440.100 C 663.158 440.018, 659.287 439.678, 658.744 439.342 C 658.201 439.006, 643.442 438.611, 625.947 438.464 C 608.451 438.317, 593.987 438.346, 593.804 438.530 M 463.718 473.615 C 463.342 473.992, 463.031 524.520, 463.027 585.900 C 463.024 647.280, 463.359 698.028, 463.772 698.674 C 464.221 699.375, 467.841 699.960, 472.757 700.128 C 477.363 700.285, 481.436 699.964, 482 699.400 C 482.669 698.731, 482.923 660.563, 482.754 585.946 L 482.500 473.500 473.452 473.215 C 468.475 473.058, 464.095 473.238, 463.718 473.615 M 746.639 731.992 C 743.965 733.037, 740.880 734.703, 739.783 735.696 C 738.685 736.688, 736.876 739.300, 735.762 741.500 C 734.649 743.700, 730.534 748.733, 726.619 752.685 C 722.703 756.637, 717.382 762.150, 714.793 764.935 C 711.604 768.367, 709.294 770, 707.632 770 C 706.190 770, 704.211 768.866, 702.833 767.250 C 701.544 765.737, 698.016 762.475, 694.994 760 C 691.972 757.525, 688.600 755.001, 687.500 754.391 C 686.400 753.781, 683.444 750.640, 680.931 747.411 C 678.418 744.182, 673.918 739.844, 670.931 737.771 C 666.247 734.522, 664.743 734.005, 660 734.015 C 656.975 734.022, 653.595 734.270, 652.490 734.568 C 651.384 734.865, 648.843 737.671, 646.843 740.804 C 644.842 743.937, 642.321 748.300, 641.241 750.500 C 640.160 752.700, 638.110 758.100, 636.684 762.500 C 635.259 766.900, 632.974 775.225, 631.606 781 C 630.239 786.775, 628.193 795.880, 627.060 801.233 C 625.468 808.755, 625 814.626, 625 827.082 C 625 835.947, 625.493 850.917, 626.096 860.350 C 626.919 873.235, 627.576 877.932, 628.740 879.239 C 629.924 880.568, 631.195 880.832, 634.133 880.363 C 636.387 880.002, 639.239 880.271, 641.028 881.012 C 643.780 882.152, 644.317 882.050, 646.524 879.978 C 647.869 878.714, 649.272 876.065, 649.642 874.090 C 650.011 872.116, 650.844 869.150, 651.491 867.500 C 652.282 865.483, 652.612 857.621, 652.498 843.500 C 652.352 825.355, 652.587 821.684, 654.224 816.500 C 655.266 813.200, 656.934 803.935, 657.931 795.911 C 659.297 784.917, 660.423 779.808, 662.502 775.176 C 664.019 771.795, 665.874 768.519, 666.625 767.896 C 667.663 767.035, 668.629 767.182, 670.659 768.512 C 672.126 769.474, 674.789 771.722, 676.575 773.508 C 678.361 775.294, 680.526 778.116, 681.385 779.778 C 682.245 781.441, 687.484 787.008, 693.028 792.151 C 698.572 797.293, 703.954 801.893, 704.988 802.373 C 706.022 802.854, 708.874 802.946, 711.326 802.578 C 715.322 801.979, 717.060 800.678, 728.131 789.994 C 734.922 783.440, 740.802 778.402, 741.198 778.798 C 741.595 779.195, 742.351 784.111, 742.879 789.725 C 743.407 795.338, 744.086 800.331, 744.388 800.819 C 744.690 801.308, 745.650 813.259, 746.521 827.377 C 747.809 848.235, 747.882 854.775, 746.915 862.273 C 746.260 867.348, 745.524 876.001, 745.278 881.503 C 744.920 889.529, 745.202 892.578, 746.705 896.924 C 747.829 900.176, 749.667 903.156, 751.304 904.378 L 754.031 906.414 760.588 903.181 C 764.194 901.403, 770.201 897.934, 773.937 895.472 C 777.673 893.011, 781.910 889.817, 783.352 888.375 C 784.794 886.933, 786.445 884.121, 787.021 882.127 C 787.597 880.132, 788.328 876.465, 788.646 873.978 C 789.087 870.532, 788.704 868.348, 787.037 864.803 C 785.202 860.899, 785.046 859.782, 786.068 857.872 C 786.969 856.189, 786.989 855.496, 786.143 855.214 C 785.385 854.962, 784.985 851.245, 784.956 844.167 C 784.932 838.300, 784.524 830.350, 784.050 826.500 C 783.575 822.650, 782.496 815.450, 781.651 810.500 C 780.806 805.550, 779.873 799.700, 779.578 797.500 C 779.283 795.300, 777.909 785.850, 776.525 776.500 C 775.140 767.150, 774.006 757.868, 774.004 755.873 C 774.002 753.878, 773.256 748.928, 772.346 744.873 C 770.996 738.853, 770.008 736.812, 766.964 733.750 C 763.483 730.249, 762.845 730.003, 757.368 730.047 C 754.087 730.073, 749.357 730.931, 746.639 731.992 M 91 736.371 C 87.975 737.033, 83.416 738.807, 80.868 740.313 C 78.321 741.819, 75.058 744.143, 73.618 745.478 C 72.178 746.813, 71 748.770, 71 749.828 C 71 750.887, 67.963 755.531, 64.250 760.150 C 60.538 764.769, 56.035 770.639, 54.245 773.194 C 52.455 775.749, 49.686 780.598, 48.092 783.970 C 46.270 787.822, 44.748 793.336, 43.996 798.801 C 43.339 803.585, 42.533 808.175, 42.206 809 C 41.880 809.825, 41.095 815.450, 40.464 821.500 C 39.702 828.799, 39.599 836.811, 40.160 845.312 C 40.706 853.604, 40.651 858.784, 40.002 859.996 C 39.451 861.026, 39.002 865.611, 39.004 870.184 C 39.006 874.758, 39.674 882.325, 40.490 887 C 41.305 891.675, 42.366 897.404, 42.848 899.732 C 43.330 902.059, 44.316 904.676, 45.040 905.548 C 45.763 906.419, 47.682 907.819, 49.305 908.658 C 50.928 909.497, 54.506 910.852, 57.255 911.668 C 60.005 912.485, 63.322 912.885, 64.627 912.557 C 66.060 912.198, 67 911.225, 67 910.103 C 67 909.081, 66.279 906.519, 65.398 904.410 C 64.008 901.084, 63.858 896.462, 64.265 869.538 C 64.617 846.233, 65.079 837.684, 66.117 835.226 L 67.500 831.953 78 831.646 C 85.918 831.415, 89.975 830.783, 94.500 829.074 C 97.800 827.828, 101.571 826.808, 102.881 826.807 C 104.190 826.806, 105.646 827.411, 106.115 828.152 C 106.585 828.894, 106.979 837.825, 106.991 848 C 107.007 861.617, 107.520 869.441, 108.932 877.644 C 109.987 883.773, 111.736 890.523, 112.819 892.644 C 113.901 894.765, 115.721 897.345, 116.863 898.377 C 118.102 899.498, 120.553 900.297, 122.939 900.360 C 126.300 900.448, 127.568 899.851, 130.867 896.630 C 133.026 894.522, 135.971 890.633, 137.410 887.988 C 138.849 885.344, 140.532 881.002, 141.149 878.340 C 141.767 875.678, 142.243 867.200, 142.209 859.500 C 142.170 851.108, 141.501 842.095, 140.538 837 C 139.654 832.325, 138.481 826.250, 137.932 823.500 C 137.382 820.750, 136.052 814, 134.975 808.500 C 133.899 803, 133.015 795.465, 133.009 791.756 C 133.001 785.925, 132.391 783.658, 128.500 775 C 125.287 767.850, 124 763.683, 124 760.424 C 124 757.029, 123.262 754.790, 121.118 751.680 C 119.533 749.381, 115.596 745.072, 112.368 742.105 C 108.899 738.914, 105.069 736.369, 103 735.878 C 101.075 735.422, 98.825 735.075, 98 735.108 C 97.175 735.141, 94.025 735.709, 91 736.371 M 451.302 738.012 C 450.094 738.499, 448.336 740.383, 447.396 742.198 C 446.075 744.750, 445.385 750.724, 444.356 768.500 C 443.623 781.150, 442.906 792.815, 442.762 794.423 C 442.618 796.031, 441.938 797.531, 441.250 797.756 C 440.563 797.982, 440 797.502, 440 796.690 C 440 795.878, 439.288 794.941, 438.418 794.607 C 437.548 794.273, 434.961 794.016, 432.668 794.036 C 430.376 794.055, 426.025 794.686, 423 795.438 C 419.975 796.189, 415.700 797.466, 413.500 798.275 C 411.300 799.084, 405.185 801.806, 399.911 804.323 C 393.516 807.376, 389.121 810.231, 386.715 812.894 C 384.731 815.090, 382.597 818.825, 381.972 821.193 C 381.348 823.562, 379.762 827.357, 378.448 829.627 C 377.134 831.897, 375.422 835.722, 374.642 838.127 C 373.863 840.532, 372.960 843.962, 372.637 845.750 C 372.184 848.260, 372.400 849, 373.584 849 C 374.569 849, 374.833 849.447, 374.321 850.250 C 373.883 850.938, 373.460 854.425, 373.382 858 C 373.261 863.509, 373.717 865.409, 376.370 870.460 C 378.091 873.738, 381.750 878.713, 384.500 881.516 C 387.250 884.319, 391.580 887.611, 394.122 888.833 C 396.663 890.055, 402.063 891.756, 406.122 892.615 C 410.397 893.519, 415.554 893.942, 418.385 893.619 C 421.072 893.313, 426.022 891.753, 429.385 890.153 C 432.748 888.553, 437.253 885.606, 439.394 883.605 C 441.536 881.603, 444.387 879.690, 445.729 879.353 C 447.220 878.979, 448.679 879.277, 449.479 880.120 C 450.199 880.879, 451.502 883.975, 452.373 887 C 453.245 890.025, 454.847 893.940, 455.933 895.699 C 457.299 897.911, 459.138 899.229, 461.892 899.971 C 464.083 900.561, 467.713 900.750, 469.960 900.390 C 472.206 900.031, 474.356 899.234, 474.737 898.619 C 475.118 898.003, 475.510 893.450, 475.608 888.500 C 475.740 881.858, 475.407 879.070, 474.337 877.859 C 473.459 876.865, 472.883 874.105, 472.877 870.859 C 472.872 867.912, 471.900 861.675, 470.719 857 C 469.052 850.405, 468.568 845.474, 468.558 835 C 468.551 827.575, 468.935 819.788, 469.412 817.695 C 470.005 815.094, 469.895 813.173, 469.065 811.621 C 468.192 809.990, 468.005 805.157, 468.402 794.426 C 468.705 786.217, 469.226 774.250, 469.560 767.834 C 470.099 757.489, 469.939 755.651, 468.148 751.601 C 467.036 749.089, 464.900 745.424, 463.400 743.458 C 461.900 741.491, 459.419 739.234, 457.886 738.441 C 456.353 737.648, 454.739 737.029, 454.300 737.063 C 453.860 737.098, 452.511 737.525, 451.302 738.012 M 86.934 762.750 C 85.135 764.263, 82.655 766.534, 81.422 767.798 C 80.190 769.062, 77.328 774.708, 75.063 780.344 C 72.797 785.981, 70.574 792.930, 70.123 795.788 C 69.518 799.612, 69.653 801.488, 70.635 802.889 C 71.368 803.936, 74.170 805.321, 76.861 805.967 C 81.210 807.010, 82.780 806.859, 91.011 804.603 C 96.103 803.208, 101.159 801.264, 102.246 800.283 C 103.880 798.809, 104.131 797.633, 103.693 793.500 C 103.401 790.750, 101.769 785.246, 100.066 781.270 C 97.636 775.593, 97.104 773.204, 97.592 770.153 C 97.971 767.782, 97.723 765.337, 96.957 763.883 C 96.266 762.572, 95.205 761.169, 94.600 760.765 C 93.995 760.361, 92.759 760.024, 91.853 760.015 C 90.947 760.007, 88.734 761.237, 86.934 762.750 M 198.967 764.811 C 194.824 766.320, 189.424 768.736, 186.967 770.179 C 184.510 771.622, 179.641 775.660, 176.146 779.151 C 172.269 783.025, 168.483 788.092, 166.435 792.148 C 164.184 796.606, 162.538 801.964, 161.438 808.414 C 160.537 813.705, 160.146 818.813, 160.571 819.767 C 160.995 820.720, 161.488 822.772, 161.665 824.327 C 161.843 825.882, 161.548 827.976, 161.010 828.981 C 160.324 830.263, 160.606 833.050, 161.956 838.329 C 163.014 842.465, 164.832 848.062, 165.995 850.767 C 167.158 853.471, 170.223 857.732, 172.805 860.236 C 175.387 862.740, 180.966 867.654, 185.203 871.156 C 191.249 876.154, 194.100 877.801, 198.462 878.815 C 201.518 879.526, 204.494 879.813, 205.076 879.453 C 205.658 879.093, 206.379 879.733, 206.677 880.875 C 207.060 882.339, 208.293 883.119, 210.860 883.520 C 212.862 883.833, 215.560 884.241, 216.856 884.426 C 218.152 884.612, 221.439 884.175, 224.162 883.457 C 226.885 882.739, 229.824 881.561, 230.692 880.840 C 231.561 880.119, 233.336 877.844, 234.636 875.785 C 235.936 873.725, 236.994 871.693, 236.988 871.270 C 236.981 870.846, 235.518 869.561, 233.738 868.414 C 231.957 867.266, 228.431 866.047, 225.903 865.704 C 223.375 865.361, 219.100 864.363, 216.403 863.487 C 213.706 862.611, 209.517 860.911, 207.094 859.710 C 204.671 858.508, 200.556 855.608, 197.950 853.265 C 195.344 850.922, 191.796 846.799, 190.067 844.104 C 188.083 841.012, 186.559 836.955, 185.941 833.115 C 185.402 829.766, 184.453 825.783, 183.833 824.263 C 183.213 822.743, 182.812 818.125, 182.941 814 C 183.115 808.430, 183.717 805.618, 185.280 803.071 C 186.438 801.185, 189.501 797.098, 192.088 793.990 C 194.675 790.881, 199.876 785.909, 203.646 782.940 C 207.416 779.970, 211.725 776.182, 213.222 774.521 C 214.719 772.859, 216.483 770.209, 217.142 768.632 C 217.976 766.635, 218.030 765.268, 217.317 764.132 C 216.635 763.044, 214.661 762.428, 211.397 762.283 C 208.107 762.137, 204.029 762.966, 198.967 764.811 M 561.500 780 C 561.160 780.550, 559.596 781, 558.024 781 C 556.452 781, 553.216 781.842, 550.833 782.872 C 548.450 783.902, 542.755 787.026, 538.178 789.816 C 533.600 792.605, 527.709 795.600, 525.087 796.471 C 522.464 797.342, 519.346 798.960, 518.159 800.067 C 516.972 801.173, 516 802.555, 516 803.138 C 516 803.721, 514.313 806.932, 512.250 810.273 C 509.040 815.472, 508.398 817.509, 507.793 824.423 C 507.404 828.865, 506.802 834.750, 506.454 837.500 C 505.967 841.359, 506.291 843.583, 507.876 847.250 C 509.005 849.862, 510.395 852, 510.964 852 C 511.534 852, 512 851.550, 512 851 C 512 850.450, 512.502 850, 513.117 850 C 513.733 850, 514.004 850.878, 513.721 851.960 C 513.439 853.038, 513.743 855.400, 514.396 857.210 C 515.050 859.019, 516.856 862.953, 518.411 865.951 C 519.966 868.949, 522.187 872.686, 523.347 874.256 C 524.508 875.826, 527.492 878.332, 529.979 879.826 C 532.465 881.319, 536.975 883.613, 540 884.923 C 543.025 886.234, 548.345 888.616, 551.822 890.218 C 557.218 892.704, 559.344 893.124, 566.322 893.083 C 570.820 893.057, 578.100 892.303, 582.500 891.409 C 586.900 890.514, 591.400 889.573, 592.500 889.317 C 593.600 889.061, 596.295 887.629, 598.489 886.135 C 600.683 884.641, 604.168 881.187, 606.234 878.459 C 608.974 874.842, 609.991 872.515, 609.995 869.861 C 609.998 867.807, 609.196 865.229, 608.156 863.944 C 606.983 862.495, 605.226 861.667, 603.328 861.667 C 601.603 861.667, 598.369 863.026, 595.661 864.889 C 593.085 866.661, 589.422 868.761, 587.521 869.556 C 585.620 870.350, 581.687 870.979, 578.782 870.953 C 575.678 870.926, 571.233 869.973, 568 868.642 C 564.975 867.396, 562.500 865.993, 562.500 865.525 C 562.500 865.056, 564.581 863.959, 567.125 863.086 C 569.669 862.214, 572.369 861.045, 573.125 860.490 C 573.881 859.934, 576.075 858.629, 578 857.589 C 579.925 856.549, 583.434 854.144, 585.798 852.243 C 588.161 850.343, 591.839 846.473, 593.970 843.644 C 596.102 840.815, 598.971 836.250, 600.346 833.500 C 601.721 830.750, 603.583 825.350, 604.483 821.500 C 605.471 817.275, 605.877 812.836, 605.507 810.303 C 605.169 807.995, 603.551 803.420, 601.910 800.137 C 600.270 796.853, 597.172 792.581, 595.026 790.642 C 592.880 788.704, 589.184 786.589, 586.812 785.943 C 584.440 785.296, 580.700 784.090, 578.500 783.262 C 576.300 782.434, 572.025 781.153, 569 780.414 C 565.975 779.676, 563.189 779.055, 562.809 779.036 C 562.429 779.016, 561.840 779.450, 561.500 780 M 865.500 780 C 865.160 780.550, 863.671 781, 862.191 781.001 C 860.711 781.001, 856.800 782.283, 853.500 783.850 C 850.200 785.416, 844.596 788.580, 841.047 790.880 C 837.498 793.180, 832.220 795.752, 829.319 796.596 C 826.119 797.526, 823.248 799.140, 822.022 800.699 C 820.910 802.113, 820 803.627, 820 804.063 C 820 804.500, 818.401 807.542, 816.446 810.823 C 814.491 814.105, 812.884 817.849, 812.875 819.145 C 812.866 820.440, 812.356 825.695, 811.741 830.823 C 810.878 838.026, 810.906 841.200, 811.865 844.784 C 812.547 847.335, 813.591 850.007, 814.185 850.723 C 814.937 851.630, 815.640 851.714, 816.499 851 C 817.433 850.226, 817.865 850.953, 818.272 853.990 C 818.568 856.197, 820.479 861.265, 822.518 865.252 C 824.557 869.238, 827.529 873.875, 829.121 875.557 C 830.714 877.238, 834.826 880.043, 838.259 881.790 C 841.691 883.538, 848.548 886.798, 853.495 889.034 C 861.640 892.716, 863.247 893.098, 870.495 893.074 C 874.898 893.060, 882.314 892.365, 886.975 891.531 C 891.637 890.697, 897.841 888.845, 900.762 887.416 C 904.392 885.640, 907.325 883.159, 910.027 879.580 C 912.202 876.700, 914.259 872.955, 914.598 871.258 C 915.018 869.160, 914.632 867.186, 913.392 865.087 C 912.377 863.368, 910.667 861.947, 909.534 861.882 C 908.415 861.816, 906.825 861.856, 906 861.969 C 905.175 862.082, 902.250 863.642, 899.500 865.434 C 896.750 867.227, 892.970 869.212, 891.101 869.847 C 889.231 870.481, 885.748 871, 883.361 871 C 880.974 871, 876.094 869.828, 872.516 868.396 C 868.938 866.964, 866.260 865.389, 866.564 864.896 C 866.869 864.403, 867.879 863.978, 868.809 863.952 C 869.739 863.926, 871.950 863.138, 873.722 862.202 C 875.495 861.266, 879.322 859.283, 882.228 857.796 C 885.134 856.309, 890.117 852.527, 893.302 849.393 C 896.487 846.259, 900.805 840.725, 902.897 837.097 C 904.990 833.469, 907.184 828.700, 907.772 826.500 C 908.360 824.300, 909.333 820.630, 909.933 818.344 C 910.780 815.118, 910.702 812.955, 909.586 808.670 C 908.796 805.635, 906.949 800.980, 905.482 798.326 C 904.015 795.672, 901.667 792.283, 900.264 790.795 C 898.580 789.010, 894.446 787.009, 888.106 784.909 C 882.823 783.159, 876.025 781.130, 873 780.399 C 869.975 779.669, 867.189 779.055, 866.809 779.036 C 866.429 779.016, 865.840 779.450, 865.500 780 M 314.500 788.997 C 310.650 789.447, 305.250 790.786, 302.500 791.972 C 299.750 793.159, 296.600 794.514, 295.500 794.985 C 294.400 795.456, 290.812 797.022, 287.527 798.467 C 284.242 799.912, 280.756 801.816, 279.781 802.699 C 278.342 804.001, 278.241 804.586, 279.247 805.797 C 280.260 807.018, 280.137 807.493, 278.572 808.395 C 277.520 809.003, 274.900 811.046, 272.752 812.937 C 270.603 814.827, 267.776 818.483, 266.469 821.062 C 265.162 823.640, 263.160 829.294, 262.019 833.625 C 260.878 837.956, 259.283 844.650, 258.473 848.500 C 257.664 852.350, 257.011 858.200, 257.023 861.500 C 257.036 865.340, 257.774 869.120, 259.071 872 C 260.205 874.519, 263.788 879.031, 267.209 882.250 C 270.571 885.413, 273.812 888, 274.411 888.001 C 275.010 888.001, 278.353 889.351, 281.840 891.001 C 285.327 892.650, 289.638 894, 291.420 894 C 293.203 894, 296.875 892.827, 299.581 891.393 C 302.286 889.959, 306.649 887.664, 309.275 886.291 C 312.813 884.443, 314.388 884.077, 315.355 884.880 C 316.330 885.689, 317.528 885.317, 320.080 883.412 L 323.500 880.861 326 884.117 C 327.375 885.907, 331.151 890.204, 334.390 893.667 C 338.536 898.097, 341.252 900.144, 343.562 900.578 C 345.367 900.916, 348.185 900.899, 349.825 900.539 C 351.824 900.099, 353.193 898.948, 353.983 897.041 C 354.956 894.691, 354.792 892.888, 353.036 886.628 C 351.698 881.858, 350.504 873.219, 349.811 863.279 C 349.206 854.600, 348.718 845.700, 348.727 843.500 C 348.735 841.300, 349.700 836.415, 350.871 832.645 C 352.275 828.125, 352.992 823.185, 352.978 818.145 C 352.961 812.265, 352.528 809.944, 351.106 808.094 C 349.879 806.498, 348.686 805.906, 347.565 806.337 C 346.634 806.694, 344.552 806.302, 342.937 805.467 C 340.348 804.129, 340 803.416, 340 799.450 C 340 795.524, 339.668 794.824, 337.399 793.962 C 335.969 793.418, 334.056 792.094, 333.149 791.020 C 332.052 789.721, 329.828 788.919, 326.500 788.623 C 323.750 788.379, 318.350 788.547, 314.500 788.997 M 562.500 801.678 C 560.300 801.866, 556.475 802.547, 554 803.192 C 551.525 803.836, 548.296 805.241, 546.823 806.315 C 545.351 807.389, 542.818 810.120, 541.194 812.384 C 539.570 814.648, 537.315 818.151, 536.184 820.168 C 535.052 822.186, 533.466 826.059, 532.659 828.775 C 531.313 833.308, 531.344 834.052, 533.032 837.822 C 534.314 840.686, 535.679 842.132, 537.540 842.600 C 539.009 842.968, 543.132 842.997, 546.703 842.663 C 550.274 842.330, 555.514 840.995, 558.348 839.696 C 561.182 838.398, 565.864 834.919, 568.753 831.967 C 572.201 828.443, 574.718 824.698, 576.076 821.068 C 577.326 817.727, 577.897 814.541, 577.518 813.019 C 577.173 811.634, 576.572 808.935, 576.182 807.023 C 575.721 804.758, 574.607 803.107, 572.987 802.288 C 571.619 801.596, 569.600 801.098, 568.500 801.183 C 567.400 801.267, 564.700 801.490, 562.500 801.678 M 864.845 802.040 C 861.184 802.467, 856.523 803.607, 854.488 804.573 C 852.452 805.539, 848.996 808.594, 846.807 811.363 C 844.619 814.131, 841.444 819.120, 839.751 822.448 C 837.654 826.570, 836.645 830.042, 836.586 833.335 C 836.512 837.502, 836.907 838.521, 839.444 840.704 C 842.152 843.035, 842.972 843.201, 849.664 842.771 C 855.180 842.417, 858.507 841.533, 863.417 839.115 C 867.382 837.163, 871.520 834.098, 874.086 831.213 C 876.391 828.621, 879.157 824.539, 880.233 822.142 C 881.624 819.043, 882.024 816.586, 881.619 813.642 C 881.305 811.364, 880.925 808.163, 880.774 806.530 C 880.590 804.530, 879.683 803.146, 878 802.294 C 876.625 801.599, 874.600 801.082, 873.500 801.146 C 872.400 801.210, 868.505 801.612, 864.845 802.040 M 443 813.878 C 443 816.115, 442.362 818.285, 441.491 819.008 C 440.661 819.697, 436.948 820.678, 433.241 821.188 C 429.533 821.698, 424.310 822.287, 421.633 822.496 C 418.956 822.705, 414.931 823.611, 412.689 824.508 C 410.447 825.405, 406.863 827.524, 404.725 829.218 C 402.587 830.911, 399.837 833.917, 398.613 835.898 C 397.389 837.879, 395.626 841.914, 394.694 844.865 C 393.762 847.815, 393 852.683, 393 855.681 C 393 858.679, 393.463 861.997, 394.030 863.055 C 394.596 864.114, 396.402 865.674, 398.043 866.522 C 399.685 867.371, 403.057 868.445, 405.537 868.908 C 408.726 869.504, 411.231 869.342, 414.096 868.355 C 416.324 867.587, 420.251 865.888, 422.824 864.579 C 425.396 863.269, 428.468 861.141, 429.651 859.849 C 430.835 858.557, 432.990 855.475, 434.442 853 C 435.893 850.525, 438.133 846.247, 439.420 843.493 C 440.707 840.739, 442.489 835.640, 443.380 832.162 C 444.271 828.684, 445 822.275, 445 817.919 C 445 813.306, 444.582 810, 444 810 C 443.450 810, 443 811.745, 443 813.878 M 310.417 818.381 C 308.171 818.996, 304.510 820.710, 302.282 822.188 C 300.054 823.666, 295.816 827.428, 292.865 830.548 C 289.914 833.668, 286.318 838.245, 284.873 840.718 C 283.379 843.277, 281.698 848.418, 280.975 852.643 C 279.956 858.604, 279.952 860.904, 280.956 864.286 C 281.644 866.604, 282.665 869.063, 283.226 869.750 C 283.786 870.438, 285.308 871, 286.608 871 C 287.908 871, 291.065 870.440, 293.625 869.755 C 297.588 868.695, 299.379 867.256, 305.695 860.051 C 309.774 855.398, 315.013 848.195, 317.338 844.045 C 319.663 839.895, 322.350 834.430, 323.308 831.899 C 324.267 829.368, 324.767 826.556, 324.419 825.649 C 324.071 824.742, 323.405 824, 322.938 824 C 322.472 824, 321.795 822.425, 321.434 820.500 C 320.842 817.343, 320.470 817.013, 317.639 817.131 C 315.912 817.202, 312.662 817.765, 310.417 818.381" stroke="none" fill="#f987af" fill-rule="evenodd"/><path d="M 510 92.661 C 508.075 92.848, 502.450 93.452, 497.500 94.003 C 492.550 94.554, 482.425 96.533, 475 98.399 C 467.575 100.266, 457.169 103.375, 451.875 105.308 C 446.581 107.241, 439.606 110.055, 436.375 111.560 C 433.144 113.065, 427.350 116.104, 423.500 118.313 C 419.650 120.522, 413.962 124.268, 410.861 126.638 C 407.759 129.008, 402.561 133.674, 399.309 137.007 L 393.397 143.067 383.500 141.475 C 375.352 140.164, 372.002 140.078, 364.551 140.991 C 359.573 141.602, 352.366 143.020, 348.535 144.144 C 344.705 145.268, 338.925 147.524, 335.691 149.156 C 332.457 150.788, 327.942 153.461, 325.656 155.096 C 323.370 156.731, 318.649 160.865, 315.164 164.284 C 311.679 167.703, 306.391 174.150, 303.414 178.611 C 300.436 183.073, 297.997 187.123, 297.994 187.611 C 297.990 188.100, 297.283 189.850, 296.421 191.500 C 295.559 193.150, 293.990 198.100, 292.934 202.500 C 291.878 206.900, 291.011 213.099, 291.007 216.277 C 291.003 219.454, 292.350 228.779, 294 237 C 295.710 245.519, 297 255.116, 297 259.317 C 297 264.096, 296.293 268.742, 294.989 272.532 C 293.883 275.747, 291.573 280.880, 289.856 283.939 C 288.139 286.997, 284.567 292.234, 281.919 295.576 C 279.271 298.918, 269.644 308.766, 260.525 317.461 C 251.407 326.155, 241.188 336.921, 237.817 341.385 C 234.445 345.848, 230.196 352.650, 228.375 356.500 C 226.553 360.350, 224.374 366.182, 223.532 369.460 C 222.689 372.738, 222 377.303, 222 379.605 C 222 381.906, 222.888 386.649, 223.973 390.145 C 225.059 393.640, 227.421 398.593, 229.223 401.152 C 231.026 403.710, 234.623 408.495, 237.219 411.785 C 239.814 415.075, 242.851 420.086, 243.969 422.920 C 245.312 426.328, 246 430.397, 246 434.932 C 246 439.060, 245.163 444.518, 243.898 448.645 C 242.742 452.415, 240.228 458.650, 238.312 462.500 C 236.396 466.350, 231.159 474.675, 226.673 481 C 222.188 487.325, 216.216 495.971, 213.402 500.213 C 210.588 504.455, 206.468 511.655, 204.246 516.213 C 202.025 520.771, 199.075 527.875, 197.690 532 C 196.305 536.125, 194.233 544.087, 193.086 549.692 C 191.521 557.339, 191.002 563.583, 191.007 574.692 C 191.012 586.083, 191.482 591.461, 193.041 598 C 194.155 602.675, 195.981 608.975, 197.097 612 C 198.214 615.025, 200.513 619.975, 202.206 623 C 203.900 626.025, 207.188 630.975, 209.514 634 C 211.840 637.025, 215.938 641.544, 218.622 644.042 C 221.305 646.539, 225.525 649.965, 228 651.654 C 230.475 653.342, 236.397 656.605, 241.160 658.904 C 245.923 661.203, 253.798 664.185, 258.660 665.530 C 263.522 666.875, 268.288 667.981, 269.250 667.988 C 270.805 667.999, 270.989 666.912, 270.900 658.250 C 270.845 652.888, 270.507 644.101, 270.150 638.725 L 269.500 628.950 272.500 629.592 C 274.150 629.945, 275.593 630.312, 275.708 630.408 C 275.822 630.504, 276.220 639.114, 276.592 649.541 C 276.964 659.968, 277.713 669.063, 278.257 669.750 C 278.800 670.438, 279.726 671, 280.314 671 C 280.901 671, 280.670 670.437, 279.799 669.750 C 278.499 668.723, 278.130 665.357, 277.731 650.860 C 277.464 641.158, 277.528 632.792, 277.873 632.267 C 278.218 631.743, 281.425 631.346, 285 631.385 C 289.783 631.437, 292.240 630.960, 294.301 629.579 C 295.842 628.547, 297.754 626.442, 298.551 624.901 C 299.348 623.360, 300 621.052, 300 619.772 C 300 618.492, 300.712 616.429, 301.582 615.186 C 302.595 613.739, 303.319 609.976, 303.596 604.714 C 303.834 600.196, 304.020 595.013, 304.011 593.196 C 304.001 591.379, 303.170 588.288, 302.163 586.327 C 300.463 583.013, 300.444 582.454, 301.891 578.429 C 303.301 574.510, 303.301 573.689, 301.893 569.799 C 300.796 566.766, 298.701 564.175, 294.778 561 C 291.720 558.525, 285.569 554.556, 281.109 552.180 L 273 547.860 272.820 542.680 L 272.640 537.500 272.263 542.299 C 271.917 546.707, 271.707 547.045, 269.693 546.437 C 268.487 546.073, 267.173 545.476, 266.773 545.111 C 266.373 544.745, 265.330 527.133, 264.455 505.973 C 263.580 484.813, 262.530 460.975, 262.121 453 C 261.713 445.025, 261.731 437.765, 262.162 436.866 C 262.593 435.968, 264.420 434.961, 266.223 434.629 C 268.025 434.296, 276.925 433.279, 286 432.367 C 296.029 431.360, 310.735 430.737, 323.500 430.779 C 335.772 430.819, 350.671 431.529, 359.349 432.487 C 367.515 433.389, 379.440 435.231, 385.849 436.579 C 392.257 437.928, 401.550 440.206, 406.500 441.641 C 411.450 443.076, 420.175 446.080, 425.888 448.316 L 436.276 452.380 438.519 449.773 C 439.752 448.339, 442.165 443.490, 443.881 438.997 C 445.596 434.505, 447.007 429.855, 447.015 428.665 C 447.024 427.474, 447.411 425.899, 447.877 425.165 C 448.552 424.100, 449.511 424.058, 452.612 424.958 C 454.750 425.579, 461.450 426.353, 467.500 426.677 C 473.576 427.004, 482.098 426.783, 486.538 426.184 C 490.959 425.588, 495.290 424.826, 496.161 424.492 C 497.423 424.008, 498.113 425.274, 499.544 430.692 C 500.533 434.436, 502.626 440.266, 504.195 443.647 C 505.764 447.028, 507.718 450.351, 508.538 451.031 C 509.751 452.038, 512.021 451.506, 520.764 448.169 C 526.669 445.914, 536.225 442.729, 542 441.090 C 547.775 439.451, 557.041 437.209, 562.591 436.108 C 568.142 435.008, 579.392 433.371, 587.591 432.472 C 596.127 431.535, 611.264 430.807, 623 430.768 C 635.626 430.727, 650.406 431.378, 661.480 432.463 C 671.369 433.432, 680.481 434.613, 681.730 435.087 C 683.808 435.878, 684 436.577, 684 443.362 C 684 447.439, 683.564 462.188, 683.031 476.137 C 682.498 490.087, 681.532 511.324, 680.885 523.330 C 679.715 545.024, 679.692 545.167, 677.289 546.080 C 675.958 546.586, 674.616 547, 674.306 547 C 673.996 547, 673.994 542.388, 674.302 536.750 C 674.627 530.793, 674.521 527.757, 674.049 529.500 C 673.602 531.150, 673.183 534.806, 673.118 537.625 C 673.053 540.444, 672.738 544.058, 672.419 545.656 C 671.949 548.005, 670.583 549.213, 665.290 551.957 C 661.688 553.825, 656.089 557.305, 652.846 559.692 C 649.604 562.079, 646.064 565.487, 644.979 567.266 C 643.895 569.045, 643.022 572.075, 643.039 574 C 643.057 575.925, 643.674 578.589, 644.411 579.919 C 645.590 582.047, 645.467 582.949, 643.385 587.419 C 642.084 590.214, 641.015 593.637, 641.010 595.027 C 641.004 596.418, 641.695 598.547, 642.545 599.760 C 643.702 601.413, 643.827 602.454, 643.045 603.917 C 642.470 604.990, 642.002 607.136, 642.004 608.684 C 642.006 610.233, 642.830 612.850, 643.834 614.500 C 644.839 616.150, 645.945 619.252, 646.291 621.393 C 646.637 623.535, 647.922 626.352, 649.145 627.655 C 650.369 628.957, 653.111 630.491, 655.239 631.064 C 657.367 631.637, 661.043 631.816, 663.408 631.461 L 667.709 630.817 668.343 634.658 C 668.692 636.771, 669.075 642.550, 669.193 647.500 C 669.393 655.842, 669.448 655.554, 669.954 643.570 L 670.500 630.639 673.405 629.864 L 676.311 629.090 675.637 648.545 C 675.040 665.784, 675.141 668, 676.522 668 C 677.379 668, 682.900 666.372, 688.790 664.381 C 694.681 662.391, 703.325 658.883, 708 656.587 C 712.675 654.290, 719.805 650.225, 723.845 647.552 C 727.885 644.880, 734.949 639.136, 739.542 634.788 C 744.210 630.370, 750.276 623.271, 753.296 618.692 C 756.268 614.186, 759.843 608.025, 761.242 605 C 762.641 601.975, 764.509 597.344, 765.394 594.709 C 766.280 592.074, 767.678 586.053, 768.502 581.328 C 769.326 576.604, 770 568.347, 770 562.979 C 770 557.612, 769.306 549.459, 768.459 544.860 C 767.611 540.262, 765.968 533.350, 764.808 529.500 C 763.648 525.650, 761.241 519.288, 759.458 515.362 C 757.675 511.437, 754.177 505.137, 751.685 501.362 C 749.193 497.588, 743.974 490.225, 740.088 485 C 736.203 479.775, 731.430 472.289, 729.482 468.365 C 727.534 464.441, 725.246 457.916, 724.398 453.865 C 723.132 447.817, 723.055 445.070, 723.972 438.500 C 724.586 434.100, 726.027 427.125, 727.176 423 C 728.324 418.875, 730.746 410.775, 732.558 405 C 734.370 399.225, 736.596 391.407, 737.504 387.626 C 738.563 383.220, 739.141 376.640, 739.114 369.297 C 739.081 359.992, 738.603 356.309, 736.566 349.671 C 735.188 345.177, 731.995 337.986, 729.471 333.691 C 726.947 329.396, 722.183 323.183, 718.884 319.884 C 715.585 316.585, 709.874 311.938, 706.193 309.557 C 702.512 307.176, 693.724 302.373, 686.665 298.884 C 679.605 295.395, 671.289 290.493, 668.184 287.992 C 665.079 285.490, 661.371 281.656, 659.943 279.472 C 658.516 277.287, 656.561 273.371, 655.598 270.768 C 654.636 268.166, 653.604 262.766, 653.305 258.768 C 653.006 254.771, 653.529 240.924, 654.469 227.998 C 656.054 206.184, 656.061 203.490, 654.562 190.498 C 653.674 182.799, 652.053 173.299, 650.960 169.387 C 649.867 165.475, 647.361 158.962, 645.391 154.915 C 643.421 150.867, 639.882 144.618, 637.526 141.028 C 635.170 137.438, 630.937 131.951, 628.118 128.836 C 625.300 125.721, 619.733 120.726, 615.747 117.735 C 611.761 114.745, 605.125 110.463, 601 108.220 C 596.875 105.976, 589.450 102.793, 584.500 101.145 C 579.550 99.498, 572.575 97.408, 569 96.502 C 565.425 95.596, 557.325 94.227, 551 93.459 C 544.675 92.691, 533.650 92.120, 526.500 92.191 C 519.350 92.262, 511.925 92.473, 510 92.661 M 204.304 161.650 C 203.924 162.639, 202.456 166.586, 201.041 170.420 L 198.468 177.390 190.861 180.058 C 186.677 181.525, 182.747 183.038, 182.127 183.421 C 181.507 183.805, 181 184.766, 181 185.559 C 181 186.352, 181.113 187, 181.250 187 C 181.388 187, 185.311 188.293, 189.967 189.872 L 198.433 192.745 201.330 201.122 C 202.923 205.730, 204.723 209.812, 205.330 210.193 C 205.936 210.574, 206.982 210.430, 207.652 209.874 C 208.323 209.317, 209.177 207.430, 209.551 205.681 C 209.925 203.931, 210.577 202.050, 211 201.500 C 211.423 200.950, 212.075 199.069, 212.449 197.319 C 212.823 195.570, 213.662 193.713, 214.314 193.193 C 214.966 192.673, 218.805 191.115, 222.844 189.730 C 226.883 188.345, 230.685 186.715, 231.294 186.106 C 231.990 185.410, 232.048 184.665, 231.450 184.096 C 230.928 183.599, 227.022 181.969, 222.771 180.474 C 218.520 178.979, 214.638 177.248, 214.145 176.628 C 213.652 176.008, 212.093 172.125, 210.681 168 C 209.140 163.498, 207.490 160.371, 206.554 160.176 C 205.696 159.998, 204.683 160.661, 204.304 161.650 M 732.763 175.565 C 731.257 176.382, 729.344 178.367, 728.513 179.976 C 727.681 181.584, 727 184.689, 727 186.874 C 727 189.664, 727.752 191.741, 729.528 193.851 C 730.919 195.504, 734.069 197.625, 736.528 198.564 C 739.343 199.639, 740.977 200.870, 740.939 201.886 C 740.905 202.774, 738.277 211.375, 735.098 221 C 729.453 238.095, 729.257 238.496, 726.628 238.307 C 725.147 238.201, 722.623 237.460, 721.018 236.659 C 718.425 235.365, 717.733 235.387, 714.800 236.852 C 712.326 238.087, 711.232 239.502, 710.431 242.500 C 709.844 244.700, 708.804 247.837, 708.122 249.472 C 707.231 251.604, 707.174 253.086, 707.917 254.718 C 708.605 256.228, 708.625 257.855, 707.977 259.561 C 707.440 260.974, 707 262.516, 707 262.988 C 707 263.460, 708.060 265.119, 709.355 266.673 C 710.650 268.228, 712.284 271.300, 712.985 273.500 C 713.687 275.700, 714.758 278.124, 715.366 278.887 C 715.974 279.649, 718.428 281.112, 720.819 282.137 C 723.210 283.161, 726.763 284, 728.715 284 C 730.667 284, 733.780 283.063, 735.632 281.918 C 737.484 280.774, 739 279.424, 739 278.918 C 739 278.413, 740.272 278, 741.826 278 C 743.486 278, 745.548 277.046, 746.826 275.686 C 748.022 274.413, 749 272.809, 749 272.121 C 749 271.433, 750.350 269.735, 752 268.347 C 753.784 266.845, 755 264.859, 755 263.445 C 755 262.138, 755.775 259.442, 756.723 257.455 C 758.354 254.035, 758.354 253.681, 756.719 250.832 C 755.769 249.177, 755.242 247.418, 755.548 246.923 C 755.854 246.428, 755.390 246.297, 754.517 246.632 C 753.645 246.967, 750.921 246.678, 748.465 245.990 C 746.009 245.303, 744 244.286, 744 243.731 C 744 243.176, 746.742 234.202, 750.094 223.790 C 754.544 209.963, 756.549 204.997, 757.531 205.374 C 758.270 205.657, 760.655 206.368, 762.830 206.954 C 765.781 207.749, 767.754 207.699, 770.606 206.760 C 772.986 205.975, 775.289 204.219, 776.713 202.102 C 777.982 200.218, 779 197.189, 779 195.302 C 779 193.431, 778.348 190.640, 777.551 189.099 C 776.754 187.558, 774.970 185.555, 773.586 184.648 C 772.191 183.734, 769.066 183, 766.570 183 C 763.012 183, 761.366 183.618, 758.707 185.952 C 756.826 187.604, 754.817 190.668, 754.145 192.910 C 753.485 195.113, 752.598 197.130, 752.175 197.392 C 751.751 197.654, 750.846 197.523, 750.163 197.101 C 749.240 196.530, 749.188 195.635, 749.961 193.602 C 750.533 192.099, 751 188.604, 751 185.835 C 751 181.442, 750.566 180.366, 747.600 177.400 C 744.754 174.554, 743.491 174.007, 739.850 174.040 C 737.457 174.062, 734.268 174.748, 732.763 175.565 M 734.944 180.844 C 733.460 182.046, 732.667 183.769, 732.667 185.791 C 732.667 187.497, 733.286 189.639, 734.042 190.551 C 734.799 191.462, 736.336 192.551, 737.459 192.971 C 738.582 193.390, 740.439 194.025, 741.587 194.382 C 743.351 194.931, 743.854 194.431, 744.837 191.150 C 745.477 189.015, 746 186.386, 746 185.308 C 746 184.230, 744.958 182.370, 743.686 181.174 C 742.413 179.978, 740.437 179, 739.296 179 C 738.155 179, 736.197 179.830, 734.944 180.844 M 763.343 189.179 C 762.157 189.753, 760.413 192.248, 759.467 194.724 C 758.042 198.457, 757.980 199.369, 759.104 200.064 C 759.849 200.525, 762.122 201.183, 764.155 201.526 C 766.259 201.882, 768.764 201.661, 769.973 201.014 C 771.141 200.390, 772.513 198.781, 773.023 197.439 C 773.593 195.940, 773.593 194.060, 773.023 192.561 C 772.513 191.219, 771.204 189.644, 770.114 189.061 C 769.023 188.477, 767.539 188.030, 766.816 188.068 C 766.092 188.105, 764.530 188.605, 763.343 189.179 M 741.065 220.628 C 737.729 230.941, 735 240.002, 735 240.763 C 735 241.527, 735.761 242, 736.701 241.819 C 737.948 241.579, 739.951 236.693, 744.211 223.496 C 747.405 213.598, 749.903 204.862, 749.760 204.083 C 749.617 203.303, 748.967 202.488, 748.315 202.271 C 747.556 202.018, 744.946 208.627, 741.065 220.628 M 161.446 206.744 C 160.866 207.160, 158.983 211.325, 157.263 216 C 155.542 220.675, 152.951 228.100, 151.505 232.500 C 150.059 236.900, 148.463 241.400, 147.959 242.500 C 147.454 243.600, 146.627 245.647, 146.122 247.050 C 145.322 249.266, 143.128 250.303, 129.351 254.975 C 120.633 257.931, 111.475 261.065, 109 261.940 C 106.525 262.814, 103.938 263.887, 103.250 264.324 C 102.563 264.761, 102 266.190, 102 267.500 C 102 268.810, 102.490 270.185, 103.088 270.554 C 103.687 270.924, 113.200 274.299, 124.228 278.053 C 135.256 281.808, 144.665 285.265, 145.137 285.737 C 145.609 286.209, 148.047 292.424, 150.555 299.548 C 153.062 306.671, 156.304 316.002, 157.759 320.282 C 159.887 326.540, 160.868 328.180, 162.775 328.658 C 164.079 328.986, 165.552 328.848, 166.048 328.352 C 166.544 327.856, 169.238 320.937, 172.036 312.975 C 174.834 305.014, 178.066 295.666, 179.218 292.201 C 180.371 288.737, 182.030 285.535, 182.907 285.086 C 183.783 284.636, 192.825 281.464, 203 278.035 C 213.175 274.607, 222.512 271.161, 223.750 270.378 C 224.988 269.595, 226 268.359, 226 267.632 C 226 266.905, 225.213 265.614, 224.250 264.764 C 223.287 263.913, 214.293 260.461, 204.263 257.093 C 194.233 253.725, 184.975 250.490, 183.690 249.905 C 181.809 249.048, 180.340 245.863, 176.145 233.551 C 173.280 225.141, 169.913 215.615, 168.662 212.380 C 167.077 208.279, 165.801 206.423, 164.445 206.244 C 163.375 206.104, 162.025 206.329, 161.446 206.744 M 254.365 210.217 C 253.850 210.923, 252.320 214.830, 250.964 218.900 C 248.831 225.306, 248.065 226.482, 245.261 227.659 C 243.480 228.406, 239.542 229.781, 236.511 230.715 C 232.131 232.063, 231 232.840, 231 234.499 C 231 236.231, 232.489 237.091, 239.726 239.543 C 247.934 242.324, 248.513 242.708, 249.476 246 C 250.039 247.925, 250.785 249.950, 251.132 250.500 C 251.480 251.050, 252.072 252.931, 252.447 254.681 C 252.822 256.430, 253.794 258.414, 254.607 259.089 C 255.569 259.887, 256.426 259.974, 257.062 259.338 C 257.600 258.800, 259.268 254.806, 260.770 250.462 L 263.500 242.564 272 239.443 C 278.286 237.135, 280.500 235.861, 280.500 234.553 C 280.500 233.250, 278.272 231.954, 272.025 229.624 L 263.551 226.463 260.459 218.043 C 258.758 213.411, 256.902 209.467, 256.333 209.278 C 255.765 209.088, 254.879 209.511, 254.365 210.217 M 417.015 218.460 C 416.457 219.929, 416 221.349, 416 221.617 C 416 221.885, 414.211 225.689, 412.025 230.070 C 409.839 234.452, 406.153 240.841, 403.835 244.268 C 401.516 247.696, 396.970 253.120, 393.731 256.321 C 390.492 259.523, 384.840 264.042, 381.171 266.364 C 377.502 268.686, 372.250 271.522, 369.500 272.668 C 366.750 273.813, 362.925 275.219, 361 275.793 C 359.075 276.366, 356.038 277.134, 354.250 277.497 C 352.332 277.888, 351 278.770, 351 279.650 C 351 280.470, 351.711 285.047, 352.580 289.820 C 353.449 294.594, 355.067 302.325, 356.177 307 C 357.286 311.675, 359.022 317.975, 360.033 321 C 361.045 324.025, 362.604 328.300, 363.499 330.500 C 364.393 332.700, 365.828 336.075, 366.688 338 C 367.548 339.925, 369.791 344.605, 371.673 348.399 C 373.555 352.194, 377.873 359.394, 381.268 364.399 C 384.663 369.405, 391.955 378.020, 397.471 383.545 C 402.987 389.070, 410.650 395.666, 414.500 398.201 C 418.350 400.737, 424.798 404.465, 428.828 406.486 C 432.859 408.507, 438.934 411.074, 442.328 412.191 C 445.723 413.309, 452.325 414.846, 457 415.608 C 461.675 416.369, 468.875 416.993, 473 416.993 C 477.125 416.993, 484.550 416.286, 489.500 415.421 C 494.450 414.556, 501.200 412.942, 504.500 411.834 C 507.800 410.726, 513.650 408.243, 517.500 406.316 C 521.350 404.389, 527.650 400.742, 531.500 398.212 C 535.350 395.682, 543 389.087, 548.500 383.556 C 554 378.025, 561.250 369.450, 564.612 364.500 C 567.973 359.550, 572.558 351.900, 574.799 347.500 C 577.041 343.100, 579.747 337.475, 580.813 335 C 581.879 332.525, 584.147 326.450, 585.855 321.500 C 587.562 316.550, 590.051 307.100, 591.386 300.500 C 592.721 293.900, 594.105 285.977, 594.461 282.894 C 595.090 277.439, 595.032 277.257, 592.304 276.156 C 590.762 275.534, 586.350 274.379, 582.500 273.589 C 578.650 272.800, 568.525 271.660, 560 271.056 C 551.475 270.452, 541.125 269.543, 537 269.036 C 532.875 268.529, 526.125 267.826, 522 267.475 C 517.875 267.123, 508.875 265.954, 502 264.877 C 495.125 263.801, 486.800 262.240, 483.500 261.408 C 480.200 260.577, 474.350 258.739, 470.500 257.324 C 466.650 255.909, 460.350 253.188, 456.500 251.276 C 452.650 249.365, 447.174 246.271, 444.331 244.400 C 441.488 242.530, 436.571 238.638, 433.405 235.750 C 430.239 232.863, 425.485 227.190, 422.840 223.145 C 418.086 215.876, 418.019 215.821, 417.015 218.460 M 413.485 280.891 C 412.377 281.370, 410.007 283.259, 408.218 285.088 C 406.429 286.918, 404.486 290.193, 403.901 292.367 C 403.316 294.540, 403.137 297.934, 403.503 299.909 C 403.869 301.884, 405.047 304.931, 406.122 306.679 C 407.196 308.428, 410.001 310.790, 412.353 311.929 C 414.706 313.068, 418.304 314, 420.348 314 C 422.392 314, 425.512 313.380, 427.282 312.623 C 429.052 311.866, 431.698 309.953, 433.163 308.373 C 434.628 306.793, 436.317 303.648, 436.915 301.385 C 437.514 299.122, 437.724 295.747, 437.382 293.885 C 437.040 292.023, 435.867 289.150, 434.775 287.500 C 433.683 285.850, 431.611 283.615, 430.169 282.533 C 428.383 281.192, 425.630 280.479, 421.524 280.293 C 418.211 280.143, 414.593 280.412, 413.485 280.891 M 515.846 283.287 C 513.092 285.388, 510.850 288.231, 509.634 291.164 C 508.319 294.338, 507.935 296.839, 508.390 299.266 C 508.752 301.197, 510.050 304.248, 511.274 306.046 C 512.498 307.845, 514.719 310.219, 516.209 311.322 C 517.837 312.529, 521.026 313.494, 524.209 313.744 C 528.415 314.074, 530.422 313.666, 534 311.754 C 536.812 310.252, 539.338 307.878, 540.734 305.425 C 542.074 303.069, 542.974 299.785, 542.984 297.210 C 542.993 294.851, 542.099 291.154, 540.997 288.994 C 539.895 286.835, 537.316 283.928, 535.265 282.534 C 532.354 280.556, 530.288 280, 525.846 280 C 520.954 280, 519.551 280.461, 515.846 283.287 M 420.035 286.934 C 419.466 287.998, 419 290.012, 419 291.409 C 419 293.171, 419.846 294.386, 421.762 295.377 C 424.135 296.604, 424.900 296.608, 427.193 295.407 C 428.661 294.637, 430.142 293.127, 430.484 292.050 C 430.839 290.933, 430.389 288.997, 429.438 287.546 C 428.200 285.657, 426.906 285, 424.420 285 C 422.132 285, 420.742 285.613, 420.035 286.934 M 525.440 287.451 C 524.483 288.911, 524.100 290.741, 524.493 291.978 C 524.855 293.119, 526.268 294.785, 527.633 295.679 C 529.960 297.204, 530.282 297.180, 532.807 295.297 C 534.288 294.192, 535.650 292.526, 535.833 291.595 C 536.016 290.664, 535.443 288.799, 534.560 287.451 C 533.455 285.765, 532.032 285, 530 285 C 527.968 285, 526.545 285.765, 525.440 287.451 M 325.014 291.752 C 323.097 292.713, 320.937 294.625, 320.214 296 C 319.372 297.602, 319.062 300.655, 319.352 304.500 C 319.600 307.800, 320.815 312.750, 322.052 315.500 C 323.289 318.250, 326.070 323.306, 328.231 326.736 C 330.393 330.166, 334.263 334.825, 336.831 337.089 C 339.399 339.353, 343.218 342.084, 345.318 343.158 C 347.419 344.232, 351.432 345.382, 354.236 345.714 C 358.977 346.276, 359.280 346.184, 358.535 344.409 C 358.094 343.359, 355.813 337.325, 353.466 331 C 351.119 324.675, 348.494 316.800, 347.632 313.500 C 346.771 310.200, 345.302 304.047, 344.368 299.827 L 342.671 292.155 338.393 291.077 C 336.040 290.485, 332.851 290.001, 331.307 290.002 C 329.763 290.002, 326.931 290.790, 325.014 291.752 M 607.034 291.306 C 604.438 292.200, 603.389 293.253, 602.856 295.500 C 602.464 297.150, 601.152 302.775, 599.939 308 C 598.725 313.225, 596.039 322.225, 593.969 328 C 591.898 333.775, 589.477 340.188, 588.589 342.250 L 586.973 346 590.737 345.990 C 592.806 345.985, 596.923 344.853, 599.884 343.474 C 603.094 341.980, 607.738 338.444, 611.384 334.718 C 614.748 331.281, 618.927 325.776, 620.672 322.484 C 622.416 319.193, 624.547 314.475, 625.407 312 C 626.267 309.525, 626.977 305.238, 626.985 302.473 C 626.994 299.422, 626.359 296.530, 625.369 295.117 C 624.472 293.836, 622.237 292.161, 620.401 291.394 C 618.566 290.627, 615.587 290.025, 613.782 290.056 C 611.977 290.087, 608.940 290.650, 607.034 291.306 M 440.750 345.080 C 439.644 345.724, 439 347.311, 439 349.390 C 439 351.200, 440.376 355.434, 442.058 358.799 C 443.873 362.433, 447.142 366.741, 450.106 369.405 C 452.851 371.873, 457.567 374.817, 460.586 375.946 C 464.168 377.286, 468.464 378, 472.949 378 C 477.549 378, 481.659 377.297, 485.379 375.874 C 488.435 374.704, 492.756 372.189, 494.981 370.284 C 497.206 368.379, 500.329 364.929, 501.919 362.617 C 503.510 360.305, 505.338 356.460, 505.980 354.072 C 506.623 351.685, 506.890 348.697, 506.572 347.432 C 506.255 346.168, 505.113 344.853, 504.035 344.511 C 502.958 344.169, 501.164 344.377, 500.050 344.973 C 498.935 345.570, 497.729 347.282, 497.370 348.779 C 497.010 350.275, 495.907 353.118, 494.917 355.095 C 493.927 357.072, 491.437 360.166, 489.382 361.970 C 487.327 363.774, 484.165 365.869, 482.355 366.625 C 480.545 367.381, 476.687 367.997, 473.782 367.994 C 470.877 367.991, 466.754 367.504, 464.619 366.911 C 462.259 366.256, 458.887 363.982, 456.013 361.109 C 452.857 357.952, 450.715 354.657, 449.560 351.182 C 448.610 348.321, 447 345.535, 445.982 344.990 C 444.964 344.446, 443.764 344.014, 443.316 344.030 C 442.867 344.047, 441.712 344.519, 440.750 345.080 M 304 437 C 299.875 437.352, 297.175 437.767, 298 437.924 C 298.825 438.080, 310.006 438.273, 322.846 438.354 C 335.686 438.434, 346.625 438.232, 347.155 437.904 C 347.686 437.576, 343.974 437.014, 338.906 436.654 C 333.839 436.294, 325.599 436.081, 320.596 436.180 C 315.593 436.279, 308.125 436.648, 304 437 M 603.500 436.926 C 599.650 437.322, 597.175 437.767, 598 437.914 C 598.825 438.061, 610.634 438.272, 624.242 438.382 C 637.849 438.493, 648.611 438.211, 648.155 437.755 C 647.700 437.300, 639.041 436.765, 628.914 436.566 C 618.786 436.367, 607.350 436.529, 603.500 436.926 M 255.706 555.773 C 254.213 557.422, 253.911 559.633, 253.881 569.125 C 253.861 575.381, 254.167 583.875, 254.560 588 C 255.145 594.137, 255.805 596.174, 258.190 599.210 C 260.631 602.317, 260.998 603.496, 260.443 606.454 C 260.078 608.397, 260.044 611.038, 260.366 612.322 C 260.688 613.606, 262.200 615.241, 263.726 615.954 C 265.252 616.667, 269.696 618.278, 273.603 619.534 C 277.510 620.791, 282.010 621.907, 283.603 622.015 C 285.196 622.123, 287.512 622.164, 288.750 622.106 C 290.188 622.038, 290.998 621.369, 290.994 620.250 C 290.990 619.288, 290.315 617.211, 289.494 615.636 C 288.672 614.060, 288 612.373, 288 611.886 C 288 611.399, 289.323 611, 290.941 611 C 292.559 611, 294.148 610.570, 294.473 610.044 C 294.798 609.518, 294.444 607.606, 293.687 605.794 C 292.929 603.982, 291.565 601.882, 290.655 601.128 C 289.745 600.373, 289 599.135, 289 598.378 C 289 597.584, 290.034 597, 291.441 597 C 292.784 597, 294.176 596.524, 294.535 595.943 C 294.894 595.362, 294.921 593.822, 294.594 592.520 C 294.268 591.219, 292.425 588.090, 290.500 585.568 C 288.575 583.046, 287 580.543, 287 580.005 C 287 579.467, 288.575 578.369, 290.500 577.564 C 292.833 576.590, 294 575.440, 294 574.118 C 294 572.984, 292.180 570.678, 289.750 568.734 C 287.413 566.865, 283.925 564.392, 282 563.240 C 280.075 562.089, 275.698 559.756, 272.274 558.057 C 268.850 556.358, 264.124 554.705, 261.772 554.382 C 258.306 553.907, 257.155 554.171, 255.706 555.773 M 675.701 557.429 C 671.412 559.302, 666.687 561.608, 665.201 562.555 C 663.715 563.501, 660.362 565.881, 657.750 567.843 C 654.050 570.622, 653 572.034, 653 574.230 C 653 576.568, 653.517 577.153, 656.021 577.654 C 657.682 577.986, 659.244 578.586, 659.492 578.987 C 659.740 579.388, 658.138 582.135, 655.932 585.092 C 653.726 588.048, 651.671 591.462, 651.366 592.677 C 651.061 593.892, 651.106 595.362, 651.465 595.943 C 651.824 596.524, 653.441 597, 655.059 597 C 656.677 597, 658 597.395, 658 597.878 C 658 598.360, 657.295 599.340, 656.434 600.055 C 655.573 600.770, 654.223 602.602, 653.434 604.128 C 652.645 605.653, 652 607.823, 652 608.950 C 652 610.577, 652.642 611, 655.107 611 C 657.668 611, 658.090 611.307, 657.508 612.750 C 657.120 613.712, 656.563 616.188, 656.270 618.250 L 655.737 622 660.618 621.993 C 663.303 621.989, 668.746 620.885, 672.712 619.538 C 676.679 618.192, 681.292 616.383, 682.962 615.519 C 685.847 614.028, 686 613.639, 686 607.789 C 686 602.781, 686.420 601.182, 688.246 599.239 C 689.914 597.463, 690.694 595.004, 691.280 589.674 C 691.713 585.728, 692.231 577.213, 692.430 570.752 C 692.753 560.257, 692.581 558.738, 690.823 556.502 C 689.591 554.936, 687.853 554.005, 686.177 554.012 C 684.705 554.019, 679.990 555.557, 675.701 557.429 M 109.073 953.635 C 107.317 955.867, 107.002 957.664, 107.015 965.385 C 107.023 970.634, 107.559 975.560, 108.277 977 C 108.963 978.375, 113.899 982.425, 119.246 986 C 125.210 989.987, 128.873 993.080, 128.722 994 C 128.525 995.204, 126.356 995.556, 117.738 995.784 L 107 996.068 107 1003.534 L 107 1011 125.277 1011 C 140.202 1011, 143.963 1010.714, 145.777 1009.443 C 147.859 1007.985, 148 1007.144, 148 996.166 C 148 987.590, 147.614 983.894, 146.562 982.392 C 145.771 981.263, 141.053 977.675, 136.078 974.419 C 131.102 971.164, 127.024 967.938, 127.016 967.250 C 127.004 966.338, 129.539 966, 136.402 966 L 145.804 966 146.902 962.851 C 147.506 961.119, 148 957.744, 148 955.351 L 148 951 129.573 951 L 111.145 951 109.073 953.635 M 155 953 C 153.103 954.897, 153 956.333, 153 981 C 153 1005.667, 153.103 1007.103, 155 1009 C 156.858 1010.858, 158.333 1011, 175.826 1011 C 194.211 1011, 194.702 1010.946, 196.826 1008.686 C 198.941 1006.434, 199 1005.677, 199 980.860 C 199 955.486, 198.988 955.337, 196.686 953.174 C 194.480 951.102, 193.494 951, 175.686 951 C 158.333 951, 156.857 951.143, 155 953 M 209 952.437 C 209 953.264, 207.650 965.217, 206 979 C 204.350 992.783, 203 1005.622, 203 1007.530 L 203 1011 212.500 1011 L 222 1011 222.063 996.750 C 222.100 988.604, 222.468 983.357, 222.923 984.500 C 223.361 985.600, 224.531 992.029, 225.523 998.787 L 227.327 1011.073 235.882 1010.787 L 244.436 1010.500 246.661 997.140 C 247.885 989.792, 249.137 983.529, 249.443 983.223 C 249.750 982.917, 250 989.042, 250 996.833 L 250 1011 259.500 1011 L 269 1011 269 1007.617 C 269 1005.756, 267.650 992.727, 266 978.664 C 264.350 964.601, 263 952.624, 263 952.047 C 263 951.379, 258.918 951, 251.732 951 L 240.463 951 238.617 961.250 C 237.601 966.888, 236.514 971.929, 236.201 972.453 C 235.887 972.978, 234.698 968.478, 233.559 962.453 L 231.487 951.500 220.244 951.217 C 210.782 950.979, 209 951.173, 209 952.437 M 273 981 L 273 1011 293.500 1011 L 314 1011 314 1003.500 L 314 996 303.500 996 L 293 996 293 992 L 293 988 302 988 L 311 988 311 980.500 L 311 973 302 973 L 293 973 293 969.500 L 293 966 302.051 966 L 311.102 966 312.551 962.532 C 313.348 960.625, 314 957.250, 314 955.032 L 314 951 293.500 951 L 273 951 273 981 M 361 953 C 359.245 954.755, 359 956.333, 359 965.864 C 359 976.152, 359.134 976.861, 361.530 979.257 C 362.921 980.649, 367.646 984.142, 372.030 987.020 C 377.293 990.475, 380 992.889, 380 994.126 C 380 995.839, 379.098 996, 369.500 996 L 359 996 359 1003.500 L 359 1011 377.326 1011 C 395.188 1011, 395.706 1010.942, 397.826 1008.686 C 399.776 1006.610, 400 1005.278, 400 995.762 C 400 985.949, 399.815 984.934, 397.538 982.228 C 396.185 980.619, 391.460 976.928, 387.038 974.025 C 382.617 971.123, 379 968.130, 379 967.374 C 379 966.310, 381.041 966, 388.051 966 L 397.102 966 398.551 962.532 C 399.348 960.625, 400 957.250, 400 955.032 L 400 951 381.500 951 C 364.333 951, 362.856 951.144, 361 953 M 404 981 L 404 1011 424.500 1011 L 445 1011 445 1003.500 L 445 996 434.500 996 L 424 996 424 992 L 424 988 433 988 L 442 988 442 980.500 L 442 973 433 973 L 424 973 424 969.500 L 424 966 433.402 966 L 442.804 966 443.902 962.851 C 444.506 961.119, 445 957.744, 445 955.351 L 445 951 424.500 951 L 404 951 404 981 M 450 981 L 450 1011 459.500 1011 L 469 1011 469 1001.927 C 469 994.038, 469.215 992.896, 470.646 993.177 C 471.626 993.369, 472.811 995.323, 473.572 998 C 474.276 1000.475, 475.352 1004.413, 475.964 1006.750 L 477.077 1011 487.039 1011 L 497 1011 496.973 1007.250 C 496.958 1005.188, 495.623 1000.398, 494.005 996.606 L 491.065 989.712 493.532 986.779 C 495.895 983.972, 496 983.258, 496 970.058 C 496 957.623, 495.797 956.011, 493.927 953.635 L 491.855 951 470.927 951 L 450 951 450 981 M 501 981 L 501 1011 510.500 1011 L 520 1011 520 981 L 520 951 510.500 951 L 501 951 501 981 M 529.223 952.557 C 527.020 954.100, 527 954.350, 527 981 C 527 1007.650, 527.020 1007.900, 529.223 1009.443 C 531.042 1010.718, 534.839 1011, 550.150 1011 L 568.855 1011 570.927 1008.365 C 572.897 1005.861, 573 1004.505, 573 981 C 573 957.495, 572.897 956.139, 570.927 953.635 L 568.855 951 550.150 951 C 534.839 951, 531.042 951.282, 529.223 952.557 M 579 979.443 C 579 1007.702, 579.014 1007.897, 581.223 1009.443 C 583.061 1010.731, 587.036 1011, 604.223 1011 L 625 1011 625 981 L 625 951 615 951 L 605 951 605 973.563 L 605 996.127 601.750 995.813 L 598.500 995.500 598.231 973.250 L 597.962 951 588.481 951 L 579 951 579 979.443 M 631 953 C 629.245 954.755, 629 956.333, 629 965.864 C 629 976.152, 629.134 976.861, 631.530 979.257 C 632.921 980.649, 637.646 984.142, 642.030 987.020 C 647.293 990.475, 650 992.889, 650 994.126 C 650 995.839, 649.098 996, 639.500 996 L 629 996 629 1003.500 L 629 1011 647.326 1011 C 665.188 1011, 665.706 1010.942, 667.826 1008.686 C 669.776 1006.610, 670 1005.278, 670 995.762 C 670 985.949, 669.815 984.934, 667.538 982.228 C 666.185 980.619, 661.460 976.928, 657.038 974.025 C 652.617 971.123, 649 968.130, 649 967.374 C 649 966.310, 651.041 966, 658.051 966 L 667.102 966 668.551 962.532 C 669.348 960.625, 670 957.250, 670 955.032 L 670 951 651.500 951 C 634.333 951, 632.856 951.144, 631 953 M 716 981 L 716 1011 726 1011 L 736 1011 736 1001 L 736 991 745.500 991 L 755 991 755 983.500 L 755 976 745.500 976 L 736 976 736 971 L 736 966 745.391 966 L 754.783 966 756.391 961.980 C 757.276 959.769, 758 956.394, 758 954.480 L 758 951 737 951 L 716 951 716 981 M 761 978.826 C 761 1006.619, 761.003 1006.654, 763.314 1008.826 C 765.537 1010.913, 766.452 1011, 786.314 1011 L 807 1011 807 981 L 807 951 797 951 L 787 951 787 973.500 L 787 996 784 996 L 781 996 781 973.500 L 781 951 771 951 L 761 951 761 978.826 M 813 981 L 813 1011 822.150 1011 L 831.301 1011 830.655 1001.149 C 830.300 995.730, 829.778 989.768, 829.495 987.899 C 829.212 986.029, 831.047 990.462, 833.574 997.750 L 838.167 1011 848.583 1011 L 859 1011 859 981 L 859 951 849.847 951 L 840.694 951 841.373 961.750 C 841.746 967.663, 842.261 973.850, 842.518 975.500 C 842.775 977.150, 840.948 972.313, 838.459 964.750 L 833.934 951 823.467 951 L 813 951 813 981 M 173 981 L 173 996 176 996 L 179 996 179 981 L 179 966 176 966 L 173 966 173 981 M 469.667 966.667 C 469.300 967.033, 469 969.508, 469 972.167 L 469 977 472.500 977 L 476 977 476 971.500 C 476 966.127, 475.934 966, 473.167 966 C 471.608 966, 470.033 966.300, 469.667 966.667 M 546.438 967.300 C 546.164 968.016, 546.065 974.653, 546.220 982.050 L 546.500 995.500 549.750 995.813 L 553 996.127 553 981.063 L 553 966 549.969 966 C 548.301 966, 546.713 966.585, 546.438 967.300" stroke="none" fill="#9b7960" fill-rule="evenodd"/></svg>