<svg xmlns="http://www.w3.org/2000/svg" width="1080" height="188" viewBox="0 0 1080 188" version="1.1"><path d="M 573.156 47.319 C 571.867 47.908, 569.168 50.889, 567.158 53.945 C 563.771 59.093, 563.503 60.049, 563.502 67 C 563.501 71.125, 563.698 77.169, 563.941 80.431 C 564.381 86.362, 564.381 86.362, 560.941 87.509 C 558.904 88.189, 556.967 89.749, 556.193 91.333 C 555.475 92.804, 555.164 94.456, 555.503 95.004 C 555.841 95.552, 556.773 96, 557.574 96 C 558.374 96, 559.901 94.567, 560.965 92.816 C 562.093 90.962, 564.279 89.185, 566.201 88.560 C 569.500 87.488, 569.500 87.488, 569 80.994 C 568.725 77.422, 568.500 71.350, 568.500 67.500 C 568.500 61.434, 568.893 59.900, 571.448 56 C 573.069 53.525, 575.319 50.723, 576.448 49.772 C 577.577 48.822, 579.587 48.034, 580.917 48.022 C 582.246 48.010, 583.146 47.839, 582.917 47.642 C 582.688 47.444, 580.925 47.050, 579 46.766 C 577.075 46.481, 574.445 46.730, 573.156 47.319 M 212.015 54.467 C 210.798 57.139, 209.764 62.062, 209.443 66.717 C 209.148 70.998, 208.679 76.388, 208.400 78.695 C 207.903 82.814, 207.817 82.896, 203.697 83.195 C 200.184 83.450, 199.447 83.876, 199.173 85.808 C 198.993 87.077, 199.566 89.215, 200.446 90.558 C 201.326 91.901, 202.952 93, 204.058 93 C 205.738 93, 205.899 92.680, 205.035 91.066 C 204.466 90.002, 204 88.250, 204 87.173 C 204 86.095, 204.712 84.941, 205.582 84.607 C 206.452 84.273, 208.421 84, 209.957 84 C 212.285 84, 212.854 83.480, 213.375 80.875 C 213.719 79.156, 214 75.639, 214 73.059 C 214 70.478, 214.471 65.821, 215.046 62.709 C 215.621 59.598, 216.731 55.820, 217.512 54.314 C 218.611 52.195, 218.658 51.402, 217.716 50.803 C 217.047 50.378, 215.949 50.024, 215.275 50.015 C 214.601 50.007, 213.134 52.010, 212.015 54.467 M 1013.273 52.697 C 1012.298 54.180, 1010.973 58.342, 1010.329 61.947 C 1009.685 65.551, 1009.122 71.763, 1009.079 75.750 C 1009 83, 1009 83, 1005.122 83 C 1002.842 83, 1000.716 83.638, 999.960 84.548 C 998.905 85.820, 998.969 86.712, 1000.322 89.548 C 1001.395 91.798, 1002.670 93, 1003.984 93 C 1005.093 93, 1006 92.796, 1006 92.547 C 1006 92.298, 1005.484 90.961, 1004.853 89.577 C 1003.968 87.634, 1003.996 86.710, 1004.975 85.530 C 1005.715 84.638, 1007.862 84, 1010.122 84 C 1014 84, 1014 84, 1014 77.943 C 1014 74.611, 1014.485 68.649, 1015.077 64.693 C 1015.670 60.737, 1016.851 56.211, 1017.701 54.636 C 1019.001 52.229, 1019.028 51.632, 1017.874 50.901 C 1017.118 50.422, 1016.173 50.024, 1015.773 50.015 C 1015.373 50.007, 1014.248 51.214, 1013.273 52.697 M 702.268 53.250 C 701.731 53.938, 700.577 59.675, 699.703 66 C 698.499 74.723, 698.260 81.806, 698.712 95.333 C 699.161 108.763, 699.658 113.515, 700.725 114.583 C 701.505 115.362, 702.673 116, 703.321 116.001 C 704.171 116.002, 704.421 112.999, 704.216 105.251 C 704.060 99.338, 703.858 89.775, 703.768 84 C 703.678 78.225, 704.210 69.450, 704.950 64.500 C 705.690 59.550, 706.680 55.072, 707.148 54.550 C 707.617 54.027, 708 53.240, 708 52.800 C 708 52.360, 706.930 52, 705.622 52 C 704.315 52, 702.805 52.563, 702.268 53.250 M 91.803 56.250 C 90.934 56.938, 88.138 59.889, 85.589 62.809 C 83.040 65.729, 81.216 68.541, 81.536 69.059 C 81.856 69.576, 82.907 70, 83.872 70 C 84.836 70, 87.847 67.273, 90.563 63.941 C 93.278 60.608, 96.850 57.270, 98.500 56.522 C 101.500 55.163, 101.500 55.163, 97.441 55.082 C 95.209 55.037, 92.671 55.563, 91.803 56.250 M 57.783 57.750 C 56.944 58.712, 55.748 60.486, 55.125 61.691 C 54.502 62.896, 52.871 68.071, 51.499 73.191 C 49.468 80.770, 49.005 84.832, 49.003 95.050 C 49.001 103.481, 49.394 107.994, 50.200 108.800 C 50.860 109.460, 52.141 110, 53.047 110 C 54.511 110, 54.642 108.642, 54.235 97.750 C 53.856 87.603, 54.142 83.974, 55.902 76.613 C 57.071 71.725, 58.898 65.758, 59.963 63.351 C 61.027 60.945, 62.596 58.709, 63.449 58.381 C 64.302 58.054, 65 57.384, 65 56.893 C 65 56.402, 63.720 56, 62.155 56 C 60.590 56, 58.623 56.788, 57.783 57.750 M 877.347 58.487 C 875.838 59.590, 875.436 61.500, 875.151 68.919 C 874.801 78, 874.801 78, 871.056 78 C 868.811 78, 864.744 79.302, 860.905 81.250 C 855.245 84.122, 854.187 85.139, 851.805 90 C 849.807 94.076, 849.186 96.700, 849.405 100.135 C 849.586 102.984, 850.585 106.013, 851.998 107.998 C 853.263 109.773, 855.854 111.877, 857.757 112.672 C 859.659 113.467, 861.431 113.902, 861.694 113.640 C 861.956 113.377, 861.296 112.694, 860.227 112.122 C 859.158 111.549, 857.538 109.944, 856.627 108.554 C 855.716 107.164, 854.804 103.883, 854.599 101.263 C 854.315 97.635, 854.854 95.189, 856.863 91 C 859.179 86.170, 860.231 85.134, 865.500 82.502 C 869.253 80.626, 873.046 79.503, 875.627 79.502 C 879.754 79.500, 879.754 79.500, 880.265 70.500 C 880.547 65.550, 881.078 60.771, 881.446 59.879 C 881.854 58.889, 881.546 58.040, 880.655 57.698 C 879.852 57.390, 878.363 57.745, 877.347 58.487 M 434.243 67.250 C 434.691 71.787, 435.488 80.450, 436.014 86.500 C 436.540 92.550, 437.139 100.450, 437.345 104.055 C 437.552 107.661, 438.233 111.568, 438.860 112.738 C 439.486 113.907, 440.932 115.161, 442.074 115.524 C 443.216 115.886, 444.406 115.927, 444.718 115.615 C 445.030 115.304, 444.740 114.391, 444.073 113.588 C 443.407 112.785, 442.659 109.062, 442.411 105.314 C 442.163 101.566, 441.521 93.325, 440.983 87 C 440.445 80.675, 439.655 72.026, 439.228 67.780 C 438.573 61.268, 438.690 59.995, 439.976 59.646 C 440.814 59.418, 439.684 59.180, 437.463 59.116 C 433.427 59, 433.427 59, 434.243 67.250 M 593.704 64.250 C 593.930 67.138, 594.539 72.511, 595.057 76.192 C 595.576 79.872, 596 86.033, 596 89.883 C 596 93.732, 596.451 97.161, 597.002 97.501 C 597.565 97.849, 597.743 99.756, 597.408 101.852 C 597.079 103.905, 597.319 107.470, 597.939 109.775 C 598.560 112.080, 599.923 114.424, 600.968 114.983 C 602.013 115.542, 603.364 116, 603.969 116 C 604.733 116, 604.695 115.311, 603.843 113.750 C 603.169 112.513, 602.473 108.575, 602.298 105 C 602.122 101.425, 601.547 93.550, 601.019 87.500 C 600.491 81.450, 599.693 72.802, 599.245 68.282 C 598.553 61.284, 598.660 60.002, 599.966 59.648 C 600.810 59.419, 599.654 59.180, 597.397 59.116 C 593.294 59, 593.294 59, 593.704 64.250 M 174.806 64.399 C 172.224 65.094, 169.411 66.244, 168.556 66.954 C 167.700 67.664, 167 68.906, 167 69.715 C 167 70.523, 166.100 72.329, 165 73.727 C 163.900 75.126, 163 77.100, 163 78.115 C 163 79.129, 163.700 81.709, 164.556 83.847 C 165.639 86.555, 167.609 88.706, 171.043 90.931 C 173.756 92.689, 176.656 95.099, 177.488 96.286 C 178.320 97.474, 179 99.391, 179 100.548 C 179 101.705, 177.988 103.581, 176.750 104.717 C 175.512 105.853, 171.012 107.818, 166.750 109.083 C 162.488 110.348, 159 111.768, 159 112.239 C 159 112.710, 160.191 114.199, 161.646 115.548 C 163.101 116.896, 164.901 118, 165.646 118 C 166.391 118, 167 117.698, 167 117.329 C 167 116.960, 166.253 115.832, 165.339 114.823 C 164.426 113.813, 163.864 112.855, 164.089 112.692 C 164.315 112.530, 167.015 111.632, 170.088 110.698 C 173.161 109.764, 176.340 109, 177.151 109 C 177.962 109, 179.835 107.738, 181.313 106.195 C 182.840 104.601, 184 102.253, 184 100.755 C 184 98.808, 182.656 96.992, 178.862 93.810 C 176.036 91.439, 173.371 89.601, 172.939 89.724 C 172.507 89.848, 171.219 88.018, 170.077 85.659 C 168.935 83.299, 168 80.386, 168 79.184 C 168 77.983, 168.932 76.068, 170.071 74.929 C 171.210 73.790, 172.330 71.877, 172.559 70.679 C 172.789 69.480, 173.736 67.942, 174.664 67.261 C 175.592 66.580, 178.533 65.733, 181.198 65.379 C 183.864 65.026, 186.286 64.346, 186.581 63.868 C 186.877 63.391, 185.404 63.030, 183.309 63.067 C 181.214 63.105, 177.388 63.704, 174.806 64.399 M 673.717 64.421 C 671.087 65.129, 668.288 66.561, 667.499 67.604 C 666.710 68.647, 666.049 70.081, 666.032 70.790 C 666.014 71.500, 665.025 73.400, 663.833 75.012 C 661.907 77.617, 661.794 78.369, 662.815 81.777 C 663.447 83.887, 664.760 86.375, 665.732 87.308 C 666.704 88.240, 669.862 90.813, 672.750 93.025 C 676.878 96.187, 678 97.646, 678 99.849 C 678 101.476, 677.057 103.517, 675.750 104.717 C 674.513 105.853, 670.013 107.818, 665.750 109.083 C 661.487 110.348, 658 111.768, 658 112.239 C 658 112.710, 659.237 114.185, 660.750 115.516 C 662.263 116.848, 664.366 117.951, 665.424 117.968 C 667.207 117.998, 667.177 117.817, 665.004 115.504 C 663.714 114.131, 662.848 112.870, 663.079 112.702 C 663.311 112.534, 666.015 111.632, 669.088 110.698 C 672.161 109.764, 675.340 109, 676.151 109 C 676.962 109, 678.835 107.738, 680.313 106.195 C 681.808 104.635, 683 102.248, 683 100.814 C 683 99.010, 681.664 97.078, 678.545 94.369 C 676.094 92.241, 672.959 89.703, 671.577 88.728 C 670.127 87.705, 668.596 85.212, 667.954 82.830 C 666.964 79.153, 667.081 78.382, 669.025 75.753 C 670.224 74.130, 671.312 72.078, 671.442 71.192 C 671.572 70.307, 672.824 68.727, 674.225 67.681 C 675.626 66.636, 678.848 65.546, 681.386 65.260 C 683.924 64.974, 686 64.348, 686 63.870 C 686 63.391, 684.313 63.030, 682.250 63.067 C 680.188 63.105, 676.348 63.714, 673.717 64.421 M 931.717 64.421 C 929.087 65.129, 926.288 66.561, 925.499 67.604 C 924.710 68.647, 924.049 70.081, 924.032 70.790 C 924.014 71.500, 923.025 73.400, 921.833 75.012 C 919.907 77.617, 919.794 78.369, 920.815 81.777 C 921.447 83.887, 922.760 86.375, 923.732 87.308 C 924.704 88.240, 927.862 90.813, 930.750 93.025 C 934.878 96.187, 936 97.646, 936 99.849 C 936 101.476, 935.057 103.517, 933.750 104.717 C 932.513 105.853, 928.013 107.818, 923.750 109.083 C 919.487 110.348, 916 111.768, 916 112.239 C 916 112.710, 917.237 114.185, 918.750 115.516 C 920.263 116.848, 922.366 117.951, 923.424 117.968 C 925.207 117.998, 925.177 117.817, 923.004 115.504 C 921.714 114.131, 920.848 112.870, 921.079 112.702 C 921.311 112.534, 924.015 111.632, 927.088 110.698 C 930.161 109.764, 933.340 109, 934.151 109 C 934.962 109, 936.835 107.738, 938.313 106.195 C 939.808 104.635, 941 102.248, 941 100.814 C 941 99.010, 939.664 97.078, 936.545 94.369 C 934.094 92.241, 930.959 89.703, 929.577 88.728 C 928.127 87.705, 926.596 85.212, 925.954 82.830 C 924.964 79.153, 925.081 78.382, 927.025 75.753 C 928.224 74.130, 929.312 72.078, 929.442 71.192 C 929.572 70.307, 930.824 68.727, 932.225 67.681 C 933.626 66.636, 936.848 65.546, 939.386 65.260 C 941.924 64.974, 944 64.348, 944 63.870 C 944 63.391, 942.313 63.030, 940.250 63.067 C 938.188 63.105, 934.348 63.714, 931.717 64.421 M 753.994 66.934 C 752.615 67.354, 750.081 68.424, 748.363 69.312 C 746.644 70.201, 744.071 72.315, 742.645 74.010 C 741.219 75.704, 739.601 78.769, 739.048 80.821 C 738.496 82.872, 738.076 86.339, 738.114 88.525 C 738.153 90.711, 738.646 94.075, 739.209 96 C 739.773 97.925, 741.869 101.240, 743.867 103.366 C 745.865 105.493, 748.948 107.855, 750.718 108.616 C 752.488 109.377, 754.268 110, 754.673 110 C 755.079 110, 753.110 107.862, 750.298 105.250 C 746.704 101.912, 744.889 99.311, 744.187 96.500 C 743.639 94.300, 743.346 89.940, 743.538 86.811 C 743.729 83.683, 744.543 79.858, 745.348 78.311 C 746.152 76.765, 747.865 74.515, 749.155 73.312 C 750.445 72.109, 753.411 70.269, 755.746 69.224 C 758.081 68.179, 759.693 67.026, 759.329 66.662 C 758.965 66.298, 758.179 66.039, 757.583 66.086 C 756.987 66.133, 755.372 66.515, 753.994 66.934 M 68.559 69.905 C 68.200 70.485, 68.373 71.828, 68.942 72.891 C 69.511 73.954, 71.862 76.438, 74.168 78.412 C 76.474 80.385, 78.954 82, 79.680 82 C 80.406 82, 81 81.821, 81 81.602 C 81 81.383, 78.347 78.425, 75.105 75.028 C 71.727 71.489, 68.932 69.302, 68.559 69.905 M 514.769 71.295 C 512.847 72.143, 512.289 72.898, 512.886 73.844 C 513.587 74.955, 514.270 74.912, 516.818 73.594 C 518.513 72.717, 520.936 71.968, 522.200 71.930 C 523.465 71.891, 525.400 71.473, 526.500 71 C 527.943 70.380, 526.968 70.134, 523 70.115 C 519.975 70.102, 516.271 70.632, 514.769 71.295 M 830.769 71.295 C 828.847 72.143, 828.289 72.898, 828.886 73.844 C 829.587 74.955, 830.270 74.912, 832.818 73.594 C 834.513 72.717, 836.936 71.968, 838.200 71.930 C 839.465 71.891, 841.400 71.473, 842.500 71 C 843.943 70.380, 842.968 70.134, 839 70.115 C 835.975 70.102, 832.271 70.632, 830.769 71.295 M 128.011 72.960 C 124.992 74.002, 121.525 76.013, 120.307 77.429 C 119.090 78.845, 117.625 81.690, 117.052 83.752 C 116.480 85.813, 116.011 89.525, 116.011 92 C 116.011 94.475, 116.472 98.159, 117.035 100.187 C 117.619 102.290, 120.155 106.048, 122.939 108.937 C 125.623 111.722, 128.535 114, 129.410 114 C 130.284 114, 131 113.765, 131 113.478 C 131 113.190, 129.262 111.053, 127.139 108.728 C 125.015 106.402, 122.708 102.747, 122.013 100.604 C 121.263 98.293, 120.963 94.341, 121.277 90.886 C 121.567 87.684, 122.636 83.362, 123.652 81.282 C 125.023 78.477, 126.860 76.837, 130.765 74.932 C 133.661 73.520, 135.724 72.057, 135.349 71.682 C 134.974 71.307, 134.404 71.015, 134.083 71.033 C 133.762 71.051, 131.030 71.918, 128.011 72.960 M 315.479 72.394 C 313.268 73.087, 310.294 74.417, 308.871 75.349 C 307.448 76.281, 305.433 78.932, 304.392 81.240 C 303.100 84.104, 302.508 87.667, 302.526 92.468 C 302.544 97.229, 303.105 100.469, 304.264 102.500 C 305.206 104.150, 307.506 107.205, 309.377 109.288 C 311.247 111.371, 314.209 113.486, 315.959 113.988 C 319.141 114.901, 319.141 114.901, 314.542 110.200 C 311.314 106.901, 309.479 103.919, 308.385 100.197 C 307.311 96.540, 307.042 93.279, 307.519 89.697 C 307.900 86.838, 309.147 82.813, 310.290 80.750 C 311.599 78.388, 313.897 76.260, 316.500 75 C 318.772 73.900, 321.191 73, 321.875 73 C 322.559 73, 322.840 72.550, 322.500 72 C 322.160 71.450, 321.346 71.030, 320.691 71.067 C 320.036 71.104, 317.691 71.701, 315.479 72.394 M 498 71.316 C 498 71.490, 498.492 74.303, 499.092 77.566 C 499.693 80.830, 500.568 83.966, 501.036 84.535 C 501.505 85.104, 502.160 89.563, 502.493 94.443 C 502.826 99.323, 503.527 104.115, 504.049 105.092 C 504.572 106.069, 505 108.158, 505 109.734 C 505 111.310, 505.540 113.140, 506.200 113.800 C 506.860 114.460, 508.105 115, 508.967 115 C 510.105 115, 510.487 114.108, 510.361 111.750 C 510.266 109.963, 509.726 107.313, 509.161 105.862 C 508.597 104.412, 507.856 99.479, 507.515 94.902 C 507.174 90.324, 506.511 86.111, 506.041 85.539 C 505.571 84.968, 504.818 82.250, 504.367 79.500 C 503.916 76.750, 503.537 74.050, 503.524 73.500 C 503.511 72.950, 504.512 72.641, 505.750 72.813 C 506.988 72.985, 508 72.647, 508 72.063 C 508 71.454, 505.864 71, 503 71 C 500.250 71, 498 71.142, 498 71.316 M 814 71.316 C 814 71.490, 814.492 74.303, 815.092 77.566 C 815.693 80.830, 816.568 83.966, 817.036 84.535 C 817.505 85.104, 818.160 89.563, 818.493 94.443 C 818.826 99.323, 819.527 104.115, 820.049 105.092 C 820.572 106.069, 821 108.158, 821 109.734 C 821 111.310, 821.540 113.140, 822.200 113.800 C 822.860 114.460, 824.105 115, 824.967 115 C 826.105 115, 826.487 114.108, 826.361 111.750 C 826.266 109.963, 825.726 107.313, 825.161 105.862 C 824.597 104.412, 823.856 99.479, 823.515 94.902 C 823.174 90.324, 822.511 86.111, 822.041 85.539 C 821.571 84.968, 820.818 82.250, 820.367 79.500 C 819.916 76.750, 819.537 74.050, 819.524 73.500 C 819.511 72.950, 820.513 72.641, 821.750 72.813 C 822.987 72.985, 824 72.647, 824 72.063 C 824 71.454, 821.864 71, 819 71 C 816.250 71, 814 71.142, 814 71.316 M 278.500 73.680 C 277.400 73.899, 275.381 74.321, 274.014 74.617 C 271.773 75.103, 271.705 75.255, 273.317 76.158 C 274.526 76.834, 276.111 76.809, 278.202 76.079 C 279.905 75.486, 282.431 75, 283.816 75 C 285.200 75, 286.146 74.838, 285.917 74.641 C 285.688 74.443, 284.375 74.057, 283 73.782 C 281.625 73.507, 279.600 73.461, 278.500 73.680 M 363.500 73.680 C 362.400 73.899, 360.381 74.321, 359.014 74.617 C 356.773 75.103, 356.705 75.255, 358.317 76.158 C 359.526 76.834, 361.111 76.809, 363.202 76.079 C 364.905 75.486, 367.431 75, 368.816 75 C 370.200 75, 371.146 74.838, 370.917 74.641 C 370.688 74.443, 369.375 74.057, 368 73.782 C 366.625 73.507, 364.600 73.461, 363.500 73.680 M 967.383 76.694 C 962.400 79.255, 959.800 81.274, 958.716 83.426 C 957.864 85.117, 956.889 88.474, 956.550 90.886 C 956.048 94.450, 956.429 96.231, 958.578 100.386 C 960.033 103.199, 961.961 106.352, 962.862 107.394 C 963.763 108.436, 966.875 110.349, 969.779 111.644 C 972.682 112.940, 975.607 113.982, 976.279 113.960 C 976.950 113.938, 975.739 113.042, 973.587 111.968 C 971.435 110.894, 968.889 109.304, 967.929 108.435 C 966.968 107.566, 965.605 105.425, 964.898 103.678 C 964.192 101.930, 963.138 100.179, 962.557 99.786 C 961.976 99.393, 961.598 96.693, 961.717 93.786 C 961.836 90.879, 962.641 86.925, 963.506 84.999 C 964.812 82.092, 966.557 80.782, 973.790 77.279 C 982.346 73.135, 982.429 73.060, 978.500 73.048 C 975.841 73.040, 972.114 74.262, 967.383 76.694 M 93.425 76.019 C 91.541 77.904, 91.445 78.672, 92.276 85.287 C 92.775 89.254, 92.922 97.225, 92.604 103 C 92.193 110.483, 92.389 114.216, 93.288 115.991 C 93.982 117.361, 95.266 118.620, 96.141 118.789 C 97.557 119.061, 97.707 116.932, 97.508 99.297 C 97.385 88.409, 96.879 78.254, 96.383 76.732 C 95.480 73.964, 95.480 73.964, 93.425 76.019 M 415.908 75.611 C 414.903 76.822, 414.482 80.338, 414.438 87.904 C 414.404 93.732, 413.848 99.750, 413.202 101.277 C 412.557 102.804, 411.043 104.418, 409.838 104.864 C 407.647 105.675, 407.647 105.675, 409.931 106.272 C 411.187 106.600, 413.299 106.456, 414.625 105.952 C 415.951 105.448, 417.577 103.790, 418.238 102.268 C 418.899 100.746, 419.550 95, 419.686 89.500 C 419.821 84, 420.060 78.389, 420.216 77.031 C 420.402 75.418, 419.949 74.450, 418.908 74.238 C 418.032 74.060, 416.682 74.678, 415.908 75.611 M 263.533 76.352 C 261.788 77.628, 261.726 78.997, 262.433 100.602 C 262.845 113.196, 263.167 124.400, 263.150 125.500 C 263.132 126.600, 262.825 128.897, 262.467 130.605 C 261.921 133.207, 262.257 134.057, 264.543 135.855 C 266.043 137.035, 267.954 138, 268.790 138 C 270.062 138, 270.020 137.680, 268.532 136.035 C 267.228 134.594, 266.953 133.328, 267.502 131.285 C 267.913 129.753, 268.247 126.700, 268.243 124.500 C 268.239 122.300, 267.965 110.921, 267.633 99.213 C 267.114 80.927, 267.239 77.846, 268.515 77.356 C 269.332 77.043, 270 76.384, 270 75.893 C 270 75.402, 268.961 75, 267.691 75 C 266.421 75, 264.550 75.609, 263.533 76.352 M 348.533 76.352 C 346.788 77.628, 346.726 78.997, 347.433 100.602 C 347.845 113.196, 348.167 124.400, 348.150 125.500 C 348.132 126.600, 347.825 128.897, 347.467 130.605 C 346.921 133.207, 347.257 134.057, 349.543 135.855 C 351.043 137.035, 352.954 138, 353.790 138 C 355.062 138, 355.020 137.680, 353.532 136.035 C 352.228 134.594, 351.953 133.328, 352.502 131.285 C 352.913 129.753, 353.247 126.700, 353.243 124.500 C 353.239 122.300, 352.965 110.921, 352.633 99.213 C 352.114 80.927, 352.239 77.846, 353.515 77.356 C 354.332 77.043, 355 76.384, 355 75.893 C 355 75.402, 353.961 75, 352.691 75 C 351.421 75, 349.550 75.609, 348.533 76.352 M 713.500 76 C 713.160 76.550, 713.150 77.433, 713.477 77.962 C 713.849 78.565, 715.087 78.494, 716.786 77.772 C 718.279 77.139, 719.928 76.256, 720.450 75.810 C 720.972 75.365, 719.762 75, 717.759 75 C 715.756 75, 713.840 75.450, 713.500 76 M 387.944 80.188 C 387.274 82.666, 387.035 86.980, 387.382 90.331 C 387.791 94.275, 389.202 98.472, 391.743 103.302 C 394.175 107.923, 396.558 111.032, 398.500 112.116 C 400.150 113.037, 402.625 114.097, 404 114.472 C 406.241 115.084, 406.184 114.954, 403.443 113.210 C 401.577 112.022, 398.882 108.401, 396.524 103.913 C 392.923 97.062, 392.668 96.017, 392.767 88.531 C 392.825 84.114, 393.014 79.600, 393.186 78.500 C 393.409 77.080, 392.864 76.410, 391.305 76.188 C 389.475 75.927, 388.917 76.591, 387.944 80.188 M 470.250 78.562 C 467.363 79.882, 465 81.399, 465 81.935 C 465 82.471, 463.908 84.001, 462.574 85.335 C 461.240 86.669, 459.440 90.146, 458.574 93.062 C 457.708 95.977, 457 100.047, 457 102.105 C 457 104.636, 457.808 106.807, 459.496 108.813 C 460.869 110.445, 463.850 112.523, 466.121 113.432 C 468.392 114.340, 470.481 114.852, 470.764 114.570 C 471.046 114.287, 470.149 113.627, 468.770 113.103 C 467.391 112.578, 465.256 110.878, 464.025 109.325 C 462.082 106.872, 461.866 105.730, 462.388 100.657 C 462.718 97.443, 463.868 92.825, 464.943 90.395 C 466.018 87.965, 467.596 85.709, 468.449 85.381 C 469.302 85.054, 470 84.186, 470 83.452 C 470 82.718, 470.513 81.801, 471.140 81.414 C 471.767 81.026, 475.254 79.659, 478.890 78.376 C 485.500 76.042, 485.500 76.042, 480.500 76.103 C 477.462 76.140, 473.439 77.105, 470.250 78.562 M 630.832 78.311 C 628.264 79.515, 624.590 82.410, 622.666 84.744 C 620.477 87.400, 618.763 90.879, 618.084 94.043 C 617.488 96.824, 617 100.792, 617 102.862 C 617 105.663, 617.704 107.300, 619.750 109.260 C 621.263 110.709, 624.236 112.619, 626.358 113.506 C 628.480 114.392, 630.426 114.907, 630.683 114.650 C 630.940 114.393, 630.237 113.892, 629.119 113.538 C 628.002 113.183, 625.943 111.533, 624.544 109.870 C 622.821 107.822, 622.004 105.662, 622.012 103.173 C 622.018 101.153, 622.677 97.025, 623.476 94 C 624.360 90.655, 625.922 87.637, 627.464 86.298 C 628.859 85.087, 630 83.651, 630 83.107 C 630 82.563, 630.513 81.801, 631.140 81.414 C 631.767 81.026, 635.254 79.659, 638.890 78.376 C 645.500 76.042, 645.500 76.042, 640.500 76.082 C 637.521 76.106, 633.613 77.007, 630.832 78.311 M 786.250 78.562 C 783.362 79.882, 781 81.399, 781 81.935 C 781 82.471, 779.908 84.001, 778.574 85.335 C 777.240 86.669, 775.440 90.146, 774.574 93.062 C 773.708 95.977, 773 100.047, 773 102.105 C 773 104.636, 773.808 106.807, 775.496 108.813 C 776.869 110.445, 779.850 112.523, 782.121 113.432 C 784.392 114.340, 786.481 114.852, 786.764 114.570 C 787.046 114.287, 786.149 113.627, 784.770 113.103 C 783.391 112.578, 781.256 110.878, 780.025 109.325 C 778.082 106.872, 777.866 105.730, 778.388 100.657 C 778.718 97.443, 779.868 92.825, 780.943 90.395 C 782.018 87.965, 783.596 85.709, 784.449 85.381 C 785.302 85.054, 786 84.186, 786 83.452 C 786 82.718, 786.513 81.801, 787.140 81.414 C 787.767 81.026, 791.254 79.659, 794.890 78.376 C 801.500 76.042, 801.500 76.042, 796.500 76.103 C 793.462 76.140, 789.439 77.105, 786.250 78.562 M 226.250 79.262 C 223.649 79.888, 222 80.853, 222 81.749 C 222 82.692, 222.581 82.991, 223.629 82.589 C 224.525 82.245, 227.262 81.459, 229.712 80.842 C 232.778 80.070, 233.751 79.457, 232.833 78.876 C 232.100 78.411, 231.275 78.078, 231 78.135 C 230.725 78.193, 228.588 78.700, 226.250 79.262 M 1027 79.168 C 1025.075 79.712, 1023.080 80.564, 1022.567 81.062 C 1022.053 81.559, 1021.884 82.217, 1022.190 82.523 C 1022.495 82.829, 1025.517 82.309, 1028.903 81.367 C 1032.889 80.259, 1034.609 79.369, 1033.780 78.843 C 1033.076 78.396, 1032.050 78.064, 1031.500 78.106 C 1030.950 78.147, 1028.925 78.625, 1027 79.168 M 143.569 84.925 C 145.113 87.258, 146.074 89.996, 145.940 91.675 C 145.815 93.229, 146.021 95.210, 146.397 96.078 C 146.774 96.945, 146.656 98.745, 146.137 100.078 C 145.617 101.410, 144.231 103.513, 143.057 104.750 C 141.883 105.987, 140.265 107, 139.461 107 C 138.657 107, 138 107.450, 138 108 C 138 108.550, 139.147 109, 140.550 109 C 141.952 109, 144.366 108.345, 145.915 107.544 C 147.463 106.743, 149.464 104.542, 150.361 102.652 C 151.536 100.176, 151.814 97.859, 151.355 94.358 C 151.005 91.686, 150.110 88.290, 149.365 86.811 C 148.621 85.332, 147.009 83.419, 145.783 82.561 C 144.558 81.702, 142.974 81, 142.263 81 C 141.430 81, 141.892 82.391, 143.569 84.925 M 329.383 84.423 C 330.764 86.457, 331.977 90.151, 332.374 93.522 C 332.926 98.218, 332.696 99.756, 331.045 102.427 C 329.947 104.203, 327.801 106.277, 326.275 107.034 C 323.500 108.412, 323.500 108.412, 326.184 108.766 C 327.660 108.961, 330.239 108.410, 331.917 107.543 C 333.594 106.676, 335.643 104.658, 336.470 103.059 C 337.505 101.057, 337.823 98.387, 337.491 94.488 C 337.226 91.373, 336.258 87.552, 335.339 85.997 C 334.421 84.443, 332.598 82.682, 331.288 82.085 C 329.978 81.488, 328.491 81, 327.983 81 C 327.476 81, 328.106 82.541, 329.383 84.423 M 981.889 82.680 C 981.828 83.131, 981.862 84.524, 981.964 85.775 C 982.081 87.205, 980.859 89.341, 978.675 91.525 C 976.764 93.436, 974.480 95, 973.600 95 C 972.720 95, 972 95.509, 972 96.132 C 972 96.886, 973.418 97.073, 976.249 96.693 C 979.442 96.265, 981.320 95.227, 983.800 92.521 C 986.399 89.685, 987.025 88.235, 986.740 85.709 C 986.469 83.313, 985.823 82.419, 984.189 82.180 C 982.985 82.005, 981.950 82.230, 981.889 82.680 M 284.306 86.408 C 286.500 88.441, 286.818 89.414, 286.352 92.658 C 286.049 94.771, 285.029 97.599, 284.086 98.942 C 283.143 100.285, 280.948 102.085, 279.208 102.942 C 277.469 103.799, 276.035 104.835, 276.023 105.244 C 276.010 105.653, 277.634 105.779, 279.631 105.523 C 281.629 105.267, 284.322 104.364, 285.617 103.515 C 286.913 102.666, 288.619 100.966, 289.410 99.736 C 290.201 98.506, 290.995 95.504, 291.174 93.064 C 291.474 88.985, 291.227 88.442, 288.102 86.314 C 286.233 85.041, 284.030 84, 283.206 84 C 282.180 84, 282.526 84.758, 284.306 86.408 M 369.306 86.408 C 371.500 88.441, 371.818 89.414, 371.352 92.658 C 371.049 94.771, 370.029 97.599, 369.086 98.942 C 368.143 100.285, 365.948 102.085, 364.208 102.942 C 362.469 103.799, 361.035 104.835, 361.023 105.244 C 361.010 105.653, 362.634 105.779, 364.631 105.523 C 366.629 105.267, 369.322 104.364, 370.617 103.515 C 371.913 102.666, 373.619 100.966, 374.410 99.736 C 375.201 98.506, 375.995 95.504, 376.174 93.064 C 376.474 88.985, 376.227 88.442, 373.102 86.314 C 371.233 85.041, 369.030 84, 368.206 84 C 367.180 84, 367.526 84.758, 369.306 86.408 M 580.750 84.689 C 579.788 84.941, 579 85.564, 579 86.073 C 579 86.583, 580.039 87, 581.309 87 C 582.579 87, 584.491 86.339, 585.559 85.532 C 587.430 84.116, 587.410 84.067, 585 84.148 C 583.625 84.194, 581.712 84.438, 580.750 84.689 M 719 86.450 C 719 87.248, 719.673 88.277, 720.495 88.737 C 721.577 89.343, 722.137 92.045, 722.525 98.537 C 722.970 105.990, 723.411 107.795, 725.141 109.250 C 726.285 110.213, 727.863 111, 728.646 111 C 729.744 111, 729.833 110.557, 729.035 109.066 C 728.466 108.002, 727.996 105.414, 727.991 103.316 C 727.987 101.217, 727.699 97.138, 727.352 94.250 C 727.005 91.362, 726.217 89, 725.601 89 C 724.985 89, 723.919 88.100, 723.232 87 C 722.545 85.900, 721.312 85, 720.492 85 C 719.671 85, 719 85.653, 719 86.450 M 481.857 87.669 C 480.798 87.950, 480.394 88.792, 480.720 90.039 C 481.021 91.189, 479.960 93.946, 478.102 96.842 C 476.383 99.520, 474.082 102.521, 472.989 103.510 C 471.895 104.500, 471 105.690, 471 106.155 C 471 106.620, 471.865 107, 472.923 107 C 473.981 107, 476.193 105.867, 477.839 104.482 C 479.484 103.098, 482.025 99.927, 483.485 97.436 C 485.466 94.056, 485.974 92.158, 485.490 89.954 C 485.133 88.329, 484.539 87.052, 484.171 87.116 C 483.802 87.180, 482.761 87.428, 481.857 87.669 M 641.805 87.679 C 640.873 87.924, 640.342 88.728, 640.625 89.466 C 640.908 90.203, 640.205 92.637, 639.064 94.875 C 637.922 97.113, 635.640 100.479, 633.994 102.354 C 632.347 104.230, 631 106.042, 631 106.382 C 631 106.722, 631.865 107, 632.923 107 C 633.981 107, 636.139 105.912, 637.719 104.583 C 639.299 103.253, 641.824 99.903, 643.329 97.137 C 645.249 93.609, 645.874 91.347, 645.424 89.555 C 645.072 88.150, 644.494 87.052, 644.142 87.116 C 643.789 87.180, 642.737 87.433, 641.805 87.679 M 797.857 87.669 C 796.798 87.950, 796.394 88.792, 796.720 90.039 C 797.021 91.189, 795.960 93.946, 794.102 96.842 C 792.383 99.520, 790.082 102.521, 788.989 103.510 C 787.895 104.500, 787 105.690, 787 106.155 C 787 106.620, 787.865 107, 788.923 107 C 789.981 107, 792.193 105.867, 793.839 104.482 C 795.484 103.098, 798.025 99.927, 799.485 97.436 C 801.466 94.056, 801.974 92.158, 801.490 89.954 C 801.133 88.329, 800.539 87.052, 800.171 87.116 C 799.802 87.180, 798.761 87.428, 797.857 87.669 M 877.364 88.753 C 875.884 89, 875.033 90.086, 874.592 92.288 C 874.243 94.037, 872.823 97.180, 871.437 99.274 C 870.052 101.368, 867.699 103.593, 866.209 104.219 C 863.507 105.354, 863.506 105.358, 865.852 105.761 C 867.145 105.984, 869.262 105.900, 870.557 105.575 C 871.851 105.250, 874.093 103.433, 875.539 101.537 C 876.985 99.641, 878.781 96.056, 879.529 93.570 C 880.277 91.084, 880.577 88.903, 880.195 88.724 C 879.813 88.544, 878.539 88.558, 877.364 88.753 M 209 99.032 C 209 102.350, 209.630 106.512, 210.401 108.282 C 211.172 110.052, 212.990 112.737, 214.442 114.250 C 215.893 115.763, 217.476 117, 217.959 117 C 218.441 117, 219.645 117.310, 220.634 117.690 C 222.066 118.239, 221.964 117.883, 220.131 115.940 C 218.866 114.598, 217.121 112.150, 216.254 110.500 C 215.387 108.850, 214.466 104.237, 214.207 100.250 C 213.764 93.423, 213.599 93, 211.368 93 C 209.139 93, 209 93.354, 209 99.032 M 1009.302 100.061 C 1009.749 105.393, 1010.580 108.207, 1012.695 111.550 C 1014.352 114.169, 1016.681 116.390, 1018.397 116.989 C 1019.993 117.545, 1021.478 118, 1021.696 118 C 1021.915 118, 1020.761 116.313, 1019.131 114.250 C 1017.501 112.188, 1015.682 108.700, 1015.089 106.500 C 1014.496 104.300, 1014.009 100.362, 1014.006 97.750 C 1014 93.282, 1013.843 93, 1011.355 93 C 1008.710 93, 1008.710 93, 1009.302 100.061 M 566.494 96.009 C 566.152 96.564, 566.162 97.935, 566.518 99.057 C 566.874 100.178, 566.628 101.744, 565.971 102.535 C 565.314 103.326, 565.044 105.040, 565.371 106.343 C 565.698 107.646, 565.298 111.273, 564.483 114.405 C 563.667 117.536, 563 121.680, 563 123.615 C 563 125.549, 563.466 128.002, 564.035 129.066 C 564.605 130.130, 565.946 131, 567.016 131 C 568.729 131, 568.893 130.492, 568.384 126.750 C 568.033 124.170, 568.460 119.982, 569.472 116.091 C 570.388 112.566, 570.862 108.586, 570.525 107.245 C 570.189 105.905, 570.410 104.211, 571.016 103.480 C 571.675 102.686, 571.849 100.712, 571.448 98.576 C 570.969 96.022, 570.254 95, 568.948 95 C 567.941 95, 566.837 95.454, 566.494 96.009 M 988.250 103.745 C 986.462 104.635, 985 105.731, 985 106.181 C 985 106.632, 985.922 107, 987.050 107 C 988.177 107, 990.442 106.306, 992.082 105.457 C 993.723 104.609, 994.799 103.484, 994.474 102.957 C 994.148 102.431, 993.346 102.029, 992.691 102.064 C 992.036 102.099, 990.038 102.856, 988.250 103.745 M 878.701 111.336 C 878.399 112.125, 878.817 113.722, 879.632 114.885 C 880.447 116.048, 881.966 117, 883.008 117 C 884.759 117, 884.800 116.753, 883.541 113.750 C 882.791 111.963, 881.520 110.365, 880.715 110.201 C 879.910 110.036, 879.004 110.547, 878.701 111.336 M 484.177 111.687 C 483.192 112.080, 483.428 112.827, 485.101 114.608 C 486.337 115.923, 488.204 117, 489.250 117 C 491.023 117, 490.995 116.801, 488.826 114.055 C 487.547 112.436, 486.275 111.121, 486 111.134 C 485.725 111.147, 484.905 111.396, 484.177 111.687 M 643.658 111.676 C 643.286 112.048, 643.964 113.398, 645.165 114.676 C 646.366 115.954, 648.204 117, 649.250 117 C 651.023 117, 650.995 116.801, 648.826 114.055 C 647.547 112.436, 646.013 111.086, 645.417 111.055 C 644.821 111.025, 644.029 111.304, 643.658 111.676 M 800.177 111.687 C 799.192 112.080, 799.428 112.827, 801.101 114.608 C 802.337 115.923, 804.204 117, 805.250 117 C 807.023 117, 806.995 116.801, 804.826 114.055 C 803.547 112.436, 802.275 111.121, 802 111.134 C 801.725 111.147, 800.905 111.396, 800.177 111.687" stroke="none" fill="#f4d356" fill-rule="evenodd"/><path d="M 576.448 49.772 C 575.319 50.723, 573.069 53.525, 571.448 56 C 568.893 59.900, 568.500 61.434, 568.500 67.500 C 568.500 71.350, 568.725 77.422, 569 80.994 C 569.500 87.488, 569.500 87.488, 566.109 88.590 C 564.117 89.237, 562.119 90.834, 561.269 92.456 C 560.435 94.048, 560.194 95.594, 560.701 96.101 C 561.207 96.607, 563.045 96.561, 565.034 95.990 C 566.933 95.446, 569.002 95, 569.632 95 C 570.262 95, 571.079 96.609, 571.448 98.576 C 571.858 100.762, 571.675 102.687, 570.977 103.528 C 570.349 104.285, 570.132 105.840, 570.495 106.984 C 570.858 108.129, 570.381 112.349, 569.435 116.363 C 568.363 120.907, 567.971 125.034, 568.396 127.296 C 568.771 129.295, 569.536 131.213, 570.096 131.559 C 570.656 131.905, 572.242 131.905, 573.622 131.559 C 575.311 131.135, 576.754 129.555, 578.043 126.715 C 579.612 123.259, 579.960 120.134, 579.978 109.358 C 580 96.217, 580 96.217, 582.750 95.537 C 584.263 95.163, 586.737 93.680, 588.250 92.242 C 589.776 90.790, 591 88.546, 591 87.199 C 591 85.034, 590.678 84.839, 588 85.387 C 586.350 85.724, 583.679 86.272, 582.065 86.604 C 579.288 87.175, 579.098 87, 578.535 83.354 C 578.208 81.234, 577.497 78.099, 576.955 76.387 C 576.314 74.362, 576.306 70.896, 576.932 66.474 C 577.806 60.305, 578.317 59.247, 582.448 55.053 C 584.951 52.511, 587 49.884, 587 49.216 C 587 48.449, 585.431 48.008, 582.750 48.022 C 580.210 48.036, 577.675 48.740, 576.448 49.772 M 217.561 54.250 C 216.718 56.038, 215.571 59.924, 215.014 62.886 C 214.456 65.849, 214 70.405, 214 73.011 C 214 75.618, 213.719 79.156, 213.375 80.875 C 212.854 83.480, 212.285 84, 209.957 84 C 208.421 84, 206.452 84.273, 205.582 84.607 C 204.712 84.941, 204 86.045, 204 87.060 C 204 88.075, 204.520 90.046, 205.155 91.440 C 206.185 93.701, 206.724 93.908, 210.155 93.359 C 214 92.744, 214 92.744, 214 98.129 C 214 101.090, 214.438 105.039, 214.973 106.905 C 215.508 108.770, 216.962 111.780, 218.204 113.593 C 219.447 115.407, 221.482 117.354, 222.726 117.921 C 224.333 118.653, 226.074 118.597, 228.731 117.726 C 230.789 117.052, 232.599 115.825, 232.754 115 C 232.918 114.125, 231.468 112.667, 229.272 111.500 C 226.511 110.033, 225.149 108.435, 224.159 105.500 C 223.417 103.300, 222.740 99.276, 222.655 96.558 C 222.507 91.847, 222.641 91.581, 225.500 90.883 C 227.150 90.480, 231.127 89.585, 234.339 88.894 C 240.128 87.649, 240.172 87.612, 239.566 84.582 C 239.230 82.902, 238.348 80.920, 237.606 80.178 C 236.474 79.045, 235.159 79.158, 229.426 80.878 C 225.668 82.005, 222.480 82.814, 222.342 82.675 C 222.203 82.536, 222.730 77.940, 223.513 72.461 C 224.296 66.983, 224.951 60.613, 224.968 58.307 C 224.993 55.085, 224.485 53.753, 222.777 52.557 C 221.555 51.701, 220.226 51, 219.824 51 C 219.423 51, 218.404 52.462, 217.561 54.250 M 1017.822 54.250 C 1016.924 56.038, 1015.696 60.737, 1015.094 64.693 C 1014.492 68.649, 1014 74.611, 1014 77.943 C 1014 84, 1014 84, 1010.122 84 C 1007.842 84, 1005.716 84.638, 1004.960 85.548 C 1003.905 86.819, 1003.965 87.704, 1005.295 90.492 C 1006.789 93.626, 1007.188 93.844, 1010.457 93.313 C 1014 92.738, 1014 92.738, 1014 97.426 C 1014 100.005, 1014.499 104.095, 1015.108 106.516 C 1015.718 108.937, 1017.659 112.586, 1019.422 114.625 C 1021.837 117.420, 1023.393 118.333, 1025.735 118.333 C 1027.444 118.333, 1030.033 117.553, 1031.488 116.600 C 1033.516 115.271, 1033.877 114.556, 1033.034 113.541 C 1032.429 112.812, 1030.620 111.671, 1029.013 111.006 C 1026.807 110.092, 1025.736 108.659, 1024.634 105.148 C 1023.831 102.592, 1022.960 98.637, 1022.697 96.360 C 1022.277 92.715, 1022.511 92.088, 1024.657 91.110 C 1025.997 90.500, 1027.999 90, 1029.104 90 C 1030.210 90, 1033.114 89.497, 1035.557 88.881 C 1039.495 87.890, 1040 87.443, 1040 84.953 C 1040 83.407, 1039.267 81.410, 1038.371 80.514 C 1037.475 79.618, 1036.238 79.075, 1035.621 79.307 C 1035.004 79.539, 1031.864 80.491, 1028.643 81.423 C 1025.421 82.356, 1022.671 82.979, 1022.531 82.809 C 1022.392 82.639, 1022.866 78.675, 1023.584 74 C 1024.303 69.325, 1024.916 62.938, 1024.945 59.807 C 1024.991 55.022, 1024.645 53.865, 1022.777 52.557 C 1021.555 51.701, 1020.307 51, 1020.005 51 C 1019.702 51, 1018.720 52.462, 1017.822 54.250 M 707.267 54.250 C 706.729 54.938, 705.719 59.591, 705.023 64.590 C 704.326 69.590, 703.733 76.565, 703.705 80.090 C 703.677 83.616, 703.733 92.493, 703.828 99.817 C 703.924 107.142, 704.467 114.004, 705.036 115.067 C 705.605 116.130, 706.750 117, 707.581 117 C 708.411 117, 710.123 115.968, 711.385 114.706 C 713.412 112.679, 713.747 111.120, 714.266 101.277 C 714.589 95.153, 715.336 89.241, 715.926 88.139 C 716.515 87.037, 717.983 85.823, 719.187 85.441 C 720.773 84.937, 721.850 85.332, 723.098 86.873 C 724.046 88.043, 725.248 89, 725.771 89 C 726.294 89, 727.005 91.362, 727.352 94.250 C 727.699 97.138, 727.987 101.312, 727.991 103.527 C 727.996 105.743, 728.701 108.555, 729.557 109.777 C 730.413 111, 731.956 112, 732.985 112 C 734.015 112, 735.564 111.293, 736.429 110.429 C 737.528 109.329, 738 106.945, 738 102.488 C 738 98.984, 737.543 95.836, 736.985 95.491 C 736.427 95.146, 735.302 93.264, 734.485 91.309 C 733.668 89.355, 733 86.507, 733 84.981 C 733 83.058, 731.916 81.256, 729.465 79.104 C 727.521 77.397, 724.807 76, 723.433 76 C 722.060 76, 719.375 76.652, 717.468 77.449 C 715.561 78.246, 713.949 78.808, 713.886 78.699 C 713.823 78.590, 713.620 77.200, 713.435 75.610 C 713.250 74.021, 713.751 70.214, 714.549 67.150 C 715.347 64.086, 716 60.172, 716 58.450 C 716 56.067, 715.393 55.044, 713.453 54.161 C 712.052 53.522, 710.307 53, 709.575 53 C 708.844 53, 707.805 53.563, 707.267 54.250 M 97.902 56.660 C 97.023 56.895, 93.901 59.993, 90.964 63.544 C 88.026 67.095, 84.920 69.987, 84.062 69.970 C 83.203 69.954, 79.800 67.242, 76.500 63.944 C 73.200 60.646, 69.529 57.696, 68.343 57.389 C 67.157 57.081, 65.249 57.332, 64.103 57.945 C 62.958 58.558, 61.301 60.450, 60.422 62.151 C 59.543 63.851, 57.738 69.521, 56.412 74.749 C 54.773 81.210, 54 87.054, 54 92.989 C 54 97.791, 54.280 103.764, 54.622 106.260 C 55.223 110.646, 55.361 110.800, 58.685 110.800 C 61.444 110.800, 62.316 110.300, 63.086 108.274 C 63.614 106.885, 64.221 101.867, 64.435 97.124 C 64.649 92.381, 65.502 84.579, 66.330 79.787 C 67.159 74.995, 68.140 70.583, 68.510 69.984 C 68.912 69.333, 71.964 71.764, 76.084 76.017 C 81.826 81.944, 83.364 83.026, 85.242 82.462 C 86.484 82.090, 89.350 80.001, 91.611 77.821 C 95.721 73.857, 95.721 73.857, 96.541 77.179 C 96.991 79.005, 97.431 88.978, 97.518 99.341 C 97.638 113.627, 97.992 118.377, 98.982 118.989 C 99.700 119.433, 101.488 119.377, 102.955 118.866 C 104.421 118.355, 107.304 116.550, 109.359 114.856 C 113.097 111.775, 113.097 111.775, 112.442 101.137 C 112.081 95.287, 110.735 83.376, 109.449 74.669 C 108.163 65.963, 106.581 58.200, 105.933 57.419 C 105.285 56.639, 103.573 56.052, 102.128 56.116 C 100.682 56.180, 98.781 56.425, 97.902 56.660 M 881.965 59.543 C 881.264 60.386, 880.508 65.084, 880.236 70.272 C 879.754 79.500, 879.754 79.500, 875.627 79.502 C 873.046 79.503, 869.253 80.626, 865.500 82.502 C 860.231 85.134, 859.179 86.170, 856.863 91 C 854.854 95.189, 854.315 97.635, 854.599 101.263 C 854.804 103.883, 855.699 107.138, 856.589 108.496 C 857.479 109.854, 859.676 111.873, 861.472 112.982 C 863.383 114.164, 866.469 115, 868.918 115 C 871.218 115, 874.427 114.313, 876.050 113.474 C 877.672 112.635, 879 111.510, 879 110.974 C 879 110.438, 879.638 110, 880.418 110 C 881.197 110, 882.660 111.688, 883.668 113.750 C 885.027 116.531, 886.212 117.582, 888.256 117.817 C 890.158 118.036, 891.220 117.591, 891.684 116.380 C 892.054 115.416, 891.593 109.873, 890.660 104.063 C 889.405 96.256, 889.083 89.717, 889.425 79 C 889.794 67.455, 889.594 64.049, 888.444 62.285 C 887.650 61.067, 886.147 59.614, 885.105 59.056 C 883.694 58.301, 882.892 58.425, 881.965 59.543 M 439.217 67.644 C 439.650 71.965, 440.466 80.675, 441.031 87 C 441.596 93.325, 442.195 100.300, 442.362 102.500 C 442.530 104.700, 442.742 107.878, 442.833 109.561 C 442.925 111.245, 443.918 113.608, 445.039 114.811 C 446.476 116.353, 448.252 117, 451.051 117 C 455.024 117, 455.024 117, 454.526 113.250 C 454.252 111.188, 453.385 104.550, 452.599 98.500 C 451.813 92.450, 451.198 86.825, 451.230 86 C 451.263 85.175, 450.746 81.925, 450.080 78.777 C 449.414 75.629, 449.152 71.129, 449.498 68.777 C 449.926 65.859, 449.689 63.912, 448.752 62.648 C 447.910 61.514, 445.646 60.602, 442.904 60.293 C 438.429 59.788, 438.429 59.788, 439.217 67.644 M 599.233 68.143 C 599.687 72.739, 600.505 81.450, 601.052 87.500 C 601.598 93.550, 602.081 99.850, 602.125 101.500 C 602.169 103.150, 602.417 106.445, 602.675 108.822 C 602.936 111.231, 603.998 113.998, 605.072 115.072 C 606.341 116.341, 608.384 117, 611.045 117 C 615.050 117, 615.085 116.967, 614.567 113.750 C 614.280 111.963, 613.362 105.325, 612.528 99 C 611.694 92.675, 610.725 85.475, 610.375 83 C 610.024 80.525, 609.655 75.006, 609.554 70.735 C 609.453 66.464, 608.876 62.476, 608.272 61.872 C 607.668 61.268, 605.202 60.552, 602.791 60.280 C 598.408 59.786, 598.408 59.786, 599.233 68.143 M 180.726 65.408 C 177.550 66.090, 174.502 67.098, 173.953 67.647 C 173.403 68.197, 172.771 69.594, 172.548 70.752 C 172.325 71.910, 171.210 73.790, 170.071 74.929 C 168.932 76.068, 168 77.983, 168 79.184 C 168 80.386, 168.935 83.299, 170.077 85.659 C 171.219 88.018, 172.507 89.848, 172.939 89.724 C 173.371 89.601, 176.036 91.439, 178.862 93.810 C 182.656 96.992, 184 98.808, 184 100.755 C 184 102.253, 182.840 104.601, 181.313 106.195 C 179.835 107.738, 177.962 109, 177.151 109 C 176.340 109, 173.161 109.764, 170.088 110.698 C 167.015 111.632, 164.348 112.497, 164.162 112.620 C 163.976 112.742, 164.876 114.266, 166.162 116.005 C 168.429 119.072, 168.667 119.148, 174 118.505 C 177.025 118.140, 182.666 116.331, 186.536 114.486 C 190.405 112.641, 194.455 110.154, 195.536 108.960 C 196.912 107.439, 197.471 105.459, 197.403 102.350 C 197.324 98.741, 196.670 97.242, 193.903 94.331 C 192.031 92.361, 188.230 89.277, 185.457 87.477 C 182.683 85.676, 179.820 83.488, 179.095 82.614 C 178.316 81.675, 178.033 80.004, 178.404 78.525 C 178.793 76.978, 180.474 75.289, 182.813 74.096 C 184.892 73.035, 188.296 71.848, 190.376 71.457 C 192.457 71.067, 194.419 70.072, 194.736 69.246 C 195.079 68.352, 194.338 66.995, 192.906 65.894 C 191.583 64.877, 189.600 64.072, 188.500 64.106 C 187.400 64.140, 183.902 64.726, 180.726 65.408 M 681.564 65.061 C 678.849 65.516, 675.514 66.719, 674.153 67.735 C 672.792 68.751, 671.572 70.307, 671.442 71.192 C 671.312 72.078, 670.224 74.130, 669.025 75.753 C 667.081 78.382, 666.964 79.153, 667.954 82.830 C 668.596 85.212, 670.127 87.705, 671.577 88.728 C 672.959 89.703, 676.094 92.241, 678.545 94.369 C 681.664 97.078, 683 99.010, 683 100.814 C 683 102.248, 681.808 104.635, 680.313 106.195 C 678.835 107.738, 676.962 109, 676.151 109 C 675.340 109, 672.161 109.764, 669.088 110.698 C 666.015 111.632, 663.308 112.537, 663.073 112.709 C 662.838 112.880, 663.961 114.393, 665.568 116.071 C 668.290 118.913, 668.831 119.076, 673.495 118.474 C 676.248 118.118, 681.564 116.437, 685.308 114.739 C 689.053 113.040, 693.262 110.288, 694.663 108.624 C 696.719 106.180, 697.111 104.864, 696.698 101.788 C 696.383 99.440, 694.934 96.542, 692.923 94.239 C 691.127 92.182, 687.823 89.422, 685.579 88.105 C 683.336 86.788, 680.487 84.797, 679.250 83.681 C 678.013 82.565, 677 80.870, 677 79.915 C 677 78.959, 678.370 77.025, 680.045 75.615 C 681.720 74.206, 684.983 72.569, 687.295 71.977 C 689.608 71.385, 692.063 70.713, 692.750 70.482 C 693.438 70.251, 694 69.425, 694 68.646 C 694 67.867, 692.891 66.503, 691.535 65.615 C 690.180 64.727, 688.492 64.053, 687.785 64.118 C 687.078 64.182, 684.279 64.607, 681.564 65.061 M 939.564 65.061 C 936.849 65.516, 933.514 66.719, 932.153 67.735 C 930.792 68.751, 929.572 70.307, 929.442 71.192 C 929.312 72.078, 928.224 74.130, 927.025 75.753 C 925.081 78.382, 924.964 79.153, 925.954 82.830 C 926.596 85.212, 928.127 87.705, 929.577 88.728 C 930.959 89.703, 934.094 92.241, 936.545 94.369 C 939.664 97.078, 941 99.010, 941 100.814 C 941 102.248, 939.808 104.635, 938.313 106.195 C 936.835 107.738, 934.962 109, 934.151 109 C 933.340 109, 930.161 109.764, 927.088 110.698 C 924.015 111.632, 921.308 112.537, 921.073 112.709 C 920.838 112.880, 921.961 114.393, 923.568 116.071 C 926.290 118.913, 926.831 119.076, 931.495 118.474 C 934.248 118.118, 939.564 116.437, 943.308 114.739 C 947.053 113.040, 951.262 110.288, 952.663 108.624 C 954.719 106.180, 955.111 104.864, 954.698 101.788 C 954.383 99.440, 952.934 96.542, 950.923 94.239 C 949.127 92.182, 945.823 89.422, 943.579 88.105 C 941.336 86.788, 938.487 84.797, 937.250 83.681 C 936.013 82.565, 935 80.870, 935 79.915 C 935 78.959, 936.370 77.025, 938.045 75.615 C 939.720 74.206, 942.983 72.569, 945.295 71.977 C 947.608 71.385, 950.063 70.713, 950.750 70.482 C 951.438 70.251, 952 69.425, 952 68.646 C 952 67.867, 950.891 66.503, 949.535 65.615 C 948.180 64.727, 946.492 64.053, 945.785 64.118 C 945.078 64.182, 942.279 64.607, 939.564 65.061 M 756 69.071 C 753.525 70.200, 750.445 72.109, 749.155 73.312 C 747.865 74.515, 746.152 76.765, 745.348 78.311 C 744.543 79.858, 743.729 83.683, 743.538 86.811 C 743.346 89.940, 743.639 94.300, 744.187 96.500 C 744.889 99.311, 746.704 101.912, 750.298 105.250 C 753.313 108.052, 756.352 110, 757.705 110 C 758.967 110, 760 110.450, 760 111 C 760 111.550, 761.575 112, 763.500 112 C 765.667 112, 767.762 111.238, 769 110 C 770.100 108.900, 771 107.594, 771 107.098 C 771 106.602, 769.650 105.725, 768 105.150 C 766.350 104.575, 765 104.315, 765 104.572 C 765 104.830, 763.238 104.142, 761.084 103.043 C 758.931 101.944, 756.228 99.724, 755.078 98.109 C 753.799 96.313, 752.741 92.811, 752.351 89.088 C 751.715 83.003, 751.715 83.003, 757.890 76.789 C 761.286 73.372, 763.933 69.889, 763.771 69.050 C 763.609 68.210, 762.807 67.409, 761.989 67.270 C 761.170 67.131, 758.475 67.942, 756 69.071 M 522 71.930 C 520.075 72.315, 517.422 73.214, 516.103 73.929 C 514.055 75.039, 513.576 74.994, 512.807 73.620 C 512.143 72.432, 510.809 72.111, 507.704 72.391 C 505.392 72.599, 503.511 73.159, 503.524 73.635 C 503.537 74.111, 503.916 76.750, 504.367 79.500 C 504.818 82.250, 505.567 84.963, 506.032 85.529 C 506.497 86.094, 507.144 90.144, 507.470 94.529 C 507.796 98.913, 508.588 104.075, 509.230 106 C 509.871 107.925, 510.274 110.314, 510.125 111.310 C 509.976 112.305, 510.392 113.767, 511.049 114.560 C 511.707 115.352, 513.260 116, 514.500 116 C 515.740 116, 517.325 115.314, 518.021 114.475 C 518.949 113.356, 519.084 111.029, 518.528 105.725 C 518.111 101.751, 517.630 95.284, 517.459 91.353 C 517.147 84.205, 517.147 84.205, 522.207 82.103 C 524.990 80.946, 528.130 80, 529.184 80 C 530.445 80, 531.624 78.752, 532.625 76.355 C 533.877 73.359, 533.912 72.560, 532.824 71.870 C 532.096 71.408, 530.150 71.075, 528.500 71.130 C 526.850 71.185, 523.925 71.545, 522 71.930 M 838 71.930 C 836.075 72.315, 833.422 73.214, 832.103 73.929 C 830.055 75.039, 829.576 74.994, 828.807 73.620 C 828.143 72.432, 826.809 72.111, 823.704 72.391 C 821.392 72.599, 819.511 73.159, 819.524 73.635 C 819.537 74.111, 819.916 76.750, 820.367 79.500 C 820.818 82.250, 821.567 84.963, 822.032 85.529 C 822.497 86.094, 823.144 90.144, 823.470 94.529 C 823.796 98.913, 824.588 104.075, 825.230 106 C 825.871 107.925, 826.274 110.314, 826.125 111.310 C 825.976 112.305, 826.392 113.767, 827.049 114.560 C 827.707 115.352, 829.260 116, 830.500 116 C 831.740 116, 833.325 115.314, 834.021 114.475 C 834.949 113.356, 835.084 111.029, 834.528 105.725 C 834.111 101.751, 833.630 95.284, 833.459 91.353 C 833.147 84.205, 833.147 84.205, 838.207 82.103 C 840.990 80.946, 844.130 80, 845.184 80 C 846.445 80, 847.624 78.752, 848.625 76.355 C 849.877 73.359, 849.912 72.560, 848.824 71.870 C 848.096 71.408, 846.150 71.075, 844.500 71.130 C 842.850 71.185, 839.925 71.545, 838 71.930 M 132.639 73.992 C 129.965 75.037, 126.923 76.664, 125.879 77.610 C 124.835 78.555, 123.310 81.586, 122.490 84.346 C 121.671 87.105, 121.034 91.419, 121.076 93.932 C 121.118 96.444, 121.680 99.893, 122.326 101.595 C 122.972 103.297, 125.389 106.822, 127.698 109.426 C 131.126 113.295, 132.945 114.437, 137.626 115.659 C 140.778 116.482, 144.788 116.887, 146.538 116.559 C 148.688 116.155, 151.014 114.426, 153.715 111.222 C 155.914 108.616, 158.020 105.512, 158.397 104.326 C 158.773 103.139, 158.655 101.905, 158.135 101.583 C 157.548 101.221, 157.604 99.641, 158.283 97.430 C 159.102 94.761, 159.064 92.690, 158.133 89.209 C 157.449 86.650, 156.007 83.129, 154.929 81.385 C 153.851 79.640, 151.445 77.490, 149.583 76.606 C 147.721 75.723, 144.851 75, 143.206 75 C 141.469 75, 139.973 74.371, 139.638 73.500 C 139.322 72.675, 138.711 72.021, 138.281 72.047 C 137.852 72.073, 135.313 72.948, 132.639 73.992 M 322 72.682 C 321.175 72.970, 318.670 74.059, 316.434 75.103 C 313.841 76.313, 311.616 78.358, 310.290 80.750 C 309.147 82.813, 307.900 86.838, 307.519 89.697 C 307.042 93.279, 307.311 96.540, 308.385 100.197 C 309.471 103.892, 311.311 106.898, 314.454 110.110 C 318.209 113.948, 319.961 114.931, 324.921 115.983 C 328.197 116.679, 331.970 116.973, 333.305 116.638 C 334.640 116.303, 337.870 113.527, 340.482 110.469 C 344.498 105.768, 345.141 104.453, 344.641 101.954 C 344.316 100.329, 344.431 97.987, 344.897 96.750 C 345.424 95.348, 345.224 92.481, 344.366 89.146 C 343.608 86.201, 342.055 82.481, 340.915 80.881 C 339.775 79.280, 337.550 77.302, 335.971 76.485 C 334.391 75.668, 331.775 75, 330.157 75 C 328.463 75, 326.970 74.363, 326.638 73.500 C 326.322 72.675, 325.486 72.036, 324.781 72.079 C 324.077 72.122, 322.825 72.394, 322 72.682 M 282 75.307 C 279.525 75.849, 275.958 76.253, 274.074 76.205 C 272.190 76.157, 269.835 76.553, 268.840 77.086 C 267.153 77.989, 267.072 79.475, 267.634 99.277 C 267.965 110.950, 268.208 122.300, 268.173 124.500 C 268.138 126.700, 267.972 130.019, 267.804 131.876 C 267.559 134.594, 268.042 135.659, 270.286 137.348 C 272.448 138.974, 273.456 139.203, 274.786 138.366 C 276.194 137.480, 276.550 135.418, 276.782 126.824 C 277.064 116.362, 277.064 116.362, 282.091 115.073 C 284.855 114.365, 287.649 112.933, 288.299 111.893 C 288.949 110.852, 289.957 110, 290.538 110 C 291.119 110, 293.267 108.287, 295.311 106.193 C 297.356 104.099, 299.487 100.837, 300.046 98.943 C 300.605 97.049, 300.787 93.399, 300.449 90.830 C 300.094 88.131, 299.025 85.428, 297.917 84.425 C 296.863 83.471, 296 81.915, 296 80.967 C 296 80.020, 295.403 78.749, 294.673 78.144 C 293.944 77.538, 291.806 76.431, 289.923 75.682 C 287.354 74.661, 285.377 74.568, 282 75.307 M 367 75.307 C 364.525 75.849, 360.958 76.253, 359.074 76.205 C 357.190 76.157, 354.835 76.553, 353.840 77.086 C 352.153 77.989, 352.072 79.475, 352.634 99.277 C 352.965 110.950, 353.208 122.300, 353.173 124.500 C 353.138 126.700, 352.972 130.019, 352.804 131.876 C 352.559 134.594, 353.042 135.659, 355.286 137.348 C 357.448 138.974, 358.456 139.203, 359.786 138.366 C 361.194 137.480, 361.550 135.418, 361.782 126.824 C 362.064 116.362, 362.064 116.362, 367.091 115.073 C 369.855 114.365, 372.649 112.933, 373.299 111.893 C 373.949 110.852, 374.957 110, 375.538 110 C 376.119 110, 378.267 108.287, 380.311 106.193 C 382.356 104.099, 384.487 100.837, 385.046 98.943 C 385.605 97.049, 385.787 93.399, 385.449 90.830 C 385.094 88.131, 384.025 85.428, 382.917 84.425 C 381.863 83.471, 381 81.915, 381 80.967 C 381 80.020, 380.403 78.749, 379.673 78.144 C 378.944 77.538, 376.806 76.431, 374.923 75.682 C 372.354 74.661, 370.377 74.568, 367 75.307 M 972.796 77.755 C 966.557 80.788, 964.792 82.166, 963.513 85 C 962.644 86.925, 961.836 90.879, 961.717 93.786 C 961.598 96.693, 961.976 99.393, 962.557 99.786 C 963.138 100.179, 964.192 101.930, 964.898 103.678 C 965.605 105.425, 966.929 107.522, 967.841 108.337 C 968.754 109.152, 971.705 110.984, 974.399 112.409 C 977.372 113.981, 980.913 115, 983.406 115 C 985.665 115, 989.045 114.561, 990.917 114.024 C 992.789 113.487, 995.373 112.059, 996.660 110.850 C 997.947 109.641, 999 107.631, 999 106.385 C 999 105.138, 998.519 103.821, 997.930 103.457 C 997.342 103.093, 994.948 103.811, 992.609 105.051 C 989.652 106.620, 987.543 107.102, 985.679 106.634 C 984.206 106.264, 983 105.520, 983 104.981 C 983 104.441, 983.676 104, 984.503 104 C 985.330 104, 988.210 101.862, 990.903 99.250 C 994.063 96.185, 996.180 93.102, 996.872 90.561 C 997.461 88.394, 997.660 85.469, 997.313 84.061 C 996.967 82.652, 996.049 80.519, 995.273 79.321 C 994.497 78.122, 991.788 76.434, 989.253 75.571 C 986.718 74.707, 983.711 74.002, 982.572 74.005 C 981.432 74.008, 977.033 75.695, 972.796 77.755 M 420.212 78.750 C 419.593 80.853, 419.364 85.235, 419.691 88.726 C 420.045 92.507, 419.778 96.721, 419.012 99.457 C 418.318 101.935, 417.108 104.496, 416.322 105.148 C 415.536 105.800, 413.579 106.333, 411.972 106.333 C 409.966 106.333, 408.337 105.446, 406.775 103.500 C 405.524 101.942, 403.953 99.729, 403.285 98.583 C 402.617 97.437, 402.055 93.045, 402.035 88.823 C 402.003 81.740, 401.796 80.985, 399.365 79.073 C 397.916 77.933, 396.125 77, 395.384 77 C 394.644 77, 393.705 78.237, 393.298 79.750 C 392.892 81.263, 392.603 85.705, 392.657 89.621 C 392.743 95.833, 393.243 97.670, 396.571 104.004 C 398.960 108.549, 401.530 111.962, 403.443 113.129 C 405.125 114.155, 407.991 115.276, 409.814 115.620 C 412.010 116.035, 414.456 115.647, 417.069 114.469 C 419.238 113.491, 421.498 112.105, 422.093 111.388 C 422.754 110.591, 424.271 110.304, 425.995 110.649 C 428.199 111.090, 429.067 110.743, 429.965 109.065 C 430.598 107.883, 431.152 104.797, 431.197 102.208 C 431.242 99.619, 430.735 93.900, 430.071 89.500 C 429.407 85.100, 428.681 80.565, 428.456 79.421 C 428.232 78.278, 426.891 76.816, 425.477 76.171 C 424.063 75.527, 422.548 75, 422.111 75 C 421.674 75, 420.820 76.688, 420.212 78.750 M 476.153 79.236 C 473.212 80.394, 470.542 82.052, 470.219 82.921 C 469.896 83.789, 468.868 85.050, 467.935 85.723 C 467.002 86.396, 465.499 88.794, 464.596 91.052 C 463.692 93.311, 462.691 97.710, 462.370 100.829 C 461.873 105.667, 462.105 106.901, 463.950 109.230 C 465.140 110.732, 467.776 112.720, 469.807 113.648 C 471.838 114.577, 473.757 115.463, 474.072 115.617 C 474.386 115.771, 475.961 115.197, 477.572 114.340 C 479.182 113.483, 481.771 112.403, 483.323 111.940 C 485.793 111.203, 486.527 111.530, 489.177 114.549 C 490.844 116.447, 493.005 118, 493.981 118 C 494.957 118, 496.270 117.380, 496.899 116.622 C 497.748 115.599, 497.755 114.503, 496.926 112.372 C 496.237 110.599, 495.942 104.547, 496.155 96.553 C 496.497 83.726, 496.478 83.600, 494.191 83.053 C 492.921 82.749, 491.974 82.115, 492.086 81.645 C 492.199 81.175, 491.676 79.938, 490.925 78.895 C 489.955 77.550, 488.389 77.019, 485.529 77.065 C 483.313 77.101, 479.094 78.077, 476.153 79.236 M 636.153 79.236 C 633.212 80.394, 630.541 82.034, 630.216 82.880 C 629.891 83.726, 628.569 85.336, 627.277 86.459 C 625.930 87.630, 624.309 90.845, 623.476 94 C 622.677 97.025, 622.018 101.127, 622.012 103.115 C 622.005 105.285, 622.837 107.795, 624.095 109.393 C 625.247 110.858, 627.947 112.952, 630.095 114.048 C 633.943 116.012, 634.055 116.013, 637.750 114.149 C 639.813 113.108, 642.502 111.947, 643.728 111.568 C 645.486 111.024, 646.613 111.629, 649.081 114.440 C 650.800 116.398, 653.005 118, 653.981 118 C 654.957 118, 656.256 117.396, 656.869 116.658 C 657.481 115.920, 657.739 115.073, 657.442 114.775 C 657.144 114.478, 656.494 110.287, 655.996 105.462 C 655.376 99.452, 655.441 95.381, 656.202 92.535 C 656.813 90.251, 657.009 87.171, 656.637 85.691 C 656.188 83.903, 655.297 83, 653.981 83 C 652.812 83, 652 82.328, 652 81.360 C 652 80.458, 651.212 79.123, 650.250 78.392 C 649.288 77.661, 646.925 77.078, 645 77.097 C 643.075 77.115, 639.094 78.077, 636.153 79.236 M 792.153 79.236 C 789.212 80.394, 786.542 82.052, 786.219 82.921 C 785.896 83.789, 784.868 85.050, 783.935 85.723 C 783.002 86.396, 781.499 88.794, 780.596 91.052 C 779.692 93.311, 778.691 97.710, 778.370 100.829 C 777.873 105.667, 778.105 106.901, 779.950 109.230 C 781.140 110.732, 783.776 112.720, 785.807 113.648 C 787.838 114.577, 789.757 115.463, 790.072 115.617 C 790.386 115.771, 791.961 115.197, 793.572 114.340 C 795.182 113.483, 797.771 112.403, 799.323 111.940 C 801.793 111.203, 802.527 111.530, 805.177 114.549 C 806.844 116.447, 809.005 118, 809.981 118 C 810.957 118, 812.270 117.380, 812.899 116.622 C 813.748 115.599, 813.755 114.503, 812.926 112.372 C 812.237 110.599, 811.942 104.547, 812.155 96.553 C 812.497 83.726, 812.478 83.600, 810.191 83.053 C 808.921 82.749, 807.974 82.115, 808.086 81.645 C 808.199 81.175, 807.676 79.938, 806.925 78.895 C 805.955 77.550, 804.389 77.019, 801.529 77.065 C 799.313 77.101, 795.094 78.077, 792.153 79.236 M 132.944 84.223 C 131.191 86.141, 130 88.551, 130 90.176 C 130 91.677, 130.419 93.940, 130.931 95.203 C 131.443 96.466, 132.118 98.703, 132.431 100.173 C 132.743 101.643, 134.165 104.231, 135.589 105.923 C 137.188 107.824, 139.118 109, 140.639 109 C 141.992 109, 144.366 108.345, 145.915 107.544 C 147.463 106.743, 149.464 104.542, 150.361 102.652 C 151.536 100.176, 151.814 97.859, 151.355 94.358 C 151.005 91.686, 150.110 88.290, 149.365 86.811 C 148.621 85.332, 147.009 83.419, 145.783 82.561 C 144.558 81.702, 141.830 81, 139.721 81 C 136.678 81, 135.280 81.665, 132.944 84.223 M 319.465 84.468 C 317.082 86.995, 316.278 88.690, 316.501 90.718 C 316.669 92.248, 317.500 95.918, 318.346 98.874 C 319.192 101.830, 320.889 105.317, 322.117 106.624 C 323.344 107.931, 325.418 109, 326.724 109 C 328.030 109, 330.419 108.317, 332.033 107.483 C 333.646 106.649, 335.643 104.658, 336.470 103.059 C 337.505 101.057, 337.823 98.387, 337.491 94.488 C 337.226 91.373, 336.258 87.552, 335.339 85.997 C 334.421 84.443, 332.598 82.682, 331.288 82.085 C 329.978 81.488, 327.518 81, 325.821 81 C 323.596 81, 321.824 81.967, 319.465 84.468 M 976.677 84.040 C 975.183 85.215, 973.257 87.535, 972.399 89.196 C 971.470 90.992, 971.093 93.235, 971.469 94.733 C 972.050 97.047, 972.440 97.204, 976.300 96.687 C 979.437 96.266, 981.334 95.212, 983.800 92.521 C 986.398 89.686, 987.025 88.234, 986.741 85.709 C 986.419 82.849, 986 82.468, 982.887 82.201 C 980.494 81.997, 978.538 82.576, 976.677 84.040 M 279.662 84.725 C 276.883 85.141, 276.831 85.267, 277.141 90.825 C 277.315 93.946, 277.192 96.950, 276.868 97.500 C 276.544 98.050, 276.230 100.183, 276.170 102.240 C 276.062 105.968, 276.073 105.978, 279.662 105.519 C 281.642 105.265, 284.322 104.364, 285.617 103.515 C 286.913 102.666, 288.619 100.966, 289.410 99.736 C 290.201 98.506, 290.995 95.504, 291.174 93.064 C 291.474 88.985, 291.227 88.442, 288.102 86.314 C 286.233 85.041, 284.208 84.067, 283.602 84.150 C 282.996 84.232, 281.223 84.491, 279.662 84.725 M 364.662 84.725 C 361.883 85.141, 361.831 85.267, 362.141 90.825 C 362.315 93.946, 362.192 96.950, 361.868 97.500 C 361.544 98.050, 361.230 100.183, 361.170 102.240 C 361.062 105.968, 361.073 105.978, 364.662 105.519 C 366.642 105.265, 369.322 104.364, 370.617 103.515 C 371.913 102.666, 373.619 100.966, 374.410 99.736 C 375.201 98.506, 375.995 95.504, 376.174 93.064 C 376.474 88.985, 376.227 88.442, 373.102 86.314 C 371.233 85.041, 369.208 84.067, 368.602 84.150 C 367.996 84.232, 366.223 84.491, 364.662 84.725 M 481.001 88.123 C 479.626 88.672, 477.446 90.106, 476.155 91.310 C 474.865 92.515, 473.178 94.715, 472.405 96.200 C 471.632 97.686, 471 100.723, 471 102.950 C 471 106.279, 471.342 107, 472.923 107 C 473.981 107, 476.193 105.867, 477.839 104.482 C 479.484 103.098, 482.025 99.927, 483.485 97.436 C 485.466 94.056, 485.974 92.158, 485.490 89.954 C 485.133 88.329, 484.539 87.029, 484.171 87.063 C 483.802 87.098, 482.375 87.575, 481.001 88.123 M 641.001 88.123 C 639.626 88.672, 637.446 90.106, 636.155 91.310 C 634.865 92.515, 633.178 94.715, 632.405 96.200 C 631.632 97.686, 631 100.723, 631 102.950 C 631 106.279, 631.342 107, 632.923 107 C 633.981 107, 636.139 105.912, 637.719 104.583 C 639.299 103.253, 641.824 99.903, 643.329 97.137 C 645.249 93.609, 645.874 91.347, 645.424 89.555 C 645.072 88.150, 644.494 87.029, 644.142 87.063 C 643.789 87.098, 642.375 87.575, 641.001 88.123 M 797.001 88.123 C 795.626 88.672, 793.446 90.106, 792.155 91.310 C 790.865 92.515, 789.178 94.715, 788.405 96.200 C 787.632 97.686, 787 100.723, 787 102.950 C 787 106.279, 787.342 107, 788.923 107 C 789.981 107, 792.193 105.867, 793.839 104.482 C 795.484 103.098, 798.025 99.927, 799.485 97.436 C 801.466 94.056, 801.974 92.158, 801.490 89.954 C 801.133 88.329, 800.539 87.029, 800.171 87.063 C 799.802 87.098, 798.375 87.575, 797.001 88.123 M 873.530 89.565 C 869.336 90.440, 866.895 91.583, 865.325 93.409 C 864.095 94.838, 862.793 97.586, 862.431 99.515 C 862.014 101.738, 862.226 103.567, 863.009 104.511 C 863.689 105.330, 865.569 106, 867.188 106 C 868.807 106, 870.971 105.551, 871.996 105.002 C 873.022 104.453, 874.846 102.621, 876.050 100.930 C 877.254 99.239, 878.836 95.874, 879.564 93.452 C 880.293 91.031, 880.577 88.886, 880.195 88.685 C 879.813 88.485, 876.814 88.881, 873.530 89.565" stroke="none" fill="#F987AF" fill-rule="evenodd"/></svg>