<svg xmlns="http://www.w3.org/2000/svg" width="611" height="408" viewBox="0 0 611 408" version="1.1"><path d="M 197 234 L 197 408 306 408 L 415 408 415 234 L 415 60 306 60 L 197 60 197 234 M 300.975 114.565 C 300.439 115.976, 300 126.297, 300 137.500 C 300 148.703, 300.439 159.024, 300.975 160.435 C 301.765 162.512, 302.614 163, 305.440 163 C 307.867 163, 309.245 162.411, 309.965 161.066 C 310.587 159.903, 311 150.499, 311 137.500 C 311 124.501, 310.587 115.097, 309.965 113.934 C 309.245 112.589, 307.867 112, 305.440 112 C 302.614 112, 301.765 112.488, 300.975 114.565 M 154.487 160.250 L 153.500 162.500 81.750 162.757 L 10 163.013 10 285.507 L 10 408 98 408 L 186 408 186 283 L 186 158 170.737 158 C 155.868 158, 155.449 158.058, 154.487 160.250 M 73.655 216.829 C 72.218 218.417, 72 221.631, 72 241.257 C 72 265.627, 72.287 267, 77.371 267 C 81.808 267, 82 265.914, 82 240.835 C 82 218.363, 81.895 217.014, 80.066 216.035 C 77.270 214.539, 75.533 214.754, 73.655 216.829 M 115.750 216.080 C 114.161 217.006, 114 219.285, 114 240.850 C 114 265.913, 114.192 267, 118.629 267 C 123.718 267, 124 265.642, 124 241.084 C 124 220.291, 123.841 218.166, 122.171 216.655 C 120.091 214.772, 118.275 214.610, 115.750 216.080 M 425 324.500 L 425 408 513 408 L 601 408 601 327 L 601 246 529.479 246 L 457.957 246 456.818 243.500 L 455.679 241 440.339 241 L 425 241 425 324.500 M 468.695 299.250 C 467.208 300.352, 466.982 303.248, 466.791 323.642 C 466.560 348.460, 466.838 350, 471.551 350 C 476.730 350, 477 348.712, 477 323.985 C 477 301.484, 476.964 301.088, 474.777 299.557 C 472.088 297.673, 470.904 297.613, 468.695 299.250 M 510.223 299.557 C 508.038 301.087, 508 301.496, 508 323.622 C 508 337.226, 508.410 346.897, 509.035 348.066 C 510.208 350.258, 514.899 350.701, 516.800 348.800 C 517.666 347.934, 518 340.986, 518 323.835 C 518 301.363, 517.895 300.014, 516.066 299.035 C 513.500 297.662, 512.844 297.720, 510.223 299.557 M 551.750 299.080 C 550.161 300.006, 550 302.285, 550 323.850 C 550 340.989, 550.334 347.934, 551.200 348.800 C 553.101 350.701, 557.792 350.258, 558.965 348.066 C 559.590 346.897, 560 337.226, 560 323.622 C 560 301.496, 559.962 301.087, 557.777 299.557 C 555.206 297.756, 554.165 297.673, 551.750 299.080" stroke="none" fill="#f8ff95" fill-rule="evenodd"/><path d="M 188.223 50.557 L 186 52.113 186 230.057 L 186 408 191.500 408 L 197 408 197 234 L 197 60 306 60 L 415 60 415 234 L 415 408 420 408 L 425 408 425 230.057 L 425 52.113 422.777 50.557 C 420.797 49.170, 408.015 49, 305.500 49 C 202.985 49, 190.203 49.170, 188.223 50.557 M 300.975 114.565 C 300.439 115.976, 300 126.297, 300 137.500 C 300 148.703, 300.439 159.024, 300.975 160.435 C 301.765 162.512, 302.614 163, 305.440 163 C 307.867 163, 309.245 162.411, 309.965 161.066 C 310.587 159.903, 311 150.499, 311 137.500 C 311 124.501, 310.587 115.097, 309.965 113.934 C 309.245 112.589, 307.867 112, 305.440 112 C 302.614 112, 301.765 112.488, 300.975 114.565 M 1.200 154.200 C 0.279 155.121, 0 184.800, 0 281.700 L 0 408 5 408 L 10 408 10 285.500 L 10 163 81.300 163 C 135.422 163, 152.889 162.711, 153.800 161.800 C 155.483 160.117, 155.294 156.436, 153.429 154.571 C 152.028 153.171, 143.730 153, 77.129 153 C 20.340 153, 2.112 153.288, 1.200 154.200 M 73.655 216.829 C 72.218 218.417, 72 221.631, 72 241.257 C 72 265.627, 72.287 267, 77.371 267 C 81.808 267, 82 265.914, 82 240.835 C 82 218.363, 81.895 217.014, 80.066 216.035 C 77.270 214.539, 75.533 214.754, 73.655 216.829 M 115.750 216.080 C 114.161 217.006, 114 219.285, 114 240.850 C 114 265.913, 114.192 267, 118.629 267 C 123.718 267, 124 265.642, 124 241.084 C 124 220.291, 123.841 218.166, 122.171 216.655 C 120.091 214.772, 118.275 214.610, 115.750 216.080 M 457.473 238.030 C 456.017 239.639, 455.834 240.625, 456.592 242.780 L 457.548 245.500 529.274 245.757 L 601 246.013 601 327.007 L 601 408 606 408 L 611 408 611 323.200 C 611 258.578, 610.714 238.114, 609.800 237.200 C 608.888 236.288, 590.679 236, 533.955 236 C 460.209 236, 459.288 236.024, 457.473 238.030 M 468.695 299.250 C 467.208 300.352, 466.982 303.248, 466.791 323.642 C 466.560 348.460, 466.838 350, 471.551 350 C 476.730 350, 477 348.712, 477 323.985 C 477 301.484, 476.964 301.088, 474.777 299.557 C 472.088 297.673, 470.904 297.613, 468.695 299.250 M 510.223 299.557 C 508.038 301.087, 508 301.496, 508 323.622 C 508 337.226, 508.410 346.897, 509.035 348.066 C 510.208 350.258, 514.899 350.701, 516.800 348.800 C 517.666 347.934, 518 340.986, 518 323.835 C 518 301.363, 517.895 300.014, 516.066 299.035 C 513.500 297.662, 512.844 297.720, 510.223 299.557 M 551.750 299.080 C 550.161 300.006, 550 302.285, 550 323.850 C 550 340.989, 550.334 347.934, 551.200 348.800 C 553.101 350.701, 557.792 350.258, 558.965 348.066 C 559.590 346.897, 560 337.226, 560 323.622 C 560 301.496, 559.962 301.087, 557.777 299.557 C 555.206 297.756, 554.165 297.673, 551.750 299.080" stroke="none" fill="#F7D100" fill-rule="evenodd"/></svg>