<!DOCTYPE svg PUBLIC "-//W3C//DTD SVG 1.1//EN" "http://www.w3.org/Graphics/SVG/1.1/DTD/svg11.dtd">

<!-- Uploaded to: SVG Repo, www.svgrepo.com, Transformed by: SVG Repo Mixer Tools -->
<svg height="800px" width="800px" version="1.1" id="Layer_1" xmlns="http://www.w3.org/2000/svg" xmlns:xlink="http://www.w3.org/1999/xlink" viewBox="0 0 512.00 512.00" xml:space="preserve" fill="#000000" stroke="#000000" stroke-width="0.00512">

<g id="SVGRepo_bgCarrier" stroke-width="0"/>

<g id="SVGRepo_tracerCarrier" stroke-linecap="round" stroke-linejoin="round"/>

<g id="SVGRepo_iconCarrier"> <path style="fill:#8AE9FF;" d="M318.388,105.725c-6.252,6.251-9.694,14.574-9.694,23.435c0,8.86,3.442,17.183,9.694,23.434 l70.263,70.263H43.339c-18.274,0.001-33.14,14.867-33.14,33.142s14.866,33.141,33.14,33.141h345.311l-70.263,70.263 c-12.921,12.921-12.921,33.946-0.001,46.868c6.259,6.259,14.582,9.707,23.435,9.707c8.852,0,17.174-3.447,23.433-9.707 l126.838-126.838c6.261-6.259,9.709-14.582,9.709-23.435c0-8.853-3.447-17.175-9.708-23.435L365.256,105.726 c-6.259-6.259-14.582-9.707-23.434-9.707C332.968,96.02,324.647,99.467,318.388,105.725z"/> <g> <path style="fill:#000000;" d="M341.822,426.178c-11.576,0-22.46-4.508-30.647-12.694c-16.897-16.9-16.896-44.396,0-61.293 l52.851-52.851H43.339C19.443,299.34,0,279.897,0,255.999s19.443-43.34,43.339-43.34h320.687l-52.851-52.851 c-8.178-8.177-12.682-19.06-12.682-30.647s4.504-22.47,12.683-30.647h-0.001c0.001,0,0.001,0,0.001,0 c8.184-8.185,19.068-12.693,30.646-12.693c11.576,0,22.46,4.508,30.646,12.693l126.837,126.838 c8.186,8.182,12.695,19.066,12.695,30.647s-4.509,22.464-12.697,30.649L372.467,413.484 C364.281,421.67,353.397,426.178,341.822,426.178z M43.339,233.056c-12.649,0-22.941,10.292-22.941,22.943 c0,12.651,10.292,22.942,22.941,22.942h345.311c4.126,0,7.844,2.486,9.422,6.296c1.579,3.811,0.706,8.198-2.21,11.115 l-70.263,70.263c-8.945,8.945-8.945,23.499,0,32.446c4.333,4.333,10.094,6.719,16.222,6.719s11.887-2.387,16.221-6.72 l126.837-126.838c4.335-4.333,6.721-10.093,6.721-16.222c0-6.129-2.387-11.889-6.719-16.221L358.044,112.938 c-4.333-4.333-10.094-6.719-16.222-6.719c-6.129,0-11.889,2.387-16.222,6.719h-0.001c-4.324,4.324-6.706,10.086-6.706,16.222 c0,6.136,2.382,11.897,6.706,16.222l70.264,70.263c2.916,2.917,3.789,7.304,2.21,11.115c-1.578,3.81-5.296,6.296-9.422,6.296 L43.339,233.056L43.339,233.056z"/> <path style="fill:#000000;" d="M396.759,190.174c-2.611,0-5.22-0.996-7.212-2.987l-2.023-2.022c-3.983-3.983-3.983-10.441,0-14.425 c3.984-3.982,10.44-3.982,14.425,0l2.023,2.023c3.983,3.983,3.983,10.441,0,14.425 C401.979,189.178,399.369,190.174,396.759,190.174z"/> <path style="fill:#000000;" d="M469.781,263.196c-2.611,0-5.22-0.996-7.212-2.987l-53.276-53.275 c-3.983-3.983-3.983-10.441,0-14.425c3.984-3.982,10.44-3.982,14.425,0l53.276,53.275c3.983,3.983,3.983,10.441,0,14.425 C475.002,262.201,472.392,263.196,469.781,263.196z"/> </g> </g>

</svg>