<svg xmlns="http://www.w3.org/2000/svg" width="1170" height="966" viewBox="0 0 1170 966" version="1.1"><path d="M 0 483.001 L 0 966.002 585.250 965.751 L 1170.500 965.500 1170.751 482.750 L 1171.002 -0 585.501 -0 L 0 0 0 483.001 M 0.496 483.500 C 0.496 749.150, 0.610 857.676, 0.750 724.668 C 0.890 591.661, 0.890 374.311, 0.750 241.668 C 0.610 109.026, 0.496 217.850, 0.496 483.500 M 634.293 80.996 C 609.653 82.766, 588.633 86.711, 564.834 94.033 C 522.517 107.052, 497.914 120.510, 473.797 143.828 L 464.095 153.210 450.901 151.059 C 436.777 148.756, 430.847 148.856, 415.181 151.659 C 398.801 154.589, 388.131 158.483, 374.500 166.505 C 362.992 173.278, 351.395 184.106, 341.059 197.729 C 331.720 210.040, 326.283 220.596, 322.633 233.506 C 317.196 252.743, 317.285 259.016, 323.470 292.454 C 329.647 325.853, 327.704 337.915, 312.362 361.381 C 306.895 369.744, 301.013 376.274, 278.475 399 C 263.475 414.125, 249.103 428.975, 246.538 432 C 231.585 449.628, 220 475.215, 220 490.611 C 220 502.981, 225.004 515.789, 235.059 529.158 C 248.646 547.220, 251.108 551.455, 252.877 559.799 C 255.858 573.863, 252.720 590.669, 243.785 608.500 C 239.905 616.242, 234.700 624.286, 212.443 656.942 C 195.760 681.419, 185.680 703.859, 179.348 730.617 C 176.626 742.124, 176.536 743.370, 176.518 770 L 176.500 797.500 179.712 809.252 C 185.922 831.973, 195.477 849.195, 210.634 864.987 C 221.312 876.111, 230.135 882.565, 244.500 889.758 C 259.228 897.133, 284.623 905.126, 288.544 903.622 C 289.726 903.168, 289.996 900.377, 289.977 888.781 C 289.965 880.927, 289.520 868.907, 288.988 862.072 C 288.457 855.237, 288.246 849.421, 288.519 849.148 C 288.792 848.875, 290.700 849.067, 292.758 849.576 L 296.500 850.500 297.669 875.411 C 298.836 900.283, 299.447 906.544, 300.789 907.366 C 301.180 907.606, 307.227 907.204, 314.228 906.474 C 362.053 901.485, 413.963 902.284, 448.997 908.549 C 486.478 915.251, 510.227 922.735, 542.844 938.121 C 548.534 940.804, 553.774 943, 554.489 943 C 555.288 943, 555.950 941.359, 556.205 938.750 C 556.434 936.413, 556.288 888.375, 555.882 832 C 555.475 775.625, 555.110 705.140, 555.071 675.367 L 555 621.234 549.250 617.809 C 534.303 608.907, 496.245 593.924, 482.187 591.407 C 480.159 591.044, 477.825 590.192, 477 589.513 C 476.175 588.835, 472.584 587.724, 469.020 587.044 C 465.456 586.365, 461.337 584.952, 459.866 583.904 C 458.062 582.620, 455.502 582, 452 582 C 449.144 582, 444.489 581.335, 441.654 580.522 C 432.331 577.850, 413.076 576.675, 371.500 576.242 C 331.328 575.823, 304.584 576.836, 293.700 579.187 C 285.331 580.994, 285.492 580.014, 287.386 617.770 C 290.135 672.556, 291.997 723.767, 291.356 726.969 C 290.728 730.112, 289.192 730.708, 286.054 729.029 C 283.445 727.633, 283.097 722.587, 279.534 634.500 C 278.711 614.150, 277.765 593, 277.432 587.500 C 276.678 575.075, 277.521 572.458, 282.706 571.127 C 288.531 569.632, 317.655 567.062, 341.786 565.913 C 377.664 564.204, 423.154 567.169, 452.500 573.128 C 474.253 577.545, 491.546 582.734, 516.960 592.471 L 526.420 596.095 528.244 593.797 C 532.466 588.479, 538.903 573.361, 541.043 563.738 C 542.747 556.073, 543.625 555.453, 550.764 556.875 C 566.366 559.984, 592.011 560.098, 607.484 557.128 C 610.225 556.601, 612.771 556.358, 613.142 556.588 C 613.512 556.817, 615.474 562.291, 617.501 568.752 C 621.637 581.934, 627.316 593.648, 629.981 594.494 C 631.760 595.059, 635.215 594.029, 660 585.548 C 695.892 573.266, 726.616 567.858, 771.500 565.922 C 796.245 564.855, 812.835 565.137, 839 567.069 C 855.532 568.290, 874.753 570.797, 877.064 572.034 C 878.049 572.561, 878.971 574.553, 879.237 576.725 C 880.054 583.402, 877.097 661.902, 874.466 703.366 C 873.015 726.229, 872.318 729.161, 868.064 730.273 C 866.057 730.798, 865.999 730.448, 865.958 717.656 C 865.835 679.547, 866.108 669.551, 867.292 668.783 C 868.205 668.191, 868.145 667.772, 867.046 667.065 C 865.893 666.323, 865.825 665.652, 866.718 663.815 C 867.805 661.579, 869.390 621.474, 869.466 594.284 C 869.511 578.292, 870.084 578.856, 852.777 577.865 C 833.407 576.756, 825.571 575.883, 827.009 574.994 C 829.070 573.721, 804.857 572.749, 780.967 573.147 C 764.373 573.423, 758.555 573.836, 758.247 574.759 C 758.019 575.442, 756.408 576.003, 754.667 576.007 C 752.925 576.011, 744.975 576.888, 737 577.957 C 729.025 579.025, 717.325 580.409, 711 581.031 C 704.150 581.706, 697.730 582.939, 695.123 584.082 C 692.715 585.137, 690.112 586, 689.338 586 C 687.576 586, 659.635 595.406, 643 601.599 C 636.125 604.158, 629.134 606.758, 627.464 607.376 C 625.794 607.994, 619.382 611.389, 613.214 614.921 L 602 621.341 601.967 714.421 C 601.949 765.614, 601.698 824.150, 601.410 844.500 C 600.687 895.460, 601.760 943, 603.632 943 C 604.399 943, 611.407 939.804, 619.206 935.897 C 627.004 931.990, 635.886 927.974, 638.943 926.972 C 641.999 925.971, 647.650 924.057, 651.500 922.720 C 671.402 915.808, 674.667 914.943, 695.593 911.043 C 731.324 904.383, 739.375 903.654, 778 903.574 C 805.464 903.517, 817.869 903.921, 832.801 905.359 C 850.839 907.096, 852.223 907.108, 853.948 905.547 C 856.489 903.247, 858 896.539, 858 887.557 C 858 883.401, 858.407 880, 858.904 880 C 859.401 880, 859.964 873.722, 860.154 866.049 C 860.344 858.375, 860.950 851.652, 861.500 851.108 C 862.050 850.565, 863.770 849.892, 865.322 849.613 L 868.145 849.106 867.429 875.906 C 866.887 896.208, 867.002 902.883, 867.904 903.441 C 871.763 905.826, 906.718 892.345, 928.185 880.193 C 949.336 868.220, 970.580 847.482, 983.189 826.500 C 994.392 807.859, 999.914 790.292, 1001.980 766.726 C 1004.477 738.243, 997.551 703.981, 984.245 679 C 978.465 668.147, 975.658 663.854, 961.037 643.500 C 948.970 626.701, 944.480 618.956, 940.747 608.500 C 936.492 596.581, 935.477 588.354, 936.911 577.397 C 938.490 565.322, 941.642 552.364, 947.466 534 C 957.473 502.444, 959.569 489.246, 958.026 467.500 C 957.109 454.579, 954.438 444.783, 948.762 433.519 C 936.171 408.530, 919.775 393.802, 885.837 376.991 C 855.038 361.735, 844.181 351.632, 838.565 333 C 835.892 324.132, 835.707 309.596, 837.825 275 C 839.973 239.908, 839.776 232.348, 836.084 208.357 C 833.451 191.247, 831.174 184.151, 822.973 167.500 C 809.915 140.992, 792.708 122.226, 767.487 106.992 C 754.353 99.059, 730.151 89.890, 711 85.593 C 693.308 81.624, 656.369 79.410, 634.293 80.996 M 951.638 91.500 C 950.435 94.637, 955.674 122.535, 958.490 127.980 C 959.996 130.894, 963.455 132.128, 964.167 130.007 C 964.732 128.323, 963.258 113.754, 962.042 109 C 961.409 106.525, 960.549 102.700, 960.132 100.500 C 959.714 98.300, 958.722 95.150, 957.927 93.500 C 956.314 90.153, 952.608 88.974, 951.638 91.500 M 1015.854 95.189 C 1013.273 99.843, 1008.261 114.755, 1005.500 125.988 C 1004.476 130.158, 1004.434 131.655, 1005.326 132.223 C 1009.286 134.741, 1011.708 131.589, 1016.258 118 C 1022.906 98.143, 1023.445 93.777, 1019.318 93.189 C 1017.869 92.983, 1016.705 93.655, 1015.854 95.189 M 892.708 121.250 C 892.116 122.865, 895.501 128.547, 899.710 133 C 906.282 139.954, 910.515 143.986, 911.250 143.993 C 911.663 143.997, 912 144.522, 912 145.161 C 912 147.118, 918.218 152, 920.711 152 C 927.479 152, 922.929 145.059, 903.582 125.870 C 897.805 120.139, 893.748 118.416, 892.708 121.250 M 1066.926 131.277 C 1057.706 139.591, 1050.187 146.276, 1049.384 146.874 C 1045.790 149.548, 1042.868 154.010, 1043.470 155.906 C 1044.295 158.505, 1047.880 158.674, 1050.561 156.241 C 1051.628 155.274, 1054.520 152.911, 1056.989 150.991 C 1059.458 149.071, 1063.281 145.813, 1065.484 143.750 C 1067.687 141.688, 1070.054 140, 1070.745 140 C 1071.435 140, 1072 139.425, 1072 138.722 C 1072 138.019, 1072.900 136.674, 1074 135.732 C 1075.178 134.724, 1076 132.782, 1076 131.010 C 1076 128.386, 1075.647 128.003, 1073.250 128.027 C 1071.586 128.043, 1069.089 129.326, 1066.926 131.277 M 967.500 141.966 C 964.200 142.347, 959.925 143.358, 958 144.212 C 956.075 145.066, 952.925 146.347, 951 147.058 C 943.114 149.971, 928.413 161.563, 922.447 169.573 C 920.838 171.733, 918.730 174.228, 917.761 175.117 C 916.792 176.007, 916 177.231, 916 177.837 C 916 178.443, 915.186 180.415, 914.191 182.220 C 913.195 184.024, 911.286 188.875, 909.947 193 C 907.828 199.532, 907.513 202.372, 907.507 215 C 907.500 228.722, 908.679 236.581, 911.174 239.450 C 911.628 239.973, 912 241.210, 912 242.200 C 912 243.190, 912.450 244, 913 244 C 913.550 244, 914 244.595, 914 245.323 C 914 246.050, 915.350 249.432, 917 252.839 C 918.650 256.245, 920 259.662, 920 260.433 C 920 261.203, 920.347 261.983, 920.772 262.167 C 921.196 262.350, 923.094 267.225, 924.988 273 C 926.883 278.775, 928.810 283.767, 929.271 284.093 C 929.733 284.419, 928.097 285.455, 925.636 286.395 C 920.259 288.448, 919.113 290.077, 915.607 300.648 C 913.442 307.174, 913.037 309.798, 913.572 313.833 C 913.964 316.789, 913.780 320.192, 913.126 322.068 C 912.103 325.004, 912.331 325.744, 915.921 331.120 C 918.071 334.340, 920.582 339.237, 921.500 342.001 C 923.720 348.685, 929.329 352.854, 938.850 354.898 C 944.445 356.100, 951.740 354.045, 956.396 349.957 C 958.248 348.331, 960.537 347, 961.481 347 C 964.751 347, 969.596 343.953, 971.445 340.734 C 972.466 338.955, 974.854 335.568, 976.752 333.208 C 978.650 330.847, 980.784 326.797, 981.494 324.208 C 982.204 321.618, 983.516 317.809, 984.409 315.743 C 985.948 312.183, 985.927 311.777, 984.017 308.032 C 982.907 305.858, 982 303.327, 982 302.407 C 982 300.615, 984.802 297.829, 989.250 295.196 C 990.763 294.301, 992 293.216, 992 292.784 C 992 292.353, 992.590 292, 993.311 292 C 994.033 292, 995.495 291.208, 996.561 290.241 C 997.628 289.273, 1001.425 286.953, 1005 285.086 C 1008.575 283.219, 1012.694 280.861, 1014.154 279.846 C 1015.614 278.831, 1017.116 278, 1017.491 278 C 1020.180 278, 1040 260.369, 1040 257.977 C 1040 257.394, 1040.900 255.950, 1042 254.770 C 1043.100 253.589, 1044 252.033, 1044 251.311 C 1044 250.590, 1044.340 250, 1044.756 250 C 1046.252 250, 1051.278 235.622, 1053.080 226.184 C 1054.530 218.589, 1053.759 204.059, 1051.451 195.500 C 1049.913 189.795, 1044.429 177.066, 1043.050 176 C 1042.695 175.725, 1041.306 173.925, 1039.963 172 C 1036.799 167.461, 1028.358 159.023, 1022.538 154.581 C 1008.333 143.738, 989.517 139.425, 967.500 141.966 M 859.148 174.575 C 858.503 175.991, 858.231 177.565, 858.544 178.072 C 859.317 179.322, 868.647 183.529, 874.082 185.078 C 876.512 185.771, 878.928 186.711, 879.450 187.169 C 879.972 187.626, 881.345 188, 882.500 188 C 883.655 188, 885.027 188.412, 885.550 188.915 C 886.072 189.418, 889.023 190.137, 892.106 190.512 C 896.735 191.076, 897.818 190.916, 898.324 189.597 C 899.366 186.882, 897.971 185.082, 893.143 182.913 C 888.242 180.711, 862.762 172, 861.223 172 C 860.727 172, 859.793 173.159, 859.148 174.575 M 194.494 181.250 C 193.684 183.037, 191.543 188.544, 189.737 193.486 L 186.453 202.472 175.053 206.694 C 156.948 213.401, 156.719 215.090, 173.178 220.527 C 179.405 222.584, 185.037 224.692, 185.694 225.210 C 186.350 225.728, 187.878 229.155, 189.088 232.826 C 192.957 244.555, 195.711 250, 197.776 250 C 200.272 250, 201.963 246.501, 206.577 231.787 C 208.360 226.103, 209.740 225.063, 221.070 220.864 C 231.003 217.183, 234.569 214.924, 233.762 212.821 C 233.459 212.032, 228.326 209.500, 222.356 207.194 C 216.385 204.889, 210.925 202.630, 210.222 202.175 C 209.519 201.720, 207.188 196.741, 205.042 191.111 C 202.896 185.481, 200.604 180.228, 199.948 179.437 C 198.024 177.120, 196.073 177.768, 194.494 181.250 M 1092.500 187.147 C 1090.300 187.689, 1085.800 188.825, 1082.500 189.672 C 1079.200 190.518, 1075.150 191.454, 1073.500 191.752 C 1068.954 192.571, 1065.853 194.970, 1066.200 197.398 C 1066.641 200.485, 1071.382 200.228, 1092 195.999 C 1094.475 195.491, 1098.060 194.768, 1099.967 194.393 C 1104.290 193.541, 1106.234 191.667, 1105.820 188.752 C 1105.547 186.828, 1104.845 186.475, 1101 186.331 C 1098.525 186.237, 1094.700 186.605, 1092.500 187.147 M 885 231 C 884.175 231.533, 882.269 231.976, 880.764 231.985 C 875.202 232.016, 858.685 236.625, 855.819 238.946 C 853.889 240.509, 853.757 241.003, 854.905 242.385 C 856.436 244.230, 861.781 244.493, 868.236 243.041 C 870.581 242.513, 875.200 241.565, 878.500 240.934 C 884.500 239.786, 887.367 238.984, 893 236.879 C 896.125 235.711, 896.892 233.292, 894.800 231.200 C 893.365 229.765, 887.109 229.637, 885 231 M 1064 242.453 C 1064 245.009, 1065.193 245.772, 1075 249.485 C 1087.409 254.183, 1100.026 257.311, 1102.595 256.325 C 1104.748 255.499, 1104.265 252.218, 1101.750 250.585 C 1097.633 247.911, 1072.600 240.002, 1068.250 240.001 C 1064.405 240, 1064 240.234, 1064 242.453 M 134.889 243.662 C 132.415 244.324, 128.751 252.930, 120.480 277.500 C 111.982 302.745, 111.767 303.208, 107.374 305.682 C 105.243 306.882, 94.275 310.994, 83 314.820 C 54.495 324.491, 51.143 325.853, 49.442 328.449 C 47.672 331.149, 48.810 335.293, 51.752 336.867 C 52.768 337.411, 63.477 341.208, 75.549 345.306 C 87.622 349.403, 100.508 353.972, 104.184 355.458 L 110.869 358.160 114.026 366.830 C 115.763 371.599, 119.900 383.375, 123.219 393 C 131.693 417.573, 133.543 420.717, 138.732 419.360 C 141.119 418.736, 143.794 412.360, 152.520 386.500 C 155.675 377.150, 159.497 366.739, 161.014 363.365 C 164.208 356.257, 161.891 357.427, 195.550 345.920 C 224.687 335.958, 226.700 334.927, 225.596 330.527 C 224.770 327.236, 220.137 325.152, 192 315.420 C 180.175 311.330, 169.052 307.327, 167.283 306.524 C 162.923 304.545, 160.767 299.966, 151.503 273 C 147.251 260.625, 143.144 249.276, 142.376 247.780 C 141.197 245.483, 137.900 242.718, 136.816 243.116 C 136.642 243.180, 135.775 243.426, 134.889 243.662 M 265.647 250.750 C 264.874 252.262, 263.060 256.798, 261.614 260.828 C 257.250 272.999, 257.462 272.804, 243.382 277.599 C 234.361 280.671, 233 281.524, 233 284.099 C 233 286.552, 235.794 288.247, 245.863 291.905 C 250.463 293.576, 254.898 295.500, 255.719 296.181 C 257.571 297.719, 261.268 305.972, 263.419 313.371 C 264.997 318.799, 267.528 321.562, 269.654 320.180 C 271.217 319.164, 272.637 316.124, 276.116 306.344 C 277.846 301.480, 279.766 296.999, 280.381 296.386 C 280.996 295.773, 285.100 293.993, 289.500 292.431 C 308.587 285.653, 308.580 283.439, 289.450 276.169 L 279.797 272.500 276.554 264 C 270.260 247.504, 268.436 245.289, 265.647 250.750 M 498.404 262.750 C 497.434 266.955, 486.806 287.843, 481.689 295.598 C 465.896 319.536, 443.574 336.325, 417.844 343.621 C 405.708 347.062, 405 347.468, 405 350.984 C 405 359.826, 415.019 401.701, 420.846 417.210 C 425.934 430.754, 437.698 454.719, 443.568 463.500 C 458.179 485.357, 479.314 507.334, 496.500 518.541 C 515.601 530.997, 530.836 537.637, 549 541.421 C 570.268 545.852, 588.171 545.711, 610.027 540.941 C 621.325 538.475, 625.896 536.912, 637.305 531.612 C 654.366 523.687, 668.137 514.214, 682.100 500.801 C 718.131 466.187, 740.341 421.333, 749.984 363.709 C 751.162 356.673, 751.984 349.702, 751.812 348.216 C 751.137 342.375, 742.583 340.673, 690.299 335.979 C 627.679 330.357, 596.537 325.318, 575.095 317.340 C 571.468 315.990, 562.200 311.808, 554.500 308.047 C 532.766 297.430, 519.012 286.002, 506.601 268.250 C 503.429 263.712, 500.430 260, 499.936 260 C 499.442 260, 498.753 261.238, 498.404 262.750 M 912 272.933 C 912 273.446, 911.164 274.130, 910.143 274.455 C 909.122 274.779, 905.239 277.959, 901.515 281.522 C 897.791 285.085, 894.544 288, 894.300 288 C 893.194 288, 884 297.470, 884 298.609 C 884 299.841, 887.705 303, 889.151 303 C 889.539 303, 890.452 302.435, 891.179 301.746 C 891.905 301.056, 894.898 298.509, 897.830 296.086 C 903.194 291.652, 914.368 280.888, 916.819 277.793 C 917.818 276.533, 917.870 275.626, 917.034 274.064 C 915.941 272.021, 912 271.135, 912 272.933 M 1038.571 278.571 C 1037.707 279.436, 1037 280.358, 1037 280.621 C 1037 282.626, 1041.193 287.987, 1048.724 295.611 C 1062.236 309.292, 1066.899 312.311, 1068.416 308.359 C 1069.458 305.643, 1066.157 301.467, 1050.236 285.360 C 1045.691 280.762, 1041.560 277, 1041.057 277 C 1040.554 277, 1039.436 277.707, 1038.571 278.571 M 997.250 299.662 C 995.371 300.420, 995.737 309.366, 998 318 C 999.081 322.125, 999.980 326.625, 999.998 328 C 1000.044 331.606, 1002.559 338.319, 1004.267 339.396 C 1005.071 339.903, 1006.495 340.024, 1007.433 339.664 C 1008.931 339.089, 1009.053 338.006, 1008.441 330.755 C 1008.058 326.215, 1007.352 321.742, 1006.872 320.816 C 1006.392 319.889, 1006 317.896, 1006 316.387 C 1006 314.877, 1005.566 312.260, 1005.035 310.571 C 1004.504 308.882, 1003.828 306.294, 1003.533 304.820 C 1003.008 302.196, 1000.525 298.922, 999.179 299.079 C 998.805 299.122, 997.938 299.385, 997.250 299.662 M 495 350.021 C 490.434 351.086, 481.868 360.159, 480.213 365.684 C 474.834 383.636, 487.594 399.403, 506.139 397.721 C 518.927 396.562, 528 386.444, 528 373.343 C 528 369.001, 527.297 366.461, 524.796 361.769 C 520.913 354.484, 516.492 351.303, 508.411 349.980 C 501.669 348.875, 499.888 348.881, 495 350.021 M 646.505 349.673 C 643.248 350.600, 636.445 355.677, 634.419 358.693 C 626.451 370.554, 627.616 382.687, 637.630 392.161 C 649.705 403.583, 671.493 397.773, 677.068 381.645 C 680.890 370.587, 676.362 358.095, 666.272 351.859 C 662.957 349.810, 650.761 348.462, 646.505 349.673 M 504.223 358.557 C 500.893 360.889, 501.120 367.163, 504.635 369.927 C 508.310 372.819, 511.625 372.528, 515.147 369.007 C 518.596 365.558, 518.383 362.904, 514.363 359.250 C 511.480 356.628, 507.376 356.348, 504.223 358.557 M 654.573 359.336 C 653.158 360.751, 652 363.020, 652 364.378 C 652 367.066, 657.224 373, 659.592 373 C 660.382 373, 662.666 371.501, 664.665 369.668 C 667.545 367.028, 668.175 365.833, 667.694 363.918 C 666.684 359.896, 664.682 357.985, 660.820 357.358 C 657.756 356.861, 656.721 357.189, 654.573 359.336 M 368.326 366.365 C 360.906 369.911, 359.460 372.604, 359.683 382.456 C 359.909 392.399, 362.170 399.173, 369.146 410.801 C 378.757 426.823, 389.461 436.853, 401.442 441.064 C 406.088 442.697, 415 443.755, 415 442.674 C 415 442.494, 412.808 436.532, 410.130 429.424 C 403.739 412.465, 399.663 399.466, 396.422 385.714 C 391.668 365.540, 392.358 367.196, 388.222 366.024 C 379.812 363.640, 373.814 363.742, 368.326 366.365 M 772.550 365.126 C 765.408 366.800, 765.204 367.177, 760.418 387.500 C 757.367 400.456, 752.723 415.065, 746.590 431 C 743.445 439.171, 742.505 442.693, 743.342 443.166 C 745.226 444.230, 754.062 442.196, 759.510 439.445 C 767.805 435.257, 779.049 424.914, 785.349 415.677 C 793.650 403.507, 798.946 386.795, 797.519 377.277 C 795.999 367.139, 785.586 362.072, 772.550 365.126 M 567.893 443.313 C 556.132 447.574, 548.242 454.340, 543.186 464.500 C 537.650 475.624, 538.252 484, 544.589 484 C 548.804 484, 550.665 482.321, 552.430 476.924 C 555.660 467.050, 562.721 459.112, 571.577 455.397 C 577.199 453.039, 590.545 453.254, 596.201 455.793 C 603.776 459.194, 609.443 465.192, 613.899 474.527 C 618.569 484.308, 621.222 486.395, 625.459 483.619 C 632.466 479.027, 624.947 459.791, 612.503 450.475 C 603.147 443.471, 597.833 441.659, 585.500 441.268 C 575.867 440.963, 573.679 441.217, 567.893 443.313 M 565.309 627.250 C 564.290 628.824, 563.575 900.389, 564.518 927.684 C 565.119 945.066, 565.443 947.958, 566.858 948.509 C 567.761 948.861, 573.287 949.405, 579.138 949.718 C 588.889 950.240, 589.857 950.130, 590.755 948.394 C 591.906 946.168, 592.619 832.111, 592.250 709.250 L 592 626 579.059 626 C 569.804 626, 565.888 626.356, 565.309 627.250 M 268.500 743.990 C 266.713 745.970, 266.464 747.886, 266.164 761.988 C 265.777 780.169, 267.269 797.812, 269.527 801.770 C 270.384 803.271, 272.188 806.025, 273.537 807.889 C 275.747 810.945, 275.928 811.929, 275.376 817.889 C 274.808 824.024, 274.944 824.680, 277.270 827 C 280.823 830.545, 300.388 837.032, 309.633 837.731 C 318.614 838.411, 319.368 837.413, 316.005 829.299 C 313.486 823.222, 313.991 822.045, 319.128 822.015 C 323.555 821.990, 324.201 820.025, 321.615 814.451 C 320.352 811.728, 318.572 808.882, 317.659 808.128 C 314.938 805.877, 315.587 803.033, 318.978 802.354 C 325.687 801.013, 325.439 798.155, 317.574 786.217 C 314.779 781.974, 313.042 778.334, 313.385 777.439 C 313.708 776.598, 315.477 775.281, 317.316 774.513 C 322.584 772.311, 323.587 770.548, 321.443 767.255 C 319.333 764.012, 318.641 763.435, 309.639 757.406 C 298.257 749.783, 283.123 742.912, 276.378 742.304 C 271.202 741.838, 270.261 742.039, 268.500 743.990 M 867.837 746.375 C 856.876 750.853, 846.397 757.214, 839.687 763.462 C 836.580 766.356, 835.932 767.596, 836.187 770.162 C 836.452 772.824, 837.107 773.521, 840.425 774.664 C 842.584 775.408, 844.529 776.196, 844.749 776.415 C 845.173 776.840, 842.140 783.158, 841.108 784 C 839.577 785.248, 834.956 792.828, 833.928 795.777 C 832.506 799.856, 833.962 802, 838.154 802 C 842.421 802, 842.520 804.026, 838.544 809.935 C 836.246 813.350, 835 816.374, 835 818.537 C 835 821.570, 835.295 821.902, 838.250 822.187 C 841.875 822.536, 841.969 822.975, 840.520 832.750 L 839.742 838 844.621 837.966 C 853.764 837.902, 877.853 830.392, 880.807 826.685 C 881.326 826.033, 881.959 822.106, 882.212 817.957 C 882.565 812.183, 883.289 809.364, 885.298 805.934 C 886.742 803.470, 888.386 799.215, 888.951 796.477 C 890.436 789.284, 891.935 755.112, 890.991 749.953 C 889.316 740.793, 883.645 739.916, 867.837 746.375" stroke="none" fill="transparent" fill-rule="evenodd"/><path d="M 760.500 575.752 C 753.042 575.987, 729.399 578.743, 715.385 581.010 C 712.021 581.555, 707.054 582, 704.346 582 C 701.517 582, 697.868 582.793, 695.767 583.864 C 693.756 584.889, 690.624 586.011, 688.806 586.357 C 684.923 587.096, 656.731 596.254, 656 597.014 C 655.725 597.300, 652.350 598.562, 648.500 599.818 C 644.650 601.075, 640.600 602.481, 639.500 602.944 C 632.928 605.709, 626.561 608, 625.450 608 C 624.744 608, 624.017 608.337, 623.833 608.750 C 623.650 609.163, 621.025 610.785, 618 612.356 C 614.975 613.926, 610.138 616.763, 607.250 618.659 L 602 622.107 602 782.553 C 602 902.006, 602.291 943, 603.140 943 C 603.767 943, 610.760 939.826, 618.680 935.946 C 626.600 932.066, 635.649 928.046, 638.790 927.014 C 648.113 923.948, 654.962 921.372, 655.670 920.664 C 656.035 920.299, 657.271 920, 658.417 919.999 C 659.562 919.999, 662.750 919.150, 665.500 918.111 C 673.989 914.907, 696.361 910.235, 718.500 907.044 C 722.350 906.490, 728.425 905.567, 732 904.994 C 735.575 904.421, 752.225 903.686, 769 903.361 C 798.284 902.793, 810.549 903.259, 840.317 906.072 C 850.902 907.073, 852.324 907.017, 853.964 905.533 C 856.641 903.110, 858 896.385, 858 885.557 C 858 879.247, 858.375 876, 859.105 876 C 859.837 876, 859.998 874.564, 859.583 871.750 C 859.238 869.413, 858.596 864.325, 858.157 860.444 C 857.718 856.564, 857.048 852.886, 856.668 852.272 C 856.212 851.533, 853.531 851.337, 848.739 851.691 C 842.459 852.155, 840.747 851.891, 835.812 849.696 C 829.803 847.022, 827.019 843.331, 825.669 836.250 C 825.329 834.463, 824.128 830.975, 823 828.500 C 820.105 822.145, 819.657 818.986, 820.964 814.132 C 821.948 810.480, 821.816 809.124, 820.006 804.286 L 817.906 798.675 821.066 790.835 C 823.464 784.887, 824.058 782.213, 823.530 779.748 C 822.077 772.971, 821.837 764.807, 823.008 761.980 C 824.055 759.453, 830.845 752.446, 836.564 747.992 C 839.364 745.811, 855.893 736, 856.767 736 C 857.174 736, 858.855 734.573, 860.503 732.829 C 863.278 729.894, 863.556 728.912, 864.254 719.579 C 864.668 714.036, 865.273 700.500, 865.598 689.501 C 865.995 676.070, 866.569 669.255, 867.345 668.751 C 868.181 668.207, 868.099 667.742, 867.046 667.065 C 865.888 666.320, 865.824 665.660, 866.731 663.815 C 867.791 661.660, 869.138 626.581, 869.401 594.284 C 869.515 580.195, 868.946 579, 861.853 578.425 C 834.603 576.218, 786.221 574.942, 760.500 575.752 M 315.500 577.032 C 312.750 577.468, 307.694 577.864, 304.264 577.912 C 295.768 578.032, 289.077 579.953, 287.204 582.811 C 285.865 584.855, 285.825 587.800, 286.868 607.317 C 289.134 649.720, 291.938 713.282, 292.308 730.670 C 292.322 731.314, 293.479 732.439, 294.879 733.170 C 318.738 745.633, 331.057 755.344, 334.525 764.427 C 336.295 769.060, 336.288 769.268, 334.178 775.416 L 332.028 781.682 334.264 786.091 C 336.309 790.124, 336.496 791.864, 336.452 806.500 C 336.409 820.645, 336.165 822.964, 334.341 826.500 C 333.207 828.700, 332.034 832.409, 331.735 834.743 C 330.910 841.190, 326.587 847.242, 320.966 849.821 C 317.328 851.490, 314.319 852, 308.108 852 L 300 852 299.917 873.250 C 299.871 884.938, 299.723 895.492, 299.587 896.704 C 299.452 897.916, 299.666 898.707, 300.062 898.462 C 300.671 898.085, 301.388 900.916, 302.165 906.764 C 302.258 907.460, 303.046 907.813, 303.917 907.548 C 304.788 907.284, 314.050 906.281, 324.500 905.319 C 348.233 903.136, 399.802 902.880, 421 904.841 C 452.922 907.794, 496.011 917.553, 514.739 926.072 C 517.071 927.132, 519.438 928, 520 928 C 521.222 928, 526.934 930.497, 540.787 937.087 C 546.444 939.778, 552.182 942.259, 553.537 942.599 C 555.823 943.172, 556.009 942.939, 556.120 939.358 C 556.316 933.062, 555.749 805.132, 555.102 709.693 L 554.500 620.887 549.500 618.193 C 546.750 616.712, 544.275 615.264, 544 614.976 C 542.758 613.675, 531.052 608, 529.610 608 C 528.725 608, 528 607.550, 528 607 C 528 606.450, 527.160 606, 526.133 606 C 524.528 606, 521.122 604.833, 511.500 600.986 C 500.994 596.785, 486.191 592.030, 483.566 592.013 C 482.502 592.006, 479.802 591.145, 477.566 590.101 C 475.330 589.056, 471.025 587.643, 468 586.962 C 464.975 586.280, 461.363 584.925, 459.973 583.952 C 458.367 582.827, 454.904 582.017, 450.473 581.729 C 446.638 581.480, 441.475 580.735, 439 580.073 C 436.525 579.411, 429.325 578.385, 423 577.793 C 409.291 576.510, 322.654 575.897, 315.500 577.032 M 565.394 627.750 C 564.361 629.955, 563.566 901.727, 564.517 927.774 C 565.156 945.294, 565.394 947.140, 567.124 948.066 C 568.171 948.627, 573.588 949.363, 579.160 949.703 C 588.285 950.259, 589.428 950.136, 590.646 948.469 C 591.771 946.931, 592 919.519, 592 786.309 L 592 626 579.107 626 C 567.807 626, 566.113 626.216, 565.394 627.750" stroke="none" fill="#fa87b0" fill-rule="evenodd"/><path d="M 649.280 80.736 C 651.909 80.943, 655.959 80.940, 658.280 80.731 C 660.601 80.521, 658.450 80.352, 653.500 80.355 C 648.550 80.358, 646.651 80.530, 649.280 80.736 M 951.638 91.500 C 950.435 94.637, 955.674 122.535, 958.490 127.980 C 959.996 130.894, 963.455 132.128, 964.167 130.007 C 964.732 128.323, 963.258 113.754, 962.042 109 C 961.409 106.525, 960.549 102.700, 960.132 100.500 C 959.714 98.300, 958.722 95.150, 957.927 93.500 C 956.314 90.153, 952.608 88.974, 951.638 91.500 M 1015.854 95.189 C 1013.273 99.843, 1008.261 114.755, 1005.500 125.988 C 1004.476 130.158, 1004.434 131.655, 1005.326 132.223 C 1009.286 134.741, 1011.708 131.589, 1016.258 118 C 1022.906 98.143, 1023.445 93.777, 1019.318 93.189 C 1017.869 92.983, 1016.705 93.655, 1015.854 95.189 M 892.708 121.250 C 892.116 122.865, 895.501 128.547, 899.710 133 C 906.282 139.954, 910.515 143.986, 911.250 143.993 C 911.663 143.997, 912 144.522, 912 145.161 C 912 147.118, 918.218 152, 920.711 152 C 927.479 152, 922.929 145.059, 903.582 125.870 C 897.805 120.139, 893.748 118.416, 892.708 121.250 M 1066.926 131.277 C 1057.706 139.591, 1050.187 146.276, 1049.384 146.874 C 1045.790 149.548, 1042.868 154.010, 1043.470 155.906 C 1044.295 158.505, 1047.880 158.674, 1050.561 156.241 C 1051.628 155.274, 1054.520 152.911, 1056.989 150.991 C 1059.458 149.071, 1063.281 145.813, 1065.484 143.750 C 1067.687 141.688, 1070.054 140, 1070.745 140 C 1071.435 140, 1072 139.425, 1072 138.722 C 1072 138.019, 1072.900 136.674, 1074 135.732 C 1075.178 134.724, 1076 132.782, 1076 131.010 C 1076 128.386, 1075.647 128.003, 1073.250 128.027 C 1071.586 128.043, 1069.089 129.326, 1066.926 131.277 M 472.395 145.014 C 467.387 149.956, 463.571 154, 463.916 154 C 464.260 154, 468.573 149.950, 473.500 145 C 478.427 140.050, 482.243 136.006, 481.979 136.014 C 481.716 136.021, 477.403 140.071, 472.395 145.014 M 967.500 141.966 C 964.200 142.347, 959.925 143.358, 958 144.212 C 956.075 145.066, 952.925 146.347, 951 147.058 C 943.114 149.971, 928.413 161.563, 922.447 169.573 C 920.838 171.733, 918.730 174.228, 917.761 175.117 C 916.792 176.007, 916 177.231, 916 177.837 C 916 178.443, 915.186 180.415, 914.191 182.220 C 913.195 184.024, 911.286 188.875, 909.947 193 C 907.828 199.532, 907.513 202.372, 907.507 215 C 907.500 228.722, 908.679 236.581, 911.174 239.450 C 911.628 239.973, 912 241.210, 912 242.200 C 912 243.190, 912.450 244, 913 244 C 913.550 244, 914 244.595, 914 245.323 C 914 246.050, 915.350 249.432, 917 252.839 C 918.650 256.245, 920 259.662, 920 260.433 C 920 261.203, 920.347 261.983, 920.772 262.167 C 921.196 262.350, 923.094 267.225, 924.988 273 C 926.883 278.775, 928.836 283.783, 929.329 284.129 C 929.823 284.475, 929.613 284.963, 928.863 285.213 C 928.113 285.464, 930.467 286.656, 934.092 287.863 C 937.718 289.071, 941.396 289.785, 942.265 289.452 C 943.134 289.118, 944.511 287.418, 945.325 285.673 C 947.006 282.068, 954.504 259.869, 958.490 246.695 C 961.600 236.419, 961.563 236.323, 952.875 231.937 C 943.151 227.028, 939.408 219.624, 941.926 210.276 C 944.179 201.908, 950.233 198, 960.946 198 C 964.451 198, 965.704 198.673, 970.106 202.915 L 975.205 207.830 974.668 216.665 C 974.373 221.524, 973.989 226.625, 973.816 228 C 973.576 229.897, 973.956 230.500, 975.391 230.500 C 976.431 230.500, 977.629 229.825, 978.053 229 C 978.477 228.175, 980.022 224.991, 981.487 221.925 C 985.846 212.800, 993.043 209.459, 1003.734 211.597 C 1012.558 213.362, 1017.487 225.113, 1013.452 234.768 C 1011.190 240.183, 1008.280 242.811, 1002.571 244.596 C 997.987 246.029, 996.876 246.034, 991 244.653 C 985.988 243.474, 984.239 243.396, 983.360 244.312 C 981.088 246.678, 966 292.049, 966 296.514 C 966 298.357, 966.927 299.128, 970.678 300.406 C 977.260 302.649, 980.663 302.428, 983.518 299.573 C 984.853 298.237, 987.308 296.340, 988.973 295.357 C 990.638 294.373, 992 293.216, 992 292.784 C 992 292.353, 992.590 292, 993.311 292 C 994.033 292, 995.495 291.208, 996.561 290.241 C 997.628 289.273, 1001.425 286.953, 1005 285.086 C 1008.575 283.219, 1012.694 280.861, 1014.154 279.846 C 1015.614 278.831, 1017.116 278, 1017.491 278 C 1020.180 278, 1040 260.369, 1040 257.977 C 1040 257.394, 1040.900 255.950, 1042 254.770 C 1043.100 253.589, 1044 252.033, 1044 251.311 C 1044 250.590, 1044.340 250, 1044.756 250 C 1046.252 250, 1051.278 235.622, 1053.080 226.184 C 1054.530 218.589, 1053.759 204.059, 1051.451 195.500 C 1049.913 189.795, 1044.429 177.066, 1043.050 176 C 1042.695 175.725, 1041.306 173.925, 1039.963 172 C 1036.799 167.461, 1028.358 159.023, 1022.538 154.581 C 1008.333 143.738, 989.517 139.425, 967.500 141.966 M 859.148 174.575 C 858.503 175.991, 858.231 177.565, 858.544 178.072 C 859.317 179.322, 868.647 183.529, 874.082 185.078 C 876.512 185.771, 878.928 186.711, 879.450 187.169 C 879.972 187.626, 881.345 188, 882.500 188 C 883.655 188, 885.027 188.412, 885.550 188.915 C 886.072 189.418, 889.023 190.137, 892.106 190.512 C 896.735 191.076, 897.818 190.916, 898.324 189.597 C 899.366 186.882, 897.971 185.082, 893.143 182.913 C 888.242 180.711, 862.762 172, 861.223 172 C 860.727 172, 859.793 173.159, 859.148 174.575 M 353.473 183.250 L 346.500 190.500 353.750 183.527 C 357.738 179.692, 361 176.429, 361 176.277 C 361 175.543, 359.950 176.516, 353.473 183.250 M 1092.500 187.147 C 1090.300 187.689, 1085.800 188.825, 1082.500 189.672 C 1079.200 190.518, 1075.150 191.454, 1073.500 191.752 C 1068.954 192.571, 1065.853 194.970, 1066.200 197.398 C 1066.641 200.485, 1071.382 200.228, 1092 195.999 C 1094.475 195.491, 1098.060 194.768, 1099.967 194.393 C 1104.290 193.541, 1106.234 191.667, 1105.820 188.752 C 1105.547 186.828, 1104.845 186.475, 1101 186.331 C 1098.525 186.237, 1094.700 186.605, 1092.500 187.147 M 954.253 206.646 C 949.782 208.850, 948.177 214.094, 950.368 219.339 C 951.565 222.202, 953.009 223.559, 956.508 225.107 C 959.025 226.220, 961.849 226.983, 962.784 226.803 C 964.964 226.383, 966.841 222.442, 967.641 216.600 C 968.239 212.238, 968.076 211.808, 964.565 208.497 C 960.426 204.593, 958.954 204.329, 954.253 206.646 M 994.374 218.985 C 991.020 220.340, 986 228.711, 986 232.949 C 986 235.312, 990.664 237, 997.195 237 C 1003.694 237, 1007 233.955, 1007 227.969 C 1007 220.829, 1000.776 216.400, 994.374 218.985 M 885 231 C 884.175 231.533, 882.269 231.976, 880.764 231.985 C 875.202 232.016, 858.685 236.625, 855.819 238.946 C 853.889 240.509, 853.757 241.003, 854.905 242.385 C 856.436 244.230, 861.781 244.493, 868.236 243.041 C 870.581 242.513, 875.200 241.565, 878.500 240.934 C 884.500 239.786, 887.367 238.984, 893 236.879 C 896.125 235.711, 896.892 233.292, 894.800 231.200 C 893.365 229.765, 887.109 229.637, 885 231 M 968.630 243.750 C 967.309 246.363, 963.727 256.375, 960.672 266 C 953.061 289.976, 952.633 291.602, 953.403 293.608 C 954.036 295.259, 954.193 295.248, 955.960 293.433 C 957.702 291.644, 964.359 273.099, 970.443 253.089 C 974.508 239.717, 973.444 234.235, 968.630 243.750 M 1064 242.453 C 1064 245.009, 1065.193 245.772, 1075 249.485 C 1087.409 254.183, 1100.026 257.311, 1102.595 256.325 C 1104.748 255.499, 1104.265 252.218, 1101.750 250.585 C 1097.633 247.911, 1072.600 240.002, 1068.250 240.001 C 1064.405 240, 1064 240.234, 1064 242.453 M 912 272.933 C 912 273.446, 911.164 274.130, 910.143 274.455 C 909.122 274.779, 905.239 277.959, 901.515 281.522 C 897.791 285.085, 894.544 288, 894.300 288 C 893.194 288, 884 297.470, 884 298.609 C 884 299.841, 887.705 303, 889.151 303 C 889.539 303, 890.452 302.435, 891.179 301.746 C 891.905 301.056, 894.898 298.509, 897.830 296.086 C 903.194 291.652, 914.368 280.888, 916.819 277.793 C 917.818 276.533, 917.870 275.626, 917.034 274.064 C 915.941 272.021, 912 271.135, 912 272.933 M 1038.571 278.571 C 1037.707 279.436, 1037 280.358, 1037 280.621 C 1037 282.626, 1041.193 287.987, 1048.724 295.611 C 1062.236 309.292, 1066.899 312.311, 1068.416 308.359 C 1069.458 305.643, 1066.157 301.467, 1050.236 285.360 C 1045.691 280.762, 1041.560 277, 1041.057 277 C 1040.554 277, 1039.436 277.707, 1038.571 278.571 M 997.250 299.662 C 995.371 300.420, 995.737 309.366, 998 318 C 999.081 322.125, 999.980 326.625, 999.998 328 C 1000.044 331.606, 1002.559 338.319, 1004.267 339.396 C 1005.071 339.903, 1006.495 340.024, 1007.433 339.664 C 1008.931 339.089, 1009.053 338.006, 1008.441 330.755 C 1008.058 326.215, 1007.352 321.742, 1006.872 320.816 C 1006.392 319.889, 1006 317.896, 1006 316.387 C 1006 314.877, 1005.566 312.260, 1005.035 310.571 C 1004.504 308.882, 1003.828 306.294, 1003.533 304.820 C 1003.008 302.196, 1000.525 298.922, 999.179 299.079 C 998.805 299.122, 997.938 299.385, 997.250 299.662 M 285.986 391.750 L 272.500 405.500 286.250 392.014 C 299.023 379.486, 300.453 378, 299.736 378 C 299.591 378, 293.403 384.188, 285.986 391.750 M 338.250 565.735 C 340.863 565.941, 345.137 565.941, 347.750 565.735 C 350.363 565.529, 348.225 565.360, 343 565.360 C 337.775 565.360, 335.637 565.529, 338.250 565.735 M 379.250 565.728 C 381.313 565.944, 384.688 565.944, 386.750 565.728 C 388.813 565.513, 387.125 565.336, 383 565.336 C 378.875 565.336, 377.188 565.513, 379.250 565.728 M 771.280 565.736 C 773.909 565.943, 777.959 565.940, 780.280 565.731 C 782.601 565.521, 780.450 565.352, 775.500 565.355 C 770.550 565.358, 768.651 565.530, 771.280 565.736 M 813.728 565.722 C 815.503 565.943, 818.653 565.946, 820.728 565.730 C 822.802 565.513, 821.350 565.333, 817.500 565.328 C 813.650 565.324, 811.952 565.501, 813.728 565.722 M 277.320 594 C 277.320 597.575, 277.502 599.038, 277.723 597.250 C 277.945 595.462, 277.945 592.538, 277.723 590.750 C 277.502 588.962, 277.320 590.425, 277.320 594 M 891.336 766 C 891.336 770.125, 891.513 771.813, 891.728 769.750 C 891.944 767.688, 891.944 764.313, 891.728 762.250 C 891.513 760.188, 891.336 761.875, 891.336 766 M 592.439 819 C 592.439 834.125, 592.578 840.313, 592.748 832.750 C 592.917 825.188, 592.917 812.813, 592.748 805.250 C 592.578 797.688, 592.439 803.875, 592.439 819 M 601.447 880 C 601.447 897.875, 601.582 905.188, 601.748 896.250 C 601.914 887.313, 601.914 872.688, 601.748 863.750 C 601.582 854.813, 601.447 862.125, 601.447 880 M 867.320 878 C 867.320 881.575, 867.502 883.038, 867.723 881.250 C 867.945 879.462, 867.945 876.538, 867.723 874.750 C 867.502 872.962, 867.320 874.425, 867.320 878" stroke="none" fill="#f2d752" fill-rule="evenodd"/><path d="M 625.500 82.037 C 599.985 85.380, 591.061 87.162, 570 93.126 C 527 105.301, 499.213 120.131, 474.500 144.094 L 464.500 153.790 452.500 151.847 C 422.710 147.023, 388.362 155.409, 365.349 173.125 C 357.128 179.454, 344.034 193.713, 337.096 203.893 C 326.529 219.397, 320.483 236.677, 319.388 254.500 C 318.951 261.621, 319.387 266.631, 321.480 278.500 C 328.814 320.105, 328.827 329.903, 321.571 346.261 C 314.559 362.069, 305.395 373.333, 275.001 403.500 C 245.173 433.106, 234.301 446.693, 227.698 462.616 C 221.275 478.105, 219.394 489.299, 221.515 499.415 C 224.002 511.278, 227.070 517.486, 237.267 531.284 C 251.148 550.066, 253.342 554.824, 253.840 567.229 C 254.825 591.737, 248.342 606.318, 215.931 652.500 C 197.865 678.242, 188.429 697.886, 181.589 724 C 177.266 740.504, 176.019 750.935, 176.008 770.678 C 175.998 789.092, 177.135 797.849, 181.498 812.953 C 185.796 827.832, 189.626 836.233, 197.523 848.102 C 209.597 866.249, 223.765 878.600, 244.491 889.043 C 258.362 896.032, 266.669 899.127, 279.500 902.087 C 290.656 904.661, 290.362 905.231, 289.578 882.500 C 289.237 872.600, 288.682 860.806, 288.345 856.291 L 287.732 848.082 291.616 848.671 C 293.752 848.995, 295.857 849.582, 296.294 849.974 C 296.731 850.367, 297.680 860.771, 298.404 873.094 L 299.720 895.500 299.860 873.750 L 300 852 308.108 852 C 314.319 852, 317.328 851.490, 320.966 849.821 C 326.587 847.242, 330.910 841.190, 331.735 834.743 C 332.034 832.409, 333.207 828.700, 334.341 826.500 C 336.165 822.964, 336.409 820.645, 336.452 806.500 C 336.496 791.864, 336.309 790.124, 334.264 786.091 L 332.028 781.682 334.178 775.416 C 336.288 769.268, 336.295 769.060, 334.525 764.427 C 331.048 755.323, 318.807 745.682, 294.747 733.099 C 293.274 732.329, 292.248 731.407, 292.468 731.052 C 292.688 730.696, 292.455 729.751, 291.949 728.952 C 291.319 727.956, 291.026 727.892, 291.015 728.750 C 290.999 730.103, 287.203 730.429, 285.376 729.235 C 284.757 728.831, 283.966 727.150, 283.618 725.500 C 282.851 721.866, 278.090 622.758, 277.289 593.758 L 276.717 573.016 280.108 571.626 C 281.974 570.861, 292.500 569.190, 303.500 567.913 C 320.704 565.915, 328.463 565.584, 359 565.545 C 398.752 565.495, 409.164 566.002, 429.833 569 C 462.664 573.763, 483.130 579.071, 512.349 590.404 C 518.866 592.932, 524.838 595, 525.621 595 C 528.849 595, 536.426 579.392, 540.428 564.500 L 542.578 556.500 546.539 556.550 C 548.717 556.577, 554.550 557.138, 559.500 557.797 C 574.271 559.762, 591.944 559.290, 609.545 556.460 L 613.590 555.810 617.411 567.425 C 621.995 581.361, 627.315 592.800, 629.625 593.686 C 631.774 594.511, 637.422 592.985, 652.637 587.470 C 675.949 579.020, 703.854 572.205, 729.947 568.590 C 767.833 563.340, 837.028 564.070, 871.557 570.083 C 877.245 571.074, 878.274 571.586, 879.153 573.865 C 881.066 578.829, 875.645 716.159, 873.167 725.500 C 872.329 728.658, 867.869 731.655, 865.858 730.412 C 865.064 729.921, 864.894 726.234, 865.291 718.106 C 865.615 711.466, 865.503 707.570, 865.028 709 C 864.572 710.375, 864.155 715.394, 864.100 720.154 C 864.005 728.396, 863.849 728.978, 860.816 732.404 C 859.065 734.382, 857.271 736, 856.830 736 C 855.909 736, 839.474 745.725, 836.564 747.992 C 830.845 752.446, 824.055 759.453, 823.008 761.980 C 821.837 764.807, 822.077 772.971, 823.530 779.748 C 824.058 782.213, 823.464 784.887, 821.066 790.835 L 817.906 798.675 820.006 804.286 C 821.816 809.124, 821.948 810.480, 820.964 814.132 C 819.657 818.986, 820.105 822.145, 823 828.500 C 824.128 830.975, 825.329 834.463, 825.669 836.250 C 827.019 843.331, 829.803 847.022, 835.812 849.696 C 840.760 851.896, 842.451 852.155, 848.803 851.686 C 855.885 851.163, 856.134 851.222, 857.053 853.638 C 857.574 855.009, 858.007 858.463, 858.015 861.315 C 858.024 864.167, 858.467 867.175, 859 868 C 859.664 869.028, 859.974 866.583, 859.985 860.225 C 860.001 850.111, 859.602 850.794, 866.817 848.545 L 869.134 847.823 868.582 857.161 C 868.279 862.298, 867.772 874.150, 867.456 883.500 C 866.725 905.114, 866.577 904.829, 877 901.875 C 892.889 897.371, 922.234 884.032, 934.500 875.737 C 970.039 851.703, 992.858 819.221, 999.648 783 C 1002.448 768.062, 1002.170 737.018, 999.105 722.529 C 993.507 696.060, 985.047 677.986, 965.392 650.510 C 948.522 626.927, 944.519 620.132, 940.050 607.500 C 936.723 598.096, 936.517 596.785, 936.588 585.500 C 936.678 571.209, 939.005 559.862, 947.561 532 C 957.938 498.209, 957.431 501.005, 957.446 477.500 L 957.459 456.500 954.115 447.500 C 941.279 412.962, 925.157 397.051, 880.500 374.850 C 860.314 364.815, 847.961 354.778, 842.478 343.956 C 834.915 329.032, 834.184 316.573, 837.994 267.550 C 839.966 242.174, 839.005 225.429, 834.145 200.462 C 829.828 178.284, 817.045 152.932, 801.003 134.733 C 795.881 128.923, 781.654 116.808, 773.500 111.313 C 755.551 99.217, 725.949 88.473, 698 83.910 C 683.777 81.587, 637.966 80.404, 625.500 82.037 M 196.342 178.807 C 195.318 179.458, 188 197.875, 188 199.801 C 188 201.689, 184.101 203.807, 173.751 207.539 C 166.308 210.224, 162.821 211.990, 162.410 213.283 C 162.084 214.310, 162.115 215.454, 162.478 215.825 C 162.841 216.196, 168.387 218.300, 174.801 220.500 L 186.463 224.500 190.196 234.871 C 194.717 247.434, 196.468 250.397, 198.650 249.176 C 200.109 248.359, 206.934 232.033, 206.980 229.250 C 207.021 226.697, 210.890 224.289, 221.920 219.953 C 228.149 217.504, 233.481 214.892, 233.769 214.149 C 234.456 212.374, 233.197 211.673, 222.500 207.866 C 210.906 203.739, 208.538 202.026, 206.432 196.237 C 203.503 188.187, 199.795 180.075, 198.586 179.072 C 197.952 178.545, 196.942 178.426, 196.342 178.807 M 951.757 199.201 C 947.209 200.409, 943.439 204.656, 941.926 210.276 C 939.408 219.624, 943.151 227.028, 952.875 231.937 C 961.563 236.323, 961.600 236.419, 958.490 246.695 C 954.504 259.869, 947.006 282.068, 945.325 285.673 C 943.293 290.031, 941.657 290.382, 934.491 287.997 C 929.477 286.329, 927.747 286.146, 925.401 287.038 C 920.506 288.899, 919.154 290.915, 915.968 301.102 C 913.482 309.051, 913.111 311.338, 914.027 313.050 C 914.875 314.634, 914.862 316.408, 913.976 320.101 C 912.810 324.961, 912.853 325.138, 916.791 331.768 C 918.991 335.470, 921.302 340.075, 921.926 342 C 922.551 343.925, 923.656 346.282, 924.382 347.237 C 926.012 349.382, 935.218 353.630, 940.191 354.531 C 945.022 355.407, 952.575 352.894, 956.850 348.990 C 958.659 347.338, 961.244 346, 962.627 346 C 966.307 346, 968.545 344.484, 971.092 340.263 C 972.341 338.193, 974.845 334.824, 976.656 332.775 C 978.467 330.727, 980.219 327.802, 980.549 326.275 C 980.880 324.749, 982.083 320.879, 983.225 317.676 C 985.191 312.156, 985.213 311.670, 983.650 308.392 C 982.742 306.489, 982 304.272, 982 303.466 C 982 302.472, 980.930 302, 978.678 302 C 976.851 302, 973.251 301.283, 970.678 300.406 C 966.980 299.146, 966 298.344, 966 296.579 C 966 294.177, 976.584 260.066, 980.143 251 C 983.308 242.935, 983.419 242.870, 991 244.653 C 996.876 246.034, 997.987 246.029, 1002.571 244.596 C 1008.280 242.811, 1011.190 240.183, 1013.452 234.768 C 1017.487 225.113, 1012.558 213.362, 1003.734 211.597 C 993.043 209.459, 985.846 212.800, 981.487 221.925 C 980.022 224.991, 978.477 228.175, 978.053 229 C 977.629 229.825, 976.431 230.500, 975.391 230.500 C 973.956 230.500, 973.576 229.897, 973.816 228 C 973.989 226.625, 974.373 221.524, 974.668 216.665 L 975.205 207.830 970.106 202.915 C 965.394 198.373, 964.646 198.008, 960.253 198.103 C 957.639 198.160, 953.815 198.654, 951.757 199.201 M 954.253 206.646 C 949.782 208.850, 948.177 214.094, 950.368 219.339 C 951.565 222.202, 953.009 223.559, 956.508 225.107 C 959.025 226.220, 961.849 226.983, 962.784 226.803 C 964.964 226.383, 966.841 222.442, 967.641 216.600 C 968.239 212.238, 968.076 211.808, 964.565 208.497 C 960.426 204.593, 958.954 204.329, 954.253 206.646 M 994.374 218.985 C 991.020 220.340, 986 228.711, 986 232.949 C 986 235.312, 990.664 237, 997.195 237 C 1003.694 237, 1007 233.955, 1007 227.969 C 1007 220.829, 1000.776 216.400, 994.374 218.985 M 968.633 243.750 C 963.902 253.111, 952.372 290.921, 953.418 293.646 C 954.903 297.516, 958.109 290.990, 965.036 270 C 972.164 248.403, 974.323 239, 972.156 239 C 971.539 239, 969.953 241.137, 968.633 243.750 M 134.291 244.778 C 132.403 246.011, 128.594 255.340, 121.594 275.877 C 112.890 301.410, 111.608 304.220, 107.717 306.301 C 105.948 307.247, 94.150 311.567, 81.500 315.900 C 50.722 326.443, 50.112 326.707, 49.344 329.767 C 48.015 335.062, 49.679 335.927, 82.859 347.181 C 107.431 355.516, 110.100 356.722, 111.794 360.256 C 112.519 361.769, 116.276 371.893, 120.143 382.754 C 124.009 393.614, 128.105 405.117, 129.245 408.316 C 131.832 415.582, 134.467 419, 137.479 419 C 140.381 419, 143.107 412.792, 153.557 382.386 C 157.548 370.773, 161.414 360.310, 162.148 359.135 C 163.868 356.381, 166.468 355.232, 184 349.481 C 204.877 342.632, 220.709 336.608, 223.703 334.372 C 225.999 332.658, 226.159 332.166, 225.081 330.150 C 223.382 326.978, 220.044 325.612, 181.500 312.328 C 172.700 309.296, 164.770 306.163, 163.878 305.368 C 162.069 303.755, 158.694 295.193, 150.527 271.500 C 142.103 247.060, 138.892 241.774, 134.291 244.778 M 266.015 250.972 C 265.399 252.122, 263.606 256.672, 262.029 261.083 C 257.787 272.953, 257.559 273.180, 245.629 277.431 C 239.833 279.496, 234.613 281.761, 234.028 282.466 C 231.538 285.466, 235.507 288.161, 248.730 292.451 C 251.607 293.384, 254.893 294.903, 256.032 295.825 C 258.191 297.573, 261.732 305.400, 263.954 313.336 C 265.358 318.352, 267.194 320.523, 269.335 319.702 C 270.646 319.199, 272.126 315.875, 277.201 302.036 L 279.571 295.571 286.036 293.232 C 296.367 289.493, 303 286.131, 303 284.633 C 303 282.522, 301.398 281.596, 289.790 276.998 L 279.080 272.756 277.507 268.022 C 274.361 258.548, 270.093 249.493, 268.631 249.190 C 267.808 249.019, 266.631 249.821, 266.015 250.972 M 497.951 262.750 C 495.876 269.212, 486.097 288.132, 480.512 296.490 C 473.339 307.225, 463.549 317.684, 453.791 325.036 C 443.628 332.695, 426.013 341.354, 415 344.106 C 404.317 346.776, 403.719 347.249, 404.491 352.421 C 411.035 396.220, 425.034 435.875, 444.375 465.399 C 457.383 485.255, 478.725 507.430, 495.364 518.377 C 513.994 530.633, 528.711 537.190, 547.520 541.614 C 558.347 544.161, 561.280 544.436, 578 544.466 C 593.953 544.495, 597.877 544.178, 606.500 542.161 C 625.879 537.629, 638.239 532.725, 653.500 523.515 C 669.232 514.021, 686.411 498.688, 701.159 480.978 C 717.720 461.092, 734.132 428.757, 742.515 399.500 C 746.034 387.221, 750.860 362.954, 751.656 353.546 C 752.171 347.454, 752.011 345.620, 750.905 344.920 C 746.337 342.027, 727.796 338.512, 709 336.976 C 681.811 334.753, 674.050 334.024, 651.500 331.569 C 611.521 327.217, 590.899 323.027, 571.500 315.312 C 539.783 302.698, 521.232 288.830, 505.871 266.250 C 503.159 262.262, 500.538 259, 500.047 259 C 499.556 259, 498.613 260.688, 497.951 262.750 M 648.230 349.951 C 640.892 351.756, 633.312 359.029, 630.520 366.944 C 628.510 372.639, 628.632 376.593, 630.976 381.756 C 635.823 392.436, 642.835 397.322, 653.437 397.409 C 667.095 397.520, 678 386.789, 678 373.235 C 678 365.508, 671.434 354.826, 664.783 351.732 C 660.603 349.788, 652.456 348.911, 648.230 349.951 M 490.721 352.672 C 488.656 354.141, 485.287 357.853, 483.233 360.922 C 479.796 366.057, 479.502 367.056, 479.530 373.500 C 479.579 385.156, 485.372 392.956, 496.602 396.488 C 510.750 400.938, 524.086 392.365, 527.012 376.938 C 528.406 369.587, 526.190 362.546, 520.609 356.590 C 515.801 351.459, 511.604 350.014, 501.488 350.006 C 495.487 350.001, 493.935 350.385, 490.721 352.672 M 505.306 356.973 C 502.545 358.132, 500.121 365.380, 501.669 367.843 C 502.242 368.754, 504.107 370.318, 505.813 371.317 C 508.754 373.040, 509.100 373.046, 512.492 371.437 C 516.817 369.385, 518.342 366.834, 517.510 363.045 C 516.376 357.880, 510.320 354.867, 505.306 356.973 M 656.500 357.131 C 651.146 360.124, 650.381 366.074, 654.805 370.313 C 658.323 373.684, 661.003 373.710, 664.923 370.411 C 668.675 367.254, 668.984 363.213, 665.750 359.593 C 663.074 356.599, 659.266 355.584, 656.500 357.131 M 368.500 365.486 C 361.416 368.811, 359 372.639, 359 380.540 C 359 401.774, 378.240 431.583, 397.421 440.068 C 402.449 442.292, 412.517 444.399, 414.493 443.641 C 415.445 443.276, 413.956 438.226, 408.883 424.610 C 405.084 414.417, 400.799 401.222, 399.360 395.288 C 397.921 389.355, 395.762 380.450, 394.561 375.500 L 392.378 366.500 387.439 365.346 C 380.591 363.746, 372.074 363.809, 368.500 365.486 M 770.700 365.214 C 768.610 365.769, 766.264 367.193, 765.487 368.380 C 764.709 369.567, 762.890 375.479, 761.445 381.519 C 756.894 400.538, 746.864 431.562, 742.601 439.804 C 741.107 442.693, 741.094 443.099, 742.477 443.630 C 745.295 444.711, 753.407 442.882, 760 439.680 C 767.821 435.881, 780.787 423.562, 786.798 414.220 C 797.645 397.360, 801.322 379.245, 795.652 370.592 C 791.982 364.990, 780.707 362.560, 770.700 365.214 M 572.500 442.389 C 565.431 444.112, 555.200 449.785, 550.494 454.590 C 545.111 460.088, 540.751 468.956, 540.207 475.516 C 539.809 480.322, 540.002 480.955, 542.331 482.481 C 546.530 485.233, 549.759 482.916, 553.029 474.806 C 554.514 471.124, 556.961 466.624, 558.467 464.806 C 562.733 459.657, 571.424 454.209, 576.614 453.431 C 583.322 452.425, 593.037 453.458, 597.266 455.628 C 603.727 458.943, 611.485 467.380, 613.918 473.739 C 617.637 483.458, 621.779 486.221, 626.120 481.880 C 628.935 479.065, 628.144 472.927, 623.955 465.067 C 619.405 456.530, 615.863 452.751, 607.906 447.943 C 597.165 441.453, 584.493 439.465, 572.500 442.389 M 767.500 573.933 L 759.500 574.500 767.401 575.250 C 776.965 576.158, 818.303 576.034, 822.500 575.085 C 829.919 573.407, 787.475 572.519, 767.500 573.933 M 268.405 743.107 C 266.645 745.054, 266.500 747.011, 266.500 768.857 C 266.500 794.961, 267.173 799.495, 272.046 806.222 C 274.800 810.024, 275.020 810.936, 274.771 817.522 C 274.388 827.654, 275.836 828.955, 294 834.798 C 305.367 838.455, 314.841 839.568, 317.576 837.568 C 319.399 836.235, 319.389 836.052, 317.225 830.830 C 314.350 823.893, 314.417 823, 317.809 823 C 319.354 823, 321.438 822.400, 322.441 821.667 C 324.040 820.497, 324.119 819.891, 323.081 816.745 C 322.430 814.772, 320.570 811.326, 318.949 809.088 C 315.462 804.274, 315.277 803, 318.066 803 C 319.202 803, 321.002 802.534, 322.066 801.965 C 325.404 800.178, 324.411 795.906, 318.571 786.927 C 315.584 782.337, 313.365 778.219, 313.638 777.776 C 313.912 777.333, 315.927 776.058, 318.117 774.941 C 325.489 771.180, 324.463 767.567, 313.787 759.697 C 304.142 752.587, 291.142 745.723, 282.381 743.113 C 273.470 740.460, 270.800 740.458, 268.405 743.107 M 877.907 741.958 C 871.426 743.921, 856.887 750.710, 850.748 754.640 C 834.450 765.073, 830.590 772.466, 840.103 775.028 C 842.246 775.605, 844 776.644, 844 777.338 C 844 778.031, 841.503 782.372, 838.451 786.985 C 834.217 793.383, 832.972 796.098, 833.201 798.436 C 833.462 801.106, 834.014 801.620, 837.500 802.434 C 839.700 802.948, 841.675 803.498, 841.889 803.657 C 842.104 803.816, 841.158 805.420, 839.788 807.223 C 838.417 809.025, 836.555 811.940, 835.648 813.700 C 833.949 816.999, 833.425 821.913, 834.750 822.114 C 835.163 822.177, 836.790 822.379, 838.366 822.563 C 842.202 823.011, 842.311 823.217, 841.078 827.656 C 840.491 829.770, 840.009 832.962, 840.006 834.750 L 840 838 845.750 837.985 C 852.663 837.967, 861.021 836.044, 870.570 832.274 C 882.249 827.663, 882.269 827.640, 882.949 817.925 C 883.412 811.321, 884.111 808.527, 886.182 805 C 889.612 799.158, 890.966 790.054, 891.712 767.825 C 892.367 748.285, 891.856 745.528, 887.053 742.691 C 883.982 740.876, 882 740.717, 877.907 741.958 M 299.567 899 C 300.654 905.740, 301.046 907, 302.054 907 C 302.736 907, 302.730 906.363, 302.035 905.066 C 301.466 904.002, 300.993 902.089, 300.985 900.816 C 300.976 899.542, 300.527 897.825, 299.986 897 C 299.286 895.932, 299.165 896.508, 299.567 899" stroke="none" fill="#a18163" fill-rule="evenodd"/></svg>