<svg xmlns="http://www.w3.org/2000/svg" width="947" height="217" viewBox="0 0 947 217" version="1.1"><path d="M 734.500 20.947 C 732.300 21.940, 729.560 23.821, 728.412 25.127 C 727.263 26.432, 725.320 29.177, 724.094 31.227 C 722.868 33.277, 719.274 37.327, 716.107 40.227 C 712.940 43.127, 708.936 47.583, 707.209 50.130 C 705.482 52.676, 703.311 55.050, 702.385 55.406 C 700.884 55.982, 700.953 56.321, 703.025 58.526 C 704.303 59.887, 706.414 61, 707.717 61 C 709.277 61, 711.693 59.271, 714.793 55.935 C 717.382 53.150, 722.703 47.637, 726.619 43.685 C 730.534 39.733, 734.684 34.630, 735.841 32.345 C 736.998 30.059, 739.134 27.253, 740.589 26.109 C 742.043 24.965, 745.660 23.264, 748.626 22.329 C 752.119 21.228, 753.574 20.348, 752.759 19.830 C 752.067 19.390, 748.575 19.056, 745 19.086 C 740.984 19.120, 736.971 19.831, 734.500 20.947 M 639.779 24.250 C 638.897 24.938, 636.367 28.334, 634.156 31.798 C 631.946 35.262, 629.011 41.112, 627.633 44.798 C 626.255 48.484, 624.268 54.650, 623.218 58.500 C 622.168 62.350, 620.758 67.750, 620.085 70.500 C 619.412 73.250, 617.768 80.654, 616.431 86.952 C 614.224 97.347, 614.010 100.579, 614.106 121.952 C 614.164 134.904, 614.502 150.101, 614.856 155.724 C 615.382 164.078, 615.867 166.315, 617.505 167.951 C 619.103 169.548, 620.295 169.826, 623.388 169.325 L 627.266 168.695 626.615 161.098 C 626.257 156.919, 625.681 142.248, 625.335 128.496 C 624.747 105.175, 624.853 102.785, 626.908 92.996 C 628.119 87.223, 630.232 77.775, 631.602 72 C 632.972 66.225, 635.259 57.900, 636.684 53.500 C 638.110 49.100, 640.160 43.700, 641.241 41.500 C 642.321 39.300, 644.847 34.916, 646.853 31.758 C 649.792 27.131, 651.150 25.892, 653.849 25.378 C 656.220 24.927, 656.804 24.491, 655.849 23.885 C 655.107 23.415, 651.549 23.024, 647.941 23.015 C 644.193 23.007, 640.695 23.536, 639.779 24.250 M 80.306 24.972 C 77.449 25.410, 73.399 26.810, 71.306 28.082 C 69.213 29.355, 65.813 31.733, 63.750 33.366 C 61.688 34.999, 60 37.060, 60 37.946 C 60 38.832, 58.987 40.952, 57.750 42.657 C 56.513 44.362, 51.945 50.425, 47.599 56.129 C 43.254 61.833, 38.387 69.285, 36.783 72.689 C 34.927 76.631, 33.386 82.257, 32.538 88.189 C 31.807 93.310, 30.713 98.761, 30.109 100.303 C 29.504 101.844, 29.014 104.544, 29.019 106.303 C 29.025 108.061, 28.808 124.026, 28.537 141.779 C 28.054 173.488, 28.088 174.238, 30.506 184.279 C 32.219 191.394, 33.608 195.027, 35.076 196.235 C 36.236 197.190, 40.229 198.877, 43.950 199.985 C 47.671 201.093, 51.342 201.980, 52.108 201.956 C 52.874 201.931, 51.893 201.062, 49.929 200.024 C 47.964 198.985, 45.765 197.422, 45.041 196.550 C 44.317 195.677, 43.330 193.059, 42.848 190.732 C 42.366 188.404, 41.305 182.675, 40.490 178 C 39.674 173.325, 39.006 165.758, 39.004 161.184 C 39.002 156.611, 39.451 152.026, 40.002 150.996 C 40.651 149.784, 40.706 144.604, 40.160 136.312 C 39.599 127.811, 39.702 119.799, 40.464 112.500 C 41.095 106.450, 41.880 100.825, 42.206 100 C 42.533 99.175, 43.339 94.585, 43.996 89.801 C 44.748 84.336, 46.270 78.822, 48.092 74.970 C 49.686 71.598, 52.455 66.744, 54.245 64.182 C 56.035 61.620, 60.360 55.992, 63.855 51.674 C 67.350 47.356, 70.624 42.324, 71.130 40.492 C 71.812 38.021, 73.513 36.190, 77.726 33.394 C 80.848 31.322, 84.999 29.055, 86.951 28.357 C 88.903 27.659, 91.828 27.068, 93.450 27.044 C 95.265 27.017, 96.034 26.647, 95.450 26.082 C 94.927 25.578, 92.475 24.942, 90 24.671 C 87.525 24.399, 83.163 24.535, 80.306 24.972 M 440.308 27.010 C 439.103 27.495, 437.313 29.119, 436.331 30.617 C 435.039 32.590, 434.349 36.399, 433.833 44.421 C 433.441 50.514, 432.800 62.138, 432.408 70.250 L 431.696 85 434.266 85 C 435.680 85, 437.548 85.273, 438.418 85.607 C 439.288 85.941, 440 86.878, 440 87.690 C 440 88.502, 440.563 88.982, 441.250 88.756 C 441.938 88.531, 442.618 87.031, 442.762 85.423 C 442.906 83.815, 443.627 72.075, 444.365 59.333 C 445.540 39.020, 445.965 35.724, 447.815 32.589 L 449.925 29.013 447.012 27.506 C 445.410 26.678, 443.739 26.029, 443.300 26.063 C 442.860 26.098, 441.514 26.524, 440.308 27.010 M 88.642 52.272 C 87.506 53.103, 86.717 55.444, 86.366 59.022 C 85.911 63.671, 86.282 65.487, 88.818 71.015 C 90.462 74.599, 92.120 79.617, 92.502 82.167 C 93.088 86.069, 92.875 87.125, 91.156 88.844 C 90.033 89.967, 87.401 91.357, 85.307 91.933 C 83.213 92.509, 79.262 93.590, 76.527 94.337 L 71.555 95.694 76.654 96.917 C 81.257 98.021, 82.653 97.893, 91.011 95.603 C 96.103 94.208, 101.159 92.264, 102.246 91.283 C 103.880 89.809, 104.131 88.633, 103.693 84.500 C 103.401 81.750, 101.769 76.246, 100.066 72.270 C 97.636 66.593, 97.104 64.204, 97.592 61.153 C 97.971 58.782, 97.723 56.337, 96.957 54.883 C 96.266 53.572, 95.205 52.169, 94.600 51.765 C 93.995 51.361, 92.799 51.024, 91.941 51.015 C 91.084 51.007, 89.599 51.573, 88.642 52.272 M 188.500 53.363 C 185.200 54.555, 180.256 56.648, 177.513 58.015 C 174.770 59.382, 169.317 63.650, 165.394 67.500 C 161.472 71.350, 157.140 76.750, 155.768 79.500 C 154.396 82.250, 152.766 86.075, 152.145 88 C 151.525 89.925, 150.412 95.046, 149.671 99.380 C 148.596 105.673, 148.571 107.976, 149.547 110.813 C 150.411 113.327, 150.475 115.209, 149.764 117.246 C 149.019 119.385, 149.203 121.977, 150.480 127.313 C 151.426 131.266, 153.523 137.302, 155.140 140.727 C 157.235 145.165, 159.698 148.325, 163.710 151.727 C 166.806 154.352, 171.693 158.593, 174.570 161.150 C 178.170 164.351, 181.573 166.315, 185.489 167.454 C 188.618 168.363, 191.587 168.971, 192.087 168.804 C 192.586 168.637, 188.940 165.168, 183.984 161.097 C 179.027 157.025, 173.239 151.813, 171.121 149.515 C 169.003 147.218, 166.285 142.705, 165.081 139.487 C 163.877 136.269, 162.264 130.945, 161.497 127.657 C 160.578 123.718, 160.424 121.076, 161.045 119.916 C 161.564 118.946, 161.843 116.882, 161.665 115.327 C 161.488 113.772, 160.995 111.720, 160.571 110.767 C 160.146 109.813, 160.537 104.705, 161.438 99.414 C 162.536 92.974, 164.186 87.599, 166.431 83.148 C 168.551 78.944, 172.247 74.051, 176.484 69.840 C 180.170 66.177, 185.731 61.836, 188.843 60.194 C 191.954 58.552, 197.097 56.402, 200.270 55.415 C 203.444 54.429, 205.883 53.145, 205.691 52.561 C 205.499 51.977, 202.903 51.432, 199.921 51.348 C 196.528 51.253, 192.255 52.007, 188.500 53.363 M 666.200 59.200 C 665.540 59.860, 665 60.930, 665 61.578 C 665 62.225, 665.706 63.341, 666.568 64.056 C 667.430 64.772, 668.952 66.949, 669.950 68.895 C 670.949 70.841, 676.656 76.827, 682.633 82.198 C 692.268 90.856, 693.925 91.965, 697.250 91.981 C 699.313 91.992, 701 91.655, 701 91.232 C 701 90.810, 696.942 86.722, 691.982 82.148 C 687.022 77.574, 682.257 72.465, 681.393 70.794 C 680.529 69.123, 678.400 66.337, 676.661 64.603 C 674.923 62.869, 672.387 60.674, 671.027 59.725 C 669.668 58.776, 668.295 58, 667.977 58 C 667.660 58, 666.860 58.540, 666.200 59.200 M 550 68.975 C 549.175 69.522, 547.241 69.976, 545.702 69.985 C 544.163 69.993, 541.238 70.824, 539.202 71.831 C 537.166 72.838, 533.925 74.572, 532 75.684 C 530.075 76.796, 526.293 79.110, 523.595 80.827 C 520.897 82.544, 516.314 84.639, 513.411 85.483 C 510.158 86.428, 507.338 88.026, 506.066 89.644 C 504.930 91.088, 504 92.732, 504 93.297 C 504 93.862, 502.542 96.598, 500.759 99.375 C 498.230 103.317, 497.367 105.970, 496.828 111.463 C 496.448 115.333, 495.820 121.076, 495.432 124.224 C 494.978 127.900, 495.177 131.561, 495.987 134.455 C 496.681 136.934, 497.902 139.504, 498.701 140.167 C 499.847 141.118, 500.343 141.070, 501.061 139.936 C 501.561 139.146, 502.003 138.725, 502.044 139 C 502.085 139.275, 502.246 141.075, 502.403 143 C 502.560 144.925, 504.380 149.875, 506.447 154 C 508.513 158.125, 511.621 163.004, 513.352 164.841 C 515.083 166.679, 519.425 169.653, 523 171.450 C 526.575 173.247, 533.414 176.386, 538.198 178.426 C 543.855 180.838, 548.050 182.023, 550.198 181.815 C 553.410 181.505, 553.344 181.436, 547.783 179.275 C 544.639 178.053, 539.033 175.579, 535.325 173.776 C 531.617 171.974, 527.100 169.020, 525.287 167.212 C 523.474 165.403, 520.550 161.128, 518.789 157.712 C 517.028 154.295, 515.052 150.019, 514.398 148.210 C 513.743 146.400, 513.439 144.038, 513.721 142.960 C 514.004 141.878, 513.733 141, 513.117 141 C 512.502 141, 512 141.450, 512 142 C 512 142.550, 511.534 143, 510.964 143 C 510.395 143, 509.005 140.863, 507.876 138.250 C 506.291 134.583, 505.967 132.359, 506.454 128.500 C 506.802 125.750, 507.404 119.865, 507.793 115.423 C 508.398 108.509, 509.040 106.472, 512.250 101.273 C 514.313 97.932, 516 94.721, 516 94.138 C 516 93.555, 516.972 92.173, 518.159 91.067 C 519.346 89.960, 522.464 88.342, 525.087 87.471 C 527.709 86.600, 533.600 83.605, 538.178 80.816 C 542.755 78.026, 548.450 74.902, 550.833 73.872 C 553.216 72.842, 556.452 72, 558.024 72 C 559.596 72, 561.126 71.605, 561.425 71.122 C 561.723 70.639, 560.677 69.985, 559.100 69.670 C 557.524 69.355, 555.168 68.845, 553.867 68.538 C 552.565 68.231, 550.825 68.428, 550 68.975 M 855 68.995 C 854.175 69.531, 852.300 69.976, 850.833 69.985 C 849.366 69.993, 846.216 70.842, 843.833 71.872 C 841.450 72.902, 835.705 76.056, 831.067 78.883 C 826.429 81.709, 820.804 84.505, 818.567 85.097 C 816.330 85.689, 813.263 87.344, 811.750 88.774 C 810.237 90.204, 809 91.950, 809 92.653 C 809 93.357, 807.200 96.717, 805 100.121 C 801.412 105.672, 801 106.959, 801 112.606 C 801 116.068, 800.499 121.238, 799.887 124.093 C 799.022 128.126, 799.066 130.200, 800.085 133.392 C 800.806 135.651, 802.039 138.521, 802.825 139.768 C 804.170 141.904, 804.332 141.933, 805.595 140.268 C 806.798 138.682, 806.940 138.863, 806.968 142.028 C 806.986 143.969, 808.588 148.871, 810.530 152.922 C 812.471 156.973, 815.356 161.910, 816.940 163.894 C 818.524 165.877, 822.674 168.946, 826.160 170.713 C 829.647 172.481, 836.775 175.742, 842 177.961 C 847.225 180.180, 852.850 181.968, 854.500 181.936 C 857.387 181.878, 857.331 181.797, 853 179.769 C 850.525 178.610, 844.869 175.931, 840.431 173.815 C 835.993 171.700, 830.981 168.513, 829.294 166.734 C 827.606 164.955, 824.557 160.238, 822.518 156.252 C 820.479 152.265, 818.568 147.197, 818.272 144.990 C 817.865 141.953, 817.433 141.226, 816.499 142 C 815.640 142.714, 814.937 142.630, 814.185 141.723 C 813.591 141.007, 812.547 138.335, 811.865 135.784 C 810.906 132.200, 810.878 129.026, 811.741 121.823 C 812.356 116.695, 812.866 111.440, 812.875 110.145 C 812.884 108.849, 814.491 105.105, 816.446 101.823 C 818.401 98.542, 820 95.500, 820 95.063 C 820 94.627, 820.910 93.113, 822.022 91.699 C 823.248 90.140, 826.119 88.526, 829.319 87.596 C 832.220 86.752, 837.498 84.180, 841.047 81.880 C 844.596 79.580, 850.200 76.416, 853.500 74.850 C 856.800 73.283, 860.711 72.001, 862.191 72.001 C 863.671 72, 865.130 71.599, 865.432 71.110 C 865.735 70.620, 864.379 69.919, 862.420 69.551 C 860.461 69.183, 858.327 68.689, 857.679 68.452 C 857.031 68.215, 855.825 68.459, 855 68.995 M 736.204 73.292 C 732.591 76.974, 732 78.176, 732 81.845 C 732 84.193, 732.415 88.001, 732.921 90.307 C 733.428 92.613, 734.369 102.420, 735.013 112.099 C 735.656 121.779, 736.168 134.611, 736.149 140.616 C 736.130 146.621, 735.650 153.551, 735.082 156.017 C 734.514 158.483, 734.038 165.525, 734.024 171.667 C 734.005 180.485, 734.403 183.774, 735.914 187.300 C 736.967 189.757, 738.868 192.494, 740.137 193.383 C 741.406 194.273, 742.934 195, 743.531 195 C 744.129 195, 745.417 194.415, 746.395 193.701 C 748.080 192.468, 748.085 192.136, 746.490 187.260 C 745.209 183.343, 744.919 179.784, 745.270 172.310 C 745.524 166.914, 746.266 158.348, 746.919 153.273 C 747.882 145.786, 747.807 139.206, 746.521 118.377 C 745.650 104.259, 744.690 92.308, 744.388 91.819 C 744.086 91.331, 743.407 86.338, 742.879 80.725 C 742.351 75.111, 741.579 70.179, 741.163 69.763 C 740.748 69.348, 738.516 70.936, 736.204 73.292 M 299.749 78.021 C 297.686 78.543, 290.410 81.271, 283.580 84.085 C 276.751 86.898, 270.223 90.076, 269.074 91.146 C 267.666 92.458, 267.168 93.823, 267.548 95.334 C 268.007 97.164, 267.455 97.889, 264.552 99.274 C 262.336 100.331, 259.721 102.961, 257.616 106.251 C 255.759 109.155, 253.538 113.595, 252.681 116.119 C 251.824 118.642, 249.971 125.491, 248.562 131.339 C 246.923 138.141, 246.008 144.769, 246.022 149.736 C 246.037 155.077, 246.613 158.753, 247.868 161.516 C 248.871 163.724, 252.460 168.224, 255.843 171.516 C 259.226 174.807, 263.233 177.799, 264.747 178.164 C 266.261 178.529, 270.317 180.011, 273.760 181.458 C 278.120 183.289, 280.519 183.809, 281.661 183.170 C 282.967 182.439, 282.258 181.863, 278.179 180.341 C 275.362 179.291, 270.617 176.324, 267.635 173.750 C 264.419 170.973, 261.153 166.941, 259.607 163.838 C 257.660 159.933, 257 157.074, 257.001 152.554 C 257.001 149.224, 257.664 143.350, 258.473 139.500 C 259.283 135.650, 260.878 128.956, 262.019 124.625 C 263.160 120.294, 265.162 114.640, 266.469 112.062 C 267.776 109.483, 270.603 105.827, 272.752 103.937 C 274.900 102.046, 277.520 100.003, 278.572 99.395 C 280.137 98.493, 280.260 98.018, 279.247 96.797 C 278.241 95.586, 278.342 95.001, 279.781 93.699 C 280.756 92.816, 284.242 90.912, 287.527 89.467 C 290.812 88.022, 294.400 86.456, 295.500 85.985 C 296.600 85.514, 299.750 84.152, 302.500 82.958 C 305.250 81.763, 310.565 80.547, 314.311 80.254 C 318.603 79.919, 320.772 79.372, 320.174 78.774 C 319.653 78.253, 315.688 77.657, 311.363 77.450 C 307.038 77.243, 301.812 77.500, 299.749 78.021 M 410 84.511 C 407.525 85.206, 403.250 86.677, 400.500 87.780 C 397.750 88.883, 392.123 91.392, 387.996 93.354 C 383.614 95.438, 378.765 98.706, 376.339 101.211 C 373.873 103.757, 371.509 107.530, 370.521 110.497 C 369.605 113.245, 367.829 117.520, 366.573 119.997 C 365.318 122.474, 363.557 126.189, 362.660 128.253 C 361.448 131.044, 361.185 133.606, 361.637 138.253 C 361.971 141.689, 362.189 146.651, 362.121 149.280 C 362.034 152.650, 362.777 155.599, 364.639 159.274 C 366.092 162.142, 370.255 167.441, 373.890 171.051 C 379.584 176.705, 381.474 177.918, 387.528 179.807 C 391.394 181.013, 395.444 182, 396.528 181.999 C 397.727 181.999, 396.736 181.134, 394 179.794 C 391.525 178.582, 387.250 175.302, 384.500 172.505 C 381.750 169.708, 378.091 164.738, 376.370 161.460 C 373.717 156.409, 373.261 154.509, 373.382 149 C 373.460 145.425, 373.883 141.938, 374.321 141.250 C 374.833 140.447, 374.569 140, 373.584 140 C 372.400 140, 372.184 139.260, 372.637 136.750 C 372.960 134.963, 373.863 131.532, 374.642 129.127 C 375.422 126.722, 377.134 122.897, 378.448 120.627 C 379.762 118.357, 381.348 114.562, 381.972 112.193 C 382.597 109.825, 384.729 106.092, 386.710 103.899 C 389.166 101.181, 393.528 98.385, 400.407 95.119 C 405.958 92.484, 412.750 89.580, 415.500 88.666 C 418.250 87.752, 422.490 86.515, 424.922 85.917 C 428.157 85.122, 428.962 84.589, 427.922 83.931 C 427.140 83.436, 423.800 83.080, 420.500 83.139 C 417.200 83.199, 412.475 83.817, 410 84.511 M 565.555 92.911 C 565.246 93.412, 564.995 94.874, 564.997 96.161 C 565 97.447, 565.275 100.422, 565.608 102.771 C 566.091 106.172, 565.679 108.136, 563.587 112.413 C 562.141 115.366, 558.988 119.600, 556.579 121.820 C 554.170 124.041, 550.395 126.778, 548.191 127.902 C 545.987 129.027, 542.332 130.243, 540.070 130.605 C 537.807 130.967, 535.722 131.640, 535.437 132.102 C 535.152 132.564, 536.109 133.240, 537.564 133.605 C 539.020 133.971, 543.132 133.997, 546.703 133.663 C 550.274 133.330, 555.514 131.995, 558.348 130.696 C 561.182 129.398, 565.864 125.919, 568.753 122.967 C 572.201 119.443, 574.718 115.698, 576.076 112.068 C 577.326 108.727, 577.897 105.541, 577.518 104.019 C 577.173 102.634, 576.572 99.935, 576.182 98.023 C 575.721 95.758, 574.607 94.107, 572.987 93.288 C 571.619 92.596, 569.514 92.023, 568.309 92.015 C 567.104 92.007, 565.865 92.410, 565.555 92.911 M 870.467 92.765 C 869.898 93.169, 869.534 94.850, 869.658 96.500 C 869.781 98.150, 870.181 100.933, 870.545 102.684 C 871.026 104.994, 870.540 107.325, 868.772 111.186 C 867.433 114.111, 864.183 118.659, 861.549 121.293 C 858.915 123.927, 855.056 126.951, 852.972 128.014 C 850.888 129.077, 847.332 130.243, 845.070 130.605 C 842.807 130.967, 840.722 131.640, 840.437 132.102 C 840.152 132.564, 841.102 133.238, 842.548 133.601 C 843.995 133.965, 847.886 134.016, 851.195 133.716 C 855.022 133.369, 859.519 132.034, 863.553 130.048 C 867.388 128.161, 871.551 125.063, 874.086 122.213 C 876.391 119.621, 879.157 115.539, 880.233 113.142 C 881.624 110.043, 882.024 107.586, 881.619 104.642 C 881.305 102.364, 880.925 99.163, 880.774 97.530 C 880.590 95.530, 879.683 94.146, 878 93.294 C 876.625 92.599, 874.600 92.030, 873.500 92.030 C 872.400 92.030, 871.035 92.361, 870.467 92.765 M 443 104.878 C 443 107.010, 442.395 109.258, 441.655 109.872 C 440.915 110.486, 438.964 111.257, 437.320 111.586 C 434.695 112.111, 434.177 112.812, 433.067 117.342 C 432.371 120.179, 430.846 125.200, 429.677 128.500 C 428.508 131.800, 426.065 136.968, 424.249 139.985 C 422.433 143.001, 419.318 147.139, 417.326 149.179 C 415.333 151.219, 411.408 153.771, 408.602 154.849 C 405.796 155.928, 402.648 157.088, 401.607 157.429 C 400.566 157.769, 399.928 158.261, 400.189 158.522 C 400.450 158.784, 402.775 159.392, 405.355 159.874 C 408.741 160.507, 411.173 160.362, 414.096 159.355 C 416.324 158.587, 420.251 156.888, 422.824 155.579 C 425.396 154.269, 428.468 152.141, 429.651 150.849 C 430.835 149.557, 432.990 146.475, 434.442 144 C 435.893 141.525, 438.133 137.247, 439.420 134.493 C 440.707 131.739, 442.489 126.640, 443.380 123.162 C 444.271 119.684, 445 113.275, 445 108.919 C 445 104.306, 444.582 101, 444 101 C 443.450 101, 443 102.745, 443 104.878 M 312.140 109.072 C 309.849 109.990, 309.830 110.091, 311.482 112.613 C 312.716 114.497, 312.997 116.210, 312.504 118.855 C 312.130 120.860, 310.223 125.425, 308.268 129 C 306.312 132.575, 302.988 138.046, 300.881 141.158 C 298.774 144.270, 296.693 146.970, 296.256 147.158 C 295.819 147.346, 293.487 149.863, 291.074 152.750 C 288.073 156.342, 285.947 158, 284.343 158 C 283.055 158, 282 158.360, 282 158.800 C 282 159.240, 282.540 160.140, 283.200 160.800 C 283.860 161.460, 285.429 162, 286.686 162 C 287.943 162, 291.065 161.440, 293.625 160.755 C 297.588 159.695, 299.379 158.256, 305.695 151.051 C 309.774 146.398, 315.013 139.195, 317.338 135.045 C 319.663 130.895, 322.350 125.430, 323.308 122.899 C 324.267 120.368, 324.767 117.556, 324.419 116.649 C 324.071 115.742, 323.405 115, 322.938 115 C 322.472 115, 321.795 113.425, 321.434 111.500 C 320.846 108.364, 320.451 108.007, 317.639 108.063 C 315.912 108.098, 313.438 108.552, 312.140 109.072 M 98.388 118.690 L 95.277 120.232 95.110 135.866 C 95.018 144.465, 95.447 154.650, 96.063 158.500 C 96.680 162.350, 97.836 168.596, 98.633 172.380 C 99.431 176.164, 100.697 180.439, 101.447 181.880 C 102.196 183.321, 103.865 185.453, 105.155 186.619 C 106.445 187.784, 108.702 189.021, 110.171 189.368 C 111.639 189.715, 113.504 189.744, 114.313 189.433 C 115.535 188.965, 115.371 188.126, 113.349 184.509 C 111.808 181.752, 110.196 175.988, 108.963 168.825 C 107.517 160.426, 107.008 152.720, 106.991 139 C 106.979 128.825, 106.639 119.998, 106.235 119.385 C 105.831 118.771, 104.600 118.017, 103.500 117.708 C 102.400 117.400, 100.100 117.841, 98.388 118.690 M 590.749 150.772 C 589.786 150.978, 586.412 152.704, 583.251 154.608 C 580.090 156.511, 575.762 158.590, 573.631 159.229 C 570.473 160.175, 570.103 160.525, 571.629 161.124 C 572.658 161.529, 575.999 161.891, 579.054 161.930 C 583.112 161.981, 585.939 161.323, 589.554 159.483 C 592.274 158.099, 595.354 156.313, 596.398 155.514 C 597.900 154.366, 598.050 153.765, 597.116 152.639 C 596.466 151.857, 595.162 151.032, 594.217 150.806 C 593.273 150.581, 591.712 150.565, 590.749 150.772 M 893.189 151.563 C 891.487 152.278, 888.386 154.029, 886.297 155.454 C 884.209 156.878, 880.700 158.538, 878.500 159.142 C 874.606 160.211, 874.566 160.266, 877 161.203 C 878.375 161.732, 881.975 161.993, 885 161.783 C 888.114 161.566, 892.579 160.360, 895.292 159.002 C 897.928 157.683, 900.570 156.018, 901.165 155.302 C 901.942 154.365, 901.921 153.610, 901.090 152.608 C 900.454 151.843, 899.113 151.001, 898.109 150.739 C 897.105 150.476, 894.891 150.847, 893.189 151.563 M 443.250 171.220 C 441.899 171.872, 441 173.210, 441 174.570 C 441 175.815, 441.842 178.784, 442.870 181.167 C 443.899 183.550, 445.587 186.248, 446.620 187.161 C 447.654 188.075, 450.634 189.138, 453.242 189.524 L 457.985 190.225 455.575 185.862 C 454.250 183.463, 452.634 179.475, 451.985 177 C 451.336 174.525, 450.343 171.938, 449.780 171.250 C 449.216 170.563, 448.023 170.030, 447.128 170.068 C 446.232 170.105, 444.488 170.624, 443.250 171.220 M 320.249 174.288 L 316.997 176.715 321.028 181.294 C 323.244 183.812, 326.560 186.801, 328.397 187.936 C 330.233 189.071, 333.439 190, 335.520 190 L 339.304 190 333.902 184.179 C 330.931 180.978, 327.375 176.897, 326 175.110 L 323.500 171.861 320.249 174.288" stroke="none" fill="#f2d755" fill-rule="evenodd"/><path d="M 746.639 22.992 C 743.965 24.037, 740.880 25.703, 739.783 26.696 C 738.685 27.688, 736.876 30.300, 735.762 32.500 C 734.649 34.700, 730.534 39.733, 726.619 43.685 C 722.703 47.637, 717.382 53.150, 714.793 55.935 C 711.604 59.367, 709.294 61, 707.632 61 C 706.190 61, 704.211 59.866, 702.833 58.250 C 701.544 56.737, 698.016 53.475, 694.994 51 C 691.972 48.525, 688.600 46.001, 687.500 45.391 C 686.400 44.781, 683.444 41.640, 680.931 38.411 C 678.418 35.182, 673.918 30.844, 670.931 28.771 C 666.247 25.522, 664.743 25.005, 660 25.015 C 656.975 25.022, 653.595 25.270, 652.490 25.568 C 651.384 25.865, 648.843 28.671, 646.843 31.804 C 644.842 34.937, 642.321 39.300, 641.241 41.500 C 640.160 43.700, 638.110 49.100, 636.684 53.500 C 635.259 57.900, 632.974 66.225, 631.606 72 C 630.239 77.775, 628.193 86.880, 627.060 92.233 C 625.468 99.755, 625 105.626, 625 118.082 C 625 126.947, 625.493 141.917, 626.096 151.350 C 626.919 164.235, 627.576 168.932, 628.740 170.239 C 629.924 171.568, 631.195 171.832, 634.133 171.363 C 636.387 171.002, 639.239 171.271, 641.028 172.012 C 643.780 173.152, 644.317 173.050, 646.524 170.978 C 647.869 169.714, 649.272 167.065, 649.642 165.090 C 650.011 163.116, 650.844 160.150, 651.491 158.500 C 652.282 156.483, 652.612 148.621, 652.498 134.500 C 652.352 116.355, 652.587 112.684, 654.224 107.500 C 655.266 104.200, 656.934 94.935, 657.931 86.911 C 659.297 75.917, 660.423 70.808, 662.502 66.176 C 664.019 62.795, 665.874 59.519, 666.625 58.896 C 667.663 58.035, 668.629 58.182, 670.659 59.512 C 672.126 60.474, 674.789 62.722, 676.575 64.508 C 678.361 66.294, 680.526 69.116, 681.385 70.778 C 682.245 72.441, 687.484 78.008, 693.028 83.151 C 698.572 88.293, 703.954 92.893, 704.988 93.373 C 706.022 93.854, 708.874 93.946, 711.326 93.578 C 715.322 92.979, 717.060 91.678, 728.131 80.994 C 734.922 74.440, 740.802 69.402, 741.198 69.798 C 741.595 70.195, 742.351 75.111, 742.879 80.725 C 743.407 86.338, 744.086 91.331, 744.388 91.819 C 744.690 92.308, 745.650 104.259, 746.521 118.377 C 747.809 139.235, 747.882 145.775, 746.915 153.273 C 746.260 158.348, 745.524 167.001, 745.278 172.503 C 744.920 180.529, 745.202 183.578, 746.705 187.924 C 747.829 191.176, 749.667 194.156, 751.304 195.378 L 754.031 197.414 760.588 194.181 C 764.194 192.403, 770.201 188.934, 773.937 186.472 C 777.673 184.011, 781.910 180.817, 783.352 179.375 C 784.794 177.933, 786.445 175.121, 787.021 173.127 C 787.597 171.132, 788.328 167.465, 788.646 164.978 C 789.087 161.532, 788.704 159.348, 787.037 155.803 C 785.202 151.899, 785.046 150.782, 786.068 148.872 C 786.969 147.189, 786.989 146.496, 786.143 146.214 C 785.385 145.962, 784.985 142.245, 784.956 135.167 C 784.932 129.300, 784.524 121.350, 784.050 117.500 C 783.575 113.650, 782.496 106.450, 781.651 101.500 C 780.806 96.550, 779.873 90.700, 779.578 88.500 C 779.283 86.300, 777.909 76.850, 776.525 67.500 C 775.140 58.150, 774.006 48.868, 774.004 46.873 C 774.002 44.878, 773.256 39.928, 772.346 35.873 C 770.996 29.853, 770.008 27.812, 766.964 24.750 C 763.483 21.249, 762.845 21.003, 757.368 21.047 C 754.087 21.073, 749.357 21.931, 746.639 22.992 M 91 27.371 C 87.975 28.033, 83.416 29.807, 80.868 31.313 C 78.321 32.819, 75.058 35.143, 73.618 36.478 C 72.178 37.813, 71 39.770, 71 40.828 C 71 41.887, 67.963 46.531, 64.250 51.150 C 60.538 55.769, 56.035 61.639, 54.245 64.194 C 52.455 66.749, 49.686 71.598, 48.092 74.970 C 46.270 78.822, 44.748 84.336, 43.996 89.801 C 43.339 94.585, 42.533 99.175, 42.206 100 C 41.880 100.825, 41.095 106.450, 40.464 112.500 C 39.702 119.799, 39.599 127.811, 40.160 136.312 C 40.706 144.604, 40.651 149.784, 40.002 150.996 C 39.451 152.026, 39.002 156.611, 39.004 161.184 C 39.006 165.758, 39.674 173.325, 40.490 178 C 41.305 182.675, 42.366 188.404, 42.848 190.732 C 43.330 193.059, 44.316 195.676, 45.040 196.548 C 45.763 197.419, 47.682 198.819, 49.305 199.658 C 50.928 200.497, 54.506 201.852, 57.255 202.668 C 60.005 203.485, 63.322 203.885, 64.627 203.557 C 66.060 203.198, 67 202.225, 67 201.103 C 67 200.081, 66.279 197.519, 65.398 195.410 C 64.008 192.084, 63.858 187.462, 64.265 160.538 C 64.617 137.233, 65.079 128.684, 66.117 126.226 L 67.500 122.953 78 122.646 C 85.918 122.415, 89.975 121.783, 94.500 120.074 C 97.800 118.828, 101.571 117.808, 102.881 117.807 C 104.190 117.806, 105.646 118.411, 106.115 119.152 C 106.585 119.894, 106.979 128.825, 106.991 139 C 107.007 152.617, 107.520 160.441, 108.932 168.644 C 109.987 174.773, 111.736 181.523, 112.819 183.644 C 113.901 185.765, 115.721 188.345, 116.863 189.377 C 118.102 190.498, 120.553 191.297, 122.939 191.360 C 126.300 191.448, 127.568 190.851, 130.867 187.630 C 133.026 185.522, 135.971 181.633, 137.410 178.988 C 138.849 176.344, 140.532 172.002, 141.149 169.340 C 141.767 166.678, 142.243 158.200, 142.209 150.500 C 142.170 142.108, 141.501 133.095, 140.538 128 C 139.654 123.325, 138.481 117.250, 137.932 114.500 C 137.382 111.750, 136.052 105, 134.975 99.500 C 133.899 94, 133.015 86.465, 133.009 82.756 C 133.001 76.925, 132.391 74.658, 128.500 66 C 125.287 58.850, 124 54.683, 124 51.424 C 124 48.029, 123.262 45.790, 121.118 42.680 C 119.533 40.381, 115.596 36.072, 112.368 33.105 C 108.899 29.914, 105.069 27.369, 103 26.878 C 101.075 26.422, 98.825 26.075, 98 26.108 C 97.175 26.141, 94.025 26.709, 91 27.371 M 451.302 29.012 C 450.094 29.499, 448.336 31.383, 447.396 33.198 C 446.075 35.750, 445.385 41.724, 444.356 59.500 C 443.623 72.150, 442.906 83.815, 442.762 85.423 C 442.618 87.031, 441.938 88.531, 441.250 88.756 C 440.563 88.982, 440 88.502, 440 87.690 C 440 86.878, 439.288 85.941, 438.418 85.607 C 437.548 85.273, 434.961 85.016, 432.668 85.036 C 430.376 85.055, 426.025 85.686, 423 86.438 C 419.975 87.189, 415.700 88.466, 413.500 89.275 C 411.300 90.084, 405.185 92.806, 399.911 95.323 C 393.516 98.376, 389.121 101.231, 386.715 103.894 C 384.731 106.090, 382.597 109.825, 381.972 112.193 C 381.348 114.562, 379.762 118.357, 378.448 120.627 C 377.134 122.897, 375.422 126.722, 374.642 129.127 C 373.863 131.532, 372.960 134.963, 372.637 136.750 C 372.184 139.260, 372.400 140, 373.584 140 C 374.569 140, 374.833 140.447, 374.321 141.250 C 373.883 141.938, 373.460 145.425, 373.382 149 C 373.261 154.509, 373.717 156.409, 376.370 161.460 C 378.091 164.738, 381.750 169.713, 384.500 172.516 C 387.250 175.319, 391.580 178.611, 394.122 179.833 C 396.663 181.055, 402.063 182.756, 406.122 183.615 C 410.397 184.519, 415.554 184.942, 418.385 184.619 C 421.072 184.313, 426.022 182.753, 429.385 181.153 C 432.748 179.553, 437.253 176.606, 439.394 174.605 C 441.536 172.603, 444.387 170.690, 445.729 170.353 C 447.220 169.979, 448.679 170.277, 449.479 171.120 C 450.199 171.879, 451.502 174.975, 452.373 178 C 453.245 181.025, 454.847 184.940, 455.933 186.699 C 457.299 188.911, 459.138 190.229, 461.892 190.971 C 464.083 191.561, 467.713 191.750, 469.960 191.390 C 472.206 191.031, 474.356 190.234, 474.737 189.619 C 475.118 189.003, 475.510 184.450, 475.608 179.500 C 475.740 172.858, 475.407 170.070, 474.337 168.859 C 473.459 167.865, 472.883 165.105, 472.877 161.859 C 472.872 158.912, 471.900 152.675, 470.719 148 C 469.052 141.405, 468.568 136.474, 468.558 126 C 468.551 118.575, 468.935 110.788, 469.412 108.695 C 470.005 106.094, 469.895 104.173, 469.065 102.621 C 468.192 100.990, 468.005 96.157, 468.402 85.426 C 468.705 77.217, 469.226 65.250, 469.560 58.834 C 470.099 48.489, 469.939 46.651, 468.148 42.601 C 467.036 40.089, 464.900 36.424, 463.400 34.458 C 461.900 32.491, 459.419 30.234, 457.886 29.441 C 456.353 28.648, 454.739 28.029, 454.300 28.063 C 453.860 28.098, 452.511 28.525, 451.302 29.012 M 86.934 53.750 C 85.135 55.263, 82.655 57.534, 81.422 58.798 C 80.190 60.062, 77.328 65.708, 75.063 71.344 C 72.797 76.981, 70.574 83.930, 70.123 86.788 C 69.518 90.612, 69.653 92.488, 70.635 93.889 C 71.368 94.936, 74.170 96.321, 76.861 96.967 C 81.210 98.010, 82.780 97.859, 91.011 95.603 C 96.103 94.208, 101.159 92.264, 102.246 91.283 C 103.880 89.809, 104.131 88.633, 103.693 84.500 C 103.401 81.750, 101.769 76.246, 100.066 72.270 C 97.636 66.593, 97.104 64.204, 97.592 61.153 C 97.971 58.782, 97.723 56.337, 96.957 54.883 C 96.266 53.572, 95.205 52.169, 94.600 51.765 C 93.995 51.361, 92.759 51.024, 91.853 51.015 C 90.947 51.007, 88.734 52.237, 86.934 53.750 M 198.967 55.811 C 194.824 57.320, 189.424 59.736, 186.967 61.179 C 184.510 62.622, 179.641 66.660, 176.146 70.151 C 172.269 74.025, 168.483 79.092, 166.435 83.148 C 164.184 87.606, 162.538 92.964, 161.438 99.414 C 160.537 104.705, 160.146 109.813, 160.571 110.767 C 160.995 111.720, 161.488 113.772, 161.665 115.327 C 161.843 116.882, 161.548 118.976, 161.010 119.981 C 160.324 121.263, 160.606 124.050, 161.956 129.329 C 163.014 133.465, 164.832 139.062, 165.995 141.767 C 167.158 144.471, 170.223 148.732, 172.805 151.236 C 175.387 153.740, 180.966 158.654, 185.203 162.156 C 191.249 167.154, 194.100 168.801, 198.462 169.815 C 201.518 170.526, 204.494 170.813, 205.076 170.453 C 205.658 170.093, 206.379 170.733, 206.677 171.875 C 207.060 173.339, 208.293 174.119, 210.860 174.520 C 212.862 174.833, 215.560 175.241, 216.856 175.426 C 218.152 175.612, 221.439 175.175, 224.162 174.457 C 226.885 173.739, 229.824 172.561, 230.692 171.840 C 231.561 171.119, 233.336 168.844, 234.636 166.785 C 235.936 164.725, 236.994 162.693, 236.988 162.270 C 236.981 161.846, 235.518 160.561, 233.738 159.414 C 231.957 158.266, 228.431 157.047, 225.903 156.704 C 223.375 156.361, 219.100 155.363, 216.403 154.487 C 213.706 153.611, 209.517 151.911, 207.094 150.710 C 204.671 149.508, 200.556 146.608, 197.950 144.265 C 195.344 141.922, 191.796 137.799, 190.067 135.104 C 188.083 132.012, 186.559 127.955, 185.941 124.115 C 185.402 120.766, 184.453 116.783, 183.833 115.263 C 183.213 113.743, 182.812 109.125, 182.941 105 C 183.115 99.430, 183.717 96.618, 185.280 94.071 C 186.438 92.185, 189.501 88.098, 192.088 84.990 C 194.675 81.881, 199.876 76.909, 203.646 73.940 C 207.416 70.970, 211.725 67.182, 213.222 65.521 C 214.719 63.859, 216.483 61.209, 217.142 59.632 C 217.976 57.635, 218.030 56.268, 217.317 55.132 C 216.635 54.044, 214.661 53.428, 211.397 53.283 C 208.107 53.137, 204.029 53.966, 198.967 55.811 M 561.500 71 C 561.160 71.550, 559.596 72, 558.024 72 C 556.452 72, 553.216 72.842, 550.833 73.872 C 548.450 74.902, 542.755 78.026, 538.178 80.816 C 533.600 83.605, 527.709 86.600, 525.087 87.471 C 522.464 88.342, 519.346 89.960, 518.159 91.067 C 516.972 92.173, 516 93.555, 516 94.138 C 516 94.721, 514.313 97.932, 512.250 101.273 C 509.040 106.472, 508.398 108.509, 507.793 115.423 C 507.404 119.865, 506.802 125.750, 506.454 128.500 C 505.967 132.359, 506.291 134.583, 507.876 138.250 C 509.005 140.863, 510.395 143, 510.964 143 C 511.534 143, 512 142.550, 512 142 C 512 141.450, 512.502 141, 513.117 141 C 513.733 141, 514.004 141.878, 513.721 142.960 C 513.439 144.038, 513.743 146.400, 514.396 148.210 C 515.050 150.019, 516.856 153.953, 518.411 156.951 C 519.966 159.949, 522.187 163.686, 523.347 165.256 C 524.508 166.826, 527.492 169.332, 529.979 170.826 C 532.465 172.319, 536.975 174.613, 540 175.923 C 543.025 177.234, 548.345 179.616, 551.822 181.218 C 557.218 183.704, 559.344 184.124, 566.322 184.083 C 570.820 184.057, 578.100 183.303, 582.500 182.409 C 586.900 181.514, 591.400 180.573, 592.500 180.317 C 593.600 180.061, 596.295 178.629, 598.489 177.135 C 600.683 175.641, 604.168 172.187, 606.234 169.459 C 608.974 165.842, 609.991 163.515, 609.995 160.861 C 609.998 158.807, 609.196 156.229, 608.156 154.944 C 606.983 153.495, 605.226 152.667, 603.328 152.667 C 601.603 152.667, 598.369 154.026, 595.661 155.889 C 593.085 157.661, 589.422 159.761, 587.521 160.556 C 585.620 161.350, 581.687 161.979, 578.782 161.953 C 575.678 161.926, 571.233 160.973, 568 159.642 C 564.975 158.396, 562.500 156.993, 562.500 156.525 C 562.500 156.056, 564.581 154.959, 567.125 154.086 C 569.669 153.214, 572.369 152.045, 573.125 151.490 C 573.881 150.934, 576.075 149.629, 578 148.589 C 579.925 147.549, 583.434 145.144, 585.798 143.243 C 588.161 141.343, 591.839 137.473, 593.970 134.644 C 596.102 131.815, 598.971 127.250, 600.346 124.500 C 601.721 121.750, 603.583 116.350, 604.483 112.500 C 605.471 108.275, 605.877 103.836, 605.507 101.303 C 605.169 98.995, 603.551 94.420, 601.910 91.137 C 600.270 87.853, 597.172 83.581, 595.026 81.642 C 592.880 79.704, 589.184 77.589, 586.812 76.943 C 584.440 76.296, 580.700 75.090, 578.500 74.262 C 576.300 73.434, 572.025 72.153, 569 71.414 C 565.975 70.676, 563.189 70.055, 562.809 70.036 C 562.429 70.016, 561.840 70.450, 561.500 71 M 865.500 71 C 865.160 71.550, 863.671 72, 862.191 72.001 C 860.711 72.001, 856.800 73.283, 853.500 74.850 C 850.200 76.416, 844.596 79.580, 841.047 81.880 C 837.498 84.180, 832.220 86.752, 829.319 87.596 C 826.119 88.526, 823.248 90.140, 822.022 91.699 C 820.910 93.113, 820 94.627, 820 95.063 C 820 95.500, 818.401 98.542, 816.446 101.823 C 814.491 105.105, 812.884 108.849, 812.875 110.145 C 812.866 111.440, 812.356 116.695, 811.741 121.823 C 810.878 129.026, 810.906 132.200, 811.865 135.784 C 812.547 138.335, 813.591 141.007, 814.185 141.723 C 814.937 142.630, 815.640 142.714, 816.499 142 C 817.433 141.226, 817.865 141.953, 818.272 144.990 C 818.568 147.197, 820.479 152.265, 822.518 156.252 C 824.557 160.238, 827.529 164.875, 829.121 166.557 C 830.714 168.238, 834.826 171.043, 838.259 172.790 C 841.691 174.538, 848.548 177.798, 853.495 180.034 C 861.640 183.716, 863.247 184.098, 870.495 184.074 C 874.898 184.060, 882.314 183.365, 886.975 182.531 C 891.637 181.697, 897.841 179.845, 900.762 178.416 C 904.392 176.640, 907.325 174.159, 910.027 170.580 C 912.202 167.700, 914.259 163.955, 914.598 162.258 C 915.018 160.160, 914.632 158.186, 913.392 156.087 C 912.377 154.368, 910.667 152.947, 909.534 152.882 C 908.415 152.816, 906.825 152.856, 906 152.969 C 905.175 153.082, 902.250 154.642, 899.500 156.434 C 896.750 158.227, 892.970 160.212, 891.101 160.847 C 889.231 161.481, 885.748 162, 883.361 162 C 880.974 162, 876.094 160.828, 872.516 159.396 C 868.938 157.964, 866.260 156.389, 866.564 155.896 C 866.869 155.403, 867.879 154.978, 868.809 154.952 C 869.739 154.926, 871.950 154.138, 873.722 153.202 C 875.495 152.266, 879.322 150.283, 882.228 148.796 C 885.134 147.309, 890.117 143.527, 893.302 140.393 C 896.487 137.259, 900.805 131.725, 902.897 128.097 C 904.990 124.469, 907.184 119.700, 907.772 117.500 C 908.360 115.300, 909.333 111.630, 909.933 109.344 C 910.780 106.118, 910.702 103.955, 909.586 99.670 C 908.796 96.635, 906.949 91.980, 905.482 89.326 C 904.015 86.672, 901.667 83.283, 900.264 81.795 C 898.580 80.010, 894.446 78.009, 888.106 75.909 C 882.823 74.159, 876.025 72.130, 873 71.399 C 869.975 70.669, 867.189 70.055, 866.809 70.036 C 866.429 70.016, 865.840 70.450, 865.500 71 M 314.500 79.997 C 310.650 80.447, 305.250 81.786, 302.500 82.972 C 299.750 84.159, 296.600 85.514, 295.500 85.985 C 294.400 86.456, 290.812 88.022, 287.527 89.467 C 284.242 90.912, 280.756 92.816, 279.781 93.699 C 278.342 95.001, 278.241 95.586, 279.247 96.797 C 280.260 98.018, 280.137 98.493, 278.572 99.395 C 277.520 100.003, 274.900 102.046, 272.752 103.937 C 270.603 105.827, 267.776 109.483, 266.469 112.062 C 265.162 114.640, 263.160 120.294, 262.019 124.625 C 260.878 128.956, 259.283 135.650, 258.473 139.500 C 257.664 143.350, 257.011 149.200, 257.023 152.500 C 257.036 156.340, 257.774 160.120, 259.071 163 C 260.205 165.519, 263.788 170.031, 267.209 173.250 C 270.571 176.412, 273.812 179, 274.411 179.001 C 275.010 179.001, 278.353 180.351, 281.840 182.001 C 285.327 183.650, 289.638 185, 291.420 185 C 293.203 185, 296.875 183.827, 299.581 182.393 C 302.286 180.959, 306.649 178.664, 309.275 177.291 C 312.813 175.443, 314.388 175.077, 315.355 175.880 C 316.330 176.689, 317.528 176.317, 320.080 174.412 L 323.500 171.861 326 175.117 C 327.375 176.907, 331.151 181.204, 334.390 184.667 C 338.536 189.097, 341.252 191.144, 343.562 191.578 C 345.367 191.916, 348.185 191.899, 349.825 191.539 C 351.824 191.099, 353.193 189.948, 353.983 188.041 C 354.956 185.691, 354.792 183.888, 353.036 177.628 C 351.698 172.858, 350.504 164.219, 349.811 154.279 C 349.206 145.600, 348.718 136.700, 348.727 134.500 C 348.735 132.300, 349.700 127.415, 350.871 123.645 C 352.275 119.125, 352.992 114.185, 352.978 109.145 C 352.961 103.265, 352.528 100.944, 351.106 99.094 C 349.879 97.498, 348.686 96.906, 347.565 97.337 C 346.634 97.694, 344.552 97.302, 342.937 96.467 C 340.348 95.129, 340 94.416, 340 90.450 C 340 86.524, 339.668 85.824, 337.399 84.962 C 335.969 84.418, 334.056 83.094, 333.149 82.020 C 332.052 80.721, 329.828 79.919, 326.500 79.623 C 323.750 79.379, 318.350 79.547, 314.500 79.997 M 562.500 92.678 C 560.300 92.866, 556.475 93.547, 554 94.192 C 551.525 94.836, 548.296 96.241, 546.823 97.315 C 545.351 98.389, 542.818 101.120, 541.194 103.384 C 539.570 105.648, 537.315 109.151, 536.184 111.168 C 535.052 113.186, 533.466 117.059, 532.659 119.775 C 531.313 124.308, 531.344 125.052, 533.032 128.822 C 534.314 131.686, 535.679 133.132, 537.540 133.600 C 539.009 133.968, 543.132 133.997, 546.703 133.663 C 550.274 133.330, 555.514 131.995, 558.348 130.696 C 561.182 129.398, 565.864 125.919, 568.753 122.967 C 572.201 119.443, 574.718 115.698, 576.076 112.068 C 577.326 108.727, 577.897 105.541, 577.518 104.019 C 577.173 102.634, 576.572 99.935, 576.182 98.023 C 575.721 95.758, 574.607 94.107, 572.987 93.288 C 571.619 92.596, 569.600 92.098, 568.500 92.183 C 567.400 92.267, 564.700 92.490, 562.500 92.678 M 864.845 93.040 C 861.184 93.467, 856.523 94.607, 854.488 95.573 C 852.452 96.539, 848.996 99.594, 846.807 102.363 C 844.619 105.131, 841.444 110.120, 839.751 113.448 C 837.654 117.570, 836.645 121.042, 836.586 124.335 C 836.512 128.502, 836.907 129.521, 839.444 131.704 C 842.152 134.035, 842.972 134.201, 849.664 133.771 C 855.180 133.417, 858.507 132.533, 863.417 130.115 C 867.382 128.163, 871.520 125.098, 874.086 122.213 C 876.391 119.621, 879.157 115.539, 880.233 113.142 C 881.624 110.043, 882.024 107.586, 881.619 104.642 C 881.305 102.364, 880.925 99.163, 880.774 97.530 C 880.590 95.530, 879.683 94.146, 878 93.294 C 876.625 92.599, 874.600 92.082, 873.500 92.146 C 872.400 92.210, 868.505 92.612, 864.845 93.040 M 443 104.878 C 443 107.115, 442.362 109.285, 441.491 110.008 C 440.661 110.697, 436.948 111.678, 433.241 112.188 C 429.533 112.698, 424.310 113.287, 421.633 113.496 C 418.956 113.705, 414.931 114.611, 412.689 115.508 C 410.447 116.405, 406.863 118.524, 404.725 120.218 C 402.587 121.911, 399.837 124.917, 398.613 126.898 C 397.389 128.879, 395.626 132.914, 394.694 135.865 C 393.762 138.815, 393 143.683, 393 146.681 C 393 149.679, 393.463 152.997, 394.030 154.055 C 394.596 155.114, 396.402 156.674, 398.043 157.522 C 399.685 158.371, 403.057 159.445, 405.537 159.908 C 408.726 160.504, 411.231 160.342, 414.096 159.355 C 416.324 158.587, 420.251 156.888, 422.824 155.579 C 425.396 154.269, 428.468 152.141, 429.651 150.849 C 430.835 149.557, 432.990 146.475, 434.442 144 C 435.893 141.525, 438.133 137.247, 439.420 134.493 C 440.707 131.739, 442.489 126.640, 443.380 123.162 C 444.271 119.684, 445 113.275, 445 108.919 C 445 104.306, 444.582 101, 444 101 C 443.450 101, 443 102.745, 443 104.878 M 310.417 109.381 C 308.171 109.996, 304.510 111.710, 302.282 113.188 C 300.054 114.666, 295.816 118.428, 292.865 121.548 C 289.914 124.668, 286.318 129.245, 284.873 131.718 C 283.379 134.277, 281.698 139.418, 280.975 143.643 C 279.956 149.604, 279.952 151.904, 280.956 155.286 C 281.644 157.604, 282.665 160.063, 283.226 160.750 C 283.786 161.438, 285.308 162, 286.608 162 C 287.908 162, 291.065 161.440, 293.625 160.755 C 297.588 159.695, 299.379 158.256, 305.695 151.051 C 309.774 146.398, 315.013 139.195, 317.338 135.045 C 319.663 130.895, 322.350 125.430, 323.308 122.899 C 324.267 120.368, 324.767 117.556, 324.419 116.649 C 324.071 115.742, 323.405 115, 322.938 115 C 322.472 115, 321.795 113.425, 321.434 111.500 C 320.842 108.343, 320.470 108.013, 317.639 108.131 C 315.912 108.202, 312.662 108.765, 310.417 109.381" stroke="none" fill="#f987af" fill-rule="evenodd"/><path d="" stroke="none" fill="#9b7960" fill-rule="evenodd"/></svg>